<?xml version="1.0" encoding="UTF-8" standalone="no"?>
<!-- Created with Inkscape (http://www.inkscape.org/) -->

<svg
   width="206.40488mm"
   height="205.26718mm"
   viewBox="0 0 206.40488 205.26718"
   version="1.1"
   id="svg1"
   xml:space="preserve"
   xmlns:xlink="http://www.w3.org/1999/xlink"
   xmlns="http://www.w3.org/2000/svg"
   xmlns:svg="http://www.w3.org/2000/svg">
   <defs id="defs1">
      <filter id='glowEffect'>
            <feGaussianBlur in="SourceAlpha" stdDeviation="2" result="blur">
                <animate attributeName="stdDeviation" values="2;0;2" dur="3s" repeatCount="indefinite" calcMode="linear"/>
            </feGaussianBlur>
            <feFlood floodColor="#0400ff" floodOpacity='0.5' result="color"/>
            <feComposite in="color" in2="blur" operator="in" result="glow"/>
            <feMerge>
                <feMergeNode in="glow"/>
                <feMergeNode in="SourceGraphic"/>
            </feMerge>
        </filter>
     <clipPath
       clipPathUnits="userSpaceOnUse"
       id="clipPath1408">
       <path
         id="path1409"
         style="font-variation-settings:normal;opacity:1;vector-effect:none;fill:none;fill-opacity:1;stroke:#000000;stroke-width:0.967031;stroke-linecap:butt;stroke-linejoin:miter;stroke-miterlimit:0;stroke-dasharray:1.93406, 0.967031;stroke-dashoffset:0;stroke-opacity:1;-inkscape-stroke:none;stop-color:#000000;stop-opacity:1"
         d="M 86.433483,40.206848 V 171.67118 H 217.89781 V 40.206848 Z m 88.234407,43.96269 h 5.3e-4 5.3e-4 c 0.0499,0.0013 0.1039,0.01625 0.15813,0.04858 0.0389,0.01529 0.0791,0.03806 0.11989,0.06976 0.0512,0.03972 0.106,0.07461 0.154,0.118337 0.0171,0.01794 0.0336,0.03651 0.0496,0.0553 0.01,-0.01011 0.0225,-0.01624 0.0367,-0.01704 0.0123,-7.94e-4 0.0254,0.0027 0.0382,0.01085 0.0102,-0.0086 0.0239,-0.01389 0.0393,-0.01394 0.0191,-6.9e-5 0.0415,0.0075 0.0636,0.02635 0.008,0.0068 0.0149,0.01344 0.0238,0.01913 h 5.3e-4 v 5.3e-4 h 5.3e-4 v 5.29e-4 h 5.2e-4 l 5.3e-4,5.29e-4 h 5.3e-4 l 5.3e-4,5.29e-4 5.3e-4,5.29e-4 c 0.01,0.0065 0.0199,0.01312 0.0279,0.0217 0.013,0.0094 0.0244,0.01918 0.0346,0.02791 l 5.3e-4,5.29e-4 c 0.0123,0.0095 0.0233,0.02003 0.0351,0.02997 0.0172,0.01294 0.0325,0.02655 0.0481,0.04082 0.012,0.01283 0.025,0.02469 0.0362,0.03824 0.0155,0.01487 0.0308,0.03027 0.0465,0.04496 0.009,0.0105 0.0174,0.02016 0.0274,0.02946 0.014,0.01474 0.0279,0.02971 0.0419,0.04444 0.0125,0.01389 0.0252,0.02746 0.0377,0.04134 0.005,0.005 0.0105,0.0098 0.0155,0.01498 0.008,0.0088 0.0148,0.01958 0.0238,0.02739 0.0137,0.01349 0.0261,0.02808 0.0387,0.04237 0.0114,0.01188 0.022,0.02413 0.032,0.03721 0.0129,0.01162 0.0247,0.0245 0.0382,0.03514 0.0136,0.0104 0.0277,0.02085 0.0393,0.03359 7.9e-4,0.0013 0.0192,0.01569 0.0222,0.0186 0.005,0.0036 0.008,0.0053 0.009,0.0062 v 5.29e-4 h 5.3e-4 v 5.29e-4 c 0.0145,0.01093 0.0268,0.02416 0.0377,0.03876 0.0222,0.02713 0.0422,0.05633 0.0532,0.08992 0.006,0.01717 0.007,0.03251 0.006,0.04599 2e-5,0.0016 1.1e-4,0.003 0,0.0047 -5.3e-4,0.0063 -0.002,0.01244 -0.005,0.0181 -0.001,0.0024 -0.002,0.0049 -0.004,0.0072 l -5.3e-4,5.3e-4 c -0.003,0.0043 -0.006,0.0084 -0.009,0.01188 -0.0134,0.01397 -0.0324,0.02032 -0.0517,0.01654 -0.0126,-0.0011 -0.0262,-0.0052 -0.0408,-0.01291 0.0639,0.08141 0.12195,0.167082 0.17053,0.2589 0.0175,0.03316 0.0307,0.065 0.0398,0.0956 0.038,0.05996 0.0698,0.123928 0.1049,0.185518 0.22974,0.402984 -0.23139,0.664647 -0.45992,0.260967 -0.0377,-0.0666 -0.0704,-0.136002 -0.11575,-0.197922 -0.0278,-0.04096 -0.0564,-0.08143 -0.0842,-0.122473 -0.008,-0.01132 -0.0137,-0.02368 -0.0217,-0.03462 -0.0536,-0.07174 -0.11787,-0.135745 -0.18087,-0.198954 -0.26727,-0.278945 -0.5446,-0.548537 -0.80718,-0.831993 -0.22639,-0.244364 -0.0876,-0.495128 0.12557,-0.491442 z m 0.21911,45.584302 h 0.001 5.3e-4 v 5.3e-4 c 0.0317,-0.002 0.0588,0.009 0.076,0.0284 0.0444,0.003 0.0787,0.0398 0.0765,0.0894 0.0137,-0.006 0.027,-0.009 0.0398,-0.01 0.0704,-0.004 0.11916,0.0698 0.0646,0.15038 0.0474,0.0333 0.052,0.11633 -0.031,0.17415 -0.0121,0.008 -0.0245,0.0166 -0.0367,0.0248 0.006,0.008 0.006,0.0211 -0.004,0.0351 -0.006,0.008 -0.0152,0.0142 -0.0222,0.0212 -0.008,0.007 -0.0168,0.0142 -0.0248,0.0212 l -0.0119,0.0119 c -0.002,0.004 -0.005,0.009 -0.0103,0.0129 -0.003,0.002 -0.006,0.005 -0.008,0.007 -0.004,0.005 -0.009,0.009 -0.0139,0.0134 -0.008,0.009 -0.0173,0.0173 -0.0253,0.0253 -0.009,0.008 -0.0175,0.0174 -0.0264,0.0264 -0.007,0.006 -0.0121,0.0131 -0.0181,0.0191 -0.005,0.005 -0.0115,0.01 -0.0165,0.015 -0.007,0.006 -0.0147,0.0116 -0.0217,0.0176 -0.005,0.004 -0.009,0.007 -0.0134,0.0103 l -0.006,0.009 c -0.0107,0.0126 -0.0237,0.0229 -0.0367,0.0331 -0.007,0.006 -0.0155,0.008 -0.0217,0.008 -0.0117,0.0101 -0.023,0.0191 -0.0341,0.0274 -0.0186,0.0112 -0.0155,0.0102 -0.0227,0.0139 -0.004,0.003 -0.009,0.006 -0.0145,0.009 -0.002,0.002 -0.004,0.005 -0.006,0.007 -0.003,0.003 -0.005,0.006 -0.007,0.009 -0.002,0.002 -0.004,0.005 -0.005,0.007 l -5.3e-4,5.3e-4 h -5.3e-4 c -0.003,0.005 -0.007,0.009 -0.0114,0.014 -0.003,0.004 -0.007,0.007 -0.0114,0.0114 -0.008,0.009 -0.0163,0.0184 -0.0243,0.0263 -0.006,0.005 -0.0109,0.0118 -0.0165,0.0176 v 5.3e-4 l -5.3e-4,5.3e-4 -5.3e-4,0.001 -5.3e-4,5.3e-4 v 5.3e-4 5.2e-4 l -0.005,0.005 h -5.3e-4 l -0.0114,0.0109 c -0.006,0.007 -0.0132,0.0126 -0.0191,0.0186 -0.004,0.005 -0.009,0.0102 -0.015,0.014 -0.002,0.002 -0.005,0.004 -0.008,0.006 l -0.004,0.004 v 5.3e-4 5.3e-4 5.3e-4 l -5.3e-4,5.3e-4 -0.001,5.3e-4 -5.3e-4,5.3e-4 -5.3e-4,0.001 -0.0217,0.0186 c -0.006,0.006 -0.0131,0.01 -0.0191,0.0155 -0.009,0.007 -0.0178,0.0146 -0.0269,0.0207 -0.007,0.004 -0.0126,0.01 -0.0186,0.015 -0.007,0.005 -0.0132,0.009 -0.0191,0.0145 -0.004,0.003 -0.007,0.007 -0.0119,0.0103 -0.002,0.001 -0.006,0.004 -0.008,0.006 -0.004,0.003 -0.007,0.005 -0.0103,0.007 -0.0243,0.0165 -0.0456,0.002 -0.0429,-0.0165 -0.0148,0.01 -0.0301,0.003 -0.0341,-0.0103 -0.0218,0.0181 -0.0499,-0.003 -0.0315,-0.0336 0.007,-0.0116 0.0142,-0.0228 0.0217,-0.0341 h -5.3e-4 -5.3e-4 c -0.001,0.002 -0.002,0.004 -0.004,0.006 l -5.3e-4,-0.001 c -0.0208,0.0354 -0.0608,0.0143 -0.0403,-0.0212 0.002,-0.004 0.004,-0.006 0.006,-0.0103 l -0.008,0.005 c -0.0149,0.0108 -0.007,0.005 -0.0186,0.015 -0.0851,0.0672 -0.16444,0.0246 -0.17105,-0.0408 -0.0653,0.0557 -0.13127,0.036 -0.15813,-0.003 -0.0373,0.0129 -0.0698,0.007 -0.0925,-0.0103 -0.0126,0.0141 -0.025,0.0284 -0.0372,0.0429 -0.10563,0.12544 -0.24797,0.004 -0.14211,-0.12093 0.0267,-0.0317 0.0536,-0.0633 0.0837,-0.092 0.0148,-0.0133 0.0275,-0.0271 0.0429,-0.0398 0.14496,-0.11985 0.31287,-0.2076 0.47129,-0.30748 0.17782,-0.11012 0.35514,-0.22263 0.52141,-0.34985 0.0281,-0.0215 0.0555,-0.0321 0.0801,-0.0341 z m -0.4594,1.01027 -5.3e-4,5.3e-4 -5.3e-4,5.3e-4 v 5.3e-4 h 5.3e-4 5.3e-4 v -5.3e-4 h 5.3e-4 v -5.3e-4 z m 8.60567,7.51996 0.001,5.3e-4 v 5.3e-4 5.3e-4 l -5.3e-4,0.001 c 0.0327,-7.9e-4 0.0543,0.0263 0.0408,0.0579 l 5.3e-4,5.2e-4 v 5.3e-4 h 5.3e-4 5.3e-4 l 5.3e-4,-5.3e-4 h 5.3e-4 5.2e-4 5.3e-4 5.3e-4 c 0.009,-0.006 0.0184,-0.009 0.0269,-0.01 0.0277,-0.003 0.0497,0.0188 0.045,0.0486 0.0136,0.009 0.0217,0.0275 0.0165,0.0517 l 0.003,0.006 c 0.005,-0.002 0.0102,-0.002 0.015,-0.002 0.0173,-1e-4 0.031,0.009 0.0382,0.0238 0.004,-0.002 0.009,-0.005 0.0129,-0.007 0.0133,-0.008 0.0257,-0.0113 0.0367,-0.0114 0.0244,-5.3e-4 0.0417,0.0149 0.045,0.0346 0.0106,-0.008 0.0206,-0.0174 0.03,-0.0274 l 5.3e-4,-5.3e-4 h 5.3e-4 v 5.3e-4 5.3e-4 l -5.3e-4,5.3e-4 -5.3e-4,5.3e-4 c -0.006,0.008 -0.008,0.013 -0.009,0.0165 v 5.3e-4 5.3e-4 5.3e-4 5.3e-4 5.3e-4 c 8e-5,2.6e-4 2e-4,10e-4 5.3e-4,0.002 v 5.3e-4 5.3e-4 l 5.3e-4,5.2e-4 5.2e-4,5.3e-4 0.001,5.3e-4 h 5.3e-4 c 0.0151,0.005 0.076,-0.0221 0.0946,-0.014 l 5.3e-4,5.3e-4 h 5.3e-4 l 5.3e-4,5.3e-4 5.3e-4,5.3e-4 5.3e-4,5.3e-4 5.3e-4,5.3e-4 v 5.3e-4 l 5.3e-4,5.3e-4 v 5.3e-4 0.001 5.3e-4 h 5.3e-4 v 5.3e-4 5.3e-4 c 5.2e-4,0.004 -0.001,0.012 -0.005,0.0202 -0.004,0.006 -0.006,0.0126 -0.0103,0.0186 -0.007,0.0109 -0.0246,0.0281 -0.0336,0.0351 -0.023,0.0198 -0.0564,0.0441 -0.0796,0.0615 -0.004,0.003 -0.009,0.006 -0.0134,0.0103 0.002,0.005 0.003,0.0107 0.003,0.0165 -2.6e-4,0.008 -0.006,0.0134 -0.0134,0.0176 0.008,0.0153 0.0115,0.0281 0.0171,0.0465 0.001,0.008 0.004,0.0163 0.004,0.0243 8e-4,0.0262 -0.004,0.0443 -0.0258,0.0631 -0.0227,0.0195 -0.0531,0.0175 -0.0801,0.0145 -0.0365,-0.003 -0.0543,-0.0249 -0.0558,-0.0465 -0.0169,0.0129 -0.0284,0.0174 -0.0367,0.008 -0.004,0.003 -0.007,0.006 -0.0114,0.009 0.0209,0.0168 0.0239,0.0523 -0.0129,0.0806 -0.0236,0.0181 -0.0478,0.0359 -0.0708,0.0548 -0.0462,0.0376 -0.10203,0.0891 -0.14573,0.12971 -0.0146,0.0135 -0.0642,0.0605 -0.0858,0.0801 -0.006,0.006 -0.0121,0.011 -0.0181,0.016 -0.0177,0.0155 -0.0353,0.0207 -0.0496,0.0186 -0.0117,0.0156 -0.0233,0.0306 -0.0346,0.0465 -0.0181,0.0254 -0.0401,0.0337 -0.0584,0.0305 -0.003,0.003 -0.005,0.006 -0.008,0.009 -0.0455,0.0552 -0.0992,0.0151 -0.0801,-0.0403 -0.0304,0.001 -0.0574,-0.0319 -0.0372,-0.0796 0.002,-0.006 0.005,-0.011 0.007,-0.0165 -0.0344,0.0452 -0.0868,0.0251 -0.0858,-0.0191 -0.0103,-0.006 -0.0178,-0.0154 -0.0207,-0.0279 -0.0385,0.006 -0.0725,-0.0368 -0.0367,-0.0822 -0.0174,-0.0186 -0.0153,-0.0544 0.0217,-0.0811 0.0102,-0.007 0.0205,-0.0134 0.0305,-0.0217 0.007,-0.007 0.0142,-0.01 0.0222,-0.015 0.006,-0.003 0.0114,-0.005 0.0155,-0.006 h 5.3e-4 c 5.3e-4,-9e-5 0.002,-2e-4 0.004,-5.3e-4 h 0.001 v 5.3e-4 l 5.2e-4,5.3e-4 h 5.3e-4 5.3e-4 l 5.3e-4,5.3e-4 0.001,5.3e-4 h 5.3e-4 v 5.3e-4 l 0.004,0.004 v 5.3e-4 h 5.3e-4 v 5.3e-4 l 5.3e-4,5.3e-4 v 5.3e-4 l 0.001,5.3e-4 0.004,-0.004 c 0.009,-0.0102 0.0182,-0.0194 0.0284,-0.0284 l 0.006,-0.005 c 0.003,-0.003 0.006,-0.007 0.008,-0.0104 0.008,-0.0139 0.0172,-0.0273 0.0274,-0.0398 0.006,-0.007 0.0101,-0.0178 0.016,-0.0248 l 0.001,5.3e-4 c 5.2e-4,-0.001 0.002,-0.004 0.005,-0.008 0.005,-0.008 0.01,-0.0145 0.0155,-0.0217 0.009,-0.01 0.0177,-0.0194 0.0279,-0.0274 0.008,-0.007 0.01,-0.004 0.016,-0.0124 h 5.3e-4 l 0.001,-0.001 h 5.3e-4 v -5.3e-4 h 5.3e-4 v -5.3e-4 -0.001 l 0.001,-5.3e-4 v -5.3e-4 h 5.3e-4 v -5.3e-4 l 5.3e-4,-0.001 0.007,-0.007 0.015,-0.015 c 0.003,-0.006 0.007,-0.0125 0.0124,-0.0186 l 0.0186,-0.0186 c 0.01,-0.0101 0.0189,-0.0199 0.03,-0.0279 0.0185,-0.0153 0.0384,-0.0289 0.0553,-0.046 0.0134,-0.0139 0.0288,-0.0278 0.0403,-0.0434 0.002,-0.002 0.004,-0.005 0.006,-0.007 l 5.3e-4,-5.3e-4 h 5.3e-4 l 5.3e-4,-5.3e-4 v -0.001 l 0.001,-5.3e-4 5.3e-4,-5.3e-4 h 5.2e-4 v -5.2e-4 -10e-4 -5.3e-4 -5.3e-4 h 0.001 v -5.3e-4 c 0.008,-0.0163 0.0182,-0.032 0.0305,-0.046 0.0111,-0.0116 0.023,-0.022 0.0341,-0.0336 0.0135,-0.0114 0.0258,-0.0236 0.0398,-0.0346 0.0213,-0.016 0.0442,-0.0316 0.0651,-0.0486 h 5.3e-4 c 0.015,-0.012 0.03,-0.0177 0.0434,-0.0186 z" /></clipPath><clipPath
       clipPathUnits="userSpaceOnUse"
       id="clipPath1411">
       <path
         id="path1412"
         style="font-variation-settings:normal;opacity:1;vector-effect:none;fill:none;fill-opacity:1;stroke:#000000;stroke-width:0.967031;stroke-linecap:butt;stroke-linejoin:miter;stroke-miterlimit:0;stroke-dasharray:1.93406, 0.967031;stroke-dashoffset:0;stroke-opacity:1;-inkscape-stroke:none;stop-color:#000000;stop-opacity:1"
         d="M 97.779046,51.498664 V 160.73282 H 207.0132 V 51.498664 Z m 76.888844,32.670874 h 5.3e-4 5.3e-4 c 0.0499,0.0013 0.1039,0.01625 0.15813,0.04858 0.0389,0.01529 0.0791,0.03806 0.11989,0.06976 0.0512,0.03972 0.106,0.07461 0.154,0.118337 0.0171,0.01794 0.0336,0.03651 0.0496,0.0553 0.01,-0.01011 0.0225,-0.01624 0.0367,-0.01704 0.0123,-7.94e-4 0.0254,0.0027 0.0382,0.01085 0.0102,-0.0086 0.0239,-0.01389 0.0393,-0.01394 0.0191,-6.9e-5 0.0415,0.0075 0.0636,0.02635 0.008,0.0068 0.0149,0.01344 0.0238,0.01913 h 5.3e-4 v 5.3e-4 h 5.3e-4 v 5.29e-4 h 5.2e-4 l 5.3e-4,5.29e-4 h 5.3e-4 l 5.3e-4,5.29e-4 5.3e-4,5.29e-4 c 0.01,0.0065 0.0199,0.01312 0.0279,0.0217 0.013,0.0094 0.0244,0.01918 0.0346,0.02791 l 5.3e-4,5.29e-4 c 0.0123,0.0095 0.0233,0.02003 0.0351,0.02997 0.0172,0.01294 0.0325,0.02655 0.0481,0.04082 0.012,0.01283 0.025,0.02469 0.0362,0.03824 0.0155,0.01487 0.0308,0.03027 0.0465,0.04496 0.009,0.0105 0.0174,0.02016 0.0274,0.02946 0.014,0.01474 0.0279,0.02971 0.0419,0.04444 0.0125,0.01389 0.0252,0.02746 0.0377,0.04134 0.005,0.005 0.0105,0.0098 0.0155,0.01498 0.008,0.0088 0.0148,0.01958 0.0238,0.02739 0.0137,0.01349 0.0261,0.02808 0.0387,0.04237 0.0114,0.01188 0.022,0.02413 0.032,0.03721 0.0129,0.01162 0.0247,0.0245 0.0382,0.03514 0.0136,0.0104 0.0277,0.02085 0.0393,0.03359 7.9e-4,0.0013 0.0192,0.01569 0.0222,0.0186 0.005,0.0036 0.008,0.0053 0.009,0.0062 v 5.29e-4 h 5.3e-4 v 5.29e-4 c 0.0145,0.01093 0.0268,0.02416 0.0377,0.03876 0.0222,0.02713 0.0422,0.05633 0.0532,0.08992 0.006,0.01717 0.007,0.03251 0.006,0.04599 2e-5,0.0016 1.1e-4,0.003 0,0.0047 -5.3e-4,0.0063 -0.002,0.01244 -0.005,0.0181 -0.001,0.0024 -0.002,0.0049 -0.004,0.0072 l -5.3e-4,5.3e-4 c -0.003,0.0043 -0.006,0.0084 -0.009,0.01188 -0.0134,0.01397 -0.0324,0.02032 -0.0517,0.01654 -0.0126,-0.0011 -0.0262,-0.0052 -0.0408,-0.01291 0.0639,0.08141 0.12195,0.167082 0.17053,0.2589 0.0175,0.03316 0.0307,0.065 0.0398,0.0956 0.038,0.05996 0.0698,0.123928 0.1049,0.185518 0.22974,0.402984 -0.23139,0.664647 -0.45992,0.260967 -0.0377,-0.0666 -0.0704,-0.136002 -0.11575,-0.197922 -0.0278,-0.04096 -0.0564,-0.08143 -0.0842,-0.122473 -0.008,-0.01132 -0.0137,-0.02368 -0.0217,-0.03462 -0.0536,-0.07174 -0.11787,-0.135745 -0.18087,-0.198954 -0.26727,-0.278945 -0.5446,-0.548537 -0.80718,-0.831993 -0.22639,-0.244364 -0.0876,-0.495128 0.12557,-0.491442 z m 0.21911,45.584302 h 0.001 5.3e-4 v 5.3e-4 c 0.0317,-0.002 0.0588,0.009 0.076,0.0284 0.0444,0.003 0.0787,0.0398 0.0765,0.0894 0.0137,-0.006 0.027,-0.009 0.0398,-0.01 0.0704,-0.004 0.11916,0.0698 0.0646,0.15038 0.0474,0.0333 0.052,0.11633 -0.031,0.17415 -0.0121,0.008 -0.0245,0.0166 -0.0367,0.0248 0.006,0.008 0.006,0.0211 -0.004,0.0351 -0.006,0.008 -0.0152,0.0142 -0.0222,0.0212 -0.008,0.007 -0.0168,0.0142 -0.0248,0.0212 l -0.0119,0.0119 c -0.002,0.004 -0.005,0.009 -0.0103,0.0129 -0.003,0.002 -0.006,0.005 -0.008,0.007 -0.004,0.005 -0.009,0.009 -0.0139,0.0134 -0.008,0.009 -0.0173,0.0173 -0.0253,0.0253 -0.009,0.008 -0.0175,0.0174 -0.0264,0.0264 -0.007,0.006 -0.0121,0.0131 -0.0181,0.0191 -0.005,0.005 -0.0115,0.01 -0.0165,0.015 -0.007,0.006 -0.0147,0.0116 -0.0217,0.0176 -0.005,0.004 -0.009,0.007 -0.0134,0.0103 l -0.006,0.009 c -0.0107,0.0126 -0.0237,0.0229 -0.0367,0.0331 -0.007,0.006 -0.0155,0.008 -0.0217,0.008 -0.0117,0.0101 -0.023,0.0191 -0.0341,0.0274 -0.0186,0.0112 -0.0155,0.0102 -0.0227,0.0139 -0.004,0.003 -0.009,0.006 -0.0145,0.009 -0.002,0.002 -0.004,0.005 -0.006,0.007 -0.003,0.003 -0.005,0.006 -0.007,0.009 -0.002,0.002 -0.004,0.005 -0.005,0.007 l -5.3e-4,5.3e-4 h -5.3e-4 c -0.003,0.005 -0.007,0.009 -0.0114,0.014 -0.003,0.004 -0.007,0.007 -0.0114,0.0114 -0.008,0.009 -0.0163,0.0184 -0.0243,0.0263 -0.006,0.005 -0.0109,0.0118 -0.0165,0.0176 v 5.3e-4 l -5.3e-4,5.3e-4 -5.3e-4,0.001 -5.3e-4,5.3e-4 v 5.3e-4 5.2e-4 l -0.005,0.005 h -5.3e-4 l -0.0114,0.0109 c -0.006,0.007 -0.0132,0.0126 -0.0191,0.0186 -0.004,0.005 -0.009,0.0102 -0.015,0.014 -0.002,0.002 -0.005,0.004 -0.008,0.006 l -0.004,0.004 v 5.3e-4 5.3e-4 5.3e-4 l -5.3e-4,5.3e-4 -0.001,5.3e-4 -5.3e-4,5.3e-4 -5.3e-4,0.001 -0.0217,0.0186 c -0.006,0.006 -0.0131,0.01 -0.0191,0.0155 -0.009,0.007 -0.0178,0.0146 -0.0269,0.0207 -0.007,0.004 -0.0126,0.01 -0.0186,0.015 -0.007,0.005 -0.0132,0.009 -0.0191,0.0145 -0.004,0.003 -0.007,0.007 -0.0119,0.0103 -0.002,0.001 -0.006,0.004 -0.008,0.006 -0.004,0.003 -0.007,0.005 -0.0103,0.007 -0.0243,0.0165 -0.0456,0.002 -0.0429,-0.0165 -0.0148,0.01 -0.0301,0.003 -0.0341,-0.0103 -0.0218,0.0181 -0.0499,-0.003 -0.0315,-0.0336 0.007,-0.0116 0.0142,-0.0228 0.0217,-0.0341 h -5.3e-4 -5.3e-4 c -0.001,0.002 -0.002,0.004 -0.004,0.006 l -5.3e-4,-0.001 c -0.0208,0.0354 -0.0608,0.0143 -0.0403,-0.0212 0.002,-0.004 0.004,-0.006 0.006,-0.0103 l -0.008,0.005 c -0.0149,0.0108 -0.007,0.005 -0.0186,0.015 -0.0851,0.0672 -0.16444,0.0246 -0.17105,-0.0408 -0.0653,0.0557 -0.13127,0.036 -0.15813,-0.003 -0.0373,0.0129 -0.0698,0.007 -0.0925,-0.0103 -0.0126,0.0141 -0.025,0.0284 -0.0372,0.0429 -0.10563,0.12544 -0.24797,0.004 -0.14211,-0.12093 0.0267,-0.0317 0.0536,-0.0633 0.0837,-0.092 0.0148,-0.0133 0.0275,-0.0271 0.0429,-0.0398 0.14496,-0.11985 0.31287,-0.2076 0.47129,-0.30748 0.17782,-0.11012 0.35514,-0.22263 0.52141,-0.34985 0.0281,-0.0215 0.0555,-0.0321 0.0801,-0.0341 z m -0.4594,1.01027 -5.3e-4,5.3e-4 -5.3e-4,5.3e-4 v 5.3e-4 h 5.3e-4 5.3e-4 v -5.3e-4 h 5.3e-4 v -5.3e-4 z m 8.60567,7.51996 0.001,5.3e-4 v 5.3e-4 5.3e-4 l -5.3e-4,0.001 c 0.0327,-7.9e-4 0.0543,0.0263 0.0408,0.0579 l 5.3e-4,5.2e-4 v 5.3e-4 h 5.3e-4 5.3e-4 l 5.3e-4,-5.3e-4 h 5.3e-4 5.2e-4 5.3e-4 5.3e-4 c 0.009,-0.006 0.0184,-0.009 0.0269,-0.01 0.0277,-0.003 0.0497,0.0188 0.045,0.0486 0.0136,0.009 0.0217,0.0275 0.0165,0.0517 l 0.003,0.006 c 0.005,-0.002 0.0102,-0.002 0.015,-0.002 0.0173,-1e-4 0.031,0.009 0.0382,0.0238 0.004,-0.002 0.009,-0.005 0.0129,-0.007 0.0133,-0.008 0.0257,-0.0113 0.0367,-0.0114 0.0244,-5.3e-4 0.0417,0.0149 0.045,0.0346 0.0106,-0.008 0.0206,-0.0174 0.03,-0.0274 l 5.3e-4,-5.3e-4 h 5.3e-4 v 5.3e-4 5.3e-4 l -5.3e-4,5.3e-4 -5.3e-4,5.3e-4 c -0.006,0.008 -0.008,0.013 -0.009,0.0165 v 5.3e-4 5.3e-4 5.3e-4 5.3e-4 5.3e-4 c 8e-5,2.6e-4 2e-4,10e-4 5.3e-4,0.002 v 5.3e-4 5.3e-4 l 5.3e-4,5.2e-4 5.2e-4,5.3e-4 0.001,5.3e-4 h 5.3e-4 c 0.0151,0.005 0.076,-0.0221 0.0946,-0.014 l 5.3e-4,5.3e-4 h 5.3e-4 l 5.3e-4,5.3e-4 5.3e-4,5.3e-4 5.3e-4,5.3e-4 5.3e-4,5.3e-4 v 5.3e-4 l 5.3e-4,5.3e-4 v 5.3e-4 0.001 5.3e-4 h 5.3e-4 v 5.3e-4 5.3e-4 c 5.2e-4,0.004 -0.001,0.012 -0.005,0.0202 -0.004,0.006 -0.006,0.0126 -0.0103,0.0186 -0.007,0.0109 -0.0246,0.0281 -0.0336,0.0351 -0.023,0.0198 -0.0564,0.0441 -0.0796,0.0615 -0.004,0.003 -0.009,0.006 -0.0134,0.0103 0.002,0.005 0.003,0.0107 0.003,0.0165 -2.6e-4,0.008 -0.006,0.0134 -0.0134,0.0176 0.008,0.0153 0.0115,0.0281 0.0171,0.0465 0.001,0.008 0.004,0.0163 0.004,0.0243 8e-4,0.0262 -0.004,0.0443 -0.0258,0.0631 -0.0227,0.0195 -0.0531,0.0175 -0.0801,0.0145 -0.0365,-0.003 -0.0543,-0.0249 -0.0558,-0.0465 -0.0169,0.0129 -0.0284,0.0174 -0.0367,0.008 -0.004,0.003 -0.007,0.006 -0.0114,0.009 0.0209,0.0168 0.0239,0.0523 -0.0129,0.0806 -0.0236,0.0181 -0.0478,0.0359 -0.0708,0.0548 -0.0462,0.0376 -0.10203,0.0891 -0.14573,0.12971 -0.0146,0.0135 -0.0642,0.0605 -0.0858,0.0801 -0.006,0.006 -0.0121,0.011 -0.0181,0.016 -0.0177,0.0155 -0.0353,0.0207 -0.0496,0.0186 -0.0117,0.0156 -0.0233,0.0306 -0.0346,0.0465 -0.0181,0.0254 -0.0401,0.0337 -0.0584,0.0305 -0.003,0.003 -0.005,0.006 -0.008,0.009 -0.0455,0.0552 -0.0992,0.0151 -0.0801,-0.0403 -0.0304,0.001 -0.0574,-0.0319 -0.0372,-0.0796 0.002,-0.006 0.005,-0.011 0.007,-0.0165 -0.0344,0.0452 -0.0868,0.0251 -0.0858,-0.0191 -0.0103,-0.006 -0.0178,-0.0154 -0.0207,-0.0279 -0.0385,0.006 -0.0725,-0.0368 -0.0367,-0.0822 -0.0174,-0.0186 -0.0153,-0.0544 0.0217,-0.0811 0.0102,-0.007 0.0205,-0.0134 0.0305,-0.0217 0.007,-0.007 0.0142,-0.01 0.0222,-0.015 0.006,-0.003 0.0114,-0.005 0.0155,-0.006 h 5.3e-4 c 5.3e-4,-9e-5 0.002,-2e-4 0.004,-5.3e-4 h 0.001 v 5.3e-4 l 5.2e-4,5.3e-4 h 5.3e-4 5.3e-4 l 5.3e-4,5.3e-4 0.001,5.3e-4 h 5.3e-4 v 5.3e-4 l 0.004,0.004 v 5.3e-4 h 5.3e-4 v 5.3e-4 l 5.3e-4,5.3e-4 v 5.3e-4 l 0.001,5.3e-4 0.004,-0.004 c 0.009,-0.0102 0.0182,-0.0194 0.0284,-0.0284 l 0.006,-0.005 c 0.003,-0.003 0.006,-0.007 0.008,-0.0104 0.008,-0.0139 0.0172,-0.0273 0.0274,-0.0398 0.006,-0.007 0.0101,-0.0178 0.016,-0.0248 l 0.001,5.3e-4 c 5.2e-4,-0.001 0.002,-0.004 0.005,-0.008 0.005,-0.008 0.01,-0.0145 0.0155,-0.0217 0.009,-0.01 0.0177,-0.0194 0.0279,-0.0274 0.008,-0.007 0.01,-0.004 0.016,-0.0124 h 5.3e-4 l 0.001,-0.001 h 5.3e-4 v -5.3e-4 h 5.3e-4 v -5.3e-4 -0.001 l 0.001,-5.3e-4 v -5.3e-4 h 5.3e-4 v -5.3e-4 l 5.3e-4,-0.001 0.007,-0.007 0.015,-0.015 c 0.003,-0.006 0.007,-0.0125 0.0124,-0.0186 l 0.0186,-0.0186 c 0.01,-0.0101 0.0189,-0.0199 0.03,-0.0279 0.0185,-0.0153 0.0384,-0.0289 0.0553,-0.046 0.0134,-0.0139 0.0288,-0.0278 0.0403,-0.0434 0.002,-0.002 0.004,-0.005 0.006,-0.007 l 5.3e-4,-5.3e-4 h 5.3e-4 l 5.3e-4,-5.3e-4 v -0.001 l 0.001,-5.3e-4 5.3e-4,-5.3e-4 h 5.2e-4 v -5.2e-4 -10e-4 -5.3e-4 -5.3e-4 h 0.001 v -5.3e-4 c 0.008,-0.0163 0.0182,-0.032 0.0305,-0.046 0.0111,-0.0116 0.023,-0.022 0.0341,-0.0336 0.0135,-0.0114 0.0258,-0.0236 0.0398,-0.0346 0.0213,-0.016 0.0442,-0.0316 0.0651,-0.0486 h 5.3e-4 c 0.015,-0.012 0.03,-0.0177 0.0434,-0.0186 z" /></clipPath>

    <path
      d="
        M 212.046394 106.02731
        A 59.765629 59.765629 0 1 0 92.515135 106.02731
        A 59.765629 59.765629 0 1 0 212.046394 106.02731
      "
      transform="matrix(1.0805035,0,0,1.0805035,-14.101945,0.06982984)"
      style="fill:none;stroke:#0400ff;stroke-width:0.818;stroke-linejoin:bevel;stroke-miterlimit:0;stroke-dasharray:none;stroke-opacity:1"
      id="midCirclePath"
    />

</defs>
  <g
     id="layer1"
     transform="translate(-46.129077,-11.484006)">
     <circle
      filter='url(#glowEffect)'
       style="fill:none;stroke:#0400ff;stroke-width:0.816548;stroke-linejoin:bevel;stroke-miterlimit:0;stroke-dasharray:none;stroke-opacity:1"
       id="path1-82"
       cx="152.16541"
       cy="105.9389"
       r="65.323883"
       clip-path="url(#clipPath1408)"
       transform="matrix(1.0805035,0,0,1.0805035,-14.101945,0.06982984)" />
       <circle
      filter='url(#glowEffect)'
       style="fill:none;stroke:#0400ff;stroke-width:0.819517;stroke-linejoin:bevel;stroke-miterlimit:0;stroke-dasharray:none;stroke-opacity:1"
       id="path1-8-4"
       cx="152.39612"
       cy="106.11572"
       r="54.207375"
       clip-path="url(#clipPath1411)"
       transform="matrix(1.0805035,0,0,1.0805035,-14.101945,0.06982984)" />
       <text
        filter='url(#glowEffect)'
       xml:space="preserve"
       shift=""
       style="font-style:normal;font-variant:normal;font-weight:normal;font-stretch:normal;font-size:6.35px;line-height:0;font-family:PMingLiU-ExtB;-inkscape-font-specification:PMingLiU-ExtB;text-align:start;writing-mode:lr-tb;direction:ltr;text-anchor:start;fill:none;fill-opacity:1;stroke:#0400ff;stroke-width:0.238;stroke-linecap:round;stroke-linejoin:bevel;stroke-miterlimit:0;stroke-dasharray:none;stroke-dashoffset:0;stroke-opacity:1"
       id="text1874"
       transform="matrix(1.0483722,0,0,1.0483722,-7.1506729,-5.3151931)">
       <textPath
         xlink:href="#midCirclePath"
         start-offset="60%"
         id="textPath1874">
         <tspan
           id="tspan1874"
           dy='-0.7'
           style="stroke:#0400ff;stroke-width:0.238;stroke-dasharray:none;stroke-opacity:1">
           ECCE⋅OMNIA⋅MEA⋅OPERA⋅QVAE⋅NEGOTIVM⋅TVVM⋅IN⋅SOMNIVM⋅QVOD⋅PER⋅VITAM⋅TVAM⋅CONCEPISTI⋅CONVERTENT ⋅ 
           </tspan></textPath></text></g></svg>
