<?xml version="1.0" encoding="UTF-8" standalone="no"?>
<!-- Created with Inkscape (http://www.inkscape.org/) -->

<svg
   width="125.15922mm"
   height="123.96601mm"
   viewBox="0 0 125.15922 123.96601"
   version="1.1"
   id="svg1"
   xml:space="preserve"
   xmlns="http://www.w3.org/2000/svg"
   xmlns:svg="http://www.w3.org/2000/svg"><defs
     id="defs1" /><g
     id="layer1"
     transform="matrix(6.9031466,0,0,6.9031466,-980.06306,-732.77281)"><path
       style="fill:none;stroke:#0400ff;stroke-width:0.180642;stroke-linecap:round;stroke-linejoin:round;stroke-miterlimit:0;stroke-dasharray:none"
       d="m 149.39848,111.34959 5.47999,2.4513 -2.35828,5.14715 -5.48001,-2.4513 z"
       id="rect704-3-9-2-1" /><path
       style="fill:none;stroke:#0400ff;stroke-width:0.180642;stroke-linecap:round;stroke-linejoin:round;stroke-miterlimit:0;stroke-dasharray:none"
       d="m 149.73914,112.2145 4.29121,1.91952 -1.8467,4.03059 -4.29122,-1.91954 z"
       id="rect704-3-9-2-1-2" /><path
       style="fill:#0400ff;fill-opacity:1;stroke:#0400ff;stroke-width:0.0143121;stroke-linecap:round;stroke-linejoin:bevel;stroke-miterlimit:0;stroke-dasharray:none;stroke-dashoffset:0;stroke-opacity:1"
       id="path1881-3"
       d="m 153.62951,116.19209 -0.15508,0.34533 -0.22152,-0.30695 z" /><path
       style="fill:none;fill-opacity:1;stroke:#0400ff;stroke-width:0.058179;stroke-linecap:round;stroke-linejoin:bevel;stroke-miterlimit:0;stroke-dasharray:none;stroke-dashoffset:0;stroke-opacity:1"
       id="path1882-9"
       d="m 153.69797,116.09761 -0.25039,0.55403 -0.35461,-0.49386 z" /><path
       style="fill:#0400ff;fill-opacity:1;stroke:#0400ff;stroke-width:0.0143121;stroke-linecap:round;stroke-linejoin:bevel;stroke-miterlimit:0;stroke-dasharray:none;stroke-dashoffset:0;stroke-opacity:1"
       id="path1881-3-7"
       d="m 149.97411,117.72081 -0.34649,-0.15246 0.30526,-0.22381 z" /><path
       style="fill:none;fill-opacity:1;stroke:#0400ff;stroke-width:0.058179;stroke-linecap:round;stroke-linejoin:bevel;stroke-miterlimit:0;stroke-dasharray:none;stroke-dashoffset:0;stroke-opacity:1"
       id="path1882-9-6"
       d="m 150.0691,117.78857 -0.5559,-0.24623 0.49118,-0.3583 z" /><path
       style="fill:#0400ff;fill-opacity:1;stroke:#0400ff;stroke-width:0.0143121;stroke-linecap:round;stroke-linejoin:bevel;stroke-miterlimit:0;stroke-dasharray:none;stroke-dashoffset:0;stroke-opacity:1"
       id="path1881-3-79"
       d="m 148.18092,114.2925 0.15594,-0.34494 0.22076,0.30748 z" /><path
       style="fill:none;fill-opacity:1;stroke:#0400ff;stroke-width:0.058179;stroke-linecap:round;stroke-linejoin:bevel;stroke-miterlimit:0;stroke-dasharray:none;stroke-dashoffset:0;stroke-opacity:1"
       id="path1882-9-5"
       d="m 148.11223,114.38681 0.25176,-0.5534 0.35339,0.49474 z" /><path
       style="fill:#0400ff;fill-opacity:1;stroke:#0400ff;stroke-width:0.0143121;stroke-linecap:round;stroke-linejoin:bevel;stroke-miterlimit:0;stroke-dasharray:none;stroke-dashoffset:0;stroke-opacity:1"
       id="path1881-3-3"
       d="m 151.97504,112.61793 0.34594,0.1537 -0.30607,0.22275 z" /><path
       style="fill:none;fill-opacity:1;stroke:#0400ff;stroke-width:0.058179;stroke-linecap:round;stroke-linejoin:bevel;stroke-miterlimit:0;stroke-dasharray:none;stroke-dashoffset:0;stroke-opacity:1"
       id="path1882-9-3"
       d="m 151.8803,112.54982 0.55499,0.24825 -0.49246,0.35653 z" /><path
       id="rect1"
       style="fill:none;stroke:#0400ff;stroke-width:0.0263648;stroke-linecap:round;stroke-linejoin:round;stroke-miterlimit:0;stroke-dasharray:none"
       d="m 149.30718,111.7186 c 0,0 0.15754,0.007 0.22282,-0.0166 0.0648,-0.0237 0.16744,-0.12601 0.16744,-0.12601 0,0 -0.0137,0.14181 0.0104,0.20206 0.0245,0.0612 0.13534,0.16239 0.13534,0.16239 0,0 -0.15494,-0.0166 -0.22087,0.007 -0.0652,0.0239 -0.16939,0.13518 -0.16939,0.13518 0,0 0.0186,-0.14539 -0.009,-0.21121 -0.0255,-0.0621 -0.13721,-0.15324 -0.13721,-0.15324 z" /><circle
       style="fill:none;stroke:#0400ff;stroke-width:0.0625802;stroke-linecap:round;stroke-linejoin:round;stroke-miterlimit:0;stroke-dasharray:none;stroke-opacity:1"
       id="path1"
       cx="149.57106"
       cy="111.7932"
       r="0.35004383" /><circle
       style="fill:none;stroke:#0400ff;stroke-width:0.0625802;stroke-linecap:round;stroke-linejoin:round;stroke-miterlimit:0;stroke-dasharray:none;stroke-opacity:1"
       id="path1-6"
       cx="154.44102"
       cy="113.95679"
       r="0.35004383" /><circle
       style="fill:none;stroke:#0400ff;stroke-width:0.0625802;stroke-linecap:round;stroke-linejoin:round;stroke-miterlimit:0;stroke-dasharray:none;stroke-opacity:1"
       id="path1-8"
       cx="152.35016"
       cy="118.54001"
       r="0.35004383" /><circle
       style="fill:none;stroke:#0400ff;stroke-width:0.0625802;stroke-linecap:round;stroke-linejoin:round;stroke-miterlimit:0;stroke-dasharray:none;stroke-opacity:1"
       id="path1-4"
       cx="147.49098"
       cy="116.35142"
       r="0.35004383" /><path
       id="rect1-7"
       style="fill:none;stroke:#0400ff;stroke-width:0.0263648;stroke-linecap:round;stroke-linejoin:round;stroke-miterlimit:0;stroke-dasharray:none"
       d="m 149.29617,111.91532 c 0,0 0.1253,-0.0958 0.15999,-0.15599 0.0344,-0.0598 0.0472,-0.20416 0.0472,-0.20416 0,0 0.0807,0.11743 0.13785,0.14811 0.0581,0.0312 0.20806,0.0374 0.20806,0.0374 0,0 -0.1294,0.0868 -0.16437,0.14772 -0.0346,0.0602 -0.0429,0.21244 -0.0429,0.21244 0,0 -0.0792,-0.12333 -0.1423,-0.15631 -0.0595,-0.0312 -0.20361,-0.0292 -0.20361,-0.0292 z" /><path
       id="rect1-4"
       style="fill:none;stroke:#0400ff;stroke-width:0.0263648;stroke-linecap:round;stroke-linejoin:round;stroke-miterlimit:0;stroke-dasharray:none"
       d="m 154.15268,113.86951 c 0,0 0.15754,0.007 0.22282,-0.0166 0.0648,-0.0237 0.16744,-0.12601 0.16744,-0.12601 0,0 -0.0137,0.14181 0.0104,0.20206 0.0245,0.0612 0.13534,0.16239 0.13534,0.16239 0,0 -0.15494,-0.0166 -0.22087,0.007 -0.0652,0.0239 -0.16939,0.13518 -0.16939,0.13518 0,0 0.0186,-0.14539 -0.009,-0.21121 -0.0255,-0.0621 -0.13721,-0.15324 -0.13721,-0.15324 z" /><path
       id="rect1-7-9"
       style="fill:none;stroke:#0400ff;stroke-width:0.0263648;stroke-linecap:round;stroke-linejoin:round;stroke-miterlimit:0;stroke-dasharray:none"
       d="m 154.14167,114.06623 c 0,0 0.1253,-0.0958 0.15999,-0.15599 0.0344,-0.0598 0.0472,-0.20416 0.0472,-0.20416 0,0 0.0807,0.11743 0.13785,0.14811 0.0581,0.0312 0.20806,0.0374 0.20806,0.0374 0,0 -0.1294,0.0868 -0.16437,0.14772 -0.0346,0.0602 -0.0429,0.21244 -0.0429,0.21244 0,0 -0.0792,-0.12333 -0.1423,-0.15631 -0.0595,-0.0312 -0.20361,-0.0292 -0.20361,-0.0292 z" /><path
       id="rect1-9"
       style="fill:none;stroke:#0400ff;stroke-width:0.0263648;stroke-linecap:round;stroke-linejoin:round;stroke-miterlimit:0;stroke-dasharray:none"
       d="m 152.09437,118.40633 c 0,0 0.15754,0.007 0.22282,-0.0166 0.0648,-0.0237 0.16744,-0.12601 0.16744,-0.12601 0,0 -0.0137,0.14181 0.0104,0.20206 0.0245,0.0612 0.13534,0.16239 0.13534,0.16239 0,0 -0.15494,-0.0166 -0.22087,0.007 -0.0652,0.0239 -0.16939,0.13518 -0.16939,0.13518 0,0 0.0186,-0.14539 -0.009,-0.21121 -0.0255,-0.0621 -0.13721,-0.15324 -0.13721,-0.15324 z" /><path
       id="rect1-7-96"
       style="fill:none;stroke:#0400ff;stroke-width:0.0263648;stroke-linecap:round;stroke-linejoin:round;stroke-miterlimit:0;stroke-dasharray:none"
       d="m 152.08336,118.60305 c 0,0 0.1253,-0.0958 0.15999,-0.15599 0.0344,-0.0598 0.0472,-0.20416 0.0472,-0.20416 0,0 0.0807,0.11743 0.13785,0.14811 0.0581,0.0312 0.20806,0.0374 0.20806,0.0374 0,0 -0.1294,0.0868 -0.16437,0.14772 -0.0346,0.0602 -0.0429,0.21244 -0.0429,0.21244 0,0 -0.0792,-0.12333 -0.1423,-0.15631 -0.0595,-0.0312 -0.20361,-0.0292 -0.20361,-0.0292 z" /><path
       id="rect1-49"
       style="fill:none;stroke:#0400ff;stroke-width:0.0263648;stroke-linecap:round;stroke-linejoin:round;stroke-miterlimit:0;stroke-dasharray:none"
       d="m 147.23537,116.23233 c 0,0 0.15754,0.007 0.22282,-0.0166 0.0648,-0.0237 0.16744,-0.12601 0.16744,-0.12601 0,0 -0.0137,0.14181 0.0104,0.20206 0.0245,0.0612 0.13534,0.16239 0.13534,0.16239 0,0 -0.15494,-0.0166 -0.22087,0.007 -0.0652,0.0239 -0.16939,0.13518 -0.16939,0.13518 0,0 0.0186,-0.14539 -0.009,-0.21121 -0.0255,-0.0621 -0.13721,-0.15324 -0.13721,-0.15324 z" /><path
       id="rect1-7-92"
       style="fill:none;stroke:#0400ff;stroke-width:0.0263648;stroke-linecap:round;stroke-linejoin:round;stroke-miterlimit:0;stroke-dasharray:none"
       d="m 147.22436,116.42905 c 0,0 0.1253,-0.0958 0.15999,-0.15599 0.0344,-0.0598 0.0472,-0.20416 0.0472,-0.20416 0,0 0.0807,0.11743 0.13785,0.14811 0.0581,0.0312 0.20806,0.0374 0.20806,0.0374 0,0 -0.1294,0.0868 -0.16437,0.14772 -0.0346,0.0602 -0.0429,0.21244 -0.0429,0.21244 0,0 -0.0792,-0.12333 -0.1423,-0.15631 -0.0595,-0.0312 -0.20361,-0.0292 -0.20361,-0.0292 z" /><text
       xml:space="preserve"
       style="font-size:0.25552px;line-height:0;font-family:PMingLiU-ExtB;-inkscape-font-specification:PMingLiU-ExtB;text-align:start;writing-mode:lr-tb;direction:ltr;text-anchor:start;fill:#0400ff;fill-opacity:1;stroke:#0400ff;stroke-width:0;stroke-linecap:round;stroke-linejoin:round;stroke-miterlimit:0;stroke-dasharray:none;stroke-opacity:1"
       x="183.27228"
       y="38.893356"
       id="text3"
       transform="matrix(0.90853173,0.4194559,-0.42039562,0.90658648,0,0)"><tspan
         id="tspan3"
         style="font-size:0.25552px;stroke-width:0;stroke-dasharray:none"
         x="183.27228"
         y="38.893356">I II III IV V VI</tspan></text><text
       xml:space="preserve"
       style="font-size:0.201436px;line-height:0;font-family:PMingLiU-ExtB;-inkscape-font-specification:PMingLiU-ExtB;text-align:start;writing-mode:lr-tb;direction:ltr;text-anchor:start;fill:#0400ff;fill-opacity:1;stroke:#0400ff;stroke-width:0;stroke-linecap:round;stroke-linejoin:round;stroke-miterlimit:0;stroke-dasharray:none;stroke-opacity:1"
       x="185.41122"
       y="40.217632"
       id="text4"
       transform="rotate(24.356299)"><tspan
         id="tspan4"
         style="font-size:0.201436px;stroke-width:0"
         x="185.41122"
         y="40.217632">VII VIII IX X XII XIII</tspan></text><text
       xml:space="preserve"
       style="font-size:0.25552px;line-height:0;font-family:PMingLiU-ExtB;-inkscape-font-specification:PMingLiU-ExtB;text-align:start;writing-mode:lr-tb;direction:ltr;text-anchor:start;fill:#0400ff;fill-opacity:1;stroke:#0400ff;stroke-width:0;stroke-linecap:round;stroke-linejoin:round;stroke-miterlimit:0;stroke-dasharray:none;stroke-opacity:1"
       x="38.69685"
       y="-188.10919"
       id="text3-3"
       transform="matrix(-0.42099511,0.90781952,-0.90587267,-0.42193153,0,0)"><tspan
         id="tspan3-7"
         style="font-size:0.25552px;stroke-width:0;stroke-dasharray:none"
         x="38.69685"
         y="-188.10919">I II III IV V VI</tspan></text><text
       xml:space="preserve"
       style="font-size:0.194248px;line-height:0;font-family:PMingLiU-ExtB;-inkscape-font-specification:PMingLiU-ExtB;text-align:start;writing-mode:lr-tb;direction:ltr;text-anchor:start;fill:#0400ff;fill-opacity:1;stroke:#0400ff;stroke-width:0;stroke-linecap:round;stroke-linejoin:round;stroke-miterlimit:0;stroke-dasharray:none;stroke-opacity:1"
       x="42.91618"
       y="-187.62303"
       id="text4-8"
       transform="rotate(114.38011)"><tspan
         id="tspan4-8"
         style="font-size:0.194248px;stroke-width:0"
         x="42.91618"
         y="-187.62303">VII VIII IX X XII XIII</tspan></text><text
       xml:space="preserve"
       style="font-size:0.25552px;line-height:0;font-family:PMingLiU-ExtB;-inkscape-font-specification:PMingLiU-ExtB;text-align:start;writing-mode:lr-tb;direction:ltr;text-anchor:start;fill:#0400ff;fill-opacity:1;stroke:#0400ff;stroke-width:0;stroke-linecap:round;stroke-linejoin:round;stroke-miterlimit:0;stroke-dasharray:none;stroke-opacity:1"
       x="-187.76593"
       y="-41.592644"
       id="text3-3-9"
       transform="matrix(-0.90364269,-0.42988724,0.43080451,-0.90168675,0,0)"><tspan
         id="tspan3-7-8"
         style="font-size:0.25552px;stroke-width:0;stroke-dasharray:none"
         x="-187.76593"
         y="-41.592644">I II III IV V VI</tspan></text><text
       xml:space="preserve"
       style="font-size:0.213453px;line-height:0;font-family:PMingLiU-ExtB;-inkscape-font-specification:PMingLiU-ExtB;text-align:start;writing-mode:lr-tb;direction:ltr;text-anchor:start;fill:#0400ff;fill-opacity:1;stroke:#0400ff;stroke-width:0;stroke-linecap:round;stroke-linejoin:round;stroke-miterlimit:0;stroke-dasharray:none;stroke-opacity:1"
       x="-184.81764"
       y="-44.533222"
       id="text4-82"
       transform="rotate(-155.457)"><tspan
         id="tspan4-89"
         style="font-size:0.213453px;stroke-width:0"
         x="-184.81764"
         y="-44.533222">VII VIII IX X XII XIII</tspan></text><text
       xml:space="preserve"
       style="font-size:0.25552px;line-height:0;font-family:PMingLiU-ExtB;-inkscape-font-specification:PMingLiU-ExtB;text-align:start;writing-mode:lr-tb;direction:ltr;text-anchor:start;fill:#0400ff;fill-opacity:1;stroke:#0400ff;stroke-width:0;stroke-linecap:round;stroke-linejoin:round;stroke-miterlimit:0;stroke-dasharray:none;stroke-opacity:1"
       x="-40.64827"
       y="183.40645"
       id="text3-5"
       transform="matrix(0.43104718,-0.90308996,0.90113285,0.43196193,0,0)"><tspan
         id="tspan3-8"
         style="font-size:0.25552px;stroke-width:0;stroke-dasharray:none"
         x="-40.64827"
         y="183.40645">I II III IV V VI</tspan></text><text
       xml:space="preserve"
       style="font-size:0.211456px;line-height:0;font-family:PMingLiU-ExtB;-inkscape-font-specification:PMingLiU-ExtB;text-align:start;writing-mode:lr-tb;direction:ltr;text-anchor:start;fill:#0400ff;fill-opacity:1;stroke:#0400ff;stroke-width:0;stroke-linecap:round;stroke-linejoin:round;stroke-miterlimit:0;stroke-dasharray:none;stroke-opacity:1"
       x="-42.301525"
       y="182.47665"
       id="text4-8-2"
       transform="rotate(-65.5852)"><tspan
         id="tspan4-8-5"
         style="font-size:0.211456px;stroke-width:0"
         x="-42.301525"
         y="182.47665">VII VIII IX X XII XIII</tspan></text><path
       id="path225"
       style="fill:none;stroke:#ffffff;stroke-width:0.0195958;stroke-linecap:round;stroke-linejoin:round;stroke-miterlimit:0;stroke-opacity:0"
       d="m 151.31248,115.0538 a 0.45571813,0.45571813 0 0 1 -0.45571,0.45572 0.45571813,0.45571813 0 0 1 -0.45572,-0.45572 0.45571813,0.45571813 0 0 1 0.45572,-0.45572 0.45571813,0.45571813 0 0 1 0.45571,0.45572 z" /></g></svg>
