<?xml version="1.0" encoding="UTF-8" standalone="no"?>
<!-- Created with Inkscape (http://www.inkscape.org/) -->

<svg
   version="1.1"
   id="svg1"
   width="528.93982"
   height="625.71686"
   viewBox="0 0 528.93982 625.71686"
   sodipodi:docname="favicon-512x512.png"
   inkscape:export-filename="frontendmentor.svg"
   inkscape:export-xdpi="96"
   inkscape:export-ydpi="96"
   xml:space="preserve"
   xmlns:inkscape="http://www.inkscape.org/namespaces/inkscape"
   xmlns:sodipodi="http://sodipodi.sourceforge.net/DTD/sodipodi-0.dtd"
   xmlns="http://www.w3.org/2000/svg"
   xmlns:svg="http://www.w3.org/2000/svg"><defs
     id="defs1" /><sodipodi:namedview
     id="namedview1"
     pagecolor="#ffffff"
     bordercolor="#000000"
     borderopacity="0.25"
     inkscape:showpageshadow="2"
     inkscape:pageopacity="0.0"
     inkscape:pagecheckerboard="0"
     inkscape:deskcolor="#d1d1d1"><inkscape:page
       x="0"
       y="0"
       width="528.93982"
       height="625.71686"
       id="page2"
       margin="0"
       bleed="0" /></sodipodi:namedview><g
     inkscape:groupmode="layer"
     inkscape:label="Image"
     id="g1"
     transform="translate(-80.266945,-29.275158)"><path
       style="fill:#122330;stroke:none;stroke-width:1.34566"
       d="m 130.04028,31.10375 c -6.47112,0.852188 -12.79724,1.480884 -18.84363,4.186815 C 81.38077,48.634053 80.361579,76.903175 80.361579,105.2583 v 50.53523 338.32909 87.36599 c 0,16.42771 -1.492838,34.16954 7.379625,48.82218 14.597326,24.10708 38.815176,23.98283 63.712306,23.98283 h 54.8179 243.25432 77.94418 c 12.67374,0 26.91494,1.80972 39.40032,-0.39722 53.41406,-9.44153 41.11343,-77.72266 41.11343,-116.94732 V 229.45507 146.37171 c 0,-12.73851 2.19496,-28.68594 -4.20136,-40.25687 -4.03019,-7.290654 -11.38325,-13.015025 -17.21189,-18.843662 L 552.30924,53.010016 c -7.10729,-7.107302 -14.21909,-16.611982 -23.98282,-20.086825 -12.61958,-4.49124 -28.78296,-2.182936 -41.96994,-2.182936 h -82.2268 -182.44075 c -29.81515,0 -62.10643,-3.526857 -91.64865,0.363495 m 455.67361,102.42002 v 347.75091 93.36171 c 0,13.55525 2.84823,30.61511 -4.17956,42.82645 -7.28733,12.66236 -20.44504,13.70448 -33.50774,13.70448 h -70.2354 -273.23285 -60.81359 c -13.00702,0 -25.37201,0.116 -34.2235,-11.1686 -8.08559,-10.30816 -6.03338,-24.56332 -6.03338,-36.79705 V 502.68792 184.91555 96.693018 c 0,-13.999385 0.0491,-29.265516 13.70447,-37.385282 10.11336,-6.013635 22.13555,-4.584653 33.40465,-4.584653 h 63.38317 212.41928 61.67011 c 7.52422,0 19.52002,-2.285836 26.50216,0.635806 5.28169,2.21007 3.47636,11.055723 3.47636,15.638247 0,13.505129 -3.46172,32.670274 1.33833,45.396064 9.29714,24.6482 45.83555,17.13057 66.32749,17.13057 m -42.82646,-54.817883 29.122,29.978543 -27.89403,-0.51684 -2.08383,-7.19193 0.85586,-22.269773 M 283.35904,110.79536 c -19.7522,3.56268 -26.82374,31.15314 -8.56529,41.67516 5.152,2.96898 22.38343,5.10995 22.38343,12.74745 0,15.43776 -23.46238,-0.31786 -28.10092,3.08778 -18.94,13.90568 14.12693,22.13896 24.56113,20.63533 18.85959,-2.71775 33.1371,-28.52268 14.54845,-41.884 -5.36791,-3.8584 -24.94049,-6.10762 -24.94049,-14.38983 0,-13.51266 19.51483,0.0121 23.93791,-3.09039 6.60578,-4.63395 7.56329,-12.34968 0.15795,-15.93696 -7.1721,-3.47432 -16.15058,-4.25709 -23.98217,-2.84454 m -115.63147,50.99389 c 14.7439,0.0523 10.0331,18.4356 20.03461,24.81556 3.357,2.14142 17.54392,2.54025 16.91114,-3.41885 -0.81374,-7.66328 -8.23933,-18.19738 -12.10639,-24.82283 13.58239,-7.04681 16.33216,-28.25334 5.7353,-39.24173 -8.54894,-8.8648 -21.8941,-7.86739 -33.14425,-7.86739 -3.55709,0 -8.54826,-0.86436 -11.86453,0.6358 -5.14333,2.32677 -2.69646,16.87121 -2.69646,21.63396 v 35.97424 c 0,4.40659 -1.26994,11.1983 0.51683,15.29065 1.72267,3.94554 13.43246,4.15937 15.73344,0.71114 3.31524,-4.96817 0.88031,-17.82422 0.88031,-23.71055 m 62.52665,9.42182 0.85653,-14.561 c 4.5979,1.35912 16.08465,2.64916 20.2844,-0.15334 2.77928,-1.85462 3.28645,-11.40912 0.612,-13.52735 -4.02817,-3.19039 -16.71049,-0.88031 -21.75293,-0.88031 V 128.3846 c 9.82899,0 25.7167,4.36593 25.69587,-8.5653 -0.005,-2.25173 0.40253,-5.33452 -1.37334,-7.07294 -2.13858,-2.09349 -6.19086,-1.4913 -8.905,-1.49235 h -22.26976 c -2.71483,0.005 -6.76128,-0.50203 -8.54152,2.0845 -2.44006,3.5452 -0.88031,11.74927 -0.88031,15.90262 v 40.25688 c 0,4.03035 -1.72145,13.32876 0.88031,16.61377 2.54665,3.21537 13.35453,1.37335 17.10681,1.37335 4.60849,0 20.08418,2.43758 23.1025,-1.37335 1.27934,-1.61536 0.88031,-4.42235 0.88031,-6.33542 0,-12.79373 -16.20421,-8.56529 -25.69587,-8.56529 m 96.83802,-59.32126 c -6.72621,2.81457 -3.47633,23.13451 -3.47633,29.34273 0,21.79293 -0.99229,48.26342 28.26548,47.96235 4.03603,-0.0415 8.22203,-0.60569 11.9914,-2.11953 20.0266,-8.04292 14.56101,-36.43021 14.56101,-53.55159 0,-5.17007 2.01193,-15.79487 -1.00987,-20.18526 -2.07089,-3.00883 -8.67263,-2.45876 -11.8341,-1.95762 -6.03968,0.95739 -5.14315,7.18818 -5.14315,11.86455 0,11.98779 0.15929,23.98762 -0.002,35.97421 -0.0803,5.91995 -3.6862,14.27557 -11.1309,12.46328 -4.82723,-1.17511 -7.40686,-6.15097 -7.67244,-10.75021 -0.70403,-12.19211 -0.037,-24.61696 -0.037,-36.83077 0,-9.1177 -3.50792,-16.81624 -14.51078,-12.21214 m 77.89396,31.91232 h 0.85652 c 1.27466,8.51014 6.06655,24.81421 11.83548,31.32015 2.37866,2.68256 8.85899,2.97835 11.81026,1.07463 2.64131,-1.70375 3.40965,-5.66321 4.45516,-8.41195 2.77349,-7.2916 6.11224,-14.66139 7.87334,-22.26977 h 0.85653 v 19.70018 c 0,5.13667 -2.03933,15.90909 0.88031,20.28443 2.43268,3.64558 14.43606,3.3855 15.26687,-1.49103 2.65606,-15.59009 0.12689,-33.79511 0.12689,-49.62846 0,-5.66373 1.82886,-15.15843 -0.5168,-20.36107 -1.57928,-3.50276 -6.63785,-2.76523 -9.76153,-2.76523 -12.80429,0 -13.37445,11.85779 -16.84509,22.26976 -2.3791,7.13721 -4.80995,14.25951 -7.13774,21.41324 -4.80522,-9.02267 -7.33957,-19.44923 -10.56385,-29.12199 -1.26031,-3.781 -2.08887,-9.40046 -4.71953,-12.47651 -2.77996,-3.25067 -16.38761,-3.72876 -18.95401,0 -1.92698,2.79973 -0.88031,8.38421 -0.88031,11.61997 v 41.96994 c 0,5.07575 -1.53474,13.16136 0.51682,17.86024 1.58377,3.62743 12.40619,4.35687 14.2649,0.71114 2.62285,-5.14455 0.6358,-15.433 0.6358,-21.14097 v -20.5567 m 80.51376,27.40894 V 157.5066 c 5.46953,0 16.47539,2.10346 21.14097,-1.00987 3.09798,-2.06724 3.10127,-11.45791 0,-13.52735 -4.53415,-3.02561 -15.79294,-0.88031 -21.14097,-0.88031 V 128.3846 c 9.93719,0 25.71673,4.42443 25.69588,-8.5653 -0.004,-2.27729 0.39983,-5.41876 -1.37335,-7.19193 -3.4934,-3.49341 -15.38374,-1.37336 -20.03988,-1.37336 -4.74536,0 -16.33126,-2.09731 -19.92089,1.49235 -2.97899,2.97898 -1.49234,10.92555 -1.49234,14.78172 v 41.96993 c 0,4.07882 -1.73256,13.50784 1.37335,16.61377 2.21383,2.21383 6.92997,1.37335 9.76153,1.37335 7.28939,0 24.45986,3.19211 30.5628,-0.88032 3.15635,-2.10625 3.1564,-12.40718 0,-14.51343 -2.70829,-1.8072 -7.76378,-0.88031 -10.86262,-0.88031 H 485.50086 M 167.72847,146.37171 V 128.3846 c 4.18555,0 9.86575,-0.97802 13.6886,1.00986 6.00345,3.12175 6.56007,11.69536 0.82548,15.3858 -3.99943,2.57377 -9.98167,1.59145 -14.51408,1.59145 m 53.10482,83.44754 c -11.83612,1.61119 -23.27693,5.22966 -33.40464,11.67349 -9.36657,5.95953 -17.00086,13.12758 -23.36487,22.22349 -40.44185,57.80267 10.42393,137.25831 79.03927,128.23156 10.34156,-1.36049 20.20495,-5.23239 29.12201,-10.54801 60.71262,-36.19218 46.29585,-132.8482 -22.26977,-149.91046 -9.27022,-2.30683 -19.62902,-2.96235 -29.122,-1.67007 m 124.19676,19.77089 c -11.27388,1.69204 -13.84311,18.16957 -2.55704,22.0893 11.99699,4.16658 30.96554,0.60209 43.67044,0.60209 h 99.35741 31.69159 c 4.70798,0 10.55619,0.98455 14.52335,-2.0845 6.45612,-4.99453 6.78605,-16.2703 -1.6787,-19.54945 -7.87508,-3.05076 -20.70869,-0.63582 -29.11871,-0.63582 H 393.85196 c -15.5076,0 -33.62243,-2.70289 -48.82216,-0.42162 m -118.20106,6.6652 c 38.57437,-5.02272 45.75101,55.68055 7.70878,61.16514 -38.93785,5.61365 -46.95325,-56.05521 -7.70878,-61.16514 m 114.78816,47.49705 c -8.91326,3.5095 -8.06904,18.24104 0.84659,21.07484 10.95125,3.4808 27.05811,0.55911 38.54053,0.55911 h 85.65294 28.26547 c 4.2437,0 9.13737,0.60283 12.66486,-2.27216 6.40254,-5.21823 4.52793,-18.22708 -4.09956,-19.80197 -11.79548,-2.15315 -25.6904,-0.19563 -37.6873,-0.19563 h -77.08828 -31.6916 c -4.66061,0 -11.00469,-1.09648 -15.40429,0.63581 m -137.05792,29.59058 c 9.67031,-1.25977 16.50962,4.51637 25.69588,4.85367 6.77841,0.2489 11.68558,-3.40687 17.98712,-4.7671 7.25579,-1.56621 15.08981,0.73367 21.41323,4.21656 2.94209,1.62048 9.83327,5.43428 9.99481,9.29887 0.15114,3.61521 -5.12615,7.84829 -7.42852,10.12042 -8.593,8.48008 -19.7595,14.04751 -31.68829,15.91052 -15.80335,2.4682 -32.41049,-1.60266 -45.39605,-10.7958 -3.87449,-2.74296 -12.94074,-9.27472 -13.06077,-14.524 -0.18732,-8.19239 16.2118,-13.49625 22.48259,-14.31314 m 137.9019,24.37077 c -9.36235,3.59551 -9.97956,17.90608 0.002,21.07484 9.32726,2.96088 22.77994,0.55912 32.54482,0.55912 h 71.09193 c 8.75621,0 27.68069,3.5519 35.02784,-1.49236 7.12555,-4.89199 5.55212,-18.68987 -3.33692,-20.5388 -9.77723,-2.03364 -21.70276,-0.2386 -31.69092,-0.2386 h -64.2397 c -11.21732,0 -28.92369,-3.38738 -39.39967,0.6358 m -184.15366,76.90854 c -10.33022,2.52315 -11.68307,19.32104 -0.85653,22.29815 8.345,2.29476 19.62014,0.37144 28.26481,0.37144 h 60.81358 195.28869 66.8093 c 7.17228,0 19.78637,2.45603 25.40442,-2.90731 6.96348,-6.64772 2.88613,-18.74923 -6.56077,-20.05707 -23.87618,-3.30552 -50.39477,-0.16191 -74.51805,-0.16191 H 251.66745 189.14081 c -9.64806,0 -21.44555,-1.8366 -30.8344,0.4567 m -0.85654,54.06376 c -11.06636,3.48797 -9.19072,20.03585 1.71241,22.27243 9.31342,1.91046 20.47698,0.29474 29.97853,0.29474 h 60.81359 191.86256 66.8093 c 7.61916,0 19.58521,2.29987 25.50354,-3.61845 6.60135,-6.60135 2.48155,-18.08033 -6.65989,-19.34593 -23.60262,-3.26767 -49.8148,-0.16192 -73.66154,-0.16192 H 248.24134 186.57123 c -8.79499,0 -20.70668,-2.09306 -29.12136,0.55913 m 0,53.10482 c -10.05226,3.16834 -10.05221,18.83971 0,22.00806 13.31152,4.1956 33.14185,0.55911 47.10847,0.55911 h 104.49657 34.26118 c 4.99503,0 11.0905,0.9592 15.32766,-2.27218 6.30326,-4.80705 5.59981,-16.09082 -1.63642,-19.72531 -7.39081,-3.71209 -20.95865,-1.12881 -29.10877,-1.12881 H 210.55404 174.5798 c -5.33116,0 -12.00099,-1.05748 -17.12993,0.55913 z"
       id="path12" /></g></svg>
