<?xml version="1.0" encoding="UTF-8"?>
<svg version="1.1" xmlns="http://www.w3.org/2000/svg" width="1024" height="1024">
<path d="M0 0 C16.23055104 11.98986195 24.87432336 26.94565705 28.4765625 46.72265625 C31.44465813 67.90041966 27.7919755 89.99397178 15.078125 107.53515625 C7.14709409 117.28402049 -4.18801512 124.92908383 -16.921875 126.53515625 C-17.95699219 126.66664063 -18.99210937 126.798125 -20.05859375 126.93359375 C-35.57745636 128.4701148 -48.15770779 125.59580405 -60.828125 116.43359375 C-61.5190625 115.80710937 -62.21 115.180625 -62.921875 114.53515625 C-62.921875 113.87515625 -62.921875 113.21515625 -62.921875 112.53515625 C-63.911875 113.03015625 -63.911875 113.03015625 -64.921875 113.53515625 C-65.251875 121.12515625 -65.581875 128.71515625 -65.921875 136.53515625 C-65.261875 136.86515625 -64.601875 137.19515625 -63.921875 137.53515625 C-63.921875 138.52515625 -63.921875 139.51515625 -63.921875 140.53515625 C-64.581875 140.53515625 -65.241875 140.53515625 -65.921875 140.53515625 C-65.91140137 141.2214209 -65.90092773 141.90768555 -65.89013672 142.61474609 C-65.84865626 145.71317914 -65.82257431 148.81155386 -65.796875 151.91015625 C-65.78011719 152.99039063 -65.76335937 154.070625 -65.74609375 155.18359375 C-65.73964844 156.21484375 -65.73320312 157.24609375 -65.7265625 158.30859375 C-65.71608887 159.26169434 -65.70561523 160.21479492 -65.69482422 161.19677734 C-65.921875 163.53515625 -65.921875 163.53515625 -67.921875 165.53515625 C-70.77752859 165.76067966 -73.5044101 165.85944388 -76.359375 165.84765625 C-77.52436523 165.87182617 -77.52436523 165.87182617 -78.71289062 165.89648438 C-84.35612815 165.90134504 -84.35612815 165.90134504 -86.64398289 164.42049408 C-88.54162649 161.62080603 -88.30272098 159.36840626 -88.30955505 156.00646973 C-88.31494059 155.34040411 -88.32032613 154.6743385 -88.32587487 153.98808908 C-88.34020598 151.75163819 -88.33303845 149.5157749 -88.32592773 147.27929688 C-88.3316286 145.67782616 -88.33859175 144.0763595 -88.34672546 142.47489929 C-88.3647024 138.1216502 -88.36348015 133.76860217 -88.35778308 129.41532707 C-88.35469811 125.78437989 -88.36077586 122.15347172 -88.36682183 118.52253008 C-88.38088001 109.95916038 -88.37929471 101.39589042 -88.36791992 92.83251953 C-88.3564338 83.98976669 -88.37051966 75.14731695 -88.3973164 66.30460405 C-88.41944541 58.71897506 -88.42611722 51.13344141 -88.42023998 43.54778242 C-88.4168629 39.01430982 -88.41933518 34.48103161 -88.43649101 29.94758606 C-88.45191392 25.68591265 -88.44805687 21.42468975 -88.42918587 17.16303444 C-88.42548717 15.59688722 -88.42864557 14.03070696 -88.43907166 12.46459007 C-88.45219696 10.33048219 -88.44081238 8.19788452 -88.42308044 6.06384277 C-88.42287116 4.86848656 -88.42266188 3.67313034 -88.42244625 2.44155121 C-87.921875 -0.46484375 -87.921875 -0.46484375 -86.08390903 -2.34798431 C-83.11256721 -3.88291443 -80.75148394 -3.8627539 -77.421875 -3.83984375 C-76.2978125 -3.84757812 -75.17375 -3.8553125 -74.015625 -3.86328125 C-70.64285351 -3.42890916 -69.24311046 -2.92424799 -66.921875 -0.46484375 C-66.1179202 2.23046624 -66.10767998 4.70163027 -65.921875 7.53515625 C-65.46039063 7.08785156 -64.99890625 6.64054687 -64.5234375 6.1796875 C-47.38202808 -9.7082987 -20.0947217 -12.54002671 0 0 Z M-54.046875 22.03515625 C-63.63529211 32.28289477 -66.85508073 46.00112812 -67.234375 59.72265625 C-66.67853441 73.57235103 -63.99538532 87.45644267 -54.03125 97.6640625 C-45.32322948 105.38839922 -36.39006627 107.14261633 -24.87109375 106.84375 C-15.71627855 106.12838857 -9.08238842 102.24694604 -2.921875 95.53515625 C6.52526507 83.87108731 8.05022383 67.99120655 7.078125 53.53515625 C5.27468792 39.15026049 0.74222124 27.05371309 -10.98046875 17.93359375 C-24.5255244 9.43376067 -42.42192114 11.42298246 -54.046875 22.03515625 Z M-65.921875 110.53515625 C-64.921875 112.53515625 -64.921875 112.53515625 -64.921875 112.53515625 Z " fill="#F2EFEC" transform="translate(447.921875,435.46484375)"/>
<path d="M0 0 C1.39385198 1.03764536 2.76963893 2.10005914 4.125 3.1875 C4.81078125 3.70054687 5.4965625 4.21359375 6.203125 4.7421875 C19.47706789 15.33094347 25.43975442 32.94996718 27.37548828 49.30371094 C28.79377603 63.27462459 28.79377603 63.27462459 26.125 67.1875 C24.25826359 67.79288387 24.25826359 67.79288387 22.02857971 67.93040466 C21.22074602 67.98566755 20.41291233 68.04093044 19.58059883 68.09786797 C15.93940398 68.23077555 12.31157024 68.31909392 8.66772461 68.30102539 C7.87637115 68.30117142 7.0850177 68.30131744 6.26968384 68.3014679 C3.6888746 68.30077869 1.10814017 68.29303343 -1.47265625 68.28515625 C-3.27583273 68.28328854 -5.07900972 68.2818663 -6.88218689 68.28086853 C-11.60197376 68.27707117 -16.32172931 68.26726496 -21.04150391 68.25616455 C-25.86815975 68.24589031 -30.69482072 68.24135808 -35.52148438 68.23632812 C-44.97266993 68.22563992 -54.42383235 68.20859732 -63.875 68.1875 C-63.56330092 69.95767585 -63.24879964 71.72735844 -62.93310547 73.49682617 C-62.7582663 74.48236984 -62.58342712 75.46791351 -62.40328979 76.48332214 C-60.30029774 87.24799072 -54.69491603 95.75970142 -45.875 102.1875 C-37.6960485 107.05592351 -26.53777212 107.05839682 -17.5 105.125 C-9.02748333 102.61253827 -3.82659325 98.07575183 0.80859375 90.63671875 C2.96409928 86.62632715 4.55308285 82.45182909 6.125 78.1875 C7.125 76.1875 7.125 76.1875 8.7421875 75.546875 C11.97078505 75.05993898 14.99305569 75.23351601 18.25 75.4375 C19.49007812 75.50453125 20.73015625 75.5715625 22.0078125 75.640625 C23.55082031 75.91132813 23.55082031 75.91132813 25.125 76.1875 C27.31963392 79.47945088 27.3990449 80.81878075 26.77734375 84.6328125 C23.19119846 98.67675871 15.02659598 112.00936852 2.62109375 119.828125 C-12.68744533 128.16516976 -30.383019 129.5130343 -47.13745117 125.09423828 C-60.92271984 121.02197741 -70.91390128 112.44905679 -78.2734375 100.30078125 C-88.96487947 79.51766113 -89.51467344 54.66643001 -82.7734375 32.578125 C-76.78490615 16.11932271 -67.24101873 4.13538431 -51.4296875 -3.47265625 C-35.41453267 -9.50913769 -14.70561682 -9.31272508 0 0 Z M-52.875 22.1875 C-58.83980904 29.03056313 -63.875 37.88397919 -63.875 47.1875 C-41.105 47.1875 -18.335 47.1875 5.125 47.1875 C2.04642191 34.87318762 -0.46044624 26.59276065 -9.875 18.1875 C-23.4019787 10.10240928 -41.41598255 10.91906912 -52.875 22.1875 Z " fill="#F5F3EF" transform="translate(211.875,435.8125)"/>
<path d="M0 0 C14.60979741 12.08245764 20.88058395 30.04222494 22.8984375 48.37890625 C23.84899678 59.01515176 23.84899678 59.01515176 22.33203125 62.46484375 C17.83018966 66.1711792 10.66534685 65.20708382 5.06469727 65.17993164 C3.86347481 65.18015068 3.86347481 65.18015068 2.63798523 65.18037415 C0.01383676 65.1796823 -2.61023906 65.17192425 -5.234375 65.1640625 C-7.06283021 65.16219573 -8.89128593 65.16077305 -10.71974182 65.15977478 C-15.51518146 65.15596999 -20.31059047 65.14615722 -25.10601807 65.1350708 C-30.00622137 65.12481274 -34.90642966 65.12026777 -39.80664062 65.11523438 C-49.40886757 65.10453302 -59.01107186 65.08748123 -68.61328125 65.06640625 C-68.17904857 67.26731419 -67.7342423 69.46613723 -67.28515625 71.6640625 C-66.91535645 73.50109741 -66.91535645 73.50109741 -66.53808594 75.37524414 C-64.35452385 84.09046989 -60.13180454 92.79902594 -52.61328125 98.06640625 C-41.98259244 103.42282751 -31.76348534 104.66201936 -20.28515625 101.16015625 C-11.58653001 97.5993151 -6.65723256 91.33013284 -2.61328125 83.06640625 C-1.96080162 81.40233029 -1.31454992 79.73579328 -0.67578125 78.06640625 C0.79983177 74.62330919 1.06113404 74.22293736 4.63671875 72.50390625 C14.40441787 71.36434135 14.40441787 71.36434135 19.38671875 73.12890625 C21.38671875 75.06640625 21.38671875 75.06640625 22.01171875 77.94140625 C21.21705281 88.10024387 15.52517366 97.26631142 9.38671875 105.06640625 C8.75636719 105.90171875 8.12601563 106.73703125 7.4765625 107.59765625 C-0.28895683 116.77112955 -11.97836532 122.06968841 -23.73828125 123.87890625 C-40.73933933 124.70153809 -56.96666046 123.42006861 -70.5234375 111.99609375 C-83.62504479 99.89853487 -90.46336041 83.3769662 -91.5234375 65.5625 C-91.55308594 64.73878906 -91.58273437 63.91507812 -91.61328125 63.06640625 C-91.65324219 62.35613281 -91.69320312 61.64585937 -91.734375 60.9140625 C-92.39870159 39.92915778 -85.96031047 19.48946266 -71.61328125 4.06640625 C-52.09817847 -14.72347311 -21.49862809 -15.90705666 0 0 Z M-56.30078125 18.37890625 C-62.80931925 25.94288285 -66.20594965 34.43707984 -68.61328125 44.06640625 C-45.84328125 44.06640625 -23.07328125 44.06640625 0.38671875 44.06640625 C-3.12871855 31.17646947 -6.24579971 20.80018002 -17.61328125 13.06640625 C-30.7993138 5.71512884 -45.35966722 8.9644593 -56.30078125 18.37890625 Z " fill="#F5F3EF" transform="translate(645.61328125,438.93359375)"/>
<path d="M0 0 C6.35302413 5.59066123 10.30001121 14.61097112 12.9453125 22.546875 C13.06436125 24.56516661 13.12052962 26.58761271 13.1328125 28.609375 C13.14699219 29.67285156 13.16117188 30.73632812 13.17578125 31.83203125 C12.9453125 34.546875 12.9453125 34.546875 10.9453125 36.546875 C8.25368825 36.77239738 5.69861506 36.8712079 3.0078125 36.859375 C2.27884766 36.87548828 1.54988281 36.89160156 0.79882812 36.90820312 C-4.5020782 36.91306188 -4.5020782 36.91306188 -7 35.2578125 C-8.44877009 32.90758546 -8.86840702 30.40582052 -9.47265625 27.73828125 C-10.80087366 22.73740897 -12.74122219 18.76183041 -16.5546875 15.234375 C-27.37213459 10.01882015 -38.56528495 9.12122399 -50.0546875 12.546875 C-53.87814008 14.63239459 -57.04291324 16.62920933 -59.0546875 20.546875 C-60.13918413 24.94371016 -60.35636133 28.48096079 -59.1171875 32.859375 C-52.1580653 41.92732211 -36.29623665 43.27284111 -25.75195312 45.71069336 C5.17879452 52.91377532 5.17879452 52.91377532 13.640625 66.2109375 C18.23257163 75.10619411 19.73296871 84.60002445 17.19140625 94.4765625 C12.3097857 107.07305789 4.44245163 114.57367528 -7.65625 120.10546875 C-22.92533036 126.5816649 -43.13640237 126.22302299 -58.4296875 120.296875 C-63.53630587 117.97753438 -67.85189939 115.25041183 -72.0546875 111.546875 C-72.68246094 111.0003125 -73.31023438 110.45375 -73.95703125 109.890625 C-82.03273913 102.3783386 -85.1666421 92.73129342 -86.34375 81.8828125 C-86.54696791 76.21118535 -86.54696791 76.21118535 -84.77758789 73.82348633 C-81.76269104 71.58954902 -78.0949509 72.15962887 -74.4921875 72.234375 C-73.71166016 72.23115234 -72.93113281 72.22792969 -72.12695312 72.22460938 C-66.32185731 72.27970519 -66.32185731 72.27970519 -64.0546875 74.546875 C-63.53292112 76.78301661 -63.08498952 79.0367202 -62.6796875 81.296875 C-61.59507105 86.72551937 -60.49816947 90.27220773 -57.0546875 94.546875 C-57.0546875 95.206875 -57.0546875 95.866875 -57.0546875 96.546875 C-43.15235179 103.57685428 -31.22645931 105.15939859 -16.0546875 100.546875 C-10.81271619 98.53210371 -7.44297264 95.7055709 -5.0546875 90.546875 C-4.41554181 86.02201405 -4.57370198 82.02189727 -5.9921875 77.671875 C-11.0719286 72.43820235 -19.13688578 70.78269944 -26.04296875 69.14453125 C-27.73633118 68.72462171 -29.42969046 68.30469944 -31.12304688 67.88476562 C-33.7418032 67.24615791 -36.36132273 66.61079422 -38.98120117 65.97680664 C-70.98886773 58.19246023 -70.98886773 58.19246023 -79.52734375 45.328125 C-83.90818915 36.91187721 -84.56509479 26.76909632 -82.3359375 17.5859375 C-81.39435342 15.11807601 -80.33246594 12.85703072 -79.0546875 10.546875 C-78.72726562 9.92554688 -78.39984375 9.30421875 -78.0625 8.6640625 C-71.77519037 -1.57002544 -59.61162883 -6.99406818 -48.3671875 -9.703125 C-31.51739732 -12.63008386 -14.08663288 -9.96240956 0 0 Z " fill="#F5F3EF" transform="translate(762.0546875,438.453125)"/>
<path d="M0 0 C7.56086523 6.89908272 12.39879501 16.91550283 13.08984375 27.0859375 C13.21678377 32.01544148 13.21678377 32.01544148 12.91015625 34.44140625 C10.29056001 37.06100249 8.36161832 36.72996852 4.7890625 36.76367188 C4.00402344 36.76044922 3.21898437 36.75722656 2.41015625 36.75390625 C1.23259766 36.77807617 1.23259766 36.77807617 0.03125 36.80273438 C-2.24609375 36.8046875 -2.24609375 36.8046875 -6.08984375 36.44140625 C-8.21308973 33.25653729 -8.91351663 30.74400157 -9.90234375 27.06640625 C-11.73819139 21.02954958 -13.3008418 17.53760594 -18.98168945 14.39477539 C-24.81362256 11.57674416 -29.65305399 10.82257321 -36.08984375 10.94140625 C-37.34667969 10.91820312 -37.34667969 10.91820312 -38.62890625 10.89453125 C-44.78731884 10.93266384 -49.77546141 12.27884688 -55.08984375 15.44140625 C-58.62492905 19.06486868 -59.96374665 21.73909544 -60.33984375 26.81640625 C-60.06254999 30.83716572 -59.7127759 32.40864095 -57.08984375 35.44140625 C-51.80009857 38.72641639 -46.15372607 40.47014805 -40.15234375 41.94140625 C-39.33040527 42.15152344 -38.5084668 42.36164063 -37.66162109 42.578125 C-32.90720814 43.7824668 -28.13561012 44.89070401 -23.34936523 45.96020508 C-9.57905716 49.06454881 3.45744964 52.78174168 12.28515625 64.56640625 C17.56160559 73.26223058 18.71334287 82.47621902 16.77734375 92.359375 C14.89406739 99.05264098 11.77911732 105.40454997 6.91015625 110.44140625 C6.25015625 110.44140625 5.59015625 110.44140625 4.91015625 110.44140625 C4.91015625 111.10140625 4.91015625 111.76140625 4.91015625 112.44140625 C-13.04096518 123.62102477 -31.22600997 126.78314894 -52.08984375 122.44140625 C-64.49580035 119.13841908 -74.54520288 112.325994 -81.40625 101.33203125 C-82.42172786 99.39850144 -83.28638246 97.47120319 -84.08984375 95.44140625 C-84.50234375 94.41015625 -84.91484375 93.37890625 -85.33984375 92.31640625 C-86.48144079 86.41815486 -86.61776774 80.42713272 -86.08984375 74.44140625 C-83.47942163 71.83098413 -81.5786319 72.15293837 -78.01757812 72.11914062 C-77.23705078 72.12236328 -76.45652344 72.12558594 -75.65234375 72.12890625 C-74.48735352 72.10473633 -74.48735352 72.10473633 -73.29882812 72.08007812 C-67.55139022 72.0751277 -67.55139022 72.0751277 -65.37597656 73.80151367 C-63.54794102 76.1323631 -63.56079782 78.14116026 -63.27734375 81.06640625 C-62.12794117 88.84842701 -59.244266 94.04404534 -52.96484375 98.81640625 C-41.40424729 104.30579232 -29.23136652 104.62195816 -17.08984375 100.81640625 C-12.10602103 98.76554115 -8.59604282 96.29180674 -6.08984375 91.44140625 C-4.67047255 86.85886494 -4.8965241 83.2837276 -5.96484375 78.62890625 C-11.97128484 69.61924462 -28.74704013 68.40743278 -38.71459961 66.09765625 C-53.74004462 62.59243973 -71.35376028 58.37582038 -80.08984375 44.44140625 C-84.47875011 36.55344052 -84.40191684 26.18172601 -82.43359375 17.5703125 C-78.88256715 7.75907091 -72.3156942 0.23495807 -63.08984375 -4.55859375 C-42.92384886 -13.58923952 -18.30709511 -13.65332887 0 0 Z " fill="#F6F3EF" transform="translate(875.08984375,438.55859375)"/>
<path d="M0 0 C1.06154297 -0.03673828 1.06154297 -0.03673828 2.14453125 -0.07421875 C5.70729534 -0.09412246 7.87321815 0.21829661 10.91796875 2.11328125 C13.0500738 4.29821722 14.8211901 6.43210492 16.5625 8.9375 C17.58150391 10.37609375 17.58150391 10.37609375 18.62109375 11.84375 C19.20093018 12.66552734 19.20093018 12.66552734 19.79248047 13.50390625 C22.52825685 17.3454215 25.32949897 21.13934939 28.125 24.9375 C28.73029541 25.76040527 29.33559082 26.58331055 29.95922852 27.43115234 C34.21362667 33.19338728 38.5568644 38.85635171 43.125 44.375 C43.82882812 43.42882812 44.53265625 42.48265625 45.2578125 41.5078125 C46.25478962 40.1715625 47.25222332 38.83565308 48.25 37.5 C48.77754883 36.79343262 49.30509766 36.08686523 49.84863281 35.35888672 C52.86944111 31.32967448 55.92653203 27.33387977 59.0390625 23.375 C59.67827637 22.56144043 60.31749023 21.74788086 60.97607422 20.90966797 C62.23130599 19.31682436 63.49068268 17.72723746 64.75439453 16.14111328 C65.32528809 15.41649902 65.89618164 14.69188477 66.484375 13.9453125 C66.99452148 13.30352051 67.50466797 12.66172852 68.03027344 12.00048828 C69.31120129 10.42514759 69.31120129 10.42514759 69.125 8.375 C73.30999949 3.71171485 76.63145189 0.58572238 83.0078125 0.046875 C84.42207554 0.05740955 85.83629797 0.08379921 87.25 0.125 C88.32314453 0.13273437 88.32314453 0.13273437 89.41796875 0.140625 C92.56701834 0.18771359 95.12012429 0.37337476 98.125 1.375 C99.02337399 4.17758299 99.6242201 6.33299367 98.30810547 9.08007812 C96.9691582 11.00129304 95.54601159 12.81295439 94.0625 14.625 C93.52318848 15.31247314 92.98387695 15.99994629 92.42822266 16.70825195 C91.27196721 18.17980465 90.10829541 19.64555462 88.93798828 21.10595703 C86.51822908 24.1344033 84.14943877 27.20107835 81.77758789 30.26708984 C80.0109555 32.5483531 78.23709277 34.82380207 76.4609375 37.09765625 C69.93273679 45.46039707 63.46386557 53.86757515 57.125 62.375 C58.78794888 66.19978243 61.28337434 69.27530547 63.875 72.5 C64.87165121 73.7534632 65.86771634 75.00739258 66.86328125 76.26171875 C67.39260254 76.9273584 67.92192383 77.59299805 68.46728516 78.27880859 C71.3592803 81.93575562 74.20766925 85.62652098 77.0625 89.3125 C81.02090432 94.42010096 85.01104667 99.496729 89.07568359 104.52026367 C96.52751785 113.74170307 96.52751785 113.74170307 99.9375 118.5 C100.39769531 119.14195312 100.85789062 119.78390625 101.33203125 120.4453125 C102.41100771 123.07099906 101.93028564 124.70271135 101.125 127.375 C98.88711063 129.61288937 94.0003846 128.74775956 91 128.8125 C90.15695312 128.85826172 89.31390625 128.90402344 88.4453125 128.95117188 C83.91523166 129.03206618 80.93209381 128.72932803 77.359375 125.80859375 C74.01556982 122.49940656 71.22299887 118.82508611 68.5 115 C64.25210445 109.18233342 59.88141429 103.50695956 55.3125 97.9375 C50.83584676 92.47668366 46.41204024 86.98712541 42.125 81.375 C25.7793835 102.05590437 25.7793835 102.05590437 9.89453125 123.08984375 C5.91251596 128.23218137 5.91251596 128.23218137 3.07202148 128.74731445 C2.30446533 128.7443335 1.53690918 128.74135254 0.74609375 128.73828125 C-0.09244141 128.73763672 -0.93097656 128.73699219 -1.79492188 128.73632812 C-3.10299805 128.7121582 -3.10299805 128.7121582 -4.4375 128.6875 C-5.31341797 128.69072266 -6.18933594 128.69394531 -7.09179688 128.69726562 C-13.60791319 128.64208681 -13.60791319 128.64208681 -15.875 126.375 C-16.27904669 122.95939602 -16.2715899 121.03192126 -14.4765625 118.05859375 C-13.82429687 117.31738281 -13.17203125 116.57617188 -12.5 115.8125 C-11.76007813 114.94109375 -11.02015625 114.0696875 -10.2578125 113.171875 C-9.47148437 112.24890625 -8.68515625 111.3259375 -7.875 110.375 C-6.36211119 108.44754735 -4.8628654 106.50933405 -3.375 104.5625 C-2.77014771 103.77359375 -2.77014771 103.77359375 -2.15307617 102.96875 C-0.72506137 101.10568075 0.70017763 99.24051192 2.125 97.375 C3.04756592 96.1674707 3.04756592 96.1674707 3.98876953 94.93554688 C7.43686614 90.42052045 10.87916581 85.90126315 14.3125 81.375 C16.57656211 78.39361128 18.85886465 75.43119328 21.1875 72.5 C21.83513306 71.67350952 21.83513306 71.67350952 22.49584961 70.83032227 C23.59438929 69.43109645 24.70486345 68.04126237 25.81640625 66.65234375 C27.33458941 64.50412555 27.33458941 64.50412555 26.96484375 62.25390625 C25.49156257 58.95786789 24.14237877 57.38658585 21.125 55.375 C21.125 54.715 21.125 54.055 21.125 53.375 C19.42065272 50.8094134 17.67723685 48.30811737 15.875 45.8125 C14.7706752 44.26704007 13.66651316 42.72146382 12.5625 41.17578125 C11.99273437 40.38123535 11.42296875 39.58668945 10.8359375 38.76806641 C9.19334619 36.47059494 7.56262996 34.16531609 5.9375 31.85546875 C5.42767578 31.13085449 4.91785156 30.40624023 4.39257812 29.65966797 C3.38503082 28.22582571 2.37851125 26.79126069 1.37304688 25.35595703 C-0.83335021 22.21749673 -3.05566457 19.10666051 -5.40625 16.07421875 C-6.1384375 15.12160156 -6.870625 14.16898437 -7.625 13.1875 C-8.25921875 12.38957031 -8.8934375 11.59164063 -9.546875 10.76953125 C-11.22807423 7.73842793 -11.34718495 5.78889721 -10.875 2.375 C-7.18049796 -0.08800136 -4.27858812 0.00770917 0 0 Z " fill="#F6F3EF" transform="translate(251.875,431.625)"/>
<path d="M0 0 C1.92237739 3.14401722 1.72365929 6.40564654 1.7109375 9.98046875 C1.73929688 10.70492188 1.76765625 11.429375 1.796875 12.17578125 C1.8046875 14.29296875 1.8046875 14.29296875 1.2109375 17.98046875 C-2.15789555 21.03021379 -5.55610575 21.43877185 -9.9765625 21.91796875 C-19.86205249 23.30149105 -28.18894061 26.17646196 -34.7890625 33.98046875 C-46.3197428 50.76401452 -42.98073356 73.72019586 -42.7890625 93.10546875 C-42.74809583 97.28732229 -42.70977812 101.46909546 -42.68701172 105.65109253 C-42.67202999 108.23769187 -42.64802422 110.82425915 -42.61376953 113.41067505 C-42.60385986 115.16442947 -42.60385986 115.16442947 -42.59375 116.95361328 C-42.58327637 117.97568878 -42.57280273 118.99776428 -42.56201172 120.05081177 C-42.81291519 123.28824218 -43.64836478 125.95107193 -44.7890625 128.98046875 C-47.72711246 129.06133251 -50.66294325 129.12089705 -53.6015625 129.16796875 C-54.43494141 129.19310547 -55.26832031 129.21824219 -56.12695312 129.24414062 C-57.33061523 129.25864258 -57.33061523 129.25864258 -58.55859375 129.2734375 C-59.66618042 129.29700317 -59.66618042 129.29700317 -60.79614258 129.32104492 C-63.42415361 128.87193609 -64.15638823 128.06846225 -65.7890625 125.98046875 C-66.16658592 123.71438599 -66.16658592 123.71438599 -66.17001343 121.00830078 C-66.1784729 119.98198547 -66.18693237 118.95567017 -66.19564819 117.89825439 C-66.1895755 116.77296326 -66.18350281 115.64767212 -66.17724609 114.48828125 C-66.18250305 113.30272644 -66.18776001 112.11717163 -66.19317627 110.89569092 C-66.20412781 107.6435811 -66.20154663 104.39183678 -66.19203901 101.13973236 C-66.18444844 97.73784104 -66.19148634 94.3359743 -66.19619751 90.93408203 C-66.20165684 85.22098399 -66.19445888 79.50800226 -66.18017578 73.79492188 C-66.16384882 67.18798311 -66.16913721 60.58132206 -66.185655 53.97439003 C-66.19926489 48.30381707 -66.20119199 42.63332777 -66.19333899 36.96274376 C-66.1886597 33.57507143 -66.18804452 30.18752968 -66.19794846 26.79986572 C-66.20554078 23.02393639 -66.19398905 19.24854534 -66.17724609 15.47265625 C-66.18331879 14.34736511 -66.18939148 13.22207397 -66.19564819 12.06268311 C-66.18718872 11.0363678 -66.17872925 10.01005249 -66.17001343 8.95263672 C-66.16888235 8.0596286 -66.16775127 7.16662048 -66.16658592 6.24655151 C-65.7890625 3.98046875 -65.7890625 3.98046875 -64.49791908 2.19241333 C-61.57286426 0.11792424 -58.17477388 0.59174834 -54.7265625 0.66796875 C-53.99373047 0.66474609 -53.26089844 0.66152344 -52.50585938 0.65820312 C-47.05628189 0.71324936 -47.05628189 0.71324936 -44.7890625 2.98046875 C-44.15625 5.58203125 -44.15625 5.58203125 -43.6640625 8.60546875 C-43.49648438 9.60835938 -43.32890625 10.61125 -43.15625 11.64453125 C-43.03507812 12.41539062 -42.91390625 13.18625 -42.7890625 13.98046875 C-42.27859375 13.46097656 -41.768125 12.94148438 -41.2421875 12.40625 C-32.79314912 4.30176461 -12.10951616 -6.90083781 0 0 Z " fill="#F7F5F2" transform="translate(554.7890625,431.01953125)"/>
<path d="M0 0 C7.56086523 6.89908272 12.39879501 16.91550283 13.08984375 27.0859375 C13.21678377 32.01544148 13.21678377 32.01544148 12.91015625 34.44140625 C10.29056001 37.06100249 8.36161832 36.72996852 4.7890625 36.76367188 C4.00402344 36.76044922 3.21898437 36.75722656 2.41015625 36.75390625 C1.23259766 36.77807617 1.23259766 36.77807617 0.03125 36.80273438 C-2.24609375 36.8046875 -2.24609375 36.8046875 -6.08984375 36.44140625 C-8.21308973 33.25653729 -8.91351663 30.74400157 -9.90234375 27.06640625 C-11.73819139 21.02954958 -13.3008418 17.53760594 -18.98168945 14.39477539 C-24.81362256 11.57674416 -29.65305399 10.82257321 -36.08984375 10.94140625 C-37.34667969 10.91820312 -37.34667969 10.91820312 -38.62890625 10.89453125 C-44.78731884 10.93266384 -49.77546141 12.27884688 -55.08984375 15.44140625 C-58.62492905 19.06486868 -59.96374665 21.73909544 -60.33984375 26.81640625 C-60.06254999 30.83716572 -59.7127759 32.40864095 -57.08984375 35.44140625 C-51.80009857 38.72641639 -46.15372607 40.47014805 -40.15234375 41.94140625 C-39.33040527 42.15152344 -38.5084668 42.36164063 -37.66162109 42.578125 C-32.90720814 43.7824668 -28.13561012 44.89070401 -23.34936523 45.96020508 C-9.57905716 49.06454881 3.45744964 52.78174168 12.28515625 64.56640625 C17.56160559 73.26223058 18.71334287 82.47621902 16.77734375 92.359375 C14.89406739 99.05264098 11.77911732 105.40454997 6.91015625 110.44140625 C6.25015625 110.44140625 5.59015625 110.44140625 4.91015625 110.44140625 C4.91015625 111.10140625 4.91015625 111.76140625 4.91015625 112.44140625 C-13.04096518 123.62102477 -31.22600997 126.78314894 -52.08984375 122.44140625 C-64.49580035 119.13841908 -74.54520288 112.325994 -81.40625 101.33203125 C-82.42172786 99.39850144 -83.28638246 97.47120319 -84.08984375 95.44140625 C-84.50234375 94.41015625 -84.91484375 93.37890625 -85.33984375 92.31640625 C-86.48144079 86.41815486 -86.61776774 80.42713272 -86.08984375 74.44140625 C-83.47942163 71.83098413 -81.5786319 72.15293837 -78.01757812 72.11914062 C-77.23705078 72.12236328 -76.45652344 72.12558594 -75.65234375 72.12890625 C-74.48735352 72.10473633 -74.48735352 72.10473633 -73.29882812 72.08007812 C-67.55139022 72.0751277 -67.55139022 72.0751277 -65.37597656 73.80151367 C-63.54794102 76.1323631 -63.56079782 78.14116026 -63.27734375 81.06640625 C-62.12794117 88.84842701 -59.244266 94.04404534 -52.96484375 98.81640625 C-41.40424729 104.30579232 -29.23136652 104.62195816 -17.08984375 100.81640625 C-12.10602103 98.76554115 -8.59604282 96.29180674 -6.08984375 91.44140625 C-4.67047255 86.85886494 -4.8965241 83.2837276 -5.96484375 78.62890625 C-11.97128484 69.61924462 -28.74704013 68.40743278 -38.71459961 66.09765625 C-53.74004462 62.59243973 -71.35376028 58.37582038 -80.08984375 44.44140625 C-84.47875011 36.55344052 -84.40191684 26.18172601 -82.43359375 17.5703125 C-78.88256715 7.75907091 -72.3156942 0.23495807 -63.08984375 -4.55859375 C-42.92384886 -13.58923952 -18.30709511 -13.65332887 0 0 Z M-72.0078125 7.390625 C-78.61144826 15.6900092 -80.23926969 23.91576418 -79.08984375 34.44140625 C-78.19839553 37.78055973 -76.91739932 40.51616793 -75.08984375 43.44140625 C-74.70054687 44.06660156 -74.31125 44.69179688 -73.91015625 45.3359375 C-65.37576388 56.92554134 -48.14640448 59.1844034 -35.08984375 62.44140625 C-34.29835938 62.64008301 -33.506875 62.83875977 -32.69140625 63.04345703 C-30.57473071 63.57401847 -28.45742004 64.10195297 -26.33984375 64.62890625 C-23.92288662 65.23190987 -21.50618629 65.83594456 -19.08984375 66.44140625 C-17.60871094 66.80492187 -17.60871094 66.80492187 -16.09765625 67.17578125 C-9.79790484 68.85820744 -5.31667223 70.89872458 -1.71484375 76.62890625 C-0.2031969 83.43131708 -0.28728576 89.5791785 -3.84375 95.6953125 C-8.46752547 102.17439599 -14.727298 104.17258551 -22.08984375 106.44140625 C-22.70472656 106.63605469 -23.31960938 106.83070313 -23.953125 107.03125 C-35.60862427 109.26859447 -46.03914671 107.1663028 -56.40234375 101.69140625 C-64.76002355 94.69427897 -66.81742212 86.70740516 -69.08984375 76.44140625 C-73.37984375 76.44140625 -77.66984375 76.44140625 -82.08984375 76.44140625 C-82.61901348 88.78869987 -79.75669122 98.17512732 -71.30859375 107.3828125 C-59.41997157 118.66238642 -44.6023625 120.01200192 -29.01171875 119.6875 C-15.35440704 119.16241973 -3.20811812 114.69562437 6.25390625 104.59375 C12.58236668 96.36973657 14.07552967 86.55998509 12.91015625 76.44140625 C10.41633356 68.89759261 6.71839915 62.65148312 -0.08984375 58.44140625 C-9.70155228 53.62909984 -19.88577236 51.30710081 -30.27734375 48.87890625 C-55.58215932 42.94909068 -55.58215932 42.94909068 -62.08984375 36.44140625 C-64.88294643 31.91924 -64.61083341 26.58514545 -64.08984375 21.44140625 C-62.06841115 15.48941025 -58.29561585 12.31601965 -53.0390625 9.2421875 C-44.1095364 4.96501953 -33.05633731 5.08697742 -23.58984375 7.62890625 C-16.46801588 10.19468262 -10.52020333 13.45363674 -7.08984375 20.44140625 C-5.91267501 24.4213577 -4.99148505 28.38402042 -4.08984375 32.44140625 C0.20015625 32.44140625 4.49015625 32.44140625 8.91015625 32.44140625 C8.76940826 22.02605499 5.61358185 13.30554846 -0.91015625 5.171875 C-10.39743311 -3.93829253 -22.63426102 -5.76198786 -35.15234375 -5.87109375 C-36.7755957 -5.91459961 -36.7755957 -5.91459961 -38.43164062 -5.95898438 C-50.95849535 -6.0566743 -63.0720544 -1.6907259 -72.0078125 7.390625 Z " fill="#151514" transform="translate(875.08984375,438.55859375)"/>
<path d="M0 0 C6.35302413 5.59066123 10.30001121 14.61097112 12.9453125 22.546875 C13.06436125 24.56516661 13.12052962 26.58761271 13.1328125 28.609375 C13.14699219 29.67285156 13.16117188 30.73632812 13.17578125 31.83203125 C12.9453125 34.546875 12.9453125 34.546875 10.9453125 36.546875 C8.25368825 36.77239738 5.69861506 36.8712079 3.0078125 36.859375 C2.27884766 36.87548828 1.54988281 36.89160156 0.79882812 36.90820312 C-4.5020782 36.91306188 -4.5020782 36.91306188 -7 35.2578125 C-8.44877009 32.90758546 -8.86840702 30.40582052 -9.47265625 27.73828125 C-10.80087366 22.73740897 -12.74122219 18.76183041 -16.5546875 15.234375 C-27.37213459 10.01882015 -38.56528495 9.12122399 -50.0546875 12.546875 C-53.87814008 14.63239459 -57.04291324 16.62920933 -59.0546875 20.546875 C-60.13918413 24.94371016 -60.35636133 28.48096079 -59.1171875 32.859375 C-52.1580653 41.92732211 -36.29623665 43.27284111 -25.75195312 45.71069336 C5.17879452 52.91377532 5.17879452 52.91377532 13.640625 66.2109375 C18.23257163 75.10619411 19.73296871 84.60002445 17.19140625 94.4765625 C12.3097857 107.07305789 4.44245163 114.57367528 -7.65625 120.10546875 C-22.92533036 126.5816649 -43.13640237 126.22302299 -58.4296875 120.296875 C-63.53630587 117.97753438 -67.85189939 115.25041183 -72.0546875 111.546875 C-72.68246094 111.0003125 -73.31023438 110.45375 -73.95703125 109.890625 C-82.03273913 102.3783386 -85.1666421 92.73129342 -86.34375 81.8828125 C-86.54696791 76.21118535 -86.54696791 76.21118535 -84.77758789 73.82348633 C-81.76269104 71.58954902 -78.0949509 72.15962887 -74.4921875 72.234375 C-73.71166016 72.23115234 -72.93113281 72.22792969 -72.12695312 72.22460938 C-66.32185731 72.27970519 -66.32185731 72.27970519 -64.0546875 74.546875 C-63.53292112 76.78301661 -63.08498952 79.0367202 -62.6796875 81.296875 C-61.59507105 86.72551937 -60.49816947 90.27220773 -57.0546875 94.546875 C-57.0546875 95.206875 -57.0546875 95.866875 -57.0546875 96.546875 C-43.15235179 103.57685428 -31.22645931 105.15939859 -16.0546875 100.546875 C-10.81271619 98.53210371 -7.44297264 95.7055709 -5.0546875 90.546875 C-4.41554181 86.02201405 -4.57370198 82.02189727 -5.9921875 77.671875 C-11.0719286 72.43820235 -19.13688578 70.78269944 -26.04296875 69.14453125 C-27.73633118 68.72462171 -29.42969046 68.30469944 -31.12304688 67.88476562 C-33.7418032 67.24615791 -36.36132273 66.61079422 -38.98120117 65.97680664 C-70.98886773 58.19246023 -70.98886773 58.19246023 -79.52734375 45.328125 C-83.90818915 36.91187721 -84.56509479 26.76909632 -82.3359375 17.5859375 C-81.39435342 15.11807601 -80.33246594 12.85703072 -79.0546875 10.546875 C-78.72726562 9.92554688 -78.39984375 9.30421875 -78.0625 8.6640625 C-71.77519037 -1.57002544 -59.61162883 -6.99406818 -48.3671875 -9.703125 C-31.51739732 -12.63008386 -14.08663288 -9.96240956 0 0 Z M-74.390625 11.2734375 C-79.59582559 18.38476789 -79.99930064 25.8967659 -79.0546875 34.546875 C-78.16323928 37.88602848 -76.88224307 40.62163668 -75.0546875 43.546875 C-74.66539062 44.17207031 -74.27609375 44.79726563 -73.875 45.44140625 C-66.02085385 56.10724377 -50.16665024 59.19203267 -37.9296875 61.984375 C-36.07916199 62.41944692 -34.22890269 62.85565262 -32.37890625 63.29296875 C-29.83854345 63.89163563 -27.2981812 64.49012705 -24.75634766 65.08251953 C-7.22949165 69.21289818 -7.22949165 69.21289818 -2.375 75.83984375 C0.15332206 81.02365199 -0.31682265 87.14654782 -1.5234375 92.70703125 C-3.16489329 97.15264067 -6.02277426 100.20706993 -10.0546875 102.546875 C-13.65809312 104.09790612 -17.30659875 105.39187484 -21.0546875 106.546875 C-21.65925781 106.74152344 -22.26382813 106.93617188 -22.88671875 107.13671875 C-34.79813023 109.39022903 -46.65568784 107.77300726 -56.9296875 101.296875 C-63.56393813 96.12629597 -66.62439109 88.30050954 -67.6796875 80.171875 C-67.8034375 78.975625 -67.9271875 77.779375 -68.0546875 76.546875 C-72.3446875 76.546875 -76.6346875 76.546875 -81.0546875 76.546875 C-81.55197805 88.23320301 -80.56549482 95.72850914 -72.9296875 104.796875 C-68.44934074 109.4599439 -63.88203343 112.76781286 -58.0546875 115.546875 C-57.22066406 115.959375 -56.38664063 116.371875 -55.52734375 116.796875 C-42.1562169 122.32181694 -23.60203522 121.16686794 -10.0546875 116.546875 C0.452824 112.10138936 7.0581247 106.22031726 12 95.9765625 C14.8385012 88.68091066 15.03653206 80.78197753 12.3828125 73.421875 C7.83770859 63.388047 1.04213846 58.56389178 -9.0546875 54.546875 C-16.30982233 52.02532877 -23.73465867 50.38295483 -31.2253418 48.74462891 C-56.15023952 43.269358 -56.15023952 43.269358 -61.3046875 37.421875 C-64.47151352 32.21923225 -64.68067874 27.49832794 -64.0546875 21.546875 C-62.18196491 15.4396523 -57.43153645 11.65195566 -52.0546875 8.546875 C-41.70578577 4.62142952 -28.93070329 5.4122734 -18.71875 9.4765625 C-12.58367865 12.43199554 -8.91219133 16.36691756 -6.0546875 22.546875 C-5.08572811 25.9078066 -4.54469839 29.0677977 -4.0546875 32.546875 C0.2353125 32.546875 4.5253125 32.546875 8.9453125 32.546875 C9.6969184 22.58809684 6.30848507 14.16990057 -0.0703125 6.55078125 C-10.04709086 -3.52419374 -22.0611449 -5.64060778 -35.6796875 -5.765625 C-36.70964844 -5.79462891 -37.73960937 -5.82363281 -38.80078125 -5.85351562 C-53.33307506 -5.97233312 -65.14279601 0.1834115 -74.390625 11.2734375 Z " fill="#151514" transform="translate(762.0546875,438.453125)"/>
<path d="M0 0 C1.06154297 -0.03673828 1.06154297 -0.03673828 2.14453125 -0.07421875 C5.70729534 -0.09412246 7.87321815 0.21829661 10.91796875 2.11328125 C13.0500738 4.29821722 14.8211901 6.43210492 16.5625 8.9375 C17.58150391 10.37609375 17.58150391 10.37609375 18.62109375 11.84375 C19.20093018 12.66552734 19.20093018 12.66552734 19.79248047 13.50390625 C22.52825685 17.3454215 25.32949897 21.13934939 28.125 24.9375 C28.73029541 25.76040527 29.33559082 26.58331055 29.95922852 27.43115234 C34.21362667 33.19338728 38.5568644 38.85635171 43.125 44.375 C43.82882812 43.42882812 44.53265625 42.48265625 45.2578125 41.5078125 C46.25478962 40.1715625 47.25222332 38.83565308 48.25 37.5 C48.77754883 36.79343262 49.30509766 36.08686523 49.84863281 35.35888672 C52.86944111 31.32967448 55.92653203 27.33387977 59.0390625 23.375 C59.67827637 22.56144043 60.31749023 21.74788086 60.97607422 20.90966797 C62.23130599 19.31682436 63.49068268 17.72723746 64.75439453 16.14111328 C65.32528809 15.41649902 65.89618164 14.69188477 66.484375 13.9453125 C66.99452148 13.30352051 67.50466797 12.66172852 68.03027344 12.00048828 C69.31120129 10.42514759 69.31120129 10.42514759 69.125 8.375 C73.30999949 3.71171485 76.63145189 0.58572238 83.0078125 0.046875 C84.42207554 0.05740955 85.83629797 0.08379921 87.25 0.125 C88.32314453 0.13273437 88.32314453 0.13273437 89.41796875 0.140625 C92.56701834 0.18771359 95.12012429 0.37337476 98.125 1.375 C99.02337399 4.17758299 99.6242201 6.33299367 98.30810547 9.08007812 C96.9691582 11.00129304 95.54601159 12.81295439 94.0625 14.625 C93.52318848 15.31247314 92.98387695 15.99994629 92.42822266 16.70825195 C91.27196721 18.17980465 90.10829541 19.64555462 88.93798828 21.10595703 C86.51822908 24.1344033 84.14943877 27.20107835 81.77758789 30.26708984 C80.0109555 32.5483531 78.23709277 34.82380207 76.4609375 37.09765625 C69.93273679 45.46039707 63.46386557 53.86757515 57.125 62.375 C58.78794888 66.19978243 61.28337434 69.27530547 63.875 72.5 C64.87165121 73.7534632 65.86771634 75.00739258 66.86328125 76.26171875 C67.39260254 76.9273584 67.92192383 77.59299805 68.46728516 78.27880859 C71.3592803 81.93575562 74.20766925 85.62652098 77.0625 89.3125 C81.02090432 94.42010096 85.01104667 99.496729 89.07568359 104.52026367 C96.52751785 113.74170307 96.52751785 113.74170307 99.9375 118.5 C100.39769531 119.14195312 100.85789062 119.78390625 101.33203125 120.4453125 C102.41100771 123.07099906 101.93028564 124.70271135 101.125 127.375 C98.88711063 129.61288937 94.0003846 128.74775956 91 128.8125 C90.15695312 128.85826172 89.31390625 128.90402344 88.4453125 128.95117188 C83.91523166 129.03206618 80.93209381 128.72932803 77.359375 125.80859375 C74.01556982 122.49940656 71.22299887 118.82508611 68.5 115 C64.25210445 109.18233342 59.88141429 103.50695956 55.3125 97.9375 C50.83584676 92.47668366 46.41204024 86.98712541 42.125 81.375 C25.7793835 102.05590437 25.7793835 102.05590437 9.89453125 123.08984375 C5.91251596 128.23218137 5.91251596 128.23218137 3.07202148 128.74731445 C2.30446533 128.7443335 1.53690918 128.74135254 0.74609375 128.73828125 C-0.09244141 128.73763672 -0.93097656 128.73699219 -1.79492188 128.73632812 C-3.10299805 128.7121582 -3.10299805 128.7121582 -4.4375 128.6875 C-5.31341797 128.69072266 -6.18933594 128.69394531 -7.09179688 128.69726562 C-13.60791319 128.64208681 -13.60791319 128.64208681 -15.875 126.375 C-16.27904669 122.95939602 -16.2715899 121.03192126 -14.4765625 118.05859375 C-13.82429687 117.31738281 -13.17203125 116.57617188 -12.5 115.8125 C-11.76007813 114.94109375 -11.02015625 114.0696875 -10.2578125 113.171875 C-9.47148437 112.24890625 -8.68515625 111.3259375 -7.875 110.375 C-6.36211119 108.44754735 -4.8628654 106.50933405 -3.375 104.5625 C-2.77014771 103.77359375 -2.77014771 103.77359375 -2.15307617 102.96875 C-0.72506137 101.10568075 0.70017763 99.24051192 2.125 97.375 C3.04756592 96.1674707 3.04756592 96.1674707 3.98876953 94.93554688 C7.43686614 90.42052045 10.87916581 85.90126315 14.3125 81.375 C16.57656211 78.39361128 18.85886465 75.43119328 21.1875 72.5 C21.83513306 71.67350952 21.83513306 71.67350952 22.49584961 70.83032227 C23.59438929 69.43109645 24.70486345 68.04126237 25.81640625 66.65234375 C27.33458941 64.50412555 27.33458941 64.50412555 26.96484375 62.25390625 C25.49156257 58.95786789 24.14237877 57.38658585 21.125 55.375 C21.125 54.715 21.125 54.055 21.125 53.375 C19.42065272 50.8094134 17.67723685 48.30811737 15.875 45.8125 C14.7706752 44.26704007 13.66651316 42.72146382 12.5625 41.17578125 C11.99273437 40.38123535 11.42296875 39.58668945 10.8359375 38.76806641 C9.19334619 36.47059494 7.56262996 34.16531609 5.9375 31.85546875 C5.42767578 31.13085449 4.91785156 30.40624023 4.39257812 29.65966797 C3.38503082 28.22582571 2.37851125 26.79126069 1.37304688 25.35595703 C-0.83335021 22.21749673 -3.05566457 19.10666051 -5.40625 16.07421875 C-6.1384375 15.12160156 -6.870625 14.16898437 -7.625 13.1875 C-8.25921875 12.38957031 -8.8934375 11.59164063 -9.546875 10.76953125 C-11.22807423 7.73842793 -11.34718495 5.78889721 -10.875 2.375 C-7.18049796 -0.08800136 -4.27858812 0.00770917 0 0 Z M-6.875 5.375 C-2.67845827 12.26420332 1.83802166 18.78957736 6.64916992 25.25537109 C10.48378135 30.43601732 14.13448909 35.7271785 17.75 41.0625 C22.67737487 48.3292294 27.75749343 55.42636746 33.125 62.375 C30.29205574 67.91771703 26.71664203 72.40617057 22.734375 77.17578125 C19.82837057 80.69515226 17.09954176 84.33935649 14.375 88 C10.05613454 93.79840586 5.70670611 99.57091497 1.3125 105.3125 C0.4937439 106.38407349 0.4937439 106.38407349 -0.34155273 107.47729492 C-3.77528 111.96367469 -7.24932986 116.41442509 -10.80078125 120.80859375 C-12.06352277 122.33334022 -12.06352277 122.33334022 -11.875 124.375 C-2.73333418 125.69415471 -2.73333418 125.69415471 5.59765625 122.62890625 C7.5009016 120.2782699 9.20296947 117.86857719 10.83447266 115.32275391 C12.88178021 112.2328145 15.14340454 109.30985712 17.38256836 106.35742188 C19.32643141 103.79412923 21.25020948 101.21668112 23.171875 98.63671875 C29.04018402 90.7933296 35.0795963 83.0822202 41.125 75.375 C44.99815492 77.14096942 46.63744327 79.07144027 49.125 82.5625 C49.9169743 83.65401375 50.71136602 84.74377643 51.5078125 85.83203125 C51.9296582 86.40904785 52.35150391 86.98606445 52.78613281 87.58056641 C55.11291846 90.69907015 57.55753987 93.72180575 60 96.75 C64.50415527 102.34469566 68.96718361 107.96858859 73.38427734 113.63232422 C74.62458045 115.21840301 75.87468662 116.79680033 77.125 118.375 C77.49923096 118.94283203 77.87346191 119.51066406 78.2590332 120.09570312 C79.86264399 122.38243931 81.23563423 124.1541785 84.01782227 124.8449707 C86.18960084 124.96516118 88.26810516 124.90121787 90.4375 124.75 C91.17806641 124.72292969 91.91863281 124.69585938 92.68164062 124.66796875 C94.49735998 124.59768284 96.31156801 124.49007089 98.125 124.375 C94.02248462 117.6311391 89.14284304 111.6041663 84.14550781 105.51904297 C79.92958408 100.38200305 75.84345812 95.17072142 71.8125 89.88671875 C67.86696742 84.71581823 63.85664957 79.59491548 59.85766602 74.46533203 C59.28717529 73.7329834 58.71668457 73.00063477 58.12890625 72.24609375 C57.62174072 71.59568115 57.1145752 70.94526855 56.59204102 70.27514648 C56.10791748 69.64809814 55.62379395 69.0210498 55.125 68.375 C54.54741943 67.71765869 53.96983887 67.06031738 53.37475586 66.38305664 C52.125 64.375 52.125 64.375 52.26196289 62.36694336 C53.24009124 60.10936226 54.40075136 58.42991973 55.93359375 56.50390625 C56.51077148 55.77131592 57.08794922 55.03872559 57.68261719 54.28393555 C58.30297852 53.50961182 58.92333984 52.73528809 59.5625 51.9375 C60.84794761 50.31012593 62.1331023 48.68252045 63.41796875 47.0546875 C64.05138184 46.25643555 64.68479492 45.45818359 65.33740234 44.63574219 C67.71177545 41.63291578 70.04800914 38.60209625 72.375 35.5625 C73.16003906 34.54027344 73.94507813 33.51804687 74.75390625 32.46484375 C75.53636719 31.44519531 76.31882812 30.42554688 77.125 29.375 C78.42325581 27.6847432 79.72187213 25.99476542 81.02099609 24.30517578 C81.86961309 23.20117159 82.71761397 22.09669347 83.56494141 20.99169922 C86.64300289 16.98245947 89.77534522 13.0189261 92.9453125 9.08203125 C94.31450818 7.44661096 94.31450818 7.44661096 94.125 5.375 C88.71760044 4.23733931 83.43772658 3.46927049 78.125 5.375 C72.87891801 9.4582225 69.37278062 15.4028735 65.77001953 20.90332031 C63.28019716 24.6443357 60.54331036 28.18351272 57.8125 31.75 C56.84035306 33.04791274 55.87025075 34.3473598 54.90234375 35.6484375 C52.2344211 39.22987922 49.5561035 42.80341975 46.875 46.375 C46.14796875 47.344375 45.4209375 48.31375 44.671875 49.3125 C43.90617187 50.3334375 43.90617187 50.3334375 43.125 51.375 C39.04854976 47.64653941 35.9793063 43.26183634 32.75 38.8125 C31.50660557 37.11190959 30.26311298 35.41139095 29.01953125 33.7109375 C28.38096191 32.8353418 27.74239258 31.95974609 27.08447266 31.05761719 C23.88259796 26.67408876 20.65940167 22.30631707 17.4375 17.9375 C16.84984863 17.13948975 16.26219727 16.34147949 15.65673828 15.51928711 C15.10614746 14.77171143 14.55555664 14.02413574 13.98828125 13.25390625 C13.50657471 12.5997876 13.02486816 11.94566895 12.52856445 11.27172852 C11.83380005 10.3328479 11.83380005 10.3328479 11.125 9.375 C10.64466309 8.6430542 10.16432617 7.9111084 9.66943359 7.15698242 C8.12321957 4.96485812 8.12321957 4.96485812 4.55078125 4.984375 C3.17914252 5.0108801 1.80778062 5.0584691 0.4375 5.125 C-0.26439453 5.14304687 -0.96628906 5.16109375 -1.68945312 5.1796875 C-3.41855436 5.22673787 -5.14695205 5.29848127 -6.875 5.375 Z " fill="#161615" transform="translate(251.875,431.625)"/>
<path d="M0 0 C1.39385198 1.03764536 2.76963893 2.10005914 4.125 3.1875 C4.81078125 3.70054687 5.4965625 4.21359375 6.203125 4.7421875 C19.47706789 15.33094347 25.43975442 32.94996718 27.37548828 49.30371094 C28.79377603 63.27462459 28.79377603 63.27462459 26.125 67.1875 C24.25826359 67.79288387 24.25826359 67.79288387 22.02857971 67.93040466 C21.22074602 67.98566755 20.41291233 68.04093044 19.58059883 68.09786797 C15.93940398 68.23077555 12.31157024 68.31909392 8.66772461 68.30102539 C7.87637115 68.30117142 7.0850177 68.30131744 6.26968384 68.3014679 C3.6888746 68.30077869 1.10814017 68.29303343 -1.47265625 68.28515625 C-3.27583273 68.28328854 -5.07900972 68.2818663 -6.88218689 68.28086853 C-11.60197376 68.27707117 -16.32172931 68.26726496 -21.04150391 68.25616455 C-25.86815975 68.24589031 -30.69482072 68.24135808 -35.52148438 68.23632812 C-44.97266993 68.22563992 -54.42383235 68.20859732 -63.875 68.1875 C-63.56330092 69.95767585 -63.24879964 71.72735844 -62.93310547 73.49682617 C-62.7582663 74.48236984 -62.58342712 75.46791351 -62.40328979 76.48332214 C-60.30029774 87.24799072 -54.69491603 95.75970142 -45.875 102.1875 C-37.6960485 107.05592351 -26.53777212 107.05839682 -17.5 105.125 C-9.02748333 102.61253827 -3.82659325 98.07575183 0.80859375 90.63671875 C2.96409928 86.62632715 4.55308285 82.45182909 6.125 78.1875 C7.125 76.1875 7.125 76.1875 8.7421875 75.546875 C11.97078505 75.05993898 14.99305569 75.23351601 18.25 75.4375 C19.49007812 75.50453125 20.73015625 75.5715625 22.0078125 75.640625 C23.55082031 75.91132813 23.55082031 75.91132813 25.125 76.1875 C27.31963392 79.47945088 27.3990449 80.81878075 26.77734375 84.6328125 C23.19119846 98.67675871 15.02659598 112.00936852 2.62109375 119.828125 C-12.68744533 128.16516976 -30.383019 129.5130343 -47.13745117 125.09423828 C-60.92271984 121.02197741 -70.91390128 112.44905679 -78.2734375 100.30078125 C-88.96487947 79.51766113 -89.51467344 54.66643001 -82.7734375 32.578125 C-76.78490615 16.11932271 -67.24101873 4.13538431 -51.4296875 -3.47265625 C-35.41453267 -9.50913769 -14.70561682 -9.31272508 0 0 Z M-60.875 7.1875 C-61.74125 7.765 -62.6075 8.3425 -63.5 8.9375 C-75.65585185 20.45357017 -81.63880315 37.7903704 -82.34375 54.203125 C-82.37765321 56.6143675 -82.38755543 59.02605185 -82.375 61.4375 C-82.37000488 62.70440674 -82.36500977 63.97131348 -82.35986328 65.27661133 C-82.03549294 82.78254334 -77.16435399 97.17698259 -65.05859375 110.15234375 C-52.69867535 121.67205303 -37.62862761 123.0366521 -21.5234375 122.5703125 C-11.13104838 122.02765573 -2.98099952 118.64402287 5.125 112.1875 C5.72828125 111.70925781 6.3315625 111.23101563 6.953125 110.73828125 C15.72773379 102.89251618 20.68776466 91.45971346 23.125 80.1875 C18.835 80.1875 14.545 80.1875 10.125 80.1875 C9.38056641 81.78078125 9.38056641 81.78078125 8.62109375 83.40625 C3.18477921 94.81994688 -1.09840197 103.15154524 -13.2265625 108.27734375 C-23.37635075 111.76539782 -35.69054879 111.63059626 -45.55078125 107.37109375 C-56.41186109 101.84015729 -62.13313533 92.63987367 -65.875 81.1875 C-67.77097634 75.17976775 -68.23670121 69.57048785 -68.875 63.1875 C-38.515 63.1875 -8.155 63.1875 23.125 63.1875 C23.125 43.41545643 20.05769084 26.50023702 7.01953125 11.078125 C-3.70954002 0.37117553 -17.37687789 -3.10079968 -32.14453125 -3.12939453 C-43.17805233 -2.93908039 -52.16198225 0.49649059 -60.875 7.1875 Z " fill="#131312" transform="translate(211.875,435.8125)"/>
<path d="M0 0 C14.60979741 12.08245764 20.88058395 30.04222494 22.8984375 48.37890625 C23.84899678 59.01515176 23.84899678 59.01515176 22.33203125 62.46484375 C17.83018966 66.1711792 10.66534685 65.20708382 5.06469727 65.17993164 C3.86347481 65.18015068 3.86347481 65.18015068 2.63798523 65.18037415 C0.01383676 65.1796823 -2.61023906 65.17192425 -5.234375 65.1640625 C-7.06283021 65.16219573 -8.89128593 65.16077305 -10.71974182 65.15977478 C-15.51518146 65.15596999 -20.31059047 65.14615722 -25.10601807 65.1350708 C-30.00622137 65.12481274 -34.90642966 65.12026777 -39.80664062 65.11523438 C-49.40886757 65.10453302 -59.01107186 65.08748123 -68.61328125 65.06640625 C-68.17904857 67.26731419 -67.7342423 69.46613723 -67.28515625 71.6640625 C-66.91535645 73.50109741 -66.91535645 73.50109741 -66.53808594 75.37524414 C-64.35452385 84.09046989 -60.13180454 92.79902594 -52.61328125 98.06640625 C-41.98259244 103.42282751 -31.76348534 104.66201936 -20.28515625 101.16015625 C-11.58653001 97.5993151 -6.65723256 91.33013284 -2.61328125 83.06640625 C-1.96080162 81.40233029 -1.31454992 79.73579328 -0.67578125 78.06640625 C0.79983177 74.62330919 1.06113404 74.22293736 4.63671875 72.50390625 C14.40441787 71.36434135 14.40441787 71.36434135 19.38671875 73.12890625 C21.38671875 75.06640625 21.38671875 75.06640625 22.01171875 77.94140625 C21.21705281 88.10024387 15.52517366 97.26631142 9.38671875 105.06640625 C8.75636719 105.90171875 8.12601563 106.73703125 7.4765625 107.59765625 C-0.28895683 116.77112955 -11.97836532 122.06968841 -23.73828125 123.87890625 C-40.73933933 124.70153809 -56.96666046 123.42006861 -70.5234375 111.99609375 C-83.62504479 99.89853487 -90.46336041 83.3769662 -91.5234375 65.5625 C-91.55308594 64.73878906 -91.58273437 63.91507812 -91.61328125 63.06640625 C-91.65324219 62.35613281 -91.69320312 61.64585937 -91.734375 60.9140625 C-92.39870159 39.92915778 -85.96031047 19.48946266 -71.61328125 4.06640625 C-52.09817847 -14.72347311 -21.49862809 -15.90705666 0 0 Z M-72.86328125 11.62890625 C-86.27895522 29.61747935 -89.11884066 51.69248103 -86.07421875 73.52734375 C-83.36724342 88.19260572 -77.58074705 100.91336345 -65.81640625 110.5703125 C-51.71717316 120.14479171 -34.12478574 121.25965803 -17.69140625 118.37890625 C-4.03300933 114.13277249 6.03603306 104.55827287 12.91015625 92.25390625 C15.20388576 87.30236318 16.30587492 82.40704633 17.38671875 77.06640625 C13.09671875 77.06640625 8.80671875 77.06640625 4.38671875 77.06640625 C4.05800781 77.96101562 3.72929688 78.855625 3.390625 79.77734375 C-0.77939889 90.37756708 -5.61568601 99.03717876 -16.36328125 104.12890625 C-26.02055771 108.09629614 -37.60435704 108.79397721 -47.55078125 105.44140625 C-58.27201637 100.85112929 -64.22572681 93.86516866 -68.8671875 83.1796875 C-71.67995658 75.40565044 -72.41152622 68.47869146 -73.61328125 60.06640625 C-43.25328125 60.06640625 -12.89328125 60.06640625 18.38671875 60.06640625 C18.38671875 40.41829248 15.03179654 21.77407028 1.2890625 6.77734375 C-10.5141162 -4.33887746 -23.46501867 -6.62706501 -39.140625 -6.3046875 C-52.62624062 -5.65747008 -64.12118788 1.52767745 -72.86328125 11.62890625 Z " fill="#131312" transform="translate(645.61328125,438.93359375)"/>
<path d="M0 0 C16.23055104 11.98986195 24.87432336 26.94565705 28.4765625 46.72265625 C31.44465813 67.90041966 27.7919755 89.99397178 15.078125 107.53515625 C7.14709409 117.28402049 -4.18801512 124.92908383 -16.921875 126.53515625 C-17.95699219 126.66664063 -18.99210937 126.798125 -20.05859375 126.93359375 C-35.57745636 128.4701148 -48.15770779 125.59580405 -60.828125 116.43359375 C-61.5190625 115.80710937 -62.21 115.180625 -62.921875 114.53515625 C-62.921875 113.87515625 -62.921875 113.21515625 -62.921875 112.53515625 C-63.911875 113.03015625 -63.911875 113.03015625 -64.921875 113.53515625 C-65.251875 121.12515625 -65.581875 128.71515625 -65.921875 136.53515625 C-65.261875 136.86515625 -64.601875 137.19515625 -63.921875 137.53515625 C-63.921875 138.52515625 -63.921875 139.51515625 -63.921875 140.53515625 C-64.581875 140.53515625 -65.241875 140.53515625 -65.921875 140.53515625 C-65.91140137 141.2214209 -65.90092773 141.90768555 -65.89013672 142.61474609 C-65.84865626 145.71317914 -65.82257431 148.81155386 -65.796875 151.91015625 C-65.78011719 152.99039063 -65.76335937 154.070625 -65.74609375 155.18359375 C-65.73964844 156.21484375 -65.73320312 157.24609375 -65.7265625 158.30859375 C-65.71608887 159.26169434 -65.70561523 160.21479492 -65.69482422 161.19677734 C-65.921875 163.53515625 -65.921875 163.53515625 -67.921875 165.53515625 C-70.77752859 165.76067966 -73.5044101 165.85944388 -76.359375 165.84765625 C-77.52436523 165.87182617 -77.52436523 165.87182617 -78.71289062 165.89648438 C-84.35612815 165.90134504 -84.35612815 165.90134504 -86.64398289 164.42049408 C-88.54162649 161.62080603 -88.30272098 159.36840626 -88.30955505 156.00646973 C-88.31494059 155.34040411 -88.32032613 154.6743385 -88.32587487 153.98808908 C-88.34020598 151.75163819 -88.33303845 149.5157749 -88.32592773 147.27929688 C-88.3316286 145.67782616 -88.33859175 144.0763595 -88.34672546 142.47489929 C-88.3647024 138.1216502 -88.36348015 133.76860217 -88.35778308 129.41532707 C-88.35469811 125.78437989 -88.36077586 122.15347172 -88.36682183 118.52253008 C-88.38088001 109.95916038 -88.37929471 101.39589042 -88.36791992 92.83251953 C-88.3564338 83.98976669 -88.37051966 75.14731695 -88.3973164 66.30460405 C-88.41944541 58.71897506 -88.42611722 51.13344141 -88.42023998 43.54778242 C-88.4168629 39.01430982 -88.41933518 34.48103161 -88.43649101 29.94758606 C-88.45191392 25.68591265 -88.44805687 21.42468975 -88.42918587 17.16303444 C-88.42548717 15.59688722 -88.42864557 14.03070696 -88.43907166 12.46459007 C-88.45219696 10.33048219 -88.44081238 8.19788452 -88.42308044 6.06384277 C-88.42287116 4.86848656 -88.42266188 3.67313034 -88.42244625 2.44155121 C-87.921875 -0.46484375 -87.921875 -0.46484375 -86.08390903 -2.34798431 C-83.11256721 -3.88291443 -80.75148394 -3.8627539 -77.421875 -3.83984375 C-76.2978125 -3.84757812 -75.17375 -3.8553125 -74.015625 -3.86328125 C-70.64285351 -3.42890916 -69.24311046 -2.92424799 -66.921875 -0.46484375 C-66.1179202 2.23046624 -66.10767998 4.70163027 -65.921875 7.53515625 C-65.46039063 7.08785156 -64.99890625 6.64054687 -64.5234375 6.1796875 C-47.38202808 -9.7082987 -20.0947217 -12.54002671 0 0 Z M-50.921875 1.53515625 C-51.71464844 1.97085937 -52.50742187 2.4065625 -53.32421875 2.85546875 C-60.70322646 7.34917395 -65.51257747 13.18632703 -69.921875 20.53515625 C-70.251875 14.26515625 -70.581875 7.99515625 -70.921875 1.53515625 C-75.211875 1.53515625 -79.501875 1.53515625 -83.921875 1.53515625 C-83.921875 54.33515625 -83.921875 107.13515625 -83.921875 161.53515625 C-79.301875 161.53515625 -74.681875 161.53515625 -69.921875 161.53515625 C-69.591875 141.07515625 -69.261875 120.61515625 -68.921875 99.53515625 C-66.941875 102.17515625 -64.961875 104.81515625 -62.921875 107.53515625 C-56.95290186 114.62331185 -47.34075801 121.0778951 -37.921875 122.53515625 C-22.0800007 123.41620167 -7.15417971 121.97317056 5.55078125 111.49609375 C18.27800145 99.47003927 24.2033131 82.32906531 25.296875 65.0859375 C25.80191216 44.94758074 20.69731327 25.79859914 6.765625 10.78515625 C2.65965929 6.8986631 -1.91516898 4.12046427 -6.921875 1.53515625 C-7.685 1.11878906 -8.448125 0.70242188 -9.234375 0.2734375 C-21.10387199 -5.14772699 -39.52307084 -4.84817408 -50.921875 1.53515625 Z M-65.921875 110.53515625 C-64.921875 112.53515625 -64.921875 112.53515625 -64.921875 112.53515625 Z " fill="#141514" transform="translate(447.921875,435.46484375)"/>
<path d="M0 0 C1.92237739 3.14401722 1.72365929 6.40564654 1.7109375 9.98046875 C1.73929688 10.70492188 1.76765625 11.429375 1.796875 12.17578125 C1.8046875 14.29296875 1.8046875 14.29296875 1.2109375 17.98046875 C-2.15789555 21.03021379 -5.55610575 21.43877185 -9.9765625 21.91796875 C-19.86205249 23.30149105 -28.18894061 26.17646196 -34.7890625 33.98046875 C-46.3197428 50.76401452 -42.98073356 73.72019586 -42.7890625 93.10546875 C-42.74809583 97.28732229 -42.70977812 101.46909546 -42.68701172 105.65109253 C-42.67202999 108.23769187 -42.64802422 110.82425915 -42.61376953 113.41067505 C-42.60385986 115.16442947 -42.60385986 115.16442947 -42.59375 116.95361328 C-42.58327637 117.97568878 -42.57280273 118.99776428 -42.56201172 120.05081177 C-42.81291519 123.28824218 -43.64836478 125.95107193 -44.7890625 128.98046875 C-47.72711246 129.06133251 -50.66294325 129.12089705 -53.6015625 129.16796875 C-54.43494141 129.19310547 -55.26832031 129.21824219 -56.12695312 129.24414062 C-57.33061523 129.25864258 -57.33061523 129.25864258 -58.55859375 129.2734375 C-59.66618042 129.29700317 -59.66618042 129.29700317 -60.79614258 129.32104492 C-63.42415361 128.87193609 -64.15638823 128.06846225 -65.7890625 125.98046875 C-66.16658592 123.71438599 -66.16658592 123.71438599 -66.17001343 121.00830078 C-66.1784729 119.98198547 -66.18693237 118.95567017 -66.19564819 117.89825439 C-66.1895755 116.77296326 -66.18350281 115.64767212 -66.17724609 114.48828125 C-66.18250305 113.30272644 -66.18776001 112.11717163 -66.19317627 110.89569092 C-66.20412781 107.6435811 -66.20154663 104.39183678 -66.19203901 101.13973236 C-66.18444844 97.73784104 -66.19148634 94.3359743 -66.19619751 90.93408203 C-66.20165684 85.22098399 -66.19445888 79.50800226 -66.18017578 73.79492188 C-66.16384882 67.18798311 -66.16913721 60.58132206 -66.185655 53.97439003 C-66.19926489 48.30381707 -66.20119199 42.63332777 -66.19333899 36.96274376 C-66.1886597 33.57507143 -66.18804452 30.18752968 -66.19794846 26.79986572 C-66.20554078 23.02393639 -66.19398905 19.24854534 -66.17724609 15.47265625 C-66.18331879 14.34736511 -66.18939148 13.22207397 -66.19564819 12.06268311 C-66.18718872 11.0363678 -66.17872925 10.01005249 -66.17001343 8.95263672 C-66.16888235 8.0596286 -66.16775127 7.16662048 -66.16658592 6.24655151 C-65.7890625 3.98046875 -65.7890625 3.98046875 -64.49791908 2.19241333 C-61.57286426 0.11792424 -58.17477388 0.59174834 -54.7265625 0.66796875 C-53.99373047 0.66474609 -53.26089844 0.66152344 -52.50585938 0.65820312 C-47.05628189 0.71324936 -47.05628189 0.71324936 -44.7890625 2.98046875 C-44.15625 5.58203125 -44.15625 5.58203125 -43.6640625 8.60546875 C-43.49648438 9.60835938 -43.32890625 10.61125 -43.15625 11.64453125 C-43.03507812 12.41539062 -42.91390625 13.18625 -42.7890625 13.98046875 C-42.27859375 13.46097656 -41.768125 12.94148438 -41.2421875 12.40625 C-32.79314912 4.30176461 -12.10951616 -6.90083781 0 0 Z M-40.8671875 17.52734375 C-43.61820732 21.03880807 -45.62271984 25.08105197 -47.7890625 28.98046875 C-48.1190625 21.39046875 -48.4490625 13.80046875 -48.7890625 5.98046875 C-52.7490625 5.98046875 -56.7090625 5.98046875 -60.7890625 5.98046875 C-60.7890625 45.25046875 -60.7890625 84.52046875 -60.7890625 124.98046875 C-56.4990625 124.98046875 -52.2090625 124.98046875 -47.7890625 124.98046875 C-47.78763748 124.08447968 -47.78621246 123.1884906 -47.78474426 122.26535034 C-47.76681104 113.76352462 -47.72489464 105.26221241 -47.65697193 96.76063347 C-47.62288425 92.39129842 -47.59762063 88.02230626 -47.59350586 83.65283203 C-47.58918336 79.42495661 -47.56039902 75.19785226 -47.51563072 70.97021866 C-47.50278053 69.36858765 -47.49830301 67.76686377 -47.50290871 66.16518784 C-47.53451593 51.81725659 -45.34206418 38.66565835 -34.7890625 27.98046875 C-26.07187975 19.7444893 -15.33972797 17.61115093 -3.7890625 15.98046875 C-3.7890625 11.69046875 -3.7890625 7.40046875 -3.7890625 2.98046875 C-17.95759302 2.01989041 -30.87609149 7.70703571 -40.8671875 17.52734375 Z " fill="#1D1D1C" transform="translate(554.7890625,431.01953125)"/>
<path d="M0 0 C1.36125 1.0828125 1.36125 1.0828125 2.75 2.1875 C3.57564453 2.83912109 3.57564453 2.83912109 4.41796875 3.50390625 C14.02095748 11.96216785 18.99315035 25.86703334 19.90966797 38.36474609 C20.73494897 54.73681447 19.26028867 71.51357862 8.67578125 84.7890625 C2.74338721 91.14593849 -4.37775144 95.62357061 -13.21362305 96.34863281 C-27.96526941 96.6510864 -37.83959552 95.25356098 -49.3828125 85.359375 C-59.45546488 75.32502167 -62.46639345 60.61589218 -62.5625 46.875 C-62.58308709 33.00845399 -60.62828279 20.66640713 -52.25 9.1875 C-51.5075 8.115 -50.765 7.0425 -50 5.9375 C-36.08519793 -7.97730207 -16.81340044 -9.37670409 0 0 Z M-45.375 7.6875 C-54.96341711 17.93523852 -58.18320573 31.65347187 -58.5625 45.375 C-58.00665941 59.22469478 -55.32351032 73.10878642 -45.359375 83.31640625 C-36.65135448 91.04074297 -27.71819127 92.79496008 -16.19921875 92.49609375 C-7.04440355 91.78073232 -0.41051342 87.89928979 5.75 81.1875 C15.19714007 69.52343106 16.72209883 53.6435503 15.75 39.1875 C13.94656292 24.80260424 9.41409624 12.70605684 -2.30859375 3.5859375 C-15.8536494 -4.91389558 -33.75004614 -2.92467379 -45.375 7.6875 Z " fill="#161616" transform="translate(439.25,449.8125)"/>
<path d="M0 0 C11.68883399 7.51278822 18.14960922 17.89558601 21.23046875 31.43359375 C21.23046875 34.07359375 21.23046875 36.71359375 21.23046875 39.43359375 C-4.50953125 39.43359375 -30.24953125 39.43359375 -56.76953125 39.43359375 C-55.05265184 25.69855847 -51.09404876 12.80723876 -39.8203125 3.83203125 C-28.84367053 -3.65299318 -12.23356967 -6.08520075 0 0 Z M-40.76953125 10.43359375 C-46.73434029 17.27665688 -51.76953125 26.13007294 -51.76953125 35.43359375 C-28.99953125 35.43359375 -6.22953125 35.43359375 17.23046875 35.43359375 C14.15189066 23.11928137 11.64502251 14.8388544 2.23046875 6.43359375 C-11.29650995 -1.65149697 -29.3105138 -0.83483713 -40.76953125 10.43359375 Z " fill="#181817" transform="translate(199.76953125,447.56640625)"/>
<path d="M0 0 C10.01264477 6.78275936 14.86359913 17.04451761 18.33203125 28.29296875 C18.8125 30.8125 18.8125 30.8125 18.8125 37.8125 C-6.5975 37.8125 -32.0075 37.8125 -58.1875 37.8125 C-58.1875 29.92134354 -58.1875 29.92134354 -57.0859375 26.91015625 C-56.84641357 26.25144531 -56.60688965 25.59273438 -56.36010742 24.9140625 C-56.09689697 24.24117188 -55.83368652 23.56828125 -55.5625 22.875 C-55.28962158 22.16988281 -55.01674316 21.46476562 -54.7355957 20.73828125 C-52.59419906 15.41712306 -50.20803349 10.96393458 -46.1875 6.8125 C-45.53007813 6.11640625 -44.87265625 5.4203125 -44.1953125 4.703125 C-31.83535013 -7.34893795 -14.82226846 -8.42109686 0 0 Z M-41.875 8.125 C-48.383538 15.6889766 -51.7801684 24.18317359 -54.1875 33.8125 C-31.4175 33.8125 -8.6475 33.8125 14.8125 33.8125 C11.2970627 20.92256322 8.17998154 10.54627377 -3.1875 2.8125 C-16.37353255 -4.53877741 -30.93388597 -1.28944695 -41.875 8.125 Z " fill="#161515" transform="translate(631.1875,449.1875)"/>
<path d="M0 0 C4.29 0 8.58 0 13 0 C13 0.33 13 0.66 13 1 C9.7 1.33 6.4 1.66 3 2 C2.67 4.97 2.34 7.94 2 11 C1.34 10.67 0.68 10.34 0 10 C0 6.7 0 3.4 0 0 Z " fill="#D9D7D5" transform="translate(793,515)"/>
<path d="M0 0 C-5.28 0 -10.56 0 -16 0 C-16 -0.66 -16 -1.32 -16 -2 C-13.89807303 -2.24887295 -11.79326036 -2.4734719 -9.6875 -2.6875 C-7.92986328 -2.87892578 -7.92986328 -2.87892578 -6.13671875 -3.07421875 C-3 -3 -3 -3 0 0 Z " fill="#EDEDEA" transform="translate(350,556)"/>
<path d="M0 0 C0.66 0.33 1.32 0.66 2 1 C2 3.64 2 6.28 2 9 C-2.29 9 -6.58 9 -11 9 C-10.67 8.01 -10.34 7.02 -10 6 C-10 6.66 -10 7.32 -10 8 C-5.545 7.505 -5.545 7.505 -1 7 C-0.67 4.69 -0.34 2.38 0 0 Z " fill="#C5C5C3" transform="translate(769,462)"/>
<path d="M0 0 C0.33 0 0.66 0 1 0 C1.33 3.63 1.66 7.26 2 11 C-2.29 11 -6.58 11 -11 11 C-11 10.67 -11 10.34 -11 10 C-5.555 9.505 -5.555 9.505 0 9 C0 6.03 0 3.06 0 0 Z " fill="#C2C2C0" transform="translate(882,460)"/>
<path d="M0 0 C0.66 0.33 1.32 0.66 2 1 C-1.66505414 4.99824088 -5.11112852 7.60168569 -10 10 C-10.66 9.67 -11.32 9.34 -12 9 C-10.56351736 7.87370125 -9.12577415 6.7490101 -7.6875 5.625 C-6.88699219 4.99851562 -6.08648437 4.37203125 -5.26171875 3.7265625 C-3.55336788 2.42243282 -1.78827274 1.19218183 0 0 Z " fill="#E4E3E0" transform="translate(158,438)"/>
<path d="M0 0 C0.99 0.33 1.98 0.66 3 1 C3 2.98 3 4.96 3 7 C2.01 7.33 1.02 7.66 0 8 C0 5.36 0 2.72 0 0 Z " fill="#020201" transform="translate(126,498)"/>
<path d="M0 0 C0.66 0.33 1.32 0.66 2 1 C0.35 2.98 -1.3 4.96 -3 7 C-3.99 6.67 -4.98 6.34 -6 6 C-4.02 4.02 -2.04 2.04 0 0 Z " fill="#EAE9E6" transform="translate(389,442)"/>
<path d="M0 0 C0.66 0.33 1.32 0.66 2 1 C1.01 1 0.02 1 -1 1 C-0.67 0.67 -0.34 0.34 0 0 Z M-3 2 C-2.34 2.33 -1.68 2.66 -1 3 C-4.465 5.97 -4.465 5.97 -8 9 C-6.92643531 4.70574125 -6.4915227 4.25259529 -3 2 Z " fill="#EDEDEA" transform="translate(812,439)"/>
<path d="M0 0 C1.17539996 0.92652701 2.34010577 1.86663387 3.5 2.8125 C4.1496875 3.33457031 4.799375 3.85664062 5.46875 4.39453125 C7 6 7 6 7 9 C6.67 8.34 6.34 7.68 6 7 C5.360625 6.731875 4.72125 6.46375 4.0625 6.1875 C1.31843292 4.60758259 0.93109876 2.9484794 0 0 Z " fill="#E6E6E3" transform="translate(152,532)"/>
<path d="M0 0 C2.96404505 2.80804268 5.44499019 5.18315774 7 9 C2.97449681 7.6581656 2.11714364 5.5772427 0 2 C0 1.34 0 0.68 0 0 Z " fill="#E9E8E5" transform="translate(456,449)"/>
<path d="M0 0 C-1.15173355 2.46800047 -2.04783565 4.04783565 -4 6 C-4.99 5.67 -5.98 5.34 -7 5 C-2.25 0 -2.25 0 0 0 Z " fill="#EEEDEA" transform="translate(644,533)"/>
<path d="M0 0 C3.91402949 1.26941497 5.79072873 2.51167694 8 6 C7.01 6 6.02 6 5 6 C4.67 5.01 4.34 4.02 4 3 C1.99983534 1.79117904 1.99983534 1.79117904 0 1 C0 0.67 0 0.34 0 0 Z " fill="#E0DFDE" transform="translate(212,443)"/>
<path d="M0 0 C3.25543229 0.34879632 4.01873107 1.02133261 6.25 3.5625 C6.8275 4.366875 7.405 5.17125 8 6 C6.68 5.67 5.36 5.34 4 5 C4 4.34 4 3.68 4 3 C2.68 2.34 1.36 1.68 0 1 C0 0.67 0 0.34 0 0 Z " fill="#E7E6E4" transform="translate(755,441)"/>
<path d="M0 0 C0.66 0.33 1.32 0.66 2 1 C-3.75 6 -3.75 6 -6 6 C-6 5.01 -6 4.02 -6 3 C-4.03533587 1.93224776 -2.03144641 0.93446535 0 0 Z " fill="#EFEDEA" transform="translate(592,436)"/>
<path d="M0 0 C3.96 0 7.92 0 12 0 C12 0.33 12 0.66 12 1 C8.04 1 4.08 1 0 1 C0 0.67 0 0.34 0 0 Z " fill="#888683" transform="translate(628,481)"/>
<path d="M0 0 C3.63 0 7.26 0 11 0 C11 0.33 11 0.66 11 1 C7.37 1 3.74 1 0 1 C0 0.67 0 0.34 0 0 Z " fill="#81807C" transform="translate(164,481)"/>
<path d="M0 0 C2.97 0 5.94 0 9 0 C9 0.33 9 0.66 9 1 C6.03 1 3.06 1 0 1 C0 0.67 0 0.34 0 0 Z " fill="#83817E" transform="translate(618,481)"/>
<path d="M0 0 C2.97 0 5.94 0 9 0 C9 0.33 9 0.66 9 1 C6.03 1 3.06 1 0 1 C0 0.67 0 0.34 0 0 Z " fill="#878582" transform="translate(154,481)"/>
<path d="M0 0 C1.98 0 3.96 0 6 0 C6 0.33 6 0.66 6 1 C4.02 1 2.04 1 0 1 C0 0.67 0 0.34 0 0 Z " fill="#888581" transform="translate(587,481)"/>
<path d="M0 0 C1.65 0 3.3 0 5 0 C5 0.33 5 0.66 5 1 C3.35 1 1.7 1 0 1 C0 0.67 0 0.34 0 0 Z " fill="#83817E" transform="translate(602,481)"/>
<path d="M0 0 C1.65 0 3.3 0 5 0 C5 0.33 5 0.66 5 1 C3.35 1 1.7 1 0 1 C0 0.67 0 0.34 0 0 Z " fill="#83827F" transform="translate(596,481)"/>
<path d="M0 0 C1.65 0 3.3 0 5 0 C5 0.33 5 0.66 5 1 C3.35 1 1.7 1 0 1 C0 0.67 0 0.34 0 0 Z " fill="#8C8887" transform="translate(581,481)"/>
<path d="M0 0 C4 1 4 1 4 1 Z " fill="#817F7C" transform="translate(611,481)"/>
<path d="M0 0 C4 1 4 1 4 1 Z " fill="#7F7E7B" transform="translate(181,481)"/>
<path d="M0 0 C4 1 4 1 4 1 Z " fill="#7F7E7B" transform="translate(176,481)"/>
<path d="M0 0 C3 1 3 1 3 1 Z " fill="#827F7B" transform="translate(186,481)"/>
<path d="M0 0 C2 1 2 1 2 1 Z " fill="#7C7D79" transform="translate(848,540)"/>
<path d="" fill="#82847F" transform="translate(0,0)"/>
<path d="" fill="#8E8E8E" transform="translate(0,0)"/>
<path d="" fill="#717372" transform="translate(0,0)"/>
<path d="" fill="#848784" transform="translate(0,0)"/>
<path d="" fill="#818380" transform="translate(0,0)"/>
<path d="M0 0 C2 1 2 1 2 1 Z " fill="#939091" transform="translate(297,519)"/>
<path d="" fill="#838384" transform="translate(0,0)"/>
<path d="" fill="#878B87" transform="translate(0,0)"/>
<path d="" fill="#6C6C68" transform="translate(0,0)"/>
<path d="" fill="#807F7A" transform="translate(0,0)"/>
<path d="" fill="#50524E" transform="translate(0,0)"/>
<path d="" fill="#848581" transform="translate(0,0)"/>
<path d="" fill="#606160" transform="translate(0,0)"/>
<path d="" fill="#676764" transform="translate(0,0)"/>
<path d="" fill="#636460" transform="translate(0,0)"/>
<path d="" fill="#62635E" transform="translate(0,0)"/>
<path d="" fill="#6F6C68" transform="translate(0,0)"/>
<path d="" fill="#6D6C69" transform="translate(0,0)"/>
<path d="" fill="#6B6A66" transform="translate(0,0)"/>
<path d="" fill="#6A6864" transform="translate(0,0)"/>
<path d="" fill="#6D6E6D" transform="translate(0,0)"/>
<path d="" fill="#868681" transform="translate(0,0)"/>
<path d="" fill="#6C6C6A" transform="translate(0,0)"/>
<path d="" fill="#8B8A87" transform="translate(0,0)"/>
<path d="" fill="#84857D" transform="translate(0,0)"/>
<path d="" fill="#7B7E77" transform="translate(0,0)"/>
<path d="" fill="#938F92" transform="translate(0,0)"/>
<path d="" fill="#74736F" transform="translate(0,0)"/>
<path d="" fill="#676664" transform="translate(0,0)"/>
<path d="" fill="#72726F" transform="translate(0,0)"/>
<path d="" fill="#757671" transform="translate(0,0)"/>
<path d="" fill="#797874" transform="translate(0,0)"/>
<path d="" fill="#898886" transform="translate(0,0)"/>
<path d="" fill="#696B6A" transform="translate(0,0)"/>
<path d="" fill="#6A6868" transform="translate(0,0)"/>
<path d="" fill="#87827D" transform="translate(0,0)"/>
<path d="" fill="#85837E" transform="translate(0,0)"/>
<path d="" fill="#6F6A69" transform="translate(0,0)"/>
<path d="" fill="#767470" transform="translate(0,0)"/>
<path d="" fill="#7A7973" transform="translate(0,0)"/>
<path d="" fill="#82817D" transform="translate(0,0)"/>
<path d="" fill="#817F80" transform="translate(0,0)"/>
<path d="" fill="#7F7E7A" transform="translate(0,0)"/>
<path d="" fill="#83827D" transform="translate(0,0)"/>
<path d="" fill="#80807C" transform="translate(0,0)"/>
<path d="" fill="#8A8886" transform="translate(0,0)"/>
<path d="" fill="#7F807C" transform="translate(0,0)"/>
<path d="" fill="#6B6A68" transform="translate(0,0)"/>
<path d="" fill="#868688" transform="translate(0,0)"/>
<path d="" fill="#888683" transform="translate(0,0)"/>
<path d="" fill="#8B8A88" transform="translate(0,0)"/>
<path d="" fill="#88898A" transform="translate(0,0)"/>
<path d="" fill="#888383" transform="translate(0,0)"/>
<path d="" fill="#888A88" transform="translate(0,0)"/>
<path d="" fill="#757875" transform="translate(0,0)"/>
<path d="" fill="#827E7F" transform="translate(0,0)"/>
<path d="" fill="#71716D" transform="translate(0,0)"/>
<path d="" fill="#888B87" transform="translate(0,0)"/>
<path d="" fill="#888884" transform="translate(0,0)"/>
<path d="" fill="#6B6B68" transform="translate(0,0)"/>
<path d="" fill="#868282" transform="translate(0,0)"/>
<path d="" fill="#6E696A" transform="translate(0,0)"/>
<path d="" fill="#8E8C89" transform="translate(0,0)"/>
<path d="" fill="#8D8989" transform="translate(0,0)"/>
<path d="" fill="#8F908D" transform="translate(0,0)"/>
<path d="" fill="#797975" transform="translate(0,0)"/>
<path d="" fill="#7F7B78" transform="translate(0,0)"/>
<path d="" fill="#7B7A76" transform="translate(0,0)"/>
<path d="" fill="#757472" transform="translate(0,0)"/>
<path d="" fill="#90918B" transform="translate(0,0)"/>
<path d="" fill="#7A7D77" transform="translate(0,0)"/>
<path d="" fill="#8F908B" transform="translate(0,0)"/>
<path d="" fill="#898483" transform="translate(0,0)"/>
<path d="" fill="#8C8D89" transform="translate(0,0)"/>
<path d="" fill="#8D8C86" transform="translate(0,0)"/>
<path d="" fill="#969693" transform="translate(0,0)"/>
<path d="" fill="#90918D" transform="translate(0,0)"/>
<path d="" fill="#71726D" transform="translate(0,0)"/>
<path d="" fill="#8E8B8C" transform="translate(0,0)"/>
<path d="" fill="#838584" transform="translate(0,0)"/>
<path d="" fill="#878985" transform="translate(0,0)"/>
<path d="" fill="#8D918E" transform="translate(0,0)"/>
<path d="" fill="#94918F" transform="translate(0,0)"/>
<path d="" fill="#70726D" transform="translate(0,0)"/>
<path d="" fill="#858787" transform="translate(0,0)"/>
<path d="" fill="#82817F" transform="translate(0,0)"/>
<path d="" fill="#8C8B87" transform="translate(0,0)"/>
<path d="" fill="#8E8A8C" transform="translate(0,0)"/>
<path d="" fill="#81807E" transform="translate(0,0)"/>
<path d="" fill="#908C8C" transform="translate(0,0)"/>
<path d="" fill="#747474" transform="translate(0,0)"/>
<path d="" fill="#808180" transform="translate(0,0)"/>
<path d="" fill="#777978" transform="translate(0,0)"/>
<path d="" fill="#807F7C" transform="translate(0,0)"/>
<path d="" fill="#918F8D" transform="translate(0,0)"/>
<path d="" fill="#787A75" transform="translate(0,0)"/>
<path d="" fill="#868684" transform="translate(0,0)"/>
<path d="" fill="#80847E" transform="translate(0,0)"/>
<path d="" fill="#85827F" transform="translate(0,0)"/>
<path d="" fill="#979391" transform="translate(0,0)"/>
<path d="" fill="#82837D" transform="translate(0,0)"/>
<path d="" fill="#84817E" transform="translate(0,0)"/>
<path d="" fill="#84817E" transform="translate(0,0)"/>
<path d="" fill="#94948F" transform="translate(0,0)"/>
<path d="" fill="#8F8D8C" transform="translate(0,0)"/>
<path d="" fill="#827F7A" transform="translate(0,0)"/>
<path d="" fill="#8D8D89" transform="translate(0,0)"/>
<path d="" fill="#93908E" transform="translate(0,0)"/>
<path d="" fill="#828180" transform="translate(0,0)"/>
<path d="" fill="#8C8B8A" transform="translate(0,0)"/>
<path d="" fill="#878683" transform="translate(0,0)"/>
<path d="" fill="#959491" transform="translate(0,0)"/>
<path d="" fill="#878983" transform="translate(0,0)"/>
<path d="" fill="#848680" transform="translate(0,0)"/>
<path d="" fill="#90908B" transform="translate(0,0)"/>
<path d="" fill="#94938E" transform="translate(0,0)"/>
<path d="" fill="#666663" transform="translate(0,0)"/>
<path d="" fill="#626361" transform="translate(0,0)"/>
<path d="" fill="#6C6F6B" transform="translate(0,0)"/>
<path d="" fill="#959691" transform="translate(0,0)"/>
<path d="" fill="#939290" transform="translate(0,0)"/>
<path d="" fill="#9A9A98" transform="translate(0,0)"/>
<path d="" fill="#909190" transform="translate(0,0)"/>
<path d="" fill="#8B8A87" transform="translate(0,0)"/>
<path d="" fill="#8A8887" transform="translate(0,0)"/>
<path d="" fill="#898887" transform="translate(0,0)"/>
<path d="" fill="#8B8987" transform="translate(0,0)"/>
<path d="" fill="#7D7C7C" transform="translate(0,0)"/>
<path d="" fill="#898A82" transform="translate(0,0)"/>
<path d="" fill="#908F8C" transform="translate(0,0)"/>
<path d="" fill="#8E8D89" transform="translate(0,0)"/>
<path d="" fill="#90908E" transform="translate(0,0)"/>
<path d="" fill="#908D8C" transform="translate(0,0)"/>
<path d="" fill="#878485" transform="translate(0,0)"/>
<path d="" fill="#928D8D" transform="translate(0,0)"/>
<path d="" fill="#949395" transform="translate(0,0)"/>
<path d="" fill="#868683" transform="translate(0,0)"/>
<path d="" fill="#84817E" transform="translate(0,0)"/>
<path d="" fill="#838581" transform="translate(0,0)"/>
<path d="" fill="#81817E" transform="translate(0,0)"/>
<path d="" fill="#827F7E" transform="translate(0,0)"/>
<path d="" fill="#83817F" transform="translate(0,0)"/>
<path d="" fill="#81837F" transform="translate(0,0)"/>
<path d="" fill="#757876" transform="translate(0,0)"/>
<path d="" fill="#6F6E6D" transform="translate(0,0)"/>
<path d="" fill="#777574" transform="translate(0,0)"/>
<path d="" fill="#6A6867" transform="translate(0,0)"/>
<path d="" fill="#6E6D6D" transform="translate(0,0)"/>
<path d="" fill="#7E7B7B" transform="translate(0,0)"/>
<path d="" fill="#73746E" transform="translate(0,0)"/>
<path d="" fill="#797978" transform="translate(0,0)"/>
<path d="" fill="#696B68" transform="translate(0,0)"/>
</svg>
