<?xml version="1.0" encoding="UTF-8"?>
<svg version="1.1" xmlns="http://www.w3.org/2000/svg" width="1024" height="1024">
<path d="M0 0 C3.94731931 -0.11065286 7.10263014 -0.08915874 10.88775444 1.09837151 C13.71697604 4.17497701 13.41168672 7.33112642 13.33708 11.29759026 C13.34102272 12.13201653 13.34496544 12.96644279 13.34902763 13.82615471 C13.35574794 16.58807459 13.32655467 19.34834695 13.29630852 22.11009026 C13.29205933 24.02675366 13.28972995 25.9434222 13.2892437 27.86009026 C13.28307334 31.87855635 13.26034988 35.89646612 13.22477531 39.91477776 C13.17950234 45.06999641 13.16474976 50.22471071 13.1610384 55.38010979 C13.15661276 59.33833114 13.14131414 63.29644624 13.12216187 67.25462151 C13.11327185 69.15565426 13.10654565 71.05669839 13.10200119 72.95774651 C13.09297341 75.61288888 13.07059542 78.26757195 13.04411125 80.92259026 C13.04344658 81.71125481 13.04278191 82.49991936 13.04209709 83.31248283 C12.98978177 87.10643989 12.89368389 88.87613657 10.73771477 92.11009026 C8.21476555 92.52659416 8.21476555 92.52659416 4.93302727 92.58665276 C3.03979729 92.63221306 3.03979729 92.63221306 1.10832024 92.67869377 C-0.30687804 92.69775765 -1.72208003 92.71654757 -3.13728523 92.73509026 C-4.60589923 92.76497136 -6.07448677 92.79617752 -7.54304695 92.82859612 C-10.86016227 92.89878413 -14.17728816 92.95899245 -17.49470711 93.01292229 C-24.02697343 93.12000159 -30.55863425 93.25416532 -37.09041023 93.38743401 C-49.8140837 93.64446695 -62.53805583 93.88237525 -75.26228523 94.11009026 C-74.93228523 94.44009026 -74.60228523 94.77009026 -74.26228523 95.11009026 C-73.2474505 96.28933749 -72.23323868 97.46912083 -71.21931648 98.64915276 C-67.31163561 103.12047012 -63.17120305 107.31170138 -58.94978523 111.48509026 C-58.17723396 112.2538549 -57.40468269 113.02261955 -56.60872078 113.8146801 C-54.16234342 116.24894791 -51.71274383 118.67993131 -49.26228523 121.11009026 C-46.03014835 124.31545204 -42.80145988 127.52423099 -39.57478523 130.73509026 C-38.48073372 131.81669426 -38.48073372 131.81669426 -37.36458015 132.92014885 C-34.04712391 136.22189707 -30.82959378 139.55339295 -27.77546883 143.10130119 C-23.98071064 147.50348473 -19.88680837 151.55854418 -15.73884773 155.62571526 C-14.12528474 157.22178464 -12.51201174 158.81814724 -10.89900398 160.41477776 C-8.38055771 162.90211991 -5.85984467 165.38703228 -3.33406258 167.86692619 C-0.87895606 170.27984223 1.566721 172.70199177 4.01115227 175.12571526 C5.15165535 176.23828697 5.15165535 176.23828697 6.3151989 177.37333488 C7.0132766 178.0679583 7.71135429 178.76258171 8.43058586 179.47825432 C9.35488899 180.38804039 9.35488899 180.38804039 10.29786491 181.31620598 C11.91041731 183.32525739 12.59848966 184.53030966 12.73771477 187.11009026 C11.62472343 188.83306694 11.62472343 188.83306694 9.73771477 190.11009026 C7.37450981 190.50881767 7.37450981 190.50881767 4.5455761 190.5424633 C3.48208443 190.56225746 2.41859276 190.58205162 1.32287407 190.6024456 C0.16684181 190.60883553 -0.98919044 190.61522545 -2.18025398 190.62180901 C-3.38426353 190.63976021 -4.58827309 190.65771141 -5.82876778 190.67620659 C-9.702403 190.73044344 -13.5759207 190.76410974 -17.44978523 190.79759026 C-19.97909967 190.83078336 -22.50839742 190.86527485 -25.03767586 190.90110588 C-40.44573477 191.10585792 -55.85305964 191.15426068 -71.26228523 191.11009026 C-71.25784401 191.8573336 -71.25340279 192.60457695 -71.24882698 193.37446404 C-71.20879339 200.40814572 -71.17832286 207.4417881 -71.15866089 214.47555161 C-71.14821274 218.09189899 -71.13403492 221.70815242 -71.11140633 225.32444572 C-71.08971443 228.81277836 -71.07772438 232.3010205 -71.07253075 235.78941536 C-71.06702355 237.77148997 -71.05140489 239.75352804 -71.03569221 241.73554802 C-71.03554115 242.93664207 -71.03539009 244.13773613 -71.03523445 245.37522697 C-71.03079323 246.43667931 -71.02635201 247.49813164 -71.0217762 248.59174919 C-71.26228523 251.11009026 -71.26228523 251.11009026 -73.26228523 253.11009026 C-77.05003417 253.20574304 -79.01434141 251.6496722 -81.67288399 249.19396782 C-82.99980142 247.88473286 -84.31571902 246.56429406 -85.62288094 245.2353344 C-86.34537529 244.51663673 -87.06786964 243.79793907 -87.81225777 243.05746269 C-90.19741035 240.67971889 -92.56785937 238.28788155 -94.93806648 235.89524651 C-96.58928918 234.24164002 -98.24125141 232.58877169 -99.89392281 230.93661308 C-103.35408191 227.47332563 -106.80741567 224.00341987 -110.25569344 220.52830315 C-114.6855393 216.06442465 -119.12849074 211.61387873 -123.5761404 207.16774654 C-126.98667035 203.75667402 -130.39197237 200.34042362 -133.79550934 196.92237473 C-135.43264874 195.27885291 -137.07101828 193.63655553 -138.71061325 191.9954834 C-140.99505424 189.70672781 -143.27279961 187.41152227 -145.54866219 185.11424065 C-146.23276161 184.43104759 -146.91686104 183.74785454 -147.62169075 183.04395866 C-148.23711235 182.4200071 -148.85253395 181.79605553 -149.48660469 181.15319633 C-150.02581204 180.61063729 -150.5650194 180.06807825 -151.12056637 179.50907803 C-152.26228523 178.11009026 -152.26228523 178.11009026 -152.26228523 176.11009026 C-153.12853523 175.76977776 -153.12853523 175.76977776 -154.01228523 175.42259026 C-156.85819904 173.76247387 -158.26070444 171.71821068 -160.26228523 169.11009026 C-161.10791023 168.26446526 -161.95353523 167.41884026 -162.82478523 166.54759026 C-167.13561857 162.23675691 -168.63716509 160.06594179 -168.65046883 153.82859612 C-168.65992531 152.55725319 -168.66938179 151.28591026 -168.67912483 149.97604179 C-168.67375555 148.59233602 -168.6676027 147.20863309 -168.66072273 145.82493401 C-168.66274424 144.4029405 -168.66565632 142.98094801 -168.66942024 141.55895805 C-168.67383859 138.58233051 -168.66742767 135.60597343 -168.65339851 132.62937737 C-168.63629094 128.81367548 -168.64616024 124.99860592 -168.66411591 121.18292713 C-168.67495392 118.24810834 -168.67150768 115.31343963 -168.66373253 112.37861633 C-168.66173136 110.97159627 -168.66418692 109.56456259 -168.67117119 108.15755844 C-168.67878672 106.19243822 -168.66512178 104.22727021 -168.65046883 102.26218987 C-168.64808205 101.14396339 -168.64569527 100.02573692 -168.64323616 98.8736248 C-168.26228523 96.11009026 -168.26228523 96.11009026 -167.23550606 94.25834465 C-164.10010223 92.43379406 -160.83589721 92.62246504 -157.30256844 92.58592033 C-156.492584 92.56597511 -155.68259956 92.54602989 -154.84807014 92.52548027 C-152.16983682 92.46298473 -149.491699 92.42123233 -146.81306648 92.37962151 C-144.95644625 92.34034385 -143.09985294 92.29977431 -141.24328804 92.25796318 C-136.35593331 92.15137585 -131.46840943 92.06236797 -126.58064461 91.97697258 C-121.5934455 91.88674365 -116.60660433 91.77995444 -111.61970711 91.67454338 C-101.83417938 91.47015015 -92.04839322 91.28432009 -82.26228523 91.11009026 C-82.59228523 90.12009026 -82.92228523 89.13009026 -83.26228523 88.11009026 C-83.92228523 88.11009026 -84.58228523 88.11009026 -85.26228523 88.11009026 C-86.61615459 86.46006198 -87.94906666 84.79265156 -89.26228523 83.11009026 C-89.92228523 82.78009026 -90.58228523 82.45009026 -91.26228523 82.11009026 C-91.26228523 81.45009026 -91.26228523 80.79009026 -91.26228523 80.11009026 C-91.92228523 80.11009026 -92.58228523 80.11009026 -93.26228523 80.11009026 C-93.26228523 79.45009026 -93.26228523 78.79009026 -93.26228523 78.11009026 C-94.12853523 77.73884026 -94.12853523 77.73884026 -95.01228523 77.36009026 C-97.59168503 75.92709037 -99.32350115 74.32584349 -101.26228523 72.11009026 C-101.26228523 71.45009026 -101.26228523 70.79009026 -101.26228523 70.11009026 C-101.88103523 69.86259026 -102.49978523 69.61509026 -103.13728523 69.36009026 C-105.6658715 67.87268657 -105.98067528 66.67331017 -107.26228523 64.11009026 C-108.58749026 63.42740888 -109.92040705 62.75938615 -111.26228523 62.11009026 C-111.59228523 61.12009026 -111.92228523 60.13009026 -112.26228523 59.11009026 C-113.25228523 58.78009026 -114.24228523 58.45009026 -115.26228523 58.11009026 C-115.26228523 57.45009026 -115.26228523 56.79009026 -115.26228523 56.11009026 C-115.92228523 56.11009026 -116.58228523 56.11009026 -117.26228523 56.11009026 C-117.26228523 55.45009026 -117.26228523 54.79009026 -117.26228523 54.11009026 C-117.84494148 53.85227776 -118.42759773 53.59446526 -119.02791023 53.32884026 C-121.44257554 52.01175009 -123.07968701 50.55920641 -125.01228523 48.61009026 C-125.93267586 47.69743401 -125.93267586 47.69743401 -126.87166023 46.76634026 C-128.26228523 45.11009026 -128.26228523 45.11009026 -128.26228523 43.11009026 C-128.84665352 42.84972984 -129.4310218 42.58936943 -130.03309822 42.32111931 C-132.41161729 41.02896406 -134.00642485 39.63256002 -135.92927742 37.73362541 C-136.62970161 37.04596092 -137.33012581 36.35829643 -138.05177498 35.64979362 C-138.79671211 34.90708214 -139.54164925 34.16437065 -140.30916023 33.39915276 C-141.08036201 32.63460777 -141.8515638 31.87006279 -142.64613533 31.08234978 C-144.27261174 29.46598965 -145.89639092 27.84691152 -147.51765633 26.22532463 C-150.00643057 23.74093461 -152.51075536 21.27297458 -155.01619148 18.80540276 C-156.59399273 17.23346746 -158.17084855 15.66058252 -159.74666023 14.08665276 C-160.49969429 13.34798973 -161.25272835 12.60932671 -162.02858162 11.84827995 C-162.71639717 11.15431114 -163.40421272 10.46034233 -164.11287117 9.74534416 C-164.72257759 9.13848778 -165.33228401 8.53163139 -165.96046638 7.90638542 C-167.26228523 6.11009026 -167.26228523 6.11009026 -167.26228523 2.11009026 C-164.4468937 0.70239449 -162.09594519 0.96912025 -158.9456501 0.95187187 C-158.29016699 0.94693389 -157.63468388 0.94199592 -156.95933765 0.9369083 C-154.75246148 0.92149321 -152.54561449 0.91316143 -150.33870125 0.90476799 C-148.7602125 0.8951916 -147.18172633 0.88518166 -145.60324287 0.87476921 C-141.30525564 0.84766316 -137.0072574 0.82667807 -132.70923162 0.80676723 C-128.2086616 0.78490274 -123.70812534 0.75750732 -119.20758247 0.73071098 C-110.6678161 0.68072077 -102.12803066 0.63582228 -93.58822721 0.59268862 C-83.91359146 0.54355578 -74.23899244 0.48847271 -64.56439126 0.43300903 C-50.27858531 0.3513286 -35.99276666 0.27183296 -21.70691681 0.19819832 C-20.16509261 0.19022889 -18.62326888 0.18216889 -17.08144569 0.17400742 C-16.3580777 0.17019121 -15.6347097 0.16637501 -14.88942146 0.16244316 C-13.84001485 0.15668492 -13.84001485 0.15668492 -12.76940811 0.15081036 C-10.79288679 0.14165442 -8.81634163 0.1381859 -6.83980179 0.13492966 C-4.55947924 0.11909693 -2.27908016 0.07691066 0 0 Z " fill="#FDFDFD" transform="translate(303.26228523254395,375.8899097442627)"/>
<path d="M0 0 C1.6097168 0.07250977 1.6097168 0.07250977 3.25195312 0.14648438 C4.37150391 0.20255859 5.49105469 0.25863281 6.64453125 0.31640625 C8.34125977 0.3947168 8.34125977 0.3947168 10.07226562 0.47460938 C12.86746405 0.60434432 15.66231065 0.73931266 18.45703125 0.87890625 C21.32159021 6.42734085 23.79204027 11.99452905 26.03125 17.8203125 C26.51964104 19.07664238 26.51964104 19.07664238 27.01789856 20.35835266 C28.06383307 23.0512771 29.10436095 25.74625069 30.14453125 28.44140625 C30.8616467 30.29260929 31.57909584 32.14368311 32.296875 33.99462891 C33.36334877 36.74483166 34.42956758 39.49512903 35.49423218 42.24603271 C37.47757627 47.36797347 39.47930787 52.48171185 41.5078125 57.5859375 C42.14360229 59.18876587 42.14360229 59.18876587 42.79223633 60.82397461 C43.54737141 62.72344562 44.30610401 64.62149193 45.0690918 66.51782227 C45.39304932 67.33565186 45.71700684 68.15348145 46.05078125 68.99609375 C46.32599609 69.68300293 46.60121094 70.36991211 46.88476562 71.07763672 C47.45703125 72.87890625 47.45703125 72.87890625 47.45703125 75.87890625 C48.11703125 75.87890625 48.77703125 75.87890625 49.45703125 75.87890625 C49.62442307 75.2840593 49.79181488 74.68921234 49.96427917 74.07633972 C51.85842387 67.53635656 54.1632473 61.24679277 56.6953125 54.9296875 C57.09856247 53.91400192 57.50181244 52.89831635 57.9172821 51.85185242 C59.19745193 48.63013056 60.48339081 45.41074856 61.76953125 42.19140625 C62.6208236 40.05158378 63.47173811 37.91161096 64.32226562 35.77148438 C65.95611255 31.66182826 67.59461495 27.55407816 69.23681641 23.44775391 C70.61490831 19.99954667 71.98113501 16.54730301 73.32958984 13.08740234 C73.60562546 12.38342819 73.88166107 11.67945404 74.1660614 10.95414734 C74.87745162 9.13770105 75.58385437 7.31930359 76.28979492 5.50073242 C77.45703125 2.87890625 77.45703125 2.87890625 79.45703125 0.87890625 C81.97900391 0.65185547 81.97900391 0.65185547 85.12109375 0.68359375 C86.24257813 0.69003906 87.3640625 0.69648437 88.51953125 0.703125 C89.69515625 0.71988281 90.87078125 0.73664062 92.08203125 0.75390625 C93.26539063 0.76292969 94.44875 0.77195312 95.66796875 0.78125 C98.59785648 0.80487813 101.52734465 0.83782111 104.45703125 0.87890625 C106.65471878 6.2177332 106.73537808 10.93003734 106.69995117 16.6003418 C106.70184952 17.56200256 106.70374786 18.52366333 106.70570374 19.51446533 C106.70939763 22.68160243 106.6987286 25.84850841 106.6875 29.015625 C106.68630751 31.21946689 106.68585518 33.42330929 106.68611145 35.62715149 C106.68454908 40.23950393 106.67627672 44.85177848 106.6628418 49.46411133 C106.64582246 55.38256003 106.64202846 61.30092342 106.64278698 67.21939373 C106.64251542 71.76689979 106.63703688 76.31438713 106.62978554 80.86188698 C106.62659939 83.04482697 106.62463159 85.22776909 106.62389183 87.41071129 C106.62172941 90.4557293 106.61298807 93.50065586 106.60229492 96.5456543 C106.60274811 97.45116531 106.60320129 98.35667633 106.60366821 99.28962708 C106.59940323 100.11808136 106.59513824 100.94653564 106.59074402 101.8000946 C106.58906817 102.51959636 106.58739233 103.23909811 106.5856657 103.98040295 C106.45703125 105.87890625 106.45703125 105.87890625 105.45703125 108.87890625 C98.68000121 109.81615508 92.22372947 110.10921502 85.45703125 108.87890625 C83.61914587 107.04102087 84.28397802 104.08126621 84.25170898 101.61499023 C84.24180939 100.96135498 84.23190979 100.30771973 84.22171021 99.63427734 C84.19001491 97.46455561 84.16530633 95.29481195 84.140625 93.125 C84.12006238 91.62426673 84.0990661 90.12353935 84.07765198 88.62281799 C84.0223597 84.66578932 83.97298214 80.70870776 83.92480469 76.75158691 C83.87464175 72.71650465 83.81892857 68.68149953 83.76367188 64.64648438 C83.65600285 56.72402348 83.55457746 48.80149821 83.45703125 40.87890625 C81.36613924 45.95962576 79.27675829 51.04096339 77.18881226 56.12289429 C76.45275511 57.91419602 75.71644854 59.70539529 74.97988892 61.49649048 C69.56309705 74.66982622 69.56309705 74.66982622 64.2734375 87.89453125 C63.59450439 89.61361694 63.59450439 89.61361694 62.90185547 91.36743164 C62.08418779 93.44780049 61.27172404 95.5302248 60.46533203 97.61499023 C60.10552246 98.53094971 59.74571289 99.44690918 59.375 100.390625 C59.07360107 101.16881592 58.77220215 101.94700684 58.46166992 102.7487793 C57.35602422 105.09307061 56.18353526 106.94344685 54.45703125 108.87890625 C51.4609375 109.48046875 51.4609375 109.48046875 48.01953125 109.50390625 C46.88644531 109.53742188 45.75335938 109.5709375 44.5859375 109.60546875 C41.45703125 108.87890625 41.45703125 108.87890625 39.42755127 106.2203064 C37.57758865 103.08333479 36.14079038 100.07093724 34.79980469 96.68994141 C34.31960876 95.48914948 33.83941284 94.28835754 33.34466553 93.05117798 C32.83509598 91.75683386 32.32567974 90.46242938 31.81640625 89.16796875 C31.28464238 87.8310885 30.75226367 86.49445266 30.21929932 85.15805054 C28.82569327 81.65884364 27.44040726 78.15640199 26.05688477 74.65319824 C24.64063332 71.0714776 23.21645964 67.49291062 21.79296875 63.9140625 C19.00660239 56.90538968 16.2290266 49.89327718 13.45703125 42.87890625 C13.4489444 43.6762619 13.44085754 44.47361755 13.43252563 45.2951355 C13.35466922 52.79989271 13.26740618 60.30445297 13.16950417 67.80897331 C13.1195023 71.66737123 13.07317289 75.52574125 13.03515625 79.38427734 C12.99835218 83.10616215 12.9520061 86.82781569 12.89896774 90.54950333 C12.88039771 91.97126342 12.86529942 93.39307313 12.85368729 94.81490707 C12.8368701 96.80232129 12.80669898 98.78960908 12.77587891 100.77685547 C12.76255524 101.90936737 12.74923157 103.04187927 12.73550415 104.20870972 C12.45703125 106.87890625 12.45703125 106.87890625 10.45703125 108.87890625 C8.48583984 109.10595703 8.48583984 109.10595703 6.10546875 109.07421875 C4.82929688 109.06455078 4.82929688 109.06455078 3.52734375 109.0546875 C2.19316406 109.02955078 2.19316406 109.02955078 0.83203125 109.00390625 C-0.06515625 108.99488281 -0.96234375 108.98585938 -1.88671875 108.9765625 C-4.10573461 108.95295595 -6.32421952 108.92002935 -8.54296875 108.87890625 C-9.69647779 106.57188818 -9.66868348 105.26984189 -9.66995239 102.70361328 C-9.67277222 101.82868225 -9.67559204 100.95375122 -9.67849731 100.05230713 C-9.67647308 99.09016296 -9.67444885 98.1280188 -9.67236328 97.13671875 C-9.6741156 96.12526794 -9.67586792 95.11381714 -9.67767334 94.07171631 C-9.68208815 90.71576236 -9.67915515 87.35986077 -9.67578125 84.00390625 C-9.6764544 81.67985016 -9.67742451 79.35579413 -9.67868042 77.03173828 C-9.68015689 72.15591767 -9.67800445 67.28011536 -9.67333984 62.40429688 C-9.6676426 56.14261418 -9.67092187 49.88097434 -9.67691231 43.61929321 C-9.68051928 38.81876297 -9.6793787 34.01824295 -9.67678452 29.2177124 C-9.67611562 26.90834549 -9.67694235 24.59897766 -9.67926407 22.28961182 C-9.6817928 19.06674731 -9.67794682 15.84395301 -9.67236328 12.62109375 C-9.67438751 11.65894958 -9.67641174 10.69680542 -9.67849731 9.70550537 C-9.67567749 8.83057434 -9.67285767 7.95564331 -9.66995239 7.05419922 C-9.66957537 6.29170868 -9.66919834 5.52921814 -9.66880989 4.74362183 C-9.54296875 2.87890625 -9.54296875 2.87890625 -8.54296875 0.87890625 C-5.3500005 -0.1854165 -3.33851934 -0.15897711 0 0 Z " fill="#FCFCFC" transform="translate(394.54296875,520.12109375)"/>
<path d="M0 0 C3.37305445 2.3984629 6.18987787 5.24605242 8.90625 8.35546875 C9.463125 7.81277344 10.02 7.27007812 10.59375 6.7109375 C18.92149257 -1.09632116 24.65944932 -3.09998424 36.03881836 -3.00097656 C43.83272975 -2.74829014 49.82649627 -0.66693651 55.90625 4.35546875 C63.50254263 13.55098088 64.20971046 22.36669143 64.13671875 33.9140625 C64.13626053 35.09895767 64.13580231 36.28385284 64.1353302 37.50465393 C64.13232151 39.99489348 64.12447693 42.48513138 64.11206055 44.9753418 C64.09369425 48.80459171 64.0915518 52.63360107 64.09179688 56.46289062 C64.08688538 58.88411669 64.08105868 61.30534111 64.07421875 63.7265625 C64.07310593 64.87748886 64.0719931 66.02841522 64.07084656 67.21421814 C64.06446671 68.26944168 64.05808685 69.32466522 64.05151367 70.41186523 C64.04770187 71.34481918 64.04389008 72.27777313 64.03996277 73.23899841 C63.90625 75.35546875 63.90625 75.35546875 62.90625 76.35546875 C61.42972336 76.45427672 59.94857764 76.4862612 58.46875 76.48828125 C57.12683594 76.49021484 57.12683594 76.49021484 55.7578125 76.4921875 C54.34628906 76.48638672 54.34628906 76.48638672 52.90625 76.48046875 C51.49472656 76.48626953 51.49472656 76.48626953 50.0546875 76.4921875 C49.16007813 76.49089844 48.26546875 76.48960937 47.34375 76.48828125 C46.51746094 76.48715332 45.69117188 76.48602539 44.83984375 76.48486328 C42.90625 76.35546875 42.90625 76.35546875 41.90625 75.35546875 C41.79945913 73.89944853 41.76005268 72.43840142 41.74853516 70.97851562 C41.73827301 70.04664429 41.72801086 69.11477295 41.71743774 68.15466309 C41.71013641 67.13811646 41.70283508 66.12156982 41.6953125 65.07421875 C41.66722097 62.93098225 41.63855639 60.78775319 41.609375 58.64453125 C41.56826456 55.25879302 41.53138873 51.87319042 41.50488281 48.48730469 C41.4771086 45.22431389 41.4312099 41.96196044 41.3828125 38.69921875 C41.37955963 37.69886597 41.37630676 36.69851318 41.37295532 35.66784668 C41.26928674 29.67863867 40.87496395 23.69962726 37.90625 18.35546875 C33.34573015 16.16291113 28.9175897 15.89989241 23.90625 16.35546875 C19.74867447 17.95453626 17.1940386 19.5023511 14.90625 23.35546875 C10.80887438 35.64759561 12.82720738 51.1318563 12.94311523 64.01660156 C12.95157471 65.32338867 12.96003418 66.63017578 12.96875 67.9765625 C12.98035156 69.15661865 12.99195313 70.3366748 13.00390625 71.55249023 C12.90625 74.35546875 12.90625 74.35546875 11.90625 76.35546875 C8.59376813 76.38435021 5.28131833 76.40222674 1.96875 76.41796875 C1.02322266 76.42634766 0.07769531 76.43472656 -0.89648438 76.44335938 C-2.24516602 76.44819336 -2.24516602 76.44819336 -3.62109375 76.453125 C-4.45374756 76.45836182 -5.28640137 76.46359863 -6.14428711 76.46899414 C-8.09375 76.35546875 -8.09375 76.35546875 -9.09375 75.35546875 C-9.20055453 73.88884871 -9.23994829 72.41723609 -9.25146484 70.94677734 C-9.26172699 70.00845062 -9.27198914 69.0701239 -9.28256226 68.10336304 C-9.28986359 67.0805423 -9.29716492 66.05772156 -9.3046875 65.00390625 C-9.33277073 62.85155509 -9.36143528 60.69921144 -9.390625 58.546875 C-9.43180206 55.14339524 -9.46867554 51.74005366 -9.49511719 48.33642578 C-9.52281022 45.05862077 -9.56870102 41.78146097 -9.6171875 38.50390625 C-9.62044037 37.4932309 -9.62369324 36.48255554 -9.62704468 35.44125366 C-9.73972916 28.93014565 -10.28983699 23.590753 -14.71875 18.48046875 C-19.82264297 16.06283524 -24.50899105 15.91381462 -29.90625 17.41796875 C-33.98011801 19.89424146 -36.25822796 22.66339199 -37.68347168 27.25556946 C-38.13135942 29.54796248 -38.24686956 31.68088896 -38.28320312 34.01635742 C-38.29992065 34.9337822 -38.31663818 35.85120697 -38.3338623 36.7964325 C-38.34743774 37.77884415 -38.36101318 38.7612558 -38.375 39.7734375 C-38.39340942 40.7864241 -38.41181885 41.79941071 -38.43078613 42.84309387 C-38.50948181 47.17743372 -38.57744349 51.51192518 -38.64599609 55.84643555 C-38.69756181 59.00968494 -38.75485155 62.17279408 -38.8125 65.3359375 C-38.82607544 66.32442184 -38.83965088 67.31290619 -38.8536377 68.3313446 C-38.87035522 69.2393129 -38.88707275 70.14728119 -38.90429688 71.08276367 C-38.92308899 72.28711311 -38.92308899 72.28711311 -38.94226074 73.51579285 C-39.09375 75.35546875 -39.09375 75.35546875 -40.09375 76.35546875 C-43.05887163 76.64726501 -45.99642181 76.87122405 -48.96875 77.04296875 C-49.79761719 77.10291016 -50.62648438 77.16285156 -51.48046875 77.22460938 C-52.27839844 77.27166016 -53.07632813 77.31871094 -53.8984375 77.3671875 C-54.63046387 77.41319092 -55.36249023 77.45919434 -56.11669922 77.5065918 C-58.09375 77.35546875 -58.09375 77.35546875 -61.09375 75.35546875 C-61.4679718 72.32582092 -61.4679718 72.32582092 -61.46606445 68.38305664 C-61.46971512 67.66581924 -61.47336578 66.94858185 -61.47712708 66.20960999 C-61.48525103 63.83220946 -61.47160647 61.4554867 -61.45703125 59.078125 C-61.4565128 57.42907207 -61.4570299 55.78001851 -61.45854187 54.13096619 C-61.45845206 50.67160844 -61.44800612 47.21248332 -61.42993164 43.75317383 C-61.40726182 39.31649774 -61.4066962 34.88016228 -61.41344929 30.44344425 C-61.41678961 27.0368293 -61.41015771 23.63029214 -61.40032005 20.22369194 C-61.39646751 18.58780766 -61.39532006 16.95191473 -61.3969059 15.31602669 C-61.39727639 13.0296084 -61.38466072 10.74362797 -61.3684082 8.45727539 C-61.36380081 7.15536758 -61.35919342 5.85345978 -61.35444641 4.51210022 C-61.09375 1.35546875 -61.09375 1.35546875 -59.09375 -1.64453125 C-57.21435547 -1.98510742 -57.21435547 -1.98510742 -54.9609375 -1.9375 C-54.15527344 -1.92783203 -53.34960938 -1.91816406 -52.51953125 -1.90820312 C-51.67777344 -1.88306641 -50.83601562 -1.85792969 -49.96875 -1.83203125 C-49.11925781 -1.81849609 -48.26976562 -1.80496094 -47.39453125 -1.79101562 C-45.29400163 -1.75561344 -43.19379707 -1.70180526 -41.09375 -1.64453125 C-40.10375 0.66546875 -39.11375 2.97546875 -38.09375 5.35546875 C-37.51367188 4.94554687 -36.93359375 4.535625 -36.3359375 4.11328125 C-35.55476562 3.57445312 -34.77359375 3.035625 -33.96875 2.48046875 C-33.20304688 1.94679688 -32.43734375 1.413125 -31.6484375 0.86328125 C-22.82437046 -4.34480725 -9.13244113 -4.86478114 0 0 Z " fill="#FCFBFB" transform="translate(678.09375,414.64453125)"/>
<path d="M0 0 C0.66 -1.98 1.32 -3.96 2 -6 C8.27 -6 14.54 -6 21 -6 C22.89087819 -1.27280453 23.24866382 1.01461752 23.24291992 5.94580078 C23.24481827 6.62446198 23.24671661 7.30312317 23.24867249 8.00234985 C23.25236094 10.23345695 23.24170524 12.46423461 23.23046875 14.6953125 C23.22927591 16.25039634 23.22882401 17.80548091 23.2290802 19.36056519 C23.22751876 22.61363255 23.21925381 25.86658934 23.20581055 29.11962891 C23.18879294 33.29047165 23.18499723 37.46119333 23.18575573 41.63206673 C23.18548395 44.84049638 23.18000192 48.04889955 23.17275429 51.2573204 C23.16957178 52.79551874 23.16760119 54.33372008 23.16686058 55.87192154 C23.16469419 58.01899594 23.1559443 60.16594153 23.14526367 62.31298828 C23.14145187 63.5347879 23.13764008 64.75658752 23.13371277 66.01541138 C23 69 23 69 22 72 C15.07 72 8.14 72 1 72 C0.505 68.535 0.505 68.535 0 65 C-0.50789062 65.40992188 -1.01578125 65.81984375 -1.5390625 66.2421875 C-2.22742188 66.78101563 -2.91578125 67.31984375 -3.625 67.875 C-4.29789063 68.40867187 -4.97078125 68.94234375 -5.6640625 69.4921875 C-13.39148582 74.48012295 -23.15001469 73.81979253 -32 73 C-40.85790839 71.00368326 -47.77173442 64.13616089 -53 57 C-56.05592889 50.95403826 -58.61414775 44.81672313 -59 38 C-59.05027344 37.36320312 -59.10054687 36.72640625 -59.15234375 36.0703125 C-59.72025107 23.66721667 -56.25796041 12.02648187 -47.99609375 2.75 C-34.15323497 -10.72140461 -15.5950297 -9.62246513 0 0 Z M-31.8125 16.625 C-36.12031002 22.50457855 -37.9758265 29.78155737 -37 37 C-35.7390823 43.37301037 -34.23205875 47.814353 -29 52 C-24.17642158 55.21571895 -18.367455 55.577278 -12.67578125 54.6015625 C-7.86913273 53.04512393 -4.4705162 50.4731316 -2 46 C1.3656593 37.77584864 2.05304081 30.55469748 -1.02734375 22.14453125 C-3.16596293 17.42926247 -5.77482843 14.68065087 -10.375 12.125 C-18.46493682 9.61432995 -25.62999526 10.85466224 -31.8125 16.625 Z " fill="#FCFCFC" transform="translate(578,419)"/>
<path d="M0 0 C1.2546254 -0.00622879 2.50925079 -0.01245758 3.80189514 -0.01887512 C5.17188921 -0.01018797 6.54187941 -0.00087008 7.91186523 0.0090332 C9.31526184 0.00955183 10.71865917 0.00903403 12.12205505 0.00752258 C15.06178648 0.00761227 18.00124347 0.01803574 20.94091797 0.03613281 C24.71292646 0.05884103 28.48453468 0.05936007 32.25659275 0.05261517 C35.15361604 0.04927752 38.05054771 0.05590101 40.94755363 0.0657444 C42.33864805 0.06959867 43.72975266 0.07074368 45.12085152 0.06915855 C47.06236171 0.06878863 49.00385858 0.08286891 50.9453125 0.09765625 C52.60386009 0.10456734 52.60386009 0.10456734 54.2959137 0.11161804 C56.90795898 0.37231445 56.90795898 0.37231445 58.90795898 2.37231445 C59.13500977 4.25170898 59.13500977 4.25170898 59.10327148 6.50512695 C59.09682617 7.31079102 59.09038086 8.11645508 59.08374023 8.9465332 C59.05860352 10.20916992 59.05860352 10.20916992 59.03295898 11.49731445 C59.02393555 12.34680664 59.01491211 13.19629883 59.00561523 14.0715332 C58.98201546 16.17191329 58.94614381 18.27214889 58.90795898 20.37231445 C56.57785919 21.53736435 55.23548821 21.49325025 52.6418457 21.48583984 C51.32070267 21.48572655 51.32070267 21.48572655 49.97286987 21.48561096 C49.02074615 21.48044968 48.06862244 21.47528839 47.08764648 21.4699707 C46.1138504 21.46855576 45.14005432 21.46714081 44.13674927 21.46568298 C41.01878825 21.46007418 37.90089839 21.44752019 34.78295898 21.43481445 C32.67228294 21.42980059 30.56160577 21.42523748 28.45092773 21.42114258 C23.26988852 21.41095171 18.08900363 21.39137799 12.90795898 21.37231445 C12.90795898 29.95231445 12.90795898 38.53231445 12.90795898 47.37231445 C15.77225586 47.36071289 18.63655273 47.34911133 21.58764648 47.3371582 C24.35440968 47.32936483 27.12117166 47.32328966 29.88793945 47.31738281 C31.81437729 47.31234659 33.74081129 47.30551733 35.66723633 47.296875 C38.43238266 47.28477837 41.19747857 47.27907912 43.96264648 47.2746582 C45.25958939 47.26691628 45.25958939 47.26691628 46.58273315 47.25901794 C52.68021557 47.25844275 52.68021557 47.25844275 54.90795898 48.37231445 C54.93479886 51.35154039 54.95471935 54.3305274 54.97045898 57.30981445 C54.97883789 58.15995117 54.9872168 59.01008789 54.99584961 59.88598633 C54.99907227 60.69487305 55.00229492 61.50375977 55.00561523 62.3371582 C55.01085205 63.08602295 55.01608887 63.8348877 55.02148438 64.60644531 C54.90795898 66.37231445 54.90795898 66.37231445 53.90795898 67.37231445 C40.6637678 68.89398748 27.20562929 68.4478694 13.90795898 68.37231445 C13.57795898 82.56231445 13.24795898 96.75231445 12.90795898 111.37231445 C3.66971923 112.52709442 3.66971923 112.52709442 -0.90454102 112.55981445 C-1.81848633 112.57399414 -2.73243164 112.58817383 -3.67407227 112.6027832 C-6.09204102 112.37231445 -6.09204102 112.37231445 -9.09204102 110.37231445 C-9.46956444 108.46354008 -9.46956444 108.46354008 -9.47299194 106.08985901 C-9.48145142 105.19113068 -9.48991089 104.29240234 -9.49862671 103.36643982 C-9.49255402 102.37781448 -9.48648132 101.38918915 -9.48022461 100.37060547 C-9.48548157 99.33150024 -9.49073853 98.29239502 -9.49615479 97.22180176 C-9.50940189 93.77312362 -9.50059922 90.32490387 -9.49047852 86.8762207 C-9.49249804 84.4872987 -9.49540847 82.09837729 -9.49917603 79.7094574 C-9.5036059 74.69654485 -9.49714746 69.68379241 -9.4831543 64.67089844 C-9.46607146 58.23656484 -9.47589399 51.80260686 -9.49387169 45.36828709 C-9.5046994 40.43301043 -9.50126764 35.49782318 -9.49348831 30.56254387 C-9.49148303 28.18980808 -9.49395701 25.81706424 -9.50092697 23.44433784 C-9.50852362 20.13047845 -9.49696137 16.8172316 -9.48022461 13.50341797 C-9.4862973 12.51681686 -9.49237 11.53021576 -9.49862671 10.51371765 C-9.49016724 9.61216949 -9.48170776 8.71062134 -9.47299194 7.78175354 C-9.47186087 6.99806176 -9.47072979 6.21436998 -9.46956444 5.40692997 C-8.48304797 0.0902222 -4.71040967 -0.0026795 0 0 Z " fill="#FBFBFB" transform="translate(394.092041015625,379.627685546875)"/>
<path d="M0 0 C7.53041461 6.96264526 12.6938613 16.07655565 13.15234375 26.4453125 C13.24313187 36.2706044 13.24313187 36.2706044 12 40 C9.18763185 40.93745605 7.52777753 41.11728768 4.6237793 41.09765625 C3.7424382 41.09435303 2.86109711 41.0910498 1.95304871 41.08764648 C0.52802788 41.07519897 0.52802788 41.07519897 -0.92578125 41.0625 C-1.90612839 41.05871338 -2.88647552 41.05492676 -3.89653015 41.05102539 C-8.09309977 41.03467401 -12.28957231 41.0066102 -16.48608398 40.97949219 C-19.5493118 40.96137363 -22.6125236 40.94929739 -25.67578125 40.9375 C-26.61972244 40.92920166 -27.56366364 40.92090332 -28.53620911 40.91235352 C-33.14616684 40.89525904 -37.46419087 41.04439978 -42 42 C-39.97232972 47.27194273 -38.2161669 51.01752905 -33.23828125 54.0859375 C-27.78131696 56.31443601 -20.99204419 55.72437971 -15.5625 53.75 C-12.94246627 52.02654481 -12.94246627 52.02654481 -10.5 49.875 C-4.51450038 45.38587528 2.98632926 47.26231618 10 48 C10.78347427 50.28937287 11.12854612 51.58765077 10.3984375 53.9296875 C5.34148233 63.5417626 -0.6599031 69.19865983 -10.9375 73.12109375 C-22.49279642 76.43734591 -34.39426171 75.2341117 -45 69.5625 C-54.28973002 64.0648668 -60.5551701 55.7208972 -63.5 45.28515625 C-66.0427545 33.66397359 -65.2305018 20.95548708 -59.25 10.4375 C-52.81931938 1.04366263 -45.13397687 -4.82203507 -33.875 -7.3125 C-22.02245933 -9.22657489 -9.82414348 -7.29253727 0 0 Z M-38.61328125 14.90625 C-41.08003743 18.63070441 -42 20.40049194 -42 25 C-30.78 25 -19.56 25 -8 25 C-9.6030616 17.34878375 -9.6030616 17.34878375 -14 12 C-22.34920352 7.34371342 -32.10630697 7.2176218 -38.61328125 14.90625 Z " fill="#FCFCFC" transform="translate(819,419)"/>
<path d="M0 0 C7.79307635 7.10741942 11.66060098 16.71639907 12.38671875 27.10546875 C12.90732181 40.17418309 10.15440027 51.52941315 1.1328125 61.47265625 C-9.6182799 70.47312829 -21.1853125 72.39728835 -34.8671875 71.47265625 C-45.13019439 69.68431876 -53.24267672 65.38066472 -59.7109375 57.1171875 C-67.00426026 45.87331491 -68.71382579 32.99797125 -66.17578125 19.90625 C-63.28474078 9.46705365 -57.78579582 1.68101611 -48.8671875 -4.52734375 C-32.89786398 -12.68504772 -13.96359292 -11.42210216 0 0 Z M-40.6171875 14.03515625 C-45.65156432 20.81989587 -46.42038782 28.44695892 -45.44140625 36.63671875 C-44.34602651 42.04655341 -42.39663899 45.90186824 -38.5546875 49.84765625 C-33.41444044 52.95571261 -28.65918416 54.00991533 -22.78125 53 C-16.83132006 51.36073359 -13.7668753 47.52599712 -10.8359375 42.40625 C-7.62650009 36.00031645 -8.05215158 27.59154097 -9.8671875 20.78515625 C-11.75700519 15.69440334 -15.35947562 12.37974107 -19.8671875 9.47265625 C-27.635114 6.92287885 -34.65542437 8.47987697 -40.6171875 14.03515625 Z " fill="#FCFCFC" transform="translate(581.8671875,559.52734375)"/>
<path d="M0 0 C8.47475692 6.5159046 13.73246812 14.29006407 15.6875 24.875 C17.12541688 39.15662957 15.41552155 50.92275669 6.66015625 62.65234375 C0.0783658 70.06826209 -9.43049773 74.3515018 -19.21875 75.22265625 C-31.02938165 75.64735841 -41.13676482 73.71157383 -50.3125 65.875 C-59.05056106 57.02829519 -62.75889263 47.48111558 -63.34375 35.140625 C-63.23321224 23.58942925 -60.04846 13.07282409 -52.09375 4.46875 C-38.05004357 -8.09667154 -15.92468934 -10.38357202 0 0 Z M-36.5625 18.125 C-41.66386517 24.53509236 -42.17256085 31.949376 -41.3125 39.875 C-39.83784637 46.02086182 -37.41300239 50.96447256 -32.296875 54.8125 C-28.01044849 57.10759451 -23.86503698 57.36076108 -19.13671875 56.4609375 C-14.22713493 54.92611469 -10.90892831 52.36957476 -8.3125 47.875 C-4.65050153 40.29997897 -3.90061424 31.72204505 -6.3125 23.625 C-8.33522054 18.90856029 -12.1683289 15.75753837 -16.3125 12.875 C-24.39025424 10.18241525 -30.82260143 11.95530226 -36.5625 18.125 Z " fill="#FCFCFC" transform="translate(768.3125,556.125)"/>
<path d="M0 0 C5.75572168 3.40872838 10.60391522 9.51778277 12.54983521 15.97784424 C14.12326065 22.41957413 14.28673983 28.58205078 14.2421875 35.19140625 C14.24172928 36.30829834 14.24127106 37.42519043 14.24079895 38.57592773 C14.23779449 40.91895623 14.22996285 43.26198304 14.2175293 45.60498047 C14.19913363 49.20807882 14.19702081 52.81092182 14.19726562 56.4140625 C14.19235504 58.69401266 14.18652874 60.97396107 14.1796875 63.25390625 C14.17857468 64.33607422 14.17746185 65.41824219 14.17631531 66.53320312 C14.16993546 67.52513672 14.1635556 68.51707031 14.15698242 69.5390625 C14.15317062 70.41570557 14.14935883 71.29234863 14.14543152 72.19555664 C14.01171875 74.19140625 14.01171875 74.19140625 13.01171875 75.19140625 C11.52300015 75.27810057 10.03027375 75.29844119 8.5390625 75.2890625 C7.63994141 75.28583984 6.74082031 75.28261719 5.81445312 75.27929688 C4.39616211 75.26672852 4.39616211 75.26672852 2.94921875 75.25390625 C1.99982422 75.24939453 1.05042969 75.24488281 0.07226562 75.24023438 C-2.2813119 75.22840735 -4.63476602 75.2119265 -6.98828125 75.19140625 C-7.91707389 69.75366517 -8.07948514 64.58197967 -7.98046875 59.07421875 C-7.9629515 57.31510994 -7.94604331 55.55599499 -7.9296875 53.796875 C-7.89879536 51.05630067 -7.86327508 48.31604194 -7.81689453 45.57568359 C-7.77422328 42.90849036 -7.75102678 40.24166235 -7.73046875 37.57421875 C-7.71184784 36.76767853 -7.69322693 35.96113831 -7.67404175 35.13015747 C-7.64604989 28.82921381 -8.45407105 22.08764648 -12.73828125 17.19140625 C-17.14876713 15.2311903 -20.87141766 15.01809983 -25.61328125 15.75390625 C-30.53079011 17.84840076 -32.97933912 20.87674826 -35.10131836 25.74487305 C-36.2962508 30.38810488 -36.32488863 34.80910167 -36.3671875 39.5859375 C-36.38418198 40.57389816 -36.40117645 41.56185883 -36.41868591 42.57975769 C-36.47163115 45.72107644 -36.5120564 48.86238254 -36.55078125 52.00390625 C-36.59467725 55.16321878 -36.64128745 58.32242831 -36.69358826 61.48161316 C-36.72561012 63.44467909 -36.75247983 65.40783685 -36.77381897 67.37104797 C-36.78730881 68.25254013 -36.80079865 69.13403229 -36.81469727 70.04223633 C-36.82420914 70.82133865 -36.83372101 71.60044098 -36.84352112 72.40315247 C-36.98828125 74.19140625 -36.98828125 74.19140625 -37.98828125 75.19140625 C-40.78589713 75.45644354 -43.55935013 75.6606323 -46.36328125 75.81640625 C-47.14445313 75.86796875 -47.925625 75.91953125 -48.73046875 75.97265625 C-52.12698484 76.17039863 -54.7312008 76.27709973 -57.98828125 75.19140625 C-59.2825869 71.97319953 -59.11510057 68.64944531 -59.11767578 65.22045898 C-59.12082794 64.0149791 -59.1239801 62.80949921 -59.12722778 61.56748962 C-59.12520355 60.26646805 -59.12317932 58.96544647 -59.12109375 57.625 C-59.12176819 56.26701337 -59.12273939 54.90902686 -59.12399292 53.55104065 C-59.12546677 50.70222832 -59.1233277 47.85344735 -59.11865234 45.00463867 C-59.11299327 41.38273038 -59.11621159 37.76089683 -59.12222481 34.13899136 C-59.1258715 31.3308508 -59.1246725 28.52272738 -59.12209702 25.71458626 C-59.12111926 23.73903988 -59.12412023 21.76349279 -59.12722778 19.78794861 C-59.10859729 12.53267985 -58.80222786 5.4024627 -57.98828125 -1.80859375 C-54.86331186 -1.86412174 -51.73859039 -1.90216104 -48.61328125 -1.93359375 C-47.72382812 -1.95035156 -46.834375 -1.96710937 -45.91796875 -1.984375 C-45.0671875 -1.99082031 -44.21640625 -1.99726562 -43.33984375 -2.00390625 C-42.16156006 -2.0196167 -42.16156006 -2.0196167 -40.95947266 -2.03564453 C-38.98828125 -1.80859375 -38.98828125 -1.80859375 -36.98828125 0.19140625 C-36.36328125 2.81640625 -36.36328125 2.81640625 -35.98828125 5.19140625 C-35.55257812 4.78148437 -35.116875 4.3715625 -34.66796875 3.94921875 C-34.07242188 3.41039062 -33.476875 2.8715625 -32.86328125 2.31640625 C-32.28320312 1.78273438 -31.703125 1.2490625 -31.10546875 0.69921875 C-22.54302134 -5.3987604 -9.11737706 -4.32510283 0 0 Z " fill="#FBFBFB" transform="translate(854.98828125,553.80859375)"/>
<path d="M0 0 C0.77915771 0.00410889 1.55831543 0.00821777 2.36108398 0.01245117 C3.20735352 0.01438477 4.05362305 0.01631836 4.92553711 0.01831055 C5.81047852 0.03055664 6.69541992 0.04280273 7.60717773 0.05541992 C8.49598633 0.05606445 9.38479492 0.05670898 10.30053711 0.05737305 C16.90446676 0.10270895 16.90446676 0.10270895 18.04467773 1.24291992 C18.20154022 2.80240534 18.29544412 4.3683466 18.36108398 5.93432617 C18.40297852 6.87856445 18.44487305 7.82280273 18.48803711 8.7956543 C18.52735352 9.78887695 18.56666992 10.78209961 18.60717773 11.80541992 C18.65036133 12.80250977 18.69354492 13.79959961 18.73803711 14.8269043 C18.84447941 17.29873103 18.94511533 19.77080652 19.04467773 22.24291992 C25.64467773 22.57291992 32.24467773 22.90291992 39.04467773 23.24291992 C39.04467773 29.18291992 39.04467773 35.12291992 39.04467773 41.24291992 C32.32983687 41.92290381 25.78939165 42.31045148 19.04467773 42.24291992 C18.99509915 46.85105841 18.95887388 51.45904029 18.93481445 56.06738281 C18.92478047 57.63381659 18.91115019 59.20023175 18.89379883 60.76660156 C18.86943548 63.02307745 18.85816857 65.27930487 18.84936523 67.53588867 C18.83904266 68.23191696 18.82872009 68.92794525 18.81808472 69.64506531 C18.81717715 73.6121165 19.15537783 76.72369997 21.04467773 80.24291992 C24.76778092 82.42340868 28.05140832 82.43606245 32.29467773 82.30541992 C34.21070407 82.25167772 36.12800831 82.22234218 38.04467773 82.24291992 C40.09482387 84.29306605 39.27525748 88.3717658 39.29467773 91.18041992 C39.31530273 91.92227539 39.33592773 92.66413086 39.35717773 93.4284668 C39.37280273 95.58276367 39.37280273 95.58276367 39.04467773 99.24291992 C32.93829122 103.31384427 23.76438004 102.7874976 16.66967773 101.61791992 C9.15736763 99.76759724 3.31954455 95.71628966 -0.95532227 89.24291992 C-5.33412572 80.0060718 -4.28930504 69.56216556 -4.14282227 59.61791992 C-4.12774886 57.83277496 -4.11406515 56.04761769 -4.10180664 54.26245117 C-4.06900972 49.92229963 -4.01737436 45.58274775 -3.95532227 41.24291992 C-8.24532227 41.24291992 -12.53532227 41.24291992 -16.95532227 41.24291992 C-18.08032227 28.86791992 -18.08032227 28.86791992 -16.95532227 23.24291992 C-12.66532227 23.24291992 -8.37532227 23.24291992 -3.95532227 23.24291992 C-3.97852539 21.75018555 -4.00172852 20.25745117 -4.02563477 18.71948242 C-4.04438973 16.76896657 -4.06259022 14.81844534 -4.08032227 12.86791992 C-4.10545898 11.3906543 -4.10545898 11.3906543 -4.13110352 9.88354492 C-4.13754883 8.9425293 -4.14399414 8.00151367 -4.15063477 7.03198242 C-4.1611084 6.1626709 -4.17158203 5.29335938 -4.18237305 4.39770508 C-3.87399418 1.47109013 -2.96215928 0.36800456 0 0 Z " fill="#FCFCFC" transform="translate(616.955322265625,528.757080078125)"/>
<path d="M0 0 C0.02888514 3.14581423 0.04675923 6.29159469 0.0625 9.4375 C0.07087891 10.33533203 0.07925781 11.23316406 0.08789062 12.15820312 C0.09111328 13.01220703 0.09433594 13.86621094 0.09765625 14.74609375 C0.10289307 15.53685303 0.10812988 16.3276123 0.11352539 17.14233398 C0 19 0 19 -1 20 C-4.22719895 20.50140097 -7.46229479 20.90141677 -10.703125 21.3046875 C-16.49348679 22.52587755 -19.67661772 25.18682566 -23 30 C-25.50799852 34.74513546 -25.32937011 39.40242298 -25.37890625 44.640625 C-25.39590073 45.56341248 -25.4128952 46.48619995 -25.43040466 47.43695068 C-25.48340061 50.37456494 -25.52379367 53.31216543 -25.5625 56.25 C-25.60639216 59.20204768 -25.65301109 62.15398493 -25.70530701 65.105896 C-25.73733292 66.9409758 -25.76420137 68.77615394 -25.78553772 70.61138916 C-25.88821471 76.88821471 -25.88821471 76.88821471 -27 78 C-33.66408397 79.21165163 -40.33591603 79.21165163 -47 78 C-48.65682757 76.34317243 -48.1256141 74.35167472 -48.13552856 72.13819885 C-48.13350433 71.44363083 -48.1314801 70.74906281 -48.12939453 70.03344727 C-48.13114685 69.30499603 -48.13289917 68.5765448 -48.13470459 67.82601929 C-48.13912356 65.40612439 -48.13618467 62.98630196 -48.1328125 60.56640625 C-48.1334856 58.89110805 -48.13445568 57.21580995 -48.13571167 55.54051208 C-48.13718876 52.02398756 -48.135034 48.50748838 -48.13037109 44.9909668 C-48.12467818 40.4768932 -48.12794996 35.96287912 -48.13394356 31.44880772 C-48.1375526 27.98735605 -48.13640892 24.52591856 -48.13381577 21.06446648 C-48.13314722 19.3998406 -48.1339724 17.73521345 -48.13629532 16.07058907 C-48.13882698 13.7456737 -48.13497377 11.42085538 -48.12939453 9.09594727 C-48.13141876 8.40340347 -48.13344299 7.71085968 -48.13552856 6.99732971 C-48.11426368 2.22852736 -48.11426368 2.22852736 -47 0 C-43.87507749 -0.05791844 -40.75029234 -0.09356746 -37.625 -0.125 C-36.73554688 -0.14175781 -35.84609375 -0.15851563 -34.9296875 -0.17578125 C-34.07890625 -0.18222656 -33.228125 -0.18867188 -32.3515625 -0.1953125 C-31.17327881 -0.21102295 -31.17327881 -0.21102295 -29.97119141 -0.22705078 C-28 0 -28 0 -26 2 C-25.375 4.625 -25.375 4.625 -25 7 C-24.46632813 6.51789063 -23.93265625 6.03578125 -23.3828125 5.5390625 C-15.89400118 -0.80958377 -9.48093899 -3.60851947 0 0 Z " fill="#FBFBFB" transform="translate(514,413)"/>
<path d="M0 0 C1.55606751 1.55606751 1.12970769 3.05957371 1.1328125 5.21875 C1.13474609 6.49298828 1.13474609 6.49298828 1.13671875 7.79296875 C1.13285156 8.68628906 1.12898437 9.57960938 1.125 10.5 C1.13080078 11.83998047 1.13080078 11.83998047 1.13671875 13.20703125 C1.13542969 14.05652344 1.13414062 14.90601563 1.1328125 15.78125 C1.13168457 16.56564453 1.13055664 17.35003906 1.12939453 18.15820312 C1 20 1 20 0 21 C-3.22719895 21.50140097 -6.46229479 21.90141677 -9.703125 22.3046875 C-15.43177829 23.51286319 -18.80160626 26.14726466 -22 31 C-23.95619041 36.53764499 -24.32007552 41.55542978 -24.37890625 47.3984375 C-24.39590073 48.27400299 -24.4128952 49.14956848 -24.43040466 50.05166626 C-24.48319986 52.82603918 -24.52371629 55.60039867 -24.5625 58.375 C-24.60641928 61.1709542 -24.65301831 63.96679322 -24.70530701 66.76260376 C-24.73729523 68.49752069 -24.76417562 70.23254055 -24.78553772 71.96762085 C-24.88817371 77.88817371 -24.88817371 77.88817371 -26 79 C-27.40348735 79.09860131 -28.81180477 79.13078937 -30.21875 79.1328125 C-31.49298828 79.13474609 -31.49298828 79.13474609 -32.79296875 79.13671875 C-33.68628906 79.13285156 -34.57960938 79.12898438 -35.5 79.125 C-36.39332031 79.12886719 -37.28664063 79.13273437 -38.20703125 79.13671875 C-39.05652344 79.13542969 -39.90601563 79.13414062 -40.78125 79.1328125 C-41.56564453 79.13168457 -42.35003906 79.13055664 -43.15820312 79.12939453 C-45 79 -45 79 -46 78 C-46.09494733 75.62699131 -46.12559319 73.28321297 -46.11352539 70.90991211 C-46.11367142 70.16849472 -46.11381744 69.42707733 -46.1139679 68.66319275 C-46.11326865 66.20121379 -46.10547574 63.73930957 -46.09765625 61.27734375 C-46.09579211 59.57483461 -46.09436819 57.87232493 -46.09336853 56.16981506 C-46.08954302 51.68006927 -46.07971247 47.19035562 -46.06866455 42.70062256 C-46.05845113 38.12268509 -46.05387106 33.54474244 -46.04882812 28.96679688 C-46.03809022 19.97785043 -46.02101341 10.98892788 -46 2 C-43.703463 0.8517315 -42.41686833 0.88438825 -39.8671875 0.90234375 C-39.06152344 0.90556641 -38.25585938 0.90878906 -37.42578125 0.91210938 C-36.58402344 0.92048828 -35.74226562 0.92886719 -34.875 0.9375 C-34.02550781 0.94201172 -33.17601562 0.94652344 -32.30078125 0.95117188 C-30.20049091 0.96297126 -28.1002367 0.98090694 -26 1 C-24.74335022 3.90600261 -24 5.79604584 -24 9 C-23.319375 8.2575 -22.63875 7.515 -21.9375 6.75 C-15.89772901 0.76126933 -8.55493105 -2.51615619 0 0 Z " fill="#FCFCFC" transform="translate(891,412)"/>
<path d="M0 0 C6.93 0 13.86 0 21 0 C22.15207981 3.45623944 22.13407672 6.14792358 22.14526367 9.79467773 C22.14862228 10.48119415 22.1519809 11.16771057 22.15544128 11.87503052 C22.16494064 14.14457 22.16689383 16.41403563 22.16796875 18.68359375 C22.17118184 20.26156139 22.17454595 21.83952872 22.17805481 23.41749573 C22.18404339 26.725359 22.18589497 30.03319615 22.18530273 33.34106445 C22.18520108 37.5791652 22.19885765 41.81709852 22.21607494 46.05515957 C22.22719412 49.31424224 22.22922197 52.57328441 22.22869301 55.83238411 C22.22987308 57.39488363 22.23429639 58.95738419 22.24202538 60.51986504 C22.25182447 62.70533859 22.24894779 64.89044831 22.24291992 67.07592773 C22.24434494 68.31930405 22.24576996 69.56268036 22.24723816 70.84373474 C22.0135437 73.82709988 21.57269669 75.49719946 20 78 C16.85418577 78.02888514 13.70840531 78.04675923 10.5625 78.0625 C9.66466797 78.07087891 8.76683594 78.07925781 7.84179688 78.08789062 C6.56079102 78.09272461 6.56079102 78.09272461 5.25390625 78.09765625 C4.46314697 78.10289307 3.6723877 78.10812988 2.85766602 78.11352539 C1 78 1 78 0 77 C-0.38495362 72.70142756 -0.43315427 68.37535491 -0.5625 64.0625 C-0.58334656 63.39737396 -0.60419312 62.73224792 -0.62567139 62.04696655 C-1.02159151 49.1371833 -1.10816434 36.22768031 -1.125 23.3125 C-1.12888229 21.91356003 -1.12888229 21.91356003 -1.13284302 20.48635864 C-1.13868959 17.82029372 -1.13712472 15.15434704 -1.1328125 12.48828125 C-1.13479141 11.68851868 -1.13677032 10.8887561 -1.1388092 10.0647583 C-1.12375369 6.47124763 -0.87809776 3.51239106 0 0 Z " fill="#FBFBFB" transform="translate(671,552)"/>
<path d="M0 0 C2.8125 1.3125 2.8125 1.3125 5 3 C5.5775 3.4125 6.155 3.825 6.75 4.25 C8.78264469 7.09570256 8.883051 9.55000441 9 13 C7.60566933 16.62525975 6.07230872 19.5677556 3 22 C-0.76923717 23.25641239 -4.10182091 23.73402641 -8 23 C-11.59368494 21.13788027 -14.28011915 18.86061512 -15.76171875 15.03125 C-16.4060856 11.42833856 -16.06282966 9.18499845 -14.875 5.6875 C-11.00016712 0.13357288 -6.46787324 -0.98395638 0 0 Z " fill="#F8F7F7" transform="translate(685,519)"/>
<path d="" fill="#CFCFD2" transform="translate(0,0)"/>
<path d="" fill="#D1D6D1" transform="translate(0,0)"/>
<path d="" fill="#CECECB" transform="translate(0,0)"/>
<path d="" fill="#DFDDDE" transform="translate(0,0)"/>
<path d="" fill="#D3D3D2" transform="translate(0,0)"/>
<path d="" fill="#DDDADC" transform="translate(0,0)"/>
<path d="" fill="#D4D1CF" transform="translate(0,0)"/>
<path d="" fill="#D0D0CC" transform="translate(0,0)"/>
<path d="" fill="#DCDDDC" transform="translate(0,0)"/>
<path d="" fill="#C5C4C2" transform="translate(0,0)"/>
<path d="" fill="#C5C4C3" transform="translate(0,0)"/>
<path d="" fill="#CECDCD" transform="translate(0,0)"/>
<path d="" fill="#D2CFCF" transform="translate(0,0)"/>
<path d="" fill="#C3C5C6" transform="translate(0,0)"/>
<path d="" fill="#BABEBE" transform="translate(0,0)"/>
<path d="" fill="#C0C4C3" transform="translate(0,0)"/>
<path d="" fill="#BCBDBB" transform="translate(0,0)"/>
<path d="" fill="#C9CAC9" transform="translate(0,0)"/>
<path d="" fill="#E0DDDE" transform="translate(0,0)"/>
<path d="" fill="#DEE0DF" transform="translate(0,0)"/>
<path d="" fill="#DCDEDD" transform="translate(0,0)"/>
<path d="" fill="#D5D5D5" transform="translate(0,0)"/>
<path d="" fill="#E8E5E7" transform="translate(0,0)"/>
<path d="" fill="#E7E6E7" transform="translate(0,0)"/>
<path d="" fill="#D1D0D0" transform="translate(0,0)"/>
<path d="" fill="#E0DFDE" transform="translate(0,0)"/>
<path d="" fill="#D5D5D4" transform="translate(0,0)"/>
<path d="" fill="#E3E2E2" transform="translate(0,0)"/>
<path d="" fill="#CBCDCB" transform="translate(0,0)"/>
<path d="" fill="#DADBD8" transform="translate(0,0)"/>
<path d="" fill="#CECED0" transform="translate(0,0)"/>
<path d="" fill="#CACBCD" transform="translate(0,0)"/>
<path d="" fill="#C4C4C4" transform="translate(0,0)"/>
<path d="" fill="#FFFEFF" transform="translate(0,0)"/>
</svg>
