<?xml version="1.0" encoding="UTF-8"?>
<svg version="1.1" xmlns="http://www.w3.org/2000/svg" width="1024" height="1024">
<path d="M0 0 C4.30619616 0.18376031 5.95794684 0.64920509 9.28857422 3.59399414 C11.55009728 6.56658294 13.41405938 9.76770281 15.23242188 13.02563477 C16.96209595 16.06817585 18.94733658 18.92279313 20.91748047 21.81274414 C21.7522684 23.07089481 22.58551263 24.33007063 23.41748047 25.59008789 C28.85528739 33.78317797 34.42478104 41.88858053 39.96073914 50.01547241 C42.59101144 53.87701232 45.21792799 57.74081342 47.84326172 61.60571289 C55.22517343 72.47250719 62.61985019 83.32971242 70.07666016 94.14526367 C71.87508549 96.75497255 73.67035876 99.36684351 75.46557617 101.97875977 C76.85155717 103.99526348 78.2380332 106.01142623 79.62451172 108.02758789 C81.3944818 110.60191871 83.16265732 113.17746605 84.92919922 115.75415039 C91.06524444 124.69946933 97.25174537 133.60892173 103.45141602 142.51025391 C107.26991461 147.99518747 111.07596769 153.48803802 114.85498047 159.00024414 C119.53905712 165.82959511 124.25532566 172.63640964 128.97998047 179.43774414 C129.6921875 180.46448242 130.40439453 181.4912207 131.13818359 182.54907227 C131.80011719 183.50104492 132.46205078 184.45301758 133.14404297 185.43383789 C133.73910645 186.29033936 134.33416992 187.14684082 134.94726562 188.02929688 C136.20653233 189.90660722 136.20653233 189.90660722 137.35498047 191.00024414 C137.35359778 189.54054372 137.35359778 189.54054372 137.35218716 188.05135441 C137.33002024 164.40905068 137.31357025 140.76674829 137.3031683 117.12443638 C137.29800472 105.69135227 137.29096085 94.25827502 137.27954102 82.82519531 C137.26959606 72.86398388 137.26312749 62.90277742 137.26089197 52.94156116 C137.25958455 47.6637024 137.25649668 42.38585784 137.24925041 37.10800362 C137.24249316 32.14640531 137.2403629 27.18482711 137.24187279 22.22322464 C137.24159633 20.39661614 137.23958946 18.57000702 137.23577499 16.74340248 C137.23084234 14.26079962 137.23198058 11.77827399 137.23472595 9.29566956 C137.23035669 8.19695498 137.23035669 8.19695498 137.22589916 7.07604414 C137.24085926 2.11436535 137.24085926 2.11436535 138.35498047 1.00024414 C140.70811602 0.92752673 143.06331715 0.91653546 145.41748047 0.93774414 C146.70783203 0.94676758 147.99818359 0.95579102 149.32763672 0.96508789 C150.32666016 0.97668945 151.32568359 0.98829102 152.35498047 1.00024414 C152.34888417 2.645165 152.34888417 2.645165 152.34266472 4.32331657 C152.24584849 31.06772661 152.20696165 57.81174974 152.22801018 84.55633354 C152.23686309 97.49015298 152.22723473 110.42345497 152.17333984 123.35717773 C152.12638529 134.63680754 152.11487998 145.9158363 152.14506257 157.19553292 C152.1598142 163.16238192 152.15741267 169.12806094 152.11248398 175.09478378 C152.07065583 180.72438177 152.0766405 186.35200837 152.11750221 191.98159409 C152.12430562 194.03489794 152.11443034 196.08834459 152.08555031 198.1414566 C151.9032059 212.02772235 154.35030382 221.40663893 162.06088376 233.02424741 C164.16184878 236.23227659 166.05990025 239.55701729 167.97998047 242.87524414 C168.80914379 244.27513998 169.63852022 245.67490966 170.46826172 247.07446289 C174.45357036 253.83823126 178.31901432 260.67170763 182.19558716 267.49819946 C185.83303052 273.9027246 189.49950671 280.28117437 193.30810547 286.58618164 C193.91807373 287.59849854 194.52804199 288.61081543 195.15649414 289.65380859 C196.30658075 291.553612 197.46524613 293.44825577 198.63354492 295.33691406 C199.14103271 296.17585205 199.64852051 297.01479004 200.17138672 297.87915039 C200.6194165 298.60690674 201.06744629 299.33466309 201.52905273 300.08447266 C202.35498047 302.00024414 202.35498047 302.00024414 201.35498047 305.00024414 C194.9407741 296.78460109 188.75862859 288.44256021 182.73388672 279.93823242 C180.18920388 276.36179964 177.6145893 272.80697643 175.04248047 269.25024414 C174.4955957 268.49340332 173.94871094 267.7365625 173.38525391 266.95678711 C170.61189217 263.11930382 167.83606991 259.28361536 165.05810547 255.44946289 C154.1957399 240.44843549 143.54982121 225.29958083 132.93701172 210.12133789 C130.54124508 206.69497909 128.14270816 203.27058764 125.74169922 199.84790039 C119.92067294 191.54731338 114.12532772 183.23144872 108.3972168 174.86645508 C105.09131714 170.04795324 101.73282891 165.26852562 98.35498047 160.50024414 C93.07229018 153.04142874 87.87651382 145.52639135 82.71386719 137.98413086 C80.43217326 134.6530053 78.14319291 131.32689371 75.85498047 128.00024414 C74.93827927 126.66693455 74.02161259 125.33360122 73.10498047 124.00024414 C72.65123047 123.34024414 72.19748047 122.68024414 71.72998047 122.00024414 C70.35498047 120.00024414 68.97998047 118.00024414 67.60498047 116.00024414 C67.1513916 115.34048584 66.69780273 114.68072754 66.23046875 114.00097656 C65.31214686 112.66522081 64.39385267 111.32944602 63.47558594 109.99365234 C61.2094689 106.6972267 58.94289987 103.40111387 56.67529297 100.10571289 C46.35305892 85.10281489 36.07905998 70.06719361 25.82543945 55.01733398 C21.51867112 48.69894383 17.19688369 42.3911326 12.85449219 36.09716797 C12.44859863 35.50830811 12.04270508 34.91944824 11.62451172 34.31274414 C11.28009033 33.81387695 10.93566895 33.31500977 10.58081055 32.80102539 C8.81961027 30.21376922 7.0910876 27.60440484 5.35498047 25.00024414 C5.02498047 83.74024414 4.69498047 142.48024414 4.35498047 203.00024414 C-0.26501953 203.33024414 -4.88501953 203.66024414 -9.64501953 204.00024414 C-10.48688876 198.89300815 -10.78766392 193.94098795 -10.77200317 188.76223755 C-10.77356316 187.96066943 -10.77512316 187.15910131 -10.77673042 186.33324325 C-10.78070118 183.66249146 -10.77756611 180.99179708 -10.77441406 178.32104492 C-10.77576978 176.40047675 -10.77755067 174.47990885 -10.77972412 172.55934143 C-10.78427632 167.35530282 -10.78251847 162.15128407 -10.77934504 156.94724512 C-10.77681221 151.50380049 -10.77916135 146.06035754 -10.7807312 140.61691284 C-10.78254926 131.48264256 -10.78015512 122.34838038 -10.77539062 113.21411133 C-10.76993893 102.63996552 -10.77171869 92.06583896 -10.77721703 81.49169362 C-10.78174685 72.41814958 -10.78239965 63.34461135 -10.77977836 54.27106655 C-10.77821612 48.84911526 -10.77802058 43.42717304 -10.78131485 38.00522232 C-10.78419199 32.91466552 -10.78222081 27.82413372 -10.77642059 22.73357964 C-10.77509256 20.86020258 -10.77548783 18.98682343 -10.77768326 17.11344719 C-10.78039285 14.56771884 -10.77701613 12.02207196 -10.77200317 9.47634888 C-10.7742339 8.72530164 -10.77646462 7.9742544 -10.77876294 7.20044816 C-10.74882379 -0.57135241 -6.85227368 0.19476159 0 0 Z " fill="#FBFBFB" transform="translate(146.64501953125,396.999755859375)"/>
<path d="M0 0 C1.12742615 -0.00281982 2.25485229 -0.00563965 3.41644287 -0.00854492 C4.66427551 -0.00652069 5.91210815 -0.00449646 7.19775391 -0.00241089 C8.50327209 -0.00416321 9.80879028 -0.00591553 11.15386963 -0.00772095 C14.7446815 -0.01229497 18.33546476 -0.01050585 21.92627716 -0.00734186 C25.67611267 -0.0048181 29.42594565 -0.00715584 33.17578125 -0.00872803 C39.47412559 -0.01054968 45.77245822 -0.00814354 52.07080078 -0.00338745 C59.36270524 0.00205516 66.65458174 0.0002925 73.94648552 -0.00521386 C80.19615354 -0.00974512 86.44581312 -0.01039547 92.69548225 -0.00777519 C96.43295882 -0.00621249 100.17042222 -0.00601846 103.90789795 -0.00931168 C108.07224191 -0.01272441 112.23653732 -0.00800044 116.40087891 -0.00241089 C117.64871155 -0.00443512 118.89654419 -0.00645935 120.18218994 -0.00854492 C121.87332916 -0.00431519 121.87332916 -0.00431519 123.59863281 0 C124.58457428 0.00037703 125.57051575 0.00075405 126.58633423 0.0011425 C128.79931641 0.12698364 128.79931641 0.12698364 129.79931641 1.12698364 C129.89782812 2.95814247 129.9290427 4.79318298 129.92431641 6.62698364 C129.92689453 7.62729614 129.92947266 8.62760864 129.93212891 9.65823364 C129.79931641 12.12698364 129.79931641 12.12698364 128.79931641 13.12698364 C127.24311245 13.22286488 125.68255187 13.24886397 124.12339783 13.24723816 C122.6067881 13.24930016 122.6067881 13.24930016 121.05953979 13.25140381 C119.38179977 13.24601089 119.38179977 13.24601089 117.67016602 13.24050903 C116.49959152 13.24065506 115.32901703 13.24080109 114.12297058 13.24095154 C110.90410698 13.2403726 107.68528637 13.23534356 104.46643138 13.22837758 C101.10584241 13.22214321 97.74525267 13.22154018 94.38465881 13.22035217 C88.01689299 13.2172391 81.64914425 13.20902604 75.28138596 13.19900268 C67.32317334 13.18674667 59.36495797 13.1812589 51.40673828 13.17581177 C37.204251 13.16606061 23.00180102 13.14603034 8.79931641 13.12698364 C8.79931641 38.53698364 8.79931641 63.94698364 8.79931641 90.12698364 C44.76931641 90.12698364 80.73931641 90.12698364 117.79931641 90.12698364 C117.79931641 94.41698364 117.79931641 98.70698364 117.79931641 103.12698364 C81.82931641 103.12698364 45.85931641 103.12698364 8.79931641 103.12698364 C8.79931641 131.50698364 8.79931641 159.88698364 8.79931641 189.12698364 C48.06931641 189.12698364 87.33931641 189.12698364 127.79931641 189.12698364 C128.61652134 192.39580338 128.91005184 194.59697433 128.86181641 197.87698364 C128.85279297 198.67620239 128.84376953 199.47542114 128.83447266 200.29885864 C128.81707031 201.20378052 128.81707031 201.20378052 128.79931641 202.12698364 C126.23307684 203.41010343 124.4217691 203.2499651 121.5475769 203.24723816 C119.87745041 203.24930016 119.87745041 203.24930016 118.17358398 203.25140381 C116.94647705 203.24780853 115.71937012 203.24421326 114.45507812 203.24050903 C112.52343307 203.24072807 112.52343307 203.24072807 110.55276489 203.24095154 C107.01579218 203.24123914 103.47885319 203.23534847 99.94188833 203.22837758 C96.24764774 203.2221378 92.55340643 203.22153975 88.85916138 203.22035217 C81.86102536 203.21724071 74.86290492 203.20902979 67.86477578 203.19900268 C59.89874043 203.18783583 51.93270435 203.18232965 43.96666312 203.17730725 C27.57753843 203.16684704 11.1884294 203.14925115 -5.20068359 203.12698364 C-6.32054146 192.85649111 -6.34271013 182.65398056 -6.33007812 172.33914185 C-6.33143545 170.46709662 -6.33321725 168.59505166 -6.33538818 166.7230072 C-6.33991958 161.67421818 -6.33819165 156.62544975 -6.3350091 151.57666039 C-6.33246735 146.28672752 -6.3348277 140.99679635 -6.33639526 135.7068634 C-6.33820991 126.83786707 -6.33582732 117.96887909 -6.33105469 109.09988403 C-6.32559494 98.835214 -6.32738992 88.57056377 -6.33288109 78.3058942 C-6.33741032 69.48702427 -6.33806427 60.66816031 -6.33544242 51.8492896 C-6.33388097 46.58390839 -6.33368268 41.31853651 -6.33697891 36.0531559 C-6.33985548 31.11437608 -6.33788596 26.17562203 -6.33208466 21.23684502 C-6.33075669 19.41990324 -6.33115179 17.60295931 -6.33334732 15.78601837 C-6.33605692 13.31719024 -6.33268029 10.84844611 -6.32766724 8.37962341 C-6.32989796 7.65144152 -6.33212868 6.92325962 -6.334427 6.1730116 C-6.31062964 0.18261594 -5.88168334 0.00224917 0 0 Z " fill="#FDFDFD" transform="translate(329.20068359375,397.8730163574219)"/>
<path d="M0 0 C0.33 0.66 0.66 1.32 1 2 C-11.19149257 20.37434009 -23.64394732 38.53886182 -36.30932617 56.58911133 C-38.06356764 59.090647 -39.81514016 61.59403687 -41.56640625 64.09765625 C-44.5962593 68.42673854 -47.63818834 72.7471091 -50.6875 77.0625 C-51.19877441 77.78655029 -51.71004883 78.51060059 -52.23681641 79.2565918 C-54.8065986 82.89574005 -57.37748465 86.53410593 -59.94921875 90.171875 C-60.92455737 91.55202807 -61.89981746 92.93223664 -62.875 94.3125 C-63.36516602 95.00617676 -63.85533203 95.69985352 -64.36035156 96.41455078 C-67.05386321 100.23021386 -69.7376299 104.0524177 -72.41015625 107.8828125 C-78.06626285 115.98882307 -83.74837045 124.06884117 -89.5625 132.0625 C-94.59915363 138.98799429 -99.45790598 146.02002994 -104.26586914 153.10571289 C-108.00583059 158.59848128 -111.87756878 163.97127336 -115.84082031 169.30419922 C-120.05093046 175.00014131 -124.02611306 180.84654132 -127.99926758 186.70922852 C-132.48746298 193.30935842 -137.13229294 199.78567752 -141.86279297 206.21411133 C-142.37600098 206.91560303 -142.88920898 207.61709473 -143.41796875 208.33984375 C-143.86938232 208.95206787 -144.3207959 209.56429199 -144.78588867 210.19506836 C-146.04296859 212.06387829 -147.03707399 213.96622178 -148 216 C-147.12601563 217.11181641 -147.12601563 217.11181641 -146.234375 218.24609375 C-140.86980255 225.11959109 -135.74627788 232.12576636 -130.74951172 239.27050781 C-126.87052085 244.8027785 -122.89550011 250.25734844 -118.875 255.6875 C-114.44887186 261.66718172 -110.06077173 267.66833103 -105.75073242 273.73217773 C-102.41807092 278.4206127 -99.05682547 283.08785186 -95.6875 287.75 C-95.14754395 288.49862305 -94.60758789 289.24724609 -94.05126953 290.01855469 C-91.166935 294.01487047 -88.26909042 298.00049717 -85.3515625 301.97265625 C-84.46271362 303.18840332 -84.46271362 303.18840332 -83.5559082 304.42871094 C-82.42080566 305.98075423 -81.28152513 307.52975332 -80.13745117 309.07519531 C-77.56447832 312.60167451 -75.3472685 315.79288549 -74 320 C-88.80550113 321.34898267 -88.80550113 321.34898267 -93.23046875 318.62890625 C-95.07161708 316.2008623 -96.49550704 313.6518755 -98 311 C-99.46321211 308.90360059 -100.976671 306.84918525 -102.49511719 304.79248047 C-107.94293318 297.41293745 -113.20379244 289.8958949 -118.48144531 282.39428711 C-123.70385531 274.98048274 -129.0202489 267.63563778 -134.34130859 260.29248047 C-136.02941284 257.95934846 -137.71265712 255.62278262 -139.39453125 253.28515625 C-145.50977069 244.7894109 -151.67216078 236.33901293 -158 228 C-161.14389039 231.04178113 -163.91753634 234.05165661 -166.4375 237.625 C-167.12457031 238.58664062 -167.81164062 239.54828125 -168.51953125 240.5390625 C-168.90705566 241.08208008 -169.29458008 241.62509766 -169.69384766 242.18457031 C-172.30484991 245.81361943 -174.96941581 249.40352399 -177.625 253 C-178.84640929 254.65620935 -180.06776262 256.31245997 -181.2890625 257.96875 C-181.90426758 258.80277344 -182.51947266 259.63679688 -183.15332031 260.49609375 C-186.68619306 265.28630302 -190.21635915 270.07850744 -193.74633789 274.87084961 C-196.67336049 278.84420008 -199.60229173 282.81611548 -202.53515625 286.78515625 C-203.11765137 287.5755127 -203.70014648 288.36586914 -204.30029297 289.18017578 C-205.46888143 290.75998822 -206.64363826 292.33525769 -207.82470703 293.90576172 C-210.80737338 297.89569189 -213.60549603 301.91015517 -216.20703125 306.16015625 C-223.67944586 318.05279151 -223.67944586 318.05279151 -228.12451172 319.8671875 C-232.82414363 320.86411007 -237.26632155 320.64412056 -242 320 C-240.56538776 315.80299609 -238.50637819 312.83416336 -235.75 309.375 C-231.51525547 303.99357363 -227.41701023 298.52754023 -223.375 293 C-218.24644971 285.99989679 -213.02795246 279.07556988 -207.75 272.1875 C-203.40881379 266.51947023 -199.10545251 260.84146239 -195 255 C-190.11654246 248.06864092 -184.97126603 241.34752806 -179.79492188 234.6328125 C-178.49723169 232.9438784 -177.20687719 231.24927984 -175.92431641 229.54882812 C-174.59566355 227.78897837 -173.24765302 226.04363555 -171.88427734 224.31054688 C-171.22508301 223.43978516 -170.56588867 222.56902344 -169.88671875 221.671875 C-169.28432373 220.89424805 -168.68192871 220.11662109 -168.0612793 219.31542969 C-166.70558048 217.0041144 -166.70558048 217.0041144 -167.68334961 214.40625 C-169.47073297 211.13970996 -171.62907497 208.20823883 -173.875 205.25 C-174.87504422 203.90985776 -175.87369181 202.56867242 -176.87109375 201.2265625 C-177.38784668 200.53208008 -177.90459961 199.83759766 -178.43701172 199.12207031 C-180.9878841 195.65874905 -183.46446988 192.14414014 -185.9375 188.625 C-186.43483643 187.91770752 -186.93217285 187.21041504 -187.44458008 186.48168945 C-188.45653121 185.04188714 -189.46816798 183.60186383 -190.47949219 182.16162109 C-191.99505922 180.00702403 -193.51605859 177.85637664 -195.0390625 175.70703125 C-206.67451474 159.28238562 -218.0219845 142.68488156 -229 125.8125 C-229.49371094 125.05654541 -229.98742187 124.30059082 -230.49609375 123.52172852 C-230.95113281 122.81975342 -231.40617187 122.11777832 -231.875 121.39453125 C-232.28492188 120.76393799 -232.69484375 120.13334473 -233.1171875 119.48364258 C-234 118 -234 118 -234 117 C-228.00973302 115.93242767 -221.86814658 114.9311431 -216 117 C-211.3159351 121.0757951 -208.88289331 127.15109171 -206.21484375 132.640625 C-204.45858332 136.05149735 -202.29640287 139.06208175 -200 142.125 C-199.17302048 143.25544476 -198.34750686 144.3869633 -197.5234375 145.51953125 C-197.11061523 146.08494629 -196.69779297 146.65036133 -196.27246094 147.23291016 C-194.00082935 150.38756661 -191.81686563 153.60216022 -189.625 156.8125 C-184.34538807 164.5279944 -178.96456325 172.16901214 -173.56005859 179.79736328 C-170.8283689 183.65421843 -168.10163662 187.51457177 -165.375 191.375 C-164.86590088 192.09486084 -164.35680176 192.81472168 -163.83227539 193.55639648 C-163.12252563 194.56101929 -163.12252563 194.56101929 -162.3984375 195.5859375 C-161.98255371 196.1742334 -161.56666992 196.7625293 -161.13818359 197.36865234 C-160.07115334 198.8980166 -159.03440932 200.44838602 -158 202 C-157.34 202 -156.68 202 -156 202 C-154.7482731 200.63560003 -154.7482731 200.63560003 -153.5234375 198.80078125 C-153.02577881 198.09679199 -152.52812012 197.39280273 -152.01538086 196.66748047 C-151.47405518 195.89033691 -150.93272949 195.11319336 -150.375 194.3125 C-145.35649643 187.23131544 -140.21749937 180.26346762 -134.9375 173.375 C-133.57545636 171.59640354 -132.21347634 169.81775835 -130.8515625 168.0390625 C-130.19833008 167.18602539 -129.54509766 166.33298828 -128.87207031 165.45410156 C-126.16303519 161.90282077 -123.48556327 158.32839077 -120.8125 154.75 C-110.62973423 141.13640171 -100.23215675 127.69049483 -89.77929688 114.28369141 C-87.98113348 111.97578521 -86.18546443 109.6659607 -84.390625 107.35546875 C-78.16129434 99.33677218 -71.91884694 91.32897789 -65.63671875 83.3515625 C-63.86372825 81.1000418 -62.09587245 78.84463236 -60.33203125 76.5859375 C-55.47630617 70.37475839 -50.55953662 64.22319154 -45.5625 58.125 C-41.19057782 52.78678219 -36.97751726 47.36017669 -32.875 41.8125 C-28.29694399 35.6228659 -23.47150968 29.72146359 -18.45703125 23.8828125 C-11.93008488 16.22480547 -6.01520787 8.06119694 0 0 Z " fill="#FCFCFC" transform="translate(708,281)"/>
<path d="M0 0 C50.82 0 101.64 0 154 0 C154 4.62 154 9.24 154 14 C119.35 14.495 119.35 14.495 84 15 C84 77.04 84 139.08 84 203 C78.72 203 73.44 203 68 203 C67.97687827 178.65277113 67.95901936 154.30554489 67.94818783 129.95830727 C67.9430255 118.65416719 67.93598401 107.35003406 67.92456055 96.04589844 C67.91461178 86.19637878 67.90814611 76.34686415 67.90591151 66.49733961 C67.90460473 61.27925265 67.90152094 56.06118005 67.89426994 50.84309769 C67.8875067 45.93648818 67.88538367 41.02989902 67.88689232 36.12328529 C67.88661613 34.31806007 67.8846128 32.5128342 67.88079453 30.70761299 C67.87585255 28.25163399 67.8770036 25.79573283 67.87974548 23.3397522 C67.87683264 22.61797055 67.8739198 21.8961889 67.87091869 21.15253508 C67.88587879 16.22824242 67.88587879 16.22824242 69 14 C46.23 14 23.46 14 0 14 C0 9.38 0 4.76 0 0 Z " fill="#FAFAFA" transform="translate(650,397)"/>
<path d="M0 0 C2.68188731 2.43196233 5.01647564 4.96560181 7 8 C7 8.66 7 9.32 7 10 C5.23628182 11.03307771 3.46374967 12.05112049 1.6875 13.0625 C0.70136719 13.63097656 -0.28476562 14.19945312 -1.30078125 14.78515625 C-4 16 -4 16 -7 15 C-7.5775 14.175 -8.155 13.35 -8.75 12.5 C-10.85644352 9.7060963 -10.85644352 9.7060963 -14.4375 9.0625 C-18.04452911 8.99921879 -20.01068333 8.9778152 -23 11 C-24.25329784 13.85289698 -24.25329784 13.85289698 -24 17 C-20.73864425 21.45048278 -16.25226769 22.58966614 -11.25 24.3125 C-3.77670366 27.04570617 2.81597913 29.84338708 7.16015625 36.87890625 C9.08319579 41.73569913 8.99344751 47.52459154 7.0546875 52.35546875 C3.22558674 58.77342694 -1.85665285 62.71838585 -9 65 C-11.94918436 65.45290063 -14.83193069 65.52526709 -17.8125 65.5 C-19.0022644 65.49033203 -19.0022644 65.49033203 -20.21606445 65.48046875 C-27.97517684 65.23906355 -33.45671098 63.36323077 -39.15234375 57.95703125 C-44 52.68700495 -44 52.68700495 -44 50 C-42.25877451 48.96427104 -40.50663405 47.9468748 -38.75 46.9375 C-37.77546875 46.36902344 -36.8009375 45.80054688 -35.796875 45.21484375 C-33 44 -33 44 -30.703125 44.12890625 C-29 45 -29 45 -28 48 C-25.52869082 49.15521502 -25.52869082 49.15521502 -23 50 C-22.505 50.495 -22.505 50.495 -22 51 C-20.37860563 51.12494616 -18.75115878 51.17571624 -17.125 51.1875 C-15.79855469 51.20876953 -15.79855469 51.20876953 -14.4453125 51.23046875 C-11.74233274 51.17068424 -11.74233274 51.17068424 -9 49 C-8.74984127 45.41642759 -8.74984127 45.41642759 -9 42 C-13.75524014 39.48251992 -18.42064645 37.47325643 -23.5 35.6875 C-29.960656 33.25631238 -35.44526369 30.08588622 -39.1796875 24.11328125 C-41.06501704 19.25631323 -40.88236607 13.62022411 -39.23046875 8.71484375 C-35.8355484 2.48882374 -29.69147592 -1.48840462 -23.01171875 -3.640625 C-14.89185932 -5.09116299 -7.10151431 -4.3572003 0 0 Z " fill="#FCFCFC" transform="translate(901,535)"/>
<path d="M0 0 C4.95 0 9.9 0 15 0 C15.04969116 6.24388488 15.08585699 12.48765288 15.10986328 18.73168945 C15.11987844 20.85280362 15.13349446 22.97390413 15.15087891 25.0949707 C15.17532525 28.15579616 15.18652825 31.21643797 15.1953125 34.27734375 C15.20563507 35.21521225 15.21595764 36.15308075 15.22659302 37.11936951 C15.22797334 45.34540935 14.59692935 54.48579611 9 61 C0.03662906 68.19342994 -8.80844101 69.2238707 -20 68 C-26.62895996 66.10367606 -31.25221109 62.73880177 -35 57 C-35.66 55.02 -36.32 53.04 -37 51 C-32.38 48.69 -27.76 46.38 -23 44 C-21.68 45.98 -20.36 47.96 -19 50 C-16.58661337 52.13757101 -15.01496987 52.95703831 -11.78515625 53.09375 C-6.92119546 52.78039749 -6.92119546 52.78039749 -3 50.125 C-1.26961991 46.4479423 -0.83089804 43.45548653 -0.68359375 39.43359375 C-0.64161865 38.31573486 -0.59964355 37.19787598 -0.55639648 36.04614258 C-0.51716064 34.85529053 -0.4779248 33.66443848 -0.4375 32.4375 C-0.37381226 30.62511841 -0.37381226 30.62511841 -0.30883789 28.77612305 C0.00816084 19.17622777 0.08208765 9.60425523 0 0 Z " fill="#FCFBFB" transform="translate(832,532)"/>
<path d="" fill="#E3E3E3" transform="translate(0,0)"/>
<path d="" fill="#F4F4F5" transform="translate(0,0)"/>
<path d="" fill="#E1DFE1" transform="translate(0,0)"/>
<path d="" fill="#E5E5E6" transform="translate(0,0)"/>
<path d="" fill="#DCDBDB" transform="translate(0,0)"/>
<path d="" fill="#E1DFDF" transform="translate(0,0)"/>
<path d="" fill="#DFDFDF" transform="translate(0,0)"/>
<path d="" fill="#DDDFDE" transform="translate(0,0)"/>
<path d="" fill="#E0DFDF" transform="translate(0,0)"/>
<path d="" fill="#DEE0DF" transform="translate(0,0)"/>
<path d="" fill="#E0E0E1" transform="translate(0,0)"/>
<path d="" fill="#DFE0DF" transform="translate(0,0)"/>
<path d="" fill="#E5E5E7" transform="translate(0,0)"/>
<path d="" fill="#D0D0CD" transform="translate(0,0)"/>
<path d="" fill="#E0DDE0" transform="translate(0,0)"/>
<path d="" fill="#E4E3E5" transform="translate(0,0)"/>
<path d="" fill="#D5D6D3" transform="translate(0,0)"/>
<path d="" fill="#CECDCC" transform="translate(0,0)"/>
<path d="" fill="#E0DFE0" transform="translate(0,0)"/>
<path d="" fill="#E3E3E2" transform="translate(0,0)"/>
<path d="" fill="#E7E7E7" transform="translate(0,0)"/>
<path d="" fill="#E6E8E6" transform="translate(0,0)"/>
<path d="" fill="#D3D3D4" transform="translate(0,0)"/>
<path d="" fill="#DBDCDC" transform="translate(0,0)"/>
<path d="" fill="#D6D4D5" transform="translate(0,0)"/>
<path d="" fill="#DAD9D8" transform="translate(0,0)"/>
<path d="" fill="#E8E5E5" transform="translate(0,0)"/>
<path d="" fill="#E0DDE0" transform="translate(0,0)"/>
<path d="" fill="#D8DBDA" transform="translate(0,0)"/>
<path d="" fill="#D6D9D6" transform="translate(0,0)"/>
<path d="" fill="#E7E8E6" transform="translate(0,0)"/>
<path d="" fill="#D8D7D8" transform="translate(0,0)"/>
<path d="" fill="#E6E7E7" transform="translate(0,0)"/>
<path d="" fill="#E6E7E6" transform="translate(0,0)"/>
<path d="" fill="#E7E6E6" transform="translate(0,0)"/>
<path d="" fill="#E7E5E6" transform="translate(0,0)"/>
<path d="" fill="#D5D7D5" transform="translate(0,0)"/>
<path d="" fill="#D8D9D8" transform="translate(0,0)"/>
<path d="" fill="#E0E1E5" transform="translate(0,0)"/>
<path d="" fill="#E4E4E5" transform="translate(0,0)"/>
<path d="" fill="#DFE1DF" transform="translate(0,0)"/>
<path d="" fill="#E5E2E6" transform="translate(0,0)"/>
<path d="" fill="#D4D0D1" transform="translate(0,0)"/>
<path d="" fill="#DADBD9" transform="translate(0,0)"/>
<path d="" fill="#E0E2E1" transform="translate(0,0)"/>
<path d="" fill="#DCDEDF" transform="translate(0,0)"/>
<path d="" fill="#DBDBD9" transform="translate(0,0)"/>
<path d="" fill="#D8D8D7" transform="translate(0,0)"/>
<path d="" fill="#E4E2E0" transform="translate(0,0)"/>
<path d="" fill="#E2E4E4" transform="translate(0,0)"/>
<path d="" fill="#DDDADA" transform="translate(0,0)"/>
<path d="" fill="#E2E0E0" transform="translate(0,0)"/>
<path d="" fill="#D9DADB" transform="translate(0,0)"/>
<path d="" fill="#E1DDE2" transform="translate(0,0)"/>
<path d="" fill="#DEE0DF" transform="translate(0,0)"/>
<path d="" fill="#F3F3F3" transform="translate(0,0)"/>
<path d="" fill="#FFFEFF" transform="translate(0,0)"/>
</svg>
