<?xml version="1.0" encoding="UTF-8" standalone="no"?>
<!-- Created with Inkscape (http://www.inkscape.org/) -->

<svg
   width="125.15922mm"
   height="123.96601mm"
   viewBox="0 0 125.15922 123.96601"
   version="1.1"
   id="svg1"
   xml:space="preserve"
   sodipodi:docname="inner most triangle.svg"
   inkscape:export-filename="..\inner most triangle.svg"
   inkscape:export-xdpi="96"
   inkscape:export-ydpi="96"
   inkscape:version="1.4.2 (f4327f4, 2025-05-13)"
   xmlns:inkscape="http://www.inkscape.org/namespaces/inkscape"
   xmlns:sodipodi="http://sodipodi.sourceforge.net/DTD/sodipodi-0.dtd"
   xmlns:xlink="http://www.w3.org/1999/xlink"
   xmlns="http://www.w3.org/2000/svg"
   xmlns:svg="http://www.w3.org/2000/svg">
   <sodipodi:namedview
     id="namedview1"
     pagecolor="#ffffff"
     bordercolor="#000000"
     borderopacity="0.25"
     inkscape:showpageshadow="2"
     inkscape:pageopacity="0.0"
     inkscape:pagecheckerboard="0"
     inkscape:deskcolor="#d1d1d1"
     inkscape:document-units="mm"
     inkscape:zoom="0.86119876"
     inkscape:cx="103.34432"
     inkscape:cy="373.31684"
     inkscape:window-width="1829"
     inkscape:window-height="943"
     inkscape:window-x="2405"
     inkscape:window-y="1463"
     inkscape:window-maximized="0"
     inkscape:current-layer="layer1" />
     <defs
     id="defs1"><inkscape:path-effect
       effect="powerclip"
       message=""
       id="path-effect25"
       is_visible="true"
       lpeversion="1"
       inverse="true"
       flatten="false"
       hide_clip="false" />
       <clipPath
       clipPathUnits="userSpaceOnUse"
       id="clipPath25"><path
         id="path25"
         style="display:block;fill:#0400ff;fill-opacity:1;stroke:#0400ff;stroke-width:0;stroke-linecap:round;stroke-linejoin:round;stroke-miterlimit:0;stroke-dasharray:none;stroke-opacity:1"
         d="m 149.66714,121.32217 -4.53507,-0.004 2.27114,-4.01121 z"
         clip-path="none"
         sodipodi:nodetypes="cccc" />
         </clipPath>
         <clipPath
       clipPathUnits="userSpaceOnUse"
       id="clipPath224-0"><path
         id="path224-7"
         style="display:none;fill:#ffffff;stroke-width:0.187482;stroke-linecap:round;stroke-linejoin:round;stroke-miterlimit:0"
         d="m 161.61773,112.40155 0.11905,0.44353 -1.19004,1.1358 -0.45271,-0.12563 0.11918,0.444 -1.02349,0.97677 -0.44274,-0.11897 0.12472,0.44876 0.31464,-0.30889 1.59086,0.44971 0.12029,0.44805 0.33215,-0.32014 1.40384,0.39689 0.11721,0.43763 0.3353,-0.32284 -0.44554,-0.12392 -0.36628,-1.39204 0.32392,-0.31223 -0.4381,-0.12161 -0.41805,-1.58877 0.33156,-0.31961 z" /><path
         id="lpe_path-effect224-8"
         style="fill:#ffffff;stroke-width:0.187482;stroke-linecap:round;stroke-linejoin:round;stroke-miterlimit:0"
         class="powerclip"
         d="m 153.32703,106.92437 h 14.9576 v 14.98095 h -14.9576 z m 8.2907,5.47718 0.11905,0.44353 -1.19004,1.1358 -0.45271,-0.12563 0.11918,0.444 -1.02349,0.97677 -0.44274,-0.11897 0.12472,0.44876 0.31464,-0.30889 1.59086,0.44971 0.12029,0.44805 0.33215,-0.32014 1.40384,0.39689 0.11721,0.43763 0.3353,-0.32284 -0.44554,-0.12392 -0.36628,-1.39204 0.32392,-0.31223 -0.4381,-0.12161 -0.41805,-1.58877 0.33156,-0.31961 z" /></clipPath><clipPath
       clipPathUnits="userSpaceOnUse"
       id="clipPath30"><path
         id="path30"
         style="fill:#ffffff;stroke-width:0.187482;stroke-linecap:round;stroke-linejoin:round;stroke-miterlimit:0"
         class="powerclip"
         d="m 134.05969,108.63792 16.43165,-4.53017 4.42741,16.84449 -16.43165,4.53017 z m 10.72644,3.64752 0.26186,0.46265 -0.97164,1.63752 -0.53446,-0.004 0.26214,0.46313 -0.83568,1.40826 -0.52154,3.9e-4 0.26964,0.46681 0.25437,-0.44261 1.88053,0.0242 0.26456,0.46736 0.27027,-0.46056 1.65948,0.0215 0.2581,0.45657 0.27293,-0.46455 -0.52607,-0.004 -0.81377,-1.45427 0.26356,-0.44916 -0.51721,-0.004 -0.92878,-1.6598 0.26977,-0.45977 z" /></clipPath>
         </defs>
         <g
        id="layer1"
        transform="matrix(6.9031466,0,0,6.9031466,-988.81902,-728.24121) translate(1.5, 0)">
     <path
       id="path4"
       style="fill:#0400ff;stroke:#0400ff;stroke-width:0;stroke-linecap:round;stroke-linejoin:round;stroke-miterlimit:0"
       d="m 151.13963,114.14487 c 0,0.17396 -0.14103,0.31499 -0.31501,0.31499 -0.17396,0 -0.31499,-0.14103 -0.31499,-0.31499 0,-0.17398 0.14103,-0.31501 0.31499,-0.31501 0.0425,0 -0.12204,0.0416 -0.17326,0.15087 -0.0428,0.0912 -0.0416,0.18995 0.0457,0.27235 0.10267,0.0968 0.23663,0.0903 0.32283,0.0372 0.0968,-0.0597 0.11973,-0.19615 0.11973,-0.14539 z" /><circle
       style="fill:#0400ff;fill-opacity:1;stroke:#0400ff;stroke-width:0;stroke-linecap:round;stroke-linejoin:round;stroke-miterlimit:0;stroke-dasharray:none;stroke-opacity:1"
       id="path4-5"
       cx="150.02068"
       cy="115.70017"
       r="0.28515124" /><path
       style="fill:#0400ff;fill-opacity:1;stroke:#0400ff;stroke-width:0.0579445;stroke-linecap:round;stroke-linejoin:round;stroke-miterlimit:0;stroke-dasharray:none;stroke-opacity:1"
       d="m 150.07969,114.77282 0.009,0.35004"
       id="path5"
       transform="matrix(0.31316663,0.00779507,-0.00739573,0.33007614,103.87677,76.193614)" /><path
       style="fill:#0400ff;fill-opacity:1;stroke:#0400ff;stroke-width:0.0579445;stroke-linecap:round;stroke-linejoin:round;stroke-miterlimit:0;stroke-dasharray:none;stroke-opacity:1"
       d="m 150.07969,114.77282 0.009,0.35004"
       id="path5-6"
       transform="matrix(0.24357801,0.19698695,-0.20697291,0.25722981,137.4615,56.222849)" /><path
       style="fill:#0400ff;fill-opacity:1;stroke:#0400ff;stroke-width:0.0579445;stroke-linecap:round;stroke-linejoin:round;stroke-miterlimit:0;stroke-dasharray:none;stroke-opacity:1"
       d="m 150.07969,114.77282 0.009,0.35004"
       id="path5-4"
       transform="matrix(0.15546554,0.27196428,-0.28622441,0.16456169,159.93642,55.766618)" /><path
       style="fill:#0400ff;fill-opacity:1;stroke:#0400ff;stroke-width:0.0579445;stroke-linecap:round;stroke-linejoin:round;stroke-miterlimit:0;stroke-dasharray:none;stroke-opacity:1"
       d="m 150.07969,114.77282 0.009,0.35004"
       id="path5-0"
       transform="matrix(-0.0093816,0.31312311,-0.33003445,-0.00906795,189.76071,69.772569)" /><path
       style="fill:#0400ff;fill-opacity:1;stroke:#0400ff;stroke-width:0.0579445;stroke-linecap:round;stroke-linejoin:round;stroke-miterlimit:0;stroke-dasharray:none;stroke-opacity:1"
       d="m 150.07969,114.77282 0.009,0.35004"
       id="path5-03"
       transform="matrix(-0.15961748,0.26954844,-0.28450303,-0.16752011,207.02052,94.720242)" /><path
       style="fill:#0400ff;fill-opacity:1;stroke:#0400ff;stroke-width:0.0579445;stroke-linecap:round;stroke-linejoin:round;stroke-miterlimit:0;stroke-dasharray:none;stroke-opacity:1"
       d="m 150.07969,114.77282 0.009,0.35004"
       id="path5-3"
       transform="matrix(-0.26757631,0.16290187,-0.17238757,-0.28158032,210.20804,123.96647)" /><path
       style="fill:#0400ff;fill-opacity:1;stroke:#0400ff;stroke-width:0.0579445;stroke-linecap:round;stroke-linejoin:round;stroke-miterlimit:0;stroke-dasharray:none;stroke-opacity:1"
       d="m 150.07969,114.77282 0.009,0.35004"
       id="path5-32"
       transform="matrix(0.31316663,0.00779507,-0.00739573,0.33007614,103.8704,76.976007)" /><path
       style="fill:#0400ff;fill-opacity:1;stroke:#0400ff;stroke-width:0.0579445;stroke-linecap:round;stroke-linejoin:round;stroke-miterlimit:0;stroke-dasharray:none;stroke-opacity:1"
       d="m 150.07969,114.77282 0.009,0.35004"
       id="path5-32-3"
       transform="matrix(-0.23557982,-0.20648547,0.21700461,-0.24882516,160.19998,175.62182)" /><path
       style="fill:#0400ff;fill-opacity:1;stroke:#0400ff;stroke-width:0.0579445;stroke-linecap:round;stroke-linejoin:round;stroke-miterlimit:0;stroke-dasharray:none;stroke-opacity:1"
       d="m 150.07969,114.77282 0.009,0.35004"
       id="path5-32-6"
       transform="matrix(-0.14782308,-0.27619276,0.29070093,-0.15651814,138.43222,175.34283)" /><path
       style="fill:#0400ff;fill-opacity:1;stroke:#0400ff;stroke-width:0.0579445;stroke-linecap:round;stroke-linejoin:round;stroke-miterlimit:0;stroke-dasharray:none;stroke-opacity:1"
       d="m 150.07969,114.77282 0.009,0.35004"
       id="path5-32-4"
       transform="matrix(0.01037655,-0.31309173,0.33000396,0.01011664,110.13065,161.53325)" /><path
       style="fill:#0400ff;fill-opacity:1;stroke:#0400ff;stroke-width:0.0579445;stroke-linecap:round;stroke-linejoin:round;stroke-miterlimit:0;stroke-dasharray:none;stroke-opacity:1"
       d="m 150.07969,114.77282 0.009,0.35004"
       id="path5-32-0"
       transform="matrix(0.18596333,-0.25209471,0.26617697,0.19533248,91.172449,130.88313)" /><path
       style="fill:#0400ff;fill-opacity:1;stroke:#0400ff;stroke-width:0.0579445;stroke-linecap:round;stroke-linejoin:round;stroke-miterlimit:0;stroke-dasharray:none;stroke-opacity:1"
       d="m 150.07969,114.77282 0.009,0.35004"
       id="path5-32-5"
       transform="matrix(0.25389012,-0.18350452,0.19406551,0.26710211,89.393431,112.20376)" /><path
       d="m 151.4269,115.63826 0.0112,0.0195 c 0.01,0.0173 0.026,0.03 0.0453,0.0356 l 0.069,0.0197 c 0.0205,0.006 0.0345,0.0246 0.0345,0.0458 v 0.0475 c 0,0.0131 0.007,0.025 0.0191,0.0309 0.0117,0.006 0.0191,0.0176 0.0191,0.0309 v 0.0464 c 0,0.0185 0.0177,0.032 0.0356,0.0269 0.0192,-0.005 0.0341,-0.0209 0.0389,-0.0403 l 0.004,-0.0133 c 0.005,-0.0201 0.0181,-0.0374 0.0361,-0.0476 l 0.01,-0.005 c 0.0179,-0.0101 0.0288,-0.0292 0.0288,-0.0498 v -0.01 c 0,-0.0152 -0.006,-0.0296 -0.0168,-0.0404 l -0.005,-0.005 c -0.0108,-0.0107 -0.0252,-0.0168 -0.0404,-0.0168 h -0.0513 c -0.0132,0 -0.0263,-0.004 -0.0379,-0.01 l -0.0411,-0.0234 c -0.005,-0.004 -0.009,-0.008 -0.011,-0.0133 -0.004,-0.0115 0.002,-0.0238 0.0122,-0.0292 l 0.007,-0.005 c 0.008,-0.004 0.017,-0.005 0.0254,-0.002 l 0.0276,0.009 c 0.01,0.004 0.0205,-3.7e-4 0.026,-0.009 0.005,-0.008 0.005,-0.0194 -0.002,-0.0271 l -0.0162,-0.0194 c -0.0119,-0.0143 -0.0117,-0.0352 3.6e-4,-0.0492 l 0.0187,-0.0218 c 0.0105,-0.0123 0.0122,-0.0298 0.004,-0.0437 l -0.004,-0.005 c -0.004,-2.4e-4 -0.008,-3.6e-4 -0.0124,-3.6e-4 -0.11055,0 -0.20429,0.0725 -0.23611,0.17272 z m 0.48398,0.075 c 0,-0.0438 -0.0115,-0.085 -0.0315,-0.12091 l -0.0304,0.0123 c -0.0187,0.007 -0.0284,0.0284 -0.0221,0.0475 l 0.0202,0.0604 c 0.004,0.0124 0.0143,0.0218 0.0268,0.0249 l 0.0347,0.009 c 0.002,-0.0107 0.003,-0.0217 0.003,-0.0328 z m -0.55272,0 a 0.30494679,0.30494679 0 1 1 0.60989,0 0.30494679,0.30494679 0 1 1 -0.60989,0 z"
       id="path1-64"
       style="fill:#0400ff;fill-opacity:1;stroke:#0400ff;stroke-width:0;stroke-dasharray:none;stroke-opacity:1" /><text
       xml:space="preserve"
       style="font-size:0.25552px;line-height:0;font-family:PMingLiU-ExtB;-inkscape-font-specification:PMingLiU-ExtB;text-align:start;writing-mode:lr-tb;direction:ltr;text-anchor:start;fill:none;fill-opacity:1;stroke:#0400ff;stroke-width:0.0144861;stroke-linecap:round;stroke-linejoin:round;stroke-miterlimit:0;stroke-dasharray:none;stroke-opacity:1"
       id="text6"
       transform="matrix(-0.48396211,-0.52712199,0.52712199,-0.48396211,163.2237,250.25668)"><textPath
         xlink:href="#path225"
         id="textPath225"
         style="font-size:0.25552px">LUNA    TERRA    SOL</textPath></text><path
       id="path224"
       style="display:none;fill:#ffffff;stroke-width:0.187482;stroke-linecap:round;stroke-linejoin:round;stroke-miterlimit:0"
       d="m 155.603,112.47486 0.2053,0.35651 -0.74438,1.27168 -0.41414,-4.4e-4 0.20552,0.35688 -0.64022,1.09364 -0.40411,0.003 0.21135,0.35969 0.1948,-0.34368 1.45725,0.009 0.20742,0.36014 0.20703,-0.35765 1.28595,0.008 0.20236,0.35183 0.20907,-0.36075 -0.40765,-6.8e-4 -0.63809,-1.12069 0.20189,-0.3488 -0.40078,-4.6e-4 -0.72828,-1.27907 0.20665,-0.35704 z" /><path
       id="path225"
       style="fill:none;stroke:#ffffff;stroke-width:0.0195958;stroke-linecap:round;stroke-linejoin:round;stroke-miterlimit:0;stroke-opacity:0"
       d="m 151.31248,115.0538 a 0.45571813,0.45571813 0 0 1 -0.45571,0.45572 0.45571813,0.45571813 0 0 1 -0.45572,-0.45572 0.45571813,0.45571813 0 0 1 0.45572,-0.45572 0.45571813,0.45571813 0 0 1 0.45571,0.45572 z"
       transform="translate(1.4184353e-6)" /><path
       sodipodi:type="star"
       style="fill:none;fill-opacity:1;stroke:#0400ff;stroke-width:0.96712778;stroke-linecap:round;stroke-linejoin:miter;stroke-miterlimit:2.2;stroke-dasharray:none;stroke-opacity:1;paint-order:normal"
       id="path26"
       inkscape:flatsided="true"
       sodipodi:sides="3"
       sodipodi:cx="145.01984"
       sodipodi:cy="115.09245"
       sodipodi:r1="2.4261017"
       sodipodi:r2="1.2130508"
       sodipodi:arg1="0.53040871"
       sodipodi:arg2="1.5776063"
       inkscape:rounded="1.9775848e-16"
       inkscape:randomized="0"
       d="m 147.11259,116.31978 -4.20203,-0.0286 2.1258,-3.62476 z"
       inkscape:transform-center-x="0.0007567436"
       inkscape:transform-center-y="-3.1911845"
       transform="matrix(0.76546385,-0.0051032,0.00512554,0.7623147,39.172944,28.242944)"
       clip-path="url(#clipPath30)" /></g></svg>
