<?xml version="1.0" encoding="UTF-8"?>
 <svg version="1.1" xmlns="http://www.w3.org/2000/svg" width="1024" height="1024">
<path d="M0 0 C4.04775998 2.67841139 6.42267885 5.32208201 7.9609375 10.02734375 C8.94117028 15.95279585 8.05433653 20.3771519 4.578125 25.296875 C0.87170203 29.26292664 -3.27019996 30.74306227 -8.5390625 31.58984375 C-14.07271878 30.70050613 -18.21720876 28.02550592 -21.9765625 23.90234375 C-24.6482258 19.1876438 -24.62268331 14.29637103 -24.0390625 9.02734375 C-21.68234158 4.13261568 -18.71093906 1.71118773 -14.0390625 -0.97265625 C-9.29237951 -2.55488391 -4.54729838 -2.1691136 0 0 Z " fill="#00186880" transform="translate(746.0390625,461.97265625)"/>
<path d="M0 0 C5.09459883 2.73598826 8.1667679 5.5003037 10 11 C10.5355774 17.31981328 9.72214868 21.77043908 6 27 C2.11132208 30.52694044 -1.54800518 31.7997744 -6.69140625 32.1640625 C-12.03800109 31.78410145 -15.8222824 29.23811337 -19.4375 25.4375 C-22.41076328 20.79920929 -22.63284081 16.35686379 -22 11 C-20.1843065 5.6774242 -16.8617093 2.68945621 -12 0 C-7.80905969 -1.3969801 -4.28069186 -0.95126486 0 0 Z " fill="#00186880" transform="translate(289,563)"/>
<path d="M0 0 C3.8196818 3.37553276 6.20066715 6.56825957 7.0703125 11.58203125 C7.36328864 17.31459769 6.10426149 20.78934643 2.6875 25.375 C-1.24965776 28.85434871 -4.85135319 30.1741262 -10.00390625 30.5390625 C-15.35050109 30.15910145 -19.1347824 27.61311337 -22.75 23.8125 C-25.72326328 19.17420929 -25.94534081 14.73186379 -25.3125 9.375 C-23.4968065 4.0524242 -20.1742093 1.06445621 -15.3125 -1.625 C-9.96203998 -3.40848667 -5.00258095 -2.45409632 0 0 Z " fill="#00186880" transform="translate(68.3125,462.625)"/>
<path d="M0 0 C4.23301121 2.82200747 7.17159664 5.95228992 8.8125 10.875 C9.65116758 16.9493495 8.71609479 21.02373946 5.39453125 26.1484375 C2.62742743 29.16833846 -0.00590998 30.68182452 -4.0546875 31.34375 C-9.92069124 31.40469549 -14.30434944 31.32205585 -18.8515625 27.3515625 C-22.82274815 22.96235731 -23.70000679 18.78975195 -23.46875 13.046875 C-22.8462237 8.23958858 -20.7496839 5.17276505 -17.1875 2.0625 C-11.77431523 -1.8846139 -6.19254468 -2.18560401 0 0 Z " fill="#00186880" transform="translate(66.1875,666.125)"/>
<path d="M0 0 C4.881441 2.26638332 7.70028068 5.13520912 10 10 C10.77761132 15.32425713 10.70046343 19.57313005 8.3125 24.4375 C4.21889559 28.97365624 1.01696415 31.7042192 -5.1875 32.3125 C-10.67972118 31.86231794 -14.79917267 30.35499156 -18.6171875 26.26953125 C-21.56034114 22.10422058 -22.79752132 18.34906638 -22.48828125 13.2421875 C-21.39157015 8.20609011 -18.81861728 4.34084494 -14.6953125 1.30078125 C-9.95266791 -0.98806027 -5.14335348 -0.62111053 0 0 Z " fill="#00186880" transform="translate(631,461)"/>
<path d="M0 0 C3.87966642 3.350621 6.3121014 6.55080002 7.09765625 11.6171875 C7.28965176 16.57568026 6.5797753 20.17912628 3.75 24.375 C-0.12346888 27.95050974 -3.24367778 30.14350128 -8.5 30.75 C-13.94475109 30.20552489 -18.07376673 28.70367473 -21.8671875 24.64453125 C-24.81034114 20.47922058 -26.04752132 16.72406638 -25.73828125 11.6171875 C-24.61207706 6.44565787 -21.86488926 2.59601383 -17.6875 -0.5625 C-11.47565312 -3.27022813 -6.08386387 -3.04193194 0 0 Z " fill="#00186880" transform="translate(634.25,564.625)"/>
<path d="M0 0 C4.36984506 3.96334784 6.8170862 8.49371049 7.25 14.4375 C6.98442243 19.24635092 4.71127657 22.80226722 1.6875 26.4375 C-2.3173231 29.88609767 -7.12015557 30.72307894 -12.3125 30.4375 C-17.67963807 28.84058744 -21.21821929 26.14080667 -24.3125 21.4375 C-26.28811241 17.48627519 -25.74498694 12.74409535 -25.3125 8.4375 C-22.98665314 3.51743933 -19.99106392 1.12518565 -15.3125 -1.5625 C-9.97547751 -3.3415075 -5.02431719 -2.36996094 0 0 Z " fill="#00186880" transform="translate(180.3125,564.5625)"/>
<path d="M0 0 C3.59465217 3.50906521 4.64671623 7.05787118 4.8515625 11.94140625 C4.64225112 17.35620052 3.07904179 20.88223721 -0.8359375 24.69140625 C-5.7645522 27.90073675 -9.81036149 28.91986985 -15.56640625 27.984375 C-20.39048168 26.64595886 -23.94227121 23.65278283 -26.5234375 19.44140625 C-28.05720929 14.84009088 -28.42818582 10.09361133 -26.83984375 5.4375 C-24.25889615 0.479082 -20.69217178 -2.18547556 -15.6484375 -4.37109375 C-9.39491433 -4.92287521 -4.86887269 -3.90176784 0 0 Z " fill="#00186880" transform="translate(408.5234375,566.55859375)"/>
<path d="M0 0 C3.692764 3.26337284 6.1696587 6.41923167 7.03515625 11.359375 C7.25366199 16.26150373 6.09595677 20.05638786 3.6875 24.375 C0.15172301 27.81773022 -3.35960748 30.32569382 -8.41796875 30.41015625 C-13.69527512 30.04772817 -17.25299923 28.96246579 -21.3125 25.375 C-24.68169524 20.85318534 -26.05374369 17.31633226 -25.75390625 11.6484375 C-24.79931306 6.73186018 -22.43188524 3.05207876 -18.515625 -0.046875 C-12.18755686 -3.74246679 -6.4316004 -3.15512473 0 0 Z " fill="#00186880" transform="translate(68.3125,564.625)"/>
<path d="M0 0 C3.85598423 3.2425322 6.38123307 5.78757539 7.1328125 10.93359375 C7.43870656 18.44839124 5.70127824 22.10081486 0.625 27.625 C-3.57542189 30.09046502 -7.40966309 30.6145606 -12.25 30.3125 C-16.72355712 29.0813159 -19.54582138 27.07084621 -22.6875 23.6875 C-25.05695728 18.56947227 -26.14939453 13.57490004 -24.62109375 8.03125 C-22.21147366 2.62724847 -18.8257959 -0.13798844 -13.375 -2.5 C-8.3126717 -2.94667603 -4.45229255 -2.31176728 0 0 Z " fill="#00186880" transform="translate(860.25,462.6875)"/>
<path d="M0 0 C4.48003196 2.00001427 7.04936026 4.60277983 9.30859375 9.0078125 C11.02374217 13.94976557 10.55113543 18.46262221 8.8125 23.3125 C5.84772366 27.70854767 2.17840377 30.70539906 -3 32 C-9.05046411 32.10102816 -13.26164254 30.94863122 -18 27 C-21.73298669 22.7521186 -22.35782187 18.84699416 -22.27734375 13.34765625 C-21.67773536 8.27209793 -19.13307585 5.10474895 -15.5 1.5625 C-10.3221111 -0.74905755 -5.5801538 -0.7435095 0 0 Z " fill="#00186880" transform="translate(517,461)"/>
<path d="M0 0 C4.74424521 2.63569178 7.61931493 5.6079448 9.375 10.875 C9.9063682 17.14514482 9.19306538 21.738793 5.375 26.875 C0.48701095 30.86519514 -3.69845868 31.57399684 -9.96875 31.32421875 C-15.43859978 30.39917062 -18.40109392 27.57267618 -21.5625 23.1875 C-23.45049083 17.30141095 -23.73284138 12.09068277 -20.9375 6.5 C-14.78657346 -0.48213283 -9.16530139 -2.84440388 0 0 Z " fill="#00186880" transform="translate(744.625,666.125)"/>
<path d="M0 0 C3.47744086 2.83047512 5.27145663 4.93936988 6.6875 9.1875 C7.25180864 14.88484689 6.97336378 19.31535716 3.6875 24.1875 C0.09370314 27.59214965 -3.3352045 30.13778635 -8.41796875 30.22265625 C-13.68552095 29.86089806 -17.30250683 28.82447055 -21.3125 25.1875 C-24.36022915 20.90548801 -26.05780241 16.49752937 -25.765625 11.20703125 C-24.63910353 6.18624161 -21.80154307 2.31336184 -17.75 -0.75 C-11.48527719 -3.48077661 -6.03381704 -3.30152253 0 0 Z " fill="#00186880" transform="translate(860.3125,564.8125)"/>
<path d="M0 0 C4.04576935 2.67709419 6.3963995 5.33372975 7.9609375 10.02734375 C8.67081151 16.31479923 7.65826553 20.83265546 3.9609375 26.02734375 C0.07225958 29.55428419 -3.58706768 30.82711815 -8.73046875 31.19140625 C-14.07706359 30.8114452 -17.8613449 28.26545712 -21.4765625 24.46484375 C-24.44982578 19.82655304 -24.67190331 15.38420754 -24.0390625 10.02734375 C-22.223369 4.70476795 -18.9007718 1.71679996 -14.0390625 -0.97265625 C-9.29237951 -2.55488391 -4.54729838 -2.1691136 0 0 Z " fill="#00186880" transform="translate(746.0390625,563.97265625)"/>
<path d="M0 0 C3.82200666 3.37758728 6.25313735 6.57360495 7.03515625 11.6171875 C7.22715176 16.57568026 6.5172753 20.17912628 3.6875 24.375 C-1.72232426 29.25703652 -5.16829764 29.72014601 -12.32421875 29.66015625 C-17.30551195 29.18481716 -19.92191073 26.95739469 -23.125 23.3125 C-25.82978197 18.89943468 -25.90516109 14.39175092 -25.3125 9.375 C-23.4968065 4.0524242 -20.1742093 1.06445621 -15.3125 -1.625 C-9.96203998 -3.40848667 -5.00258095 -2.45409632 0 0 Z " fill="#00186880" transform="translate(520.3125,564.625)"/>
<path d="M0 0 C4.9981495 2.67142473 8.27030829 5.90467487 10.0625 11.28125 C10.5938682 17.55139482 9.88056538 22.145043 6.0625 27.28125 C1.17451095 31.27144514 -3.01095868 31.98024684 -9.28125 31.73046875 C-14.75109978 30.80542062 -17.71359392 27.97892618 -20.875 23.59375 C-22.76299083 17.70766095 -23.04534138 12.49693277 -20.25 6.90625 C-14.78778471 0.7058975 -8.33046262 -3.09033291 0 0 Z " fill="#00186880" transform="translate(176.9375,256.71875)"/>
<path d="M0 0 C4.23301121 2.82200747 7.17159664 5.95228992 8.8125 10.875 C9.34950996 17.21171751 8.51880293 21.62343597 4.8125 26.875 C1.19700994 30.40230738 -1.71774708 31.15988754 -6.625 31.375 C-11.99861802 31.14866555 -14.97021588 30.23161389 -19.1875 26.875 C-22.80086018 22.72393741 -23.84324259 18.52744475 -23.57421875 13.08203125 C-22.71324711 8.16840524 -20.2774849 4.8852299 -16.625 1.5 C-11.38219552 -1.99520299 -5.78544111 -2.04192039 0 0 Z " fill="#00186880" transform="translate(66.1875,257.125)"/>
<path d="M0 0 C4.06283161 1.69223866 6.39179755 4.15636434 8.9375 7.6875 C10.82549083 13.57358905 11.10784138 18.78431723 8.3125 24.375 C4.0130325 29.25547662 0.79098196 31.81698479 -5.8125 32.25 C-10.53142223 32.16357285 -14.01442669 30.96410765 -17.4453125 27.5703125 C-21.49442377 22.91961899 -22.35878083 19.25112356 -22.28125 13.28125 C-21.69180611 8.50020514 -18.85179203 5.75038822 -15.375 2.6875 C-10.48886048 -0.78423071 -5.86922488 -0.71240247 0 0 Z " fill="#00186880" transform="translate(403,154)"/>
<path d="M0 0 C4.23301121 2.82200747 7.17159664 5.95228992 8.8125 10.875 C9.35004164 17.21799131 8.51294726 21.61524478 4.8125 26.875 C1.06842488 30.61907512 -2.06479347 31.17212053 -7.1875 31.375 C-12.30621131 31.1786138 -15.40664991 30.56132884 -19.1875 26.875 C-22.60576079 22.2873342 -23.85748268 18.81568387 -23.57421875 13.08203125 C-22.71324711 8.16840524 -20.2774849 4.8852299 -16.625 1.5 C-11.38219552 -1.99520299 -5.78544111 -2.04192039 0 0 Z " fill="#00186880" transform="translate(290.1875,666.125)"/>
<path d="M0 0 C4.48003196 2.00001427 7.04936026 4.60277983 9.30859375 9.0078125 C11.02374217 13.94976557 10.55113543 18.46262221 8.8125 23.3125 C5.84772366 27.70854767 2.17840377 30.70539906 -3 32 C-8.98917652 32.1000048 -13.41139173 31.05504917 -18 27 C-21.37233546 22.47397083 -22.72447676 18.94665725 -22.453125 13.27734375 C-21.44606067 8.21597734 -18.81516448 4.33829924 -14.6953125 1.30078125 C-9.94952524 -0.98957695 -5.14649921 -0.61450737 0 0 Z " fill="#00186880" transform="translate(403,461)"/>
<path d="M0 0 C4.53488134 2.0245006 7.09115105 4.72006237 9.3046875 9.08203125 C11.15074872 14.17425631 10.49465362 18.44960797 8.375 23.25 C5.85492172 27.71940713 2.91433233 30.17274055 -2.10546875 31.59765625 C-7.23155951 32.50641244 -10.76700709 31.83536246 -15.2734375 29.25 C-18.35112869 27.02180728 -20.31711116 24.36577767 -22 21 C-22.52113171 15.77159666 -22.64273534 11.35963246 -20.375 6.5625 C-14.1968738 -0.10337301 -8.87476752 -1.18248963 0 0 Z " fill="#00186880" transform="translate(177,461)"/>
<path d="M0 0 C3.88446678 2.58964452 6.69907021 5.64814041 8.8125 9.875 C9.37019904 15.83808973 9.31406448 20.80376868 5.8125 25.875 C0.635667 30.54677612 -2.58337698 31.22780455 -9.42578125 31.15625 C-14.55205419 30.63419674 -17.17282946 27.99936465 -20.5 24.3125 C-23.43212984 20.07720134 -23.82585164 15.89854989 -23.1875 10.875 C-20.99944926 5.49604192 -18.40044563 2.60622217 -13.3359375 -0.24609375 C-8.65847479 -2.15960122 -4.76449287 -1.68158572 0 0 Z " fill="#00186880" transform="translate(632.1875,257.125)"/>
<path d="M0 0 C4.23301121 2.82200747 7.17159664 5.95228992 8.8125 10.875 C9.65225349 16.95721458 8.81466123 21.20509713 5.21484375 26.2109375 C2.50316583 29.42869458 0.51513878 30.66613593 -3.703125 31.18359375 C-10.09123026 31.4715821 -14.15157465 30.88318548 -19.1875 26.875 C-22.84553559 22.67261387 -23.78845162 18.51615171 -23.5078125 13.015625 C-22.82752828 8.46933533 -21.085451 5.70387784 -17.75 2.625 C-16.904375 2.0475 -16.05875 1.47 -15.1875 0.875 C-14.589375 0.4625 -13.99125 0.05 -13.375 -0.375 C-8.70073255 -1.97760598 -4.54678496 -1.60474763 0 0 Z " fill="#00186880" transform="translate(518.1875,257.125)"/>
<path d="M0 0 C4.09181323 1.70431 6.41163342 4.16489905 8.9375 7.75 C10.71367411 13.18300315 10.74710807 17.8416878 8.875 23.25 C6.0252053 27.4296989 2.89407029 30.36864324 -2 32 C-8.46708082 32.5389234 -11.69593897 31.77404343 -17 28 C-21.45169869 23.07970145 -22.3562802 20.04793208 -22.28125 13.5390625 C-21.73016315 8.56397287 -18.99302299 5.87480597 -15.375 2.6875 C-10.48886048 -0.78423071 -5.86922488 -0.71240247 0 0 Z " fill="#00186880" transform="translate(631,154)"/>
<path d="M0 0 C4.56523011 2.62303645 8.04371575 6.06676145 10 11 C10.78590613 16.61361521 10.24234268 21.24456407 7 26 C3.08833782 29.94372499 -0.13290708 31.84440892 -5.75 32.3125 C-10.52252495 32.24231581 -13.12437123 30.75765893 -17 28 C-21.2818114 23.38015086 -22.41804484 19.58199831 -22.34765625 13.41796875 C-21.75390446 9.28839166 -19.79634126 6.05180947 -17 3 C-11.65793147 -0.89826622 -6.40171802 -1.17599477 0 0 Z " fill="#00186880" transform="translate(65,154)"/>
<path d="M0 0 C3.58223156 2.39093129 5.8692433 5.33452351 7.1875 9.4375 C7.95115445 14.33433577 7.85279567 18.8183321 5.625 23.3125 C2.30641803 27.56709227 -0.64040163 29.89290966 -6.01953125 30.81640625 C-11.46198445 31.10382712 -15.68810325 30.0808877 -19.8125 26.4375 C-22.93813404 22.8608251 -25.08770315 19.2401162 -25.4375 14.4375 C-25.0404519 8.98613694 -22.28305409 4.61992496 -18.23828125 1.046875 C-12.61345228 -2.676788 -6.04067736 -2.98800101 0 0 Z " fill="#00186880" transform="translate(859.8125,973.5625)"/>
<path d="M0 0 C4.87178966 2.92486819 8.0354564 5.51652546 9.87109375 11.0234375 C10.40863539 17.36642881 9.57154101 21.76368228 5.87109375 27.0234375 C2.16306779 30.73146346 -0.9882246 31.33868521 -6.06640625 31.5859375 C-10.9197469 31.41131358 -14.11161971 30.71444623 -17.79296875 27.5 C-21.71499732 23.16512632 -22.69692189 18.95664573 -22.4765625 13.265625 C-21.67181182 8.07543524 -19.22524387 4.87365851 -15.06640625 1.6484375 C-10.15437661 -1.06885549 -5.35910534 -2.4583052 0 0 Z " fill="#00186880" transform="translate(65.12890625,767.9765625)"/>
<path d="M0 0 C5.02502099 2.61429664 8.29413857 5.90194696 10.08203125 11.265625 C10.91501952 17.29884004 10.11709315 21.62014847 6.5546875 26.6015625 C3.68418881 29.84514987 0.98315218 31.01696845 -3.27734375 31.57421875 C-9.36862679 31.8787829 -13.0939822 31.02833451 -17.91796875 27.265625 C-21.65374306 22.47617076 -22.58677915 18.68483949 -22.29296875 12.625 C-21.58316034 8.15912209 -19.56394889 5.63848896 -16.15234375 2.79296875 C-10.92513273 -0.90106424 -6.26605468 -2.39922257 0 0 Z " fill="#00186880" transform="translate(516.91796875,665.734375)"/>
<path d="M0 0 C4.48003196 2.00001427 7.04936026 4.60277983 9.30859375 9.0078125 C11.02374217 13.94976557 10.55113543 18.46262221 8.8125 23.3125 C6.03771285 27.42683957 2.57401272 30.11707309 -2 32 C-8.19724787 32.30679445 -13.32054627 31.23379147 -18 27 C-21.37233546 22.47397083 -22.72447676 18.94665725 -22.453125 13.27734375 C-21.44606067 8.21597734 -18.81516448 4.33829924 -14.6953125 1.30078125 C-9.94952524 -0.98957695 -5.14649921 -0.61450737 0 0 Z " fill="#00186880" transform="translate(289,461)"/>
<path d="M0 0 C3.88446678 2.58964452 6.69907021 5.64814041 8.8125 9.875 C9.37019904 15.83808973 9.31406448 20.80376868 5.8125 25.875 C0.635667 30.54677612 -2.58337698 31.22780455 -9.42578125 31.15625 C-14.55205419 30.63419674 -17.17282946 27.99936465 -20.5 24.3125 C-23.41133696 20.10723551 -23.96212744 15.8700114 -23.1875 10.875 C-21.40460556 6.45374158 -18.88886734 2.98953744 -14.875 0.375 C-9.46372687 -1.82619585 -5.63292814 -1.98809228 0 0 Z " fill="#00186880" transform="translate(858.1875,257.125)"/>
<path d="M0 0 C4.9981495 2.67142473 8.27030829 5.90467487 10.0625 11.28125 C10.5938682 17.55139482 9.88056538 22.145043 6.0625 27.28125 C1.17451095 31.27144514 -3.01095868 31.98024684 -9.28125 31.73046875 C-13.4499197 31.02547314 -16.08369214 29.35458155 -18.9375 26.28125 C-22.26738514 21.55496142 -22.81812039 16.89765118 -21.9375 11.28125 C-20.1736908 6.44499897 -17.20261098 3.12465732 -12.9375 0.28125 C-8.59152177 -1.16740941 -4.33374753 -1.60768053 0 0 Z " fill="#00186880" transform="translate(288.9375,256.71875)"/>
<path d="M0 0 C4.37717169 2.27839822 6.97088197 4.86094034 8.99609375 9.31640625 C9.76965345 14.59575184 9.80590499 19.53199714 7.24609375 24.31640625 C4.82478391 27.54481937 2.99704444 29.53031848 -0.75390625 31.00390625 C-6.82804005 31.84753594 -11.27134985 31.97335531 -16.46484375 28.5703125 C-20.37625997 25.3836003 -22.14796952 21.81688897 -23.00390625 16.94140625 C-23.35828313 11.93794217 -21.91163532 8.34529732 -19.00390625 4.31640625 C-13.6558594 -0.77076027 -7.10908879 -2.42512776 0 0 Z " fill="#00186880" transform="translate(971.00390625,972.68359375)"/>
<path d="M0 0 C4.10874758 1.70116566 6.36575019 4.12023413 8.9375 7.6875 C10.39096256 12.21888328 10.70505293 16.28687444 10 21 C8.1875 24.4375 8.1875 24.4375 6 27 C5.54625 27.5775 5.0925 28.155 4.625 28.75 C0.32341332 32.05891283 -4.75414819 32.63312005 -10 32 C-15.04797235 29.87852569 -18.94888705 26.92839662 -21.375 21.95703125 C-23.01474433 16.82258182 -22.77561278 12.55122556 -20.375 7.75 C-14.01805519 0.38932706 -9.94632243 -1.65327611 0 0 Z " fill="#00186880" transform="translate(631,870)"/>
<path d="M0 0 C4.24866386 3.31395781 6.6402748 6.27576973 7.46875 11.6796875 C7.66907781 16.63780084 6.95405206 20.24269867 4.125 24.4375 C-0.02081379 28.36511307 -3.62698917 30.23313538 -9.3125 30.75 C-14.73010165 30.27477178 -18.15345466 28.50823418 -21.6875 24.4375 C-25.18709989 19.63804873 -25.69692672 15.21900729 -24.875 9.4375 C-23.14795919 5.12734213 -20.9054843 2.20437204 -17.1875 -0.5625 C-11.40314658 -2.3087199 -5.53805928 -2.76307474 0 0 Z " fill="#00186880" transform="translate(67.875,871.5625)"/>
<path d="M0 0 C5.00417817 2.65813335 8.27530937 5.90405311 10.06640625 11.27734375 C10.83886289 17.8115671 10.00707166 21.98855597 6.06640625 27.27734375 C2.36072271 30.80226224 -0.52290981 31.55441846 -5.49609375 31.71484375 C-10.68529563 31.4971641 -13.65068673 30.66461223 -17.30078125 26.84765625 C-21.18432549 22.43752974 -22.24539078 19.2069974 -22.1484375 13.3359375 C-21.67933393 8.84107236 -19.7485253 6.02958826 -16.49609375 3.02734375 C-15.65046875 2.44984375 -14.80484375 1.87234375 -13.93359375 1.27734375 C-13.33546875 0.86484375 -12.73734375 0.45234375 -12.12109375 0.02734375 C-8.04053204 -1.37170598 -4.02856511 -1.50562534 0 0 Z " fill="#00186880" transform="translate(402.93359375,665.72265625)"/>
<path d="M0 0 C5.00417817 2.65813335 8.27530937 5.90405311 10.06640625 11.27734375 C10.90615974 17.35955833 10.06856748 21.60744088 6.46875 26.61328125 C3.75707208 29.83103833 1.76904503 31.06847968 -2.44921875 31.5859375 C-8.82463847 31.87335396 -12.948011 31.34720722 -17.93359375 27.27734375 C-21.72428958 22.17795531 -22.63749767 17.51192134 -21.93359375 11.27734375 C-20.20989738 6.55985895 -18.06004461 4.09540775 -13.93359375 1.27734375 C-13.33546875 0.86484375 -12.73734375 0.45234375 -12.12109375 0.02734375 C-8.04053204 -1.37170598 -4.02856511 -1.50562534 0 0 Z " fill="#00186880" transform="translate(402.93359375,256.72265625)"/>
<path d="M0 0 C4.86108919 2.29796944 7.70203056 5.13891081 10 10 C10.76107013 15.14110638 10.79474102 20.18410788 8.5 24.9375 C4.97363148 29.25730144 1.44023624 31.2932848 -4.015625 32.4140625 C-8.82470729 32.773797 -12.31820814 31.35644557 -16.23046875 28.609375 C-19.88611213 25.28459559 -21.82479882 21.65047941 -22.15234375 16.6953125 C-21.72188183 10.13904628 -19.25521442 6.09019873 -14.4375 1.625 C-9.56643525 -0.67768515 -5.29813119 -0.77379561 0 0 Z " fill="#00186880" transform="translate(970,154)"/>
<path d="M0 0 C4.86479088 2.29971932 7.73361668 5.118559 10 10 C10.74770142 15.5543534 10.72140319 20.31672589 8.5 25.5 C4.36893368 29.63106632 -0.09620855 32.13249944 -6 32.5625 C-10.80885092 32.29692243 -14.36476722 30.02377657 -18 27 C-21.44859767 22.9951769 -22.28557894 18.19234443 -22 13 C-20.40308744 7.63286193 -17.70330667 4.09428071 -13 1 C-9.04877519 -0.97561241 -4.30659535 -0.43248694 0 0 Z " fill="#00186880" transform="translate(970,52)"/>
<path d="M0 0 C5.67476113 1.96434039 9.31400331 5.62800662 12 11 C12.59057744 16.67862925 12.29370905 21.16922672 9 26 C5.00950931 29.92664284 1.88359358 32.15032079 -3.75 32.3125 C-8.6322451 32.25622052 -11.25873246 31.29587855 -15 28 C-19.39893104 23.00661882 -20.35676337 20.08984773 -20.28125 13.5390625 C-19.73016315 8.56397287 -16.99302299 5.87480597 -13.375 2.6875 C-8.92314854 -0.47565762 -5.3540278 -0.48837416 0 0 Z " fill="#00186880" transform="translate(515,972)"/>
<path d="M0 0 C4.61582395 4.0663211 7.39285074 7.29455966 7.875 13.5625 C7.55505532 18.36167021 6.57781309 22.2423047 3.1953125 25.828125 C-1.4289914 29.83125375 -5.17857346 30.67057047 -11.09375 30.59375 C-15.87479486 30.00430611 -18.62461178 27.16429203 -21.6875 23.6875 C-25.01024616 19.01104244 -24.96528975 14.93711802 -24.375 9.3125 C-23.05100684 5.07731705 -20.75356886 2.60778371 -17.25 -0.125 C-11.5587883 -2.9522471 -5.60985754 -2.80492877 0 0 Z " fill="#00186880" transform="translate(179.375,973.6875)"/>
<path d="M0 0 C4.48748269 2.47946514 6.99752367 5.75872336 8.875 10.5 C10.02473782 15.75013022 8.74476341 20.13158686 6.1171875 24.734375 C3.97611005 27.77766748 2.32160839 29.02288212 -1.125 30.5 C-6.79693636 31.32830781 -12.25028752 31.62095459 -17.1875 28.375 C-20.74749755 25.26651433 -22.79239083 22.10465776 -23.40234375 17.328125 C-23.61230728 12.32259448 -22.98899099 8.74660733 -20.125 4.5 C-13.93535385 -1.21351952 -8.14709127 -3.47404269 0 0 Z " fill="#00186880" transform="translate(745.125,768.5)"/>
<path d="M0 0 C4.53830634 4.0105963 6.86661859 7.8027373 7.25 13.8125 C6.95641792 19.94626841 3.93335197 24.26125697 -0.4375 28.375 C-5.61786114 30.17686474 -11.1722378 30.34300743 -16.44140625 28.71875 C-20.31298932 26.77877749 -22.76385557 24.1682901 -24.65625 20.3671875 C-26.2937094 15.3963286 -25.86868643 10.92646742 -24.125 6.0625 C-18.12694323 -2.83117038 -9.36918515 -4.59620403 0 0 Z " fill="#00186880" transform="translate(292.3125,769.625)"/>
<path d="M0 0 C3.88446678 2.58964452 6.69907021 5.64814041 8.8125 9.875 C9.5783502 16.74254198 8.91615011 21.28947624 4.8125 26.875 C0.39611105 30.88989904 -3.9237195 31.22332277 -9.68359375 31.15625 C-14.61389397 30.60245653 -17.29970763 27.85876992 -20.5 24.3125 C-23.41133696 20.10723551 -23.96212744 15.8700114 -23.1875 10.875 C-21.40460556 6.45374158 -18.88886734 2.98953744 -14.875 0.375 C-9.46372687 -1.82619585 -5.63292814 -1.98809228 0 0 Z " fill="#00186880" transform="translate(632.1875,666.125)"/>
<path d="M0 0 C3.50741662 1.91915249 5.1317816 3.50103873 7.3125 6.8125 C7.725 7.43125 8.1375 8.05 8.5625 8.6875 C10.14451327 13.16987093 9.57253347 16.97461438 8.1875 21.4375 C5.73735552 25.84776006 2.88624883 28.52562558 -1.6875 30.8125 C-6.88935538 31.33098559 -11.32310371 31.43268013 -16.125 29.25 C-20.81002673 24.79351116 -22.89849471 21.15628392 -23.1875 14.75 C-22.98185301 10.07684944 -21.83097935 7.38077385 -18.6875 3.8125 C-12.80959501 -1.49195084 -7.61372908 -2.45187886 0 0 Z " fill="#00186880" transform="translate(177.6875,666.1875)"/>
<path d="M0 0 C4.85643684 2.88712943 7.99512162 5.55177112 9.81640625 11.015625 C10.45401097 16.40913378 10.19720844 20.91655726 7.1328125 25.5078125 C4.04636848 29.04302731 0.9174655 30.68796785 -3.61328125 31.39453125 C-9.6471116 31.67879985 -13.41345332 30.73633453 -18.18359375 27.015625 C-21.83555712 22.33362068 -22.95293345 18.45979807 -22.69921875 12.515625 C-21.53164633 6.85466783 -17.92570141 3.22752598 -13.30859375 0.015625 C-8.52072992 -1.51649143 -4.60891289 -2.07772102 0 0 Z " fill="#00186880" transform="translate(517.18359375,358.984375)"/>
<path d="M0 0 C4.10557604 2.64581567 7.24385169 5.10655508 8.8125 9.8125 C9.31429253 15.05253023 9.461525 19.43956251 7.1875 24.25 C2.85815669 28.92113357 -0.26626026 31.05111982 -6.6875 31.3125 C-11.6082651 31.11219749 -14.48760527 30.24167072 -18.1875 26.8125 C-22.14200285 22.21672642 -23.58368849 17.80612074 -23.1875 11.8125 C-21.93129944 6.91068243 -19.56262195 3.70903534 -15.4375 0.8125 C-10.10222881 -2.12289084 -5.7643828 -2.14751516 0 0 Z " fill="#00186880" transform="translate(971.1875,257.1875)"/>
<path d="M0 0 C4.60610295 2.33802189 7.3367468 5.52770792 8.92578125 10.3515625 C9.79386017 16.01380453 9.20578862 20.54088503 5.92578125 25.3515625 C1.7035015 29.71576762 -1.51664229 31.16211239 -7.44921875 31.6015625 C-12.05913304 31.28363738 -15.18560941 30.21471889 -18.5234375 26.921875 C-22.5654956 22.26598 -23.43301237 18.60367148 -23.35546875 12.6328125 C-22.76602486 7.85176764 -19.92601078 5.10195072 -16.44921875 2.0390625 C-11.4902571 -1.48441025 -5.83460982 -1.82400232 0 0 Z " fill="#00186880" transform="translate(66.07421875,52.6484375)"/>
<path d="M0 0 C3.77915987 1.91827204 6.37829117 4.49379025 8.265625 8.29296875 C10.01150808 13.73723137 9.78152964 18.64006572 7.23828125 23.7265625 C3.64632379 27.80391962 0.45412107 30.94160302 -5.125 31.58984375 C-10.66318633 31.77158043 -13.7217703 31.09669256 -18.07421875 27.3515625 C-22.15563993 22.8289066 -23.39786411 19.56009897 -23.28515625 13.40625 C-22.79566127 8.63820633 -20.54240918 5.56043573 -17.01171875 2.5390625 C-11.80622331 -1.33737027 -6.28886512 -1.96601056 0 0 Z " fill="#00186880" transform="translate(632.07421875,972.6484375)"/>
<path d="M0 0 C4.98669007 2.49334503 8.49675474 5.99350949 11 11 C11.59057744 16.67862925 11.29370905 21.16922672 8 26 C3.99653611 30.03627917 0.41408246 32.12458106 -5.3125 32.3125 C-9.94226662 32.25237316 -12.4369151 31.06591027 -16 28 C-20.3022759 23.23261319 -21.36282503 19.56252705 -21.28125 13.28125 C-20.69180611 8.50020514 -17.85179203 5.75038822 -14.375 2.6875 C-9.71860985 -0.62098774 -5.60468123 -0.62082623 0 0 Z " fill="#00186880" transform="translate(288,972)"/>
<path d="M0 0 C4.98669007 2.49334503 8.49675474 5.99350949 11 11 C11.59057744 16.67862925 11.29370905 21.16922672 8 26 C4.00950931 29.92664284 0.88359358 32.15032079 -4.75 32.3125 C-9.6322451 32.25622052 -12.25873246 31.29587855 -16 28 C-20.08142118 23.4773441 -21.32364536 20.20853647 -21.2109375 14.0546875 C-20.72144252 9.28664383 -18.46819043 6.20887323 -14.9375 3.1875 C-9.98359546 -0.50157785 -6.08021548 -0.67350079 0 0 Z " fill="#00186880" transform="translate(64,972)"/>
<path d="M0 0 C4.80969003 4.24384415 7.83056452 7.97971773 8.5 14.5625 C8.40698498 19.6132154 6.50710031 23.18246536 3.125 26.875 C-0.51398342 29.58520523 -3.91584595 30.72085024 -8.375 31.4375 C-14.34984454 30.47725713 -18.25375131 27.57731113 -22.375 23.25 C-24.5348761 18.39027877 -24.75573773 14.10627844 -23.875 8.875 C-22.21061416 5.10284685 -19.76114807 2.68295853 -16.75 -0.0625 C-11.34702618 -2.05925119 -5.37146166 -2.1018763 0 0 Z " fill="#00186880" transform="translate(178.875,871.125)"/>
<path d="M0 0 C3.81791809 3.16296143 6.48691804 5.9938651 7.30078125 11.03125 C7.47607863 17.50694157 6.32920465 21.86806558 1.9296875 26.734375 C-2.95118682 30.36665356 -8.19925959 30.54385456 -14.0703125 29.734375 C-18.59851173 28.36818206 -21.19237109 26.08278698 -23.5078125 21.984375 C-25.56298352 17.18897596 -26.20841113 12.87373696 -24.375 7.81640625 C-22.15934787 3.45026822 -19.41998544 1.09044784 -15.0703125 -1.265625 C-10.00504856 -2.86463908 -4.61017418 -2.81829516 0 0 Z " fill="#00186880" transform="translate(520.0703125,769.265625)"/>
<path d="M0 0 C4.53830634 4.0105963 6.86661859 7.8027373 7.25 13.8125 C6.95641792 19.94626841 3.93335197 24.26125697 -0.4375 28.375 C-5.61786114 30.17686474 -11.1722378 30.34300743 -16.44140625 28.71875 C-20.3122771 26.77913437 -22.76947736 24.1697687 -24.65234375 20.36328125 C-26.10790078 15.97938464 -26.14475 11.75486095 -24.6171875 7.38671875 C-19.49132196 -2.67117708 -9.52426456 -4.67228073 0 0 Z " fill="#00186880" transform="translate(406.3125,769.625)"/>
<path d="M0 0 C3.88446678 2.58964452 6.69907021 5.64814041 8.8125 9.875 C9.37019904 15.83808973 9.31406448 20.80376868 5.8125 25.875 C0.63703302 30.54554337 -2.58354098 31.23284069 -9.42578125 31.15234375 C-13.32169036 30.7610997 -15.33372175 29.51996521 -18.1875 26.875 C-22.21359788 21.54314064 -23.84827169 17.59284556 -23.1875 10.875 C-21.36285153 6.48929785 -18.88547397 2.97812875 -14.875 0.375 C-9.46372687 -1.82619585 -5.63292814 -1.98809228 0 0 Z " fill="#00186880" transform="translate(858.1875,666.125)"/>
<path d="M0 0 C5.16110104 0.60718836 9.17564772 3.05968397 12.5859375 6.984375 C15.33939868 11.24149937 16.09617463 15.45691564 15.1875 20.375 C13.75383491 25.03229073 11.9161329 27.78019763 8.125 30.875 C3.35531802 33.16239588 -1.66268259 33.245925 -6.8125 32.375 C-10.87142426 30.64701594 -13.19503231 28.23148744 -15.75 24.6875 C-17.63799083 18.80141095 -17.92034138 13.59068277 -15.125 8 C-10.30280774 2.52616014 -7.05019204 0.94002561 0 0 Z " fill="#00186880" transform="translate(738.8125,357.625)"/>
<path d="M0 0 C3.66872782 3.15681231 6.31638711 5.75223801 7.03515625 10.7109375 C7.21615378 15.95199638 6.73892053 19.8932013 3.6875 24.3125 C-1.51992458 29.01188315 -4.68192674 29.61322645 -11.55078125 29.5234375 C-15.17014255 29.24699406 -17.37897933 28.45897854 -20.3125 26.3125 C-23.99949685 21.52936895 -25.76111518 17.62230432 -25.6484375 11.50390625 C-24.90423103 6.64925707 -22.32655512 2.91060896 -18.515625 -0.11328125 C-12.18294056 -3.79890359 -6.39691207 -3.25880426 0 0 Z " fill="#00186880" transform="translate(634.3125,360.6875)"/>
<path d="M0 0 C4.06283161 1.69223866 6.39179755 4.15636434 8.9375 7.6875 C10.82549083 13.57358905 11.10784138 18.78431723 8.3125 24.375 C4.0524578 29.21072358 0.81088802 31.71414698 -5.6875 32.375 C-10.7382154 32.28198498 -14.30746536 30.38210031 -18 27 C-21.48595594 22.3194187 -22.75796218 17.84713682 -22 12 C-18.29688807 1.71357797 -10.24355272 -1.24335536 0 0 Z " fill="#00186880" transform="translate(857,154)"/>
<path d="M0 0 C3.59804621 3.08403961 7.87834781 6.90238282 8.390625 11.828125 C8.49536406 16.9603387 8.16871021 20.50255836 5.1875 24.875 C0.96522025 29.23920512 -2.25492354 30.68554989 -8.1875 31.125 C-12.79741429 30.80707488 -15.92389066 29.73815639 -19.26171875 26.4453125 C-23.30528723 21.78767775 -24.16551073 18.12744465 -24.09765625 12.15625 C-23.45215963 6.99227704 -19.60070227 3.17440198 -15.8125 -0.125 C-10.67030475 -1.83906508 -5.06419362 -2.02567745 0 0 Z " fill="#00186880" transform="translate(290.8125,155.125)"/>
<path d="M0 0 C4.45146251 2.18526342 7.18885145 4.9394521 10 9 C11.70108067 14.10324201 11.56521247 18.31873434 9.3125 23.1875 C7.08887613 27.24188133 4.49746925 30.0010123 0.125 31.75 C-5.78923599 32.44579247 -9.91763434 32.3145863 -15 29 C-18.90761157 25.05025785 -21.14983833 21.90292468 -21.3125 16.3125 C-21.24321325 10.97742049 -20.22925643 8.24902161 -17 4 C-11.96844758 -0.78611084 -6.6108623 -0.97537313 0 0 Z " fill="#00186880" transform="translate(176,154)"/>
<path d="M0 0 C3.77915987 1.91827204 6.37829117 4.49379025 8.265625 8.29296875 C10.01150808 13.73723137 9.78152964 18.64006572 7.23828125 23.7265625 C2.5995978 28.99209507 -0.55453093 31.09084488 -7.44921875 31.6015625 C-12.05913304 31.28363738 -15.18560941 30.21471889 -18.5234375 26.921875 C-22.5654956 22.26598 -23.43301237 18.60367148 -23.35546875 12.6328125 C-22.76602486 7.85176764 -19.92601078 5.10195072 -16.44921875 2.0390625 C-11.4902571 -1.48441025 -5.83460982 -1.82400232 0 0 Z " fill="#00186880" transform="translate(404.07421875,52.6484375)"/>
<path d="M0 0 C4.42484878 2.21242439 7.19476657 4.94799616 10 9 C11.62100654 13.86301963 11.39061285 17.7413586 9.875 22.625 C7.23930822 27.36924521 4.2670552 30.24431493 -1 32 C-5.66694522 32.54225459 -9.07771048 32.4698456 -13.3125 30.3125 C-16.95431017 27.17884939 -20.69206795 23.80672488 -21.23828125 18.828125 C-21.40659218 12.98153463 -21.02425335 9.56807137 -17 5 C-11.37343316 0.04326255 -7.41017624 -0.82081952 0 0 Z " fill="#00186880" transform="translate(743,972)"/>
<path d="M0 0 C4.98669007 2.49334503 8.49675474 5.99350949 11 11 C11.54360446 15.95482094 11.56437074 19.87125852 9.3125 24.375 C5.0130325 29.25547662 1.79098196 31.81698479 -4.8125 32.25 C-9.53142223 32.16357285 -13.01442669 30.96410765 -16.4453125 27.5703125 C-20.27024286 23.17710677 -21.31740764 19.86795689 -21.2109375 14.0546875 C-20.72144252 9.28664383 -18.46819043 6.20887323 -14.9375 3.1875 C-9.98359546 -0.50157785 -6.08021548 -0.67350079 0 0 Z " fill="#00186880" transform="translate(402,972)"/>
<path d="M0 0 C4.00037422 2.61888905 6.33932631 5.48026467 7.84375 10.08203125 C8.57178184 15.78323836 8.12940992 20.21019068 4.84375 25.08203125 C0.97028112 28.65754099 -2.14992778 30.85053253 -7.40625 31.45703125 C-13.30927984 30.86672827 -17.50412515 28.81888045 -21.59375 24.51953125 C-24.57033776 19.87605434 -24.7806998 15.44337883 -24.15625 10.08203125 C-22.76055477 5.76882853 -20.62775437 3.45731023 -17.09375 0.64453125 C-11.82686458 -1.96059487 -5.42619072 -2.31006308 0 0 Z " fill="#00186880" transform="translate(519.15625,870.91796875)"/>
<path d="M0 0 C4.24866386 3.31395781 6.6402748 6.27576973 7.46875 11.6796875 C7.66922985 16.64156377 6.97683854 20.25480347 4.125 24.4375 C1.25430395 27.40469004 -1.63381901 30.05193809 -5.875 30.4375 C-6.9475 30.56125 -8.02 30.685 -9.125 30.8125 C-14.64002713 30.26099729 -18.58504567 28.02251848 -22.26953125 23.86328125 C-25.2630371 19.32542256 -25.78676063 14.7482707 -24.875 9.4375 C-23.43096939 5.08831906 -21.36005991 2.81584673 -17.75 0 C-12.14356574 -2.77915518 -5.60643426 -2.77915518 0 0 Z " fill="#00186880" transform="translate(291.875,871.5625)"/>
<path d="M0 0 C3.85598423 3.2425322 6.38123307 5.78757539 7.1328125 10.93359375 C7.37633801 16.91620388 6.82442938 20.65600928 2.75 25.3125 C2.29625 25.89 1.8425 26.4675 1.375 27.0625 C-1.7738983 29.48472946 -5.26202989 30.16215672 -9.125 30.75 C-14.76196126 29.96082542 -19.4635447 26.48645804 -23.25 22.3125 C-25.38904047 18.25958122 -25.64858184 14.85633293 -25.25 10.3125 C-23.10048073 4.65587035 -19.92394874 0.61976383 -14.4375 -2.0625 C-8.97670983 -3.13324317 -4.94429608 -2.56723066 0 0 Z " fill="#00186880" transform="translate(973.25,564.6875)"/>
<path d="M0 0 C3.85598423 3.2425322 6.38123307 5.78757539 7.1328125 10.93359375 C7.37540617 16.89331146 6.88549516 20.72992428 2.75 25.3125 C-0.98002687 28.67862181 -3.49059759 30.17971491 -8.5625 30.5625 C-14.25655088 30.17646265 -17.67323748 28.18094519 -21.5625 24.125 C-24.57160463 20.35570051 -25.62724826 17.12471564 -25.25 12.3125 C-24.18986909 6.50910293 -21.56389141 3.13397237 -17.06640625 -0.55859375 C-11.57713102 -3.97020782 -5.46395132 -2.83705165 0 0 Z " fill="#00186880" transform="translate(973.25,462.6875)"/>
<path d="M0 0 C4.52966583 2.47551505 7.16586374 5.37259122 8.8125 10.3125 C9.64548827 16.34571504 8.8475619 20.66702347 5.28515625 25.6484375 C2.41465756 28.89202487 -0.28637907 30.06384345 -4.546875 30.62109375 C-10.63815804 30.9256579 -14.36351345 30.07520951 -19.1875 26.3125 C-22.8499415 22.11753734 -23.78818003 17.94832862 -23.5078125 12.453125 C-22.82752828 7.90683533 -21.085451 5.14137784 -17.75 2.0625 C-11.76352471 -2.02582459 -6.89026435 -3.16926498 0 0 Z " fill="#00186880" transform="translate(290.1875,359.6875)"/>
<path d="M0 0 C4.02398178 2.62112575 6.50449215 6.08042525 8.3125 10.5 C9.34767751 15.76461707 8.2731749 20.05898765 5.3125 24.5 C1.35598212 28.40376431 -1.78046785 30.64971882 -7.375 30.8125 C-12.72574004 30.73528874 -15.45704154 29.7997576 -19.6875 26.5 C-23.34987077 22.30511835 -24.29316363 18.13260902 -24.00390625 12.63671875 C-23.29587942 7.8553524 -21.24816319 4.79643727 -17.6875 1.6875 C-11.96363749 -2.48614975 -6.38360367 -2.59672014 0 0 Z " fill="#00186880" transform="translate(745.6875,257.5)"/>
<path d="M0 0 C4.83572358 4.2600422 7.33914698 7.50161198 8 14 C7.91617473 19.05745799 5.91485117 22.55741735 2.625 26.3125 C-0.66364661 29.1541461 -4.0945626 30.54279879 -8.4375 30.75 C-14.07580393 30.12352179 -17.5202113 28.53548879 -21.1875 24.25 C-24.87447765 19.29891573 -25.15645482 15.39541533 -24.375 9.3125 C-22.68393565 4.96092492 -20.42064661 2.09065561 -16.6875 -0.6875 C-10.77741098 -2.47167782 -5.59162106 -2.79581053 0 0 Z " fill="#00186880" transform="translate(746.375,155.6875)"/>
<path d="M0 0 C4.00037422 2.61888905 6.33932631 5.48026467 7.84375 10.08203125 C8.57178184 15.78323836 8.12940992 20.21019068 4.84375 25.08203125 C1.24995314 28.4866809 -2.1789545 31.0323176 -7.26171875 31.1171875 C-12.53902512 30.75475942 -16.09674923 29.66949704 -20.15625 26.08203125 C-23.57151141 21.49839093 -24.83784001 18.02052595 -24.53515625 12.2890625 C-23.61695663 6.94078636 -21.289678 3.98414741 -17.09375 0.64453125 C-11.82686458 -1.96059487 -5.42619072 -2.31006308 0 0 Z " fill="#00186880" transform="translate(405.15625,870.91796875)"/>
<path d="M0 0 C4.5719606 3.94851142 6.48611966 7.29694234 7.25 13.3125 C6.97309072 17.912767 5.49488312 21.68247867 2.75 25.375 C-2.18687094 29.40509872 -6.34099248 30.02242018 -12.6640625 29.75390625 C-18.02126498 28.96893852 -20.44962903 26.4281197 -23.625 22.25 C-25.91534636 17.77516362 -26.04463544 13.28065755 -25.25 8.375 C-22.64229636 2.95900013 -18.86447059 -0.05872941 -13.375 -2.4375 C-8.34360705 -2.88144644 -4.45902885 -2.22951443 0 0 Z " fill="#00186880" transform="translate(180.25,769.625)"/>
<path d="M0 0 C3.83731945 2.53099794 6.81228149 4.78895701 8.9375 8.9375 C9.93025957 14.54809575 9.71865243 19.25501785 7.3125 24.4375 C2.94312265 29.03684457 -0.15727633 31.17677176 -6.5625 31.4375 C-11.4832651 31.23719749 -14.36260527 30.36667072 -18.0625 26.9375 C-22.02773328 22.32925592 -23.33200073 17.93119627 -23.0625 11.9375 C-21.16627991 6.45953085 -17.78195143 2.44035474 -12.6875 -0.375 C-8.12965467 -1.56872139 -4.46189563 -1.5480046 0 0 Z " fill="#00186880" transform="translate(971.0625,666.0625)"/>
<path d="M0 0 C5.09459883 2.73598826 8.1667679 5.5003037 10 11 C10.56430864 16.69734689 10.28586378 21.12785716 7 26 C2.04169925 30.58642819 -1.93312043 31.35767473 -8.49609375 31.28125 C-13.42639397 30.72745653 -16.11220763 27.98376992 -19.3125 24.4375 C-22.23915053 20.21011591 -22.65474646 16.01664897 -22 11 C-20.10141721 5.61887392 -16.99881525 2.76530206 -12 0 C-7.80905969 -1.3969801 -4.28069186 -0.95126486 0 0 Z " fill="#00186880" transform="translate(403,359)"/>
<path d="M0 0 C4.77604898 1.99449236 7.62263764 4.62243433 10.11328125 9.15625 C11.57188899 12.96745087 11.7681339 16.37954458 10.9609375 20.37109375 C8.39003816 25.23743892 5.29010735 29.5947038 -0.0390625 31.37109375 C-6.8705879 32.09963055 -11.56571315 31.64030624 -17.0390625 27.37109375 C-20.77483681 22.58163951 -21.7078729 18.79030824 -21.4140625 12.73046875 C-20.70295958 8.2564462 -18.68649942 5.71834693 -15.23828125 2.8984375 C-10.16778718 -0.63613992 -6.12825263 -1.89013156 0 0 Z " fill="#00186880" transform="translate(176.0390625,358.62890625)"/>
<path d="M0 0 C4.98669007 2.49334503 8.49675474 5.99350949 11 11 C11.59057744 16.67862925 11.29370905 21.16922672 8 26 C4.06078449 29.97150416 0.86007863 31.87802763 -4.8125 32.25 C-9.53142223 32.16357285 -13.01442669 30.96410765 -16.4453125 27.5703125 C-20.49442377 22.91961899 -21.35878083 19.25112356 -21.28125 13.28125 C-20.69180611 8.50020514 -17.85179203 5.75038822 -14.375 2.6875 C-9.71860985 -0.62098774 -5.60468123 -0.62082623 0 0 Z " fill="#00186880" transform="translate(516,154)"/>
<path d="M0 0 C3.66872782 3.15681231 6.31638711 5.75223801 7.03515625 10.7109375 C7.21615378 15.95199638 6.73892053 19.8932013 3.6875 24.3125 C-1.489333 28.98427612 -4.70837698 29.66530455 -11.55078125 29.59375 C-16.65438153 29.0740057 -19.26881518 26.44080792 -22.625 22.8125 C-25.57680498 18.43945559 -25.83782145 14.56571452 -25.3125 9.3125 C-23.45824489 4.67686223 -20.90614663 1.26931504 -16.5625 -1.25 C-10.68281947 -3.74609079 -5.56588219 -2.83544942 0 0 Z " fill="#00186880" transform="translate(860.3125,769.6875)"/>
<path d="M0 0 C3.65959133 3.14895068 6.22622886 5.74317663 7.10546875 10.640625 C7.47151081 17.09087962 5.88905525 21.43214195 1.6875 26.3125 C-1.58192026 29.38960142 -4.47347753 29.53627402 -8.8125 29.6875 C-14.04889345 29.51903694 -16.99427126 28.73670491 -20.6796875 24.8828125 C-24.44871127 20.60273467 -25.75408309 17.24046161 -25.6484375 11.50390625 C-24.90423103 6.64925707 -22.32655512 2.91060896 -18.515625 -0.11328125 C-12.18294056 -3.79890359 -6.39691207 -3.25880426 0 0 Z " fill="#00186880" transform="translate(634.3125,769.6875)"/>
<path d="M0 0 C4.16900643 2.46488701 7.20703231 5.46286579 9 10 C9.7500384 15.90289963 9.45404174 20.99759473 6 26 C0.823167 30.67177612 -2.39587698 31.35280455 -9.23828125 31.28125 C-14.36455419 30.75919674 -16.98532946 28.12436465 -20.3125 24.4375 C-23.18410556 20.28962531 -23.40640889 16.95818843 -23 12 C-21.10096173 6.18351706 -18.49367807 2.92216919 -13 0 C-8.5311827 -1.48960577 -4.55092964 -1.13083706 0 0 Z " fill="#00186880" transform="translate(858,359)"/>
<path d="M0 0 C4.52966583 2.47551505 7.16586374 5.37259122 8.8125 10.3125 C9.34335489 16.57658767 8.6358994 21.18437974 4.8125 26.3125 C1.26800431 29.65955694 -2.38774904 30.57907746 -7.1875 30.8125 C-11.98725096 30.57907746 -15.64300431 29.65955694 -19.1875 26.3125 C-22.98340444 21.22125725 -23.890702 16.54086057 -23.1875 10.3125 C-21.16184862 4.76861201 -18.10571346 2.25797564 -13.3125 -0.9375 C-8.55954796 -2.61501249 -4.48642623 -2.06358897 0 0 Z " fill="#00186880" transform="translate(66.1875,359.6875)"/>
<path d="M0 0 C3.77915987 1.91827204 6.37829117 4.49379025 8.265625 8.29296875 C10.01150808 13.73723137 9.78152964 18.64006572 7.23828125 23.7265625 C2.97823905 28.56228608 -0.26333073 31.06570948 -6.76171875 31.7265625 C-11.81465253 31.66130321 -15.25537101 29.5192703 -19.07421875 26.3515625 C-22.7999766 22.1450617 -23.20585579 16.81011194 -23.07421875 11.3515625 C-21.37651109 6.0587092 -18.40170285 3.57415705 -14.07421875 0.3515625 C-9.91000545 -1.73054415 -4.37639569 -1.36813877 0 0 Z " fill="#00186880" transform="translate(858.07421875,52.6484375)"/>
<path d="M0 0 C4.85743692 4.27917062 7.39154521 7.51104252 7.9375 14.0625 C7.8622569 18.61052763 6.52302101 21.82069486 3.625 25.3125 C-1.70684353 29.44739906 -5.63830318 30.76922521 -12.375 30.3125 C-18.05049553 28.26932161 -21.67373721 24.71502559 -24.375 19.3125 C-25.13538689 12.49394874 -24.6292913 7.76671962 -20.375 2.3125 C-14.11369126 -2.57132082 -7.22983116 -3.61491558 0 0 Z " fill="#00186880" transform="translate(746.375,53.6875)"/>
<path d="M0 0 C4.98669007 2.49334503 8.49675474 5.99350949 11 11 C11.59057744 16.67862925 11.29370905 21.16922672 8 26 C5.12930395 28.96719004 2.24118099 31.61443809 -2 32 C-3.6396875 32.1546875 -3.6396875 32.1546875 -5.3125 32.3125 C-11.05612567 31.82575206 -14.49387034 29.62503463 -18.375 25.4375 C-21.42816903 20.85774646 -21.65922038 16.34700977 -21 11 C-16.32482695 1.82280846 -9.82501087 -1.0883089 0 0 Z " fill="#00186880" transform="translate(516,52)"/>
<path d="M0 0 C4.40824285 2.00374675 7.07525853 4.58558915 9.3046875 8.94140625 C10.66241283 12.96118855 10.68109799 16.83773448 10 21 C7.78757561 25.42484878 5.05200384 28.19476657 1 31 C-4.07538397 32.69179466 -8.31964436 32.56371867 -13.1875 30.375 C-17.06698056 28.20970852 -19.09852796 26.1071796 -21 22 C-22.11430001 17.24874859 -22.43784666 13.36505136 -20.9375 8.6875 C-15.27345272 0.83091829 -9.4191371 -0.93258783 0 0 Z " fill="#00186880" transform="translate(857,870)"/>
<path d="M0 0 C4.45146251 2.18526342 7.18885145 4.9394521 10 9 C11.69179466 14.07538397 11.56371867 18.31964436 9.375 23.1875 C6.75792293 27.99323582 3.14792809 30.28402397 -2 32 C-7.62868163 32.66219784 -10.74164871 31.46751713 -15.26953125 28.3671875 C-18.87773539 25.51646188 -20.69227157 22.6030798 -21.23828125 17.984375 C-21.43512194 12.05843437 -20.56541736 8.78516541 -17 4 C-11.96844758 -0.78611084 -6.6108623 -0.97537313 0 0 Z " fill="#00186880" transform="translate(743,870)"/>
<path d="M0 0 C4.16182893 2.46064338 7.2247422 5.46230833 9 10 C9.6773018 15.21364875 9.63590295 19.65482068 7.375 24.4375 C3.04565669 29.10863357 -0.07876026 31.23861982 -6.5 31.5 C-12.75412913 31.25390808 -15.78511742 29.03529751 -20.3125 24.875 C-22.76337538 20.69943454 -23.17789663 16.80320893 -23 12 C-21.32441137 6.55433695 -17.57968609 3.19537188 -13 0 C-8.5311827 -1.48960577 -4.55092964 -1.13083706 0 0 Z " fill="#00186880" transform="translate(971,359)"/>
<path d="M0 0 C4.86108919 2.29796944 7.70203056 5.13891081 10 10 C10.77674653 15.24700208 10.79996611 20.21797332 8.3125 25 C4.69513743 29.69279469 1.83221714 31.04457594 -3.9375 31.875 C-9.39018629 32.24659047 -12.49358231 31.18205775 -16.66015625 27.5546875 C-20.32790584 23.82624229 -21.98358942 20.52202151 -22.234375 15.2734375 C-21.6824424 9.91969129 -19.25414071 6.16455924 -15.375 2.5625 C-10.39849316 -0.71151765 -5.85879797 -0.58836585 0 0 Z " fill="#00186880" transform="translate(970,870)"/>
<path d="M0 0 C4.61430601 2.3421857 7.32398814 5.52722704 8.92578125 10.3515625 C9.72091 14.98298252 9.44913247 18.94860023 7.30078125 23.1640625 C4.12973716 27.41993746 0.94251757 29.67931706 -4.07421875 31.3515625 C-9.90984838 31.91268073 -13.51961475 30.85510403 -18.07421875 27.3515625 C-22.42939954 22.65255165 -23.43660942 18.88064401 -23.35546875 12.6328125 C-22.76602486 7.85176764 -19.92601078 5.10195072 -16.44921875 2.0390625 C-11.4902571 -1.48441025 -5.83460982 -1.82400232 0 0 Z " fill="#00186880" transform="translate(290.07421875,52.6484375)"/>
<path d="M0 0 C4.60011172 4.05247937 7.3278145 7.28120787 7.9375 13.5 C7.55362564 18.18326724 6.34445673 21.48696454 3.625 25.3125 C-1.64079782 29.50364521 -5.67382928 30.76681666 -12.375 30.3125 C-18.05049553 28.26932161 -21.67373721 24.71502559 -24.375 19.3125 C-25.13538689 12.49394874 -24.6292913 7.76671962 -20.375 2.3125 C-14.11369126 -2.57132082 -7.22983116 -3.61491558 0 0 Z " fill="#00186880" transform="translate(179.375,53.6875)"/>
<path d="M0 0 C3.96396869 3.3793546 6.39221737 5.55620336 6.91015625 10.96484375 C7.06870395 16.99800111 6.96725316 20.84207554 2.671875 25.4765625 C-1.02801973 28.90573322 -3.9073599 29.77625999 -8.828125 29.9765625 C-13.7488901 29.77625999 -16.62823027 28.90573322 -20.328125 25.4765625 C-24.30381638 20.85616441 -25.57687473 16.47900156 -25.328125 10.4765625 C-23.64182846 5.10149228 -19.96180957 1.53579081 -15.328125 -1.5234375 C-10.10748207 -3.30533359 -4.65365327 -3.0451758 0 0 Z " fill="#00186880" transform="translate(973.328125,769.5234375)"/>
<path d="M0 0 C4.98669007 2.49334503 8.49675474 5.99350949 11 11 C11.59057744 16.67862925 11.29370905 21.16922672 8 26 C5.12930395 28.96719004 2.24118099 31.61443809 -2 32 C-3.6396875 32.1546875 -3.6396875 32.1546875 -5.3125 32.3125 C-11.03535865 31.82751198 -14.45965129 29.6214197 -18.375 25.5 C-21.25897408 21.06311679 -21.36371628 17.27388608 -21 12 C-17.45027959 2.13966553 -9.90350545 -1.09700368 0 0 Z " fill="#00186880" transform="translate(630,52)"/>
<path d="M0 0 C0.33 0 0.66 0 1 0 C0.58649697 5.27216362 -0.17034992 8.27385398 -4 12 C-8.82714671 15.18152851 -12.39123471 15.45973486 -18 15 C-18.99 14.34 -19.98 13.68 -21 13 C-21 12.34 -21 11.68 -21 11 C-20.19175781 11.02320313 -19.38351562 11.04640625 -18.55078125 11.0703125 C-17.48214844 11.08835938 -16.41351562 11.10640625 -15.3125 11.125 C-14.25675781 11.14820313 -13.20101562 11.17140625 -12.11328125 11.1953125 C-8.93188183 10.99572659 -6.82245723 10.45354058 -4 9 C-1.88082237 6.12397322 -0.64991143 3.50952175 0 0 Z " fill="#00186880" transform="translate(752,171)"/>
<path d="M0 0 C0.66 0.33 1.32 0.66 2 1 C2 1.66 2 2.32 2 3 C0.91332031 2.93039062 0.91332031 2.93039062 -0.1953125 2.859375 C-6.56367163 2.62162293 -10.14425946 2.7667903 -15 7 C-15.66 7.66 -16.32 8.32 -17 9 C-16.66466224 5.87018088 -15.99933599 4.99938841 -13.625 2.8125 C-8.9912669 -0.38698238 -5.43405085 -0.17250955 0 0 Z " fill="#00186880" transform="translate(287,665)"/>
<path d="M0 0 C0 0.33 0 0.66 0 1 C-3.3 1.33 -6.6 1.66 -10 2 C-10.33 2.99 -10.66 3.98 -11 5 C-11.81855469 5.26554687 -12.63710937 5.53109375 -13.48046875 5.8046875 C-14.31191406 6.19914062 -15.14335937 6.59359375 -16 7 C-17.04123065 9.85581649 -17.04123065 9.85581649 -17.3125 13.125 C-17.45300781 14.22070312 -17.59351563 15.31640625 -17.73828125 16.4453125 C-17.82464844 17.28835938 -17.91101563 18.13140625 -18 19 C-18.33 19 -18.66 19 -19 19 C-19.37233816 14.34577299 -19.46507989 10.94804747 -17.375 6.6875 C-11.98004101 0.58267799 -7.85019395 -0.62801552 0 0 Z " fill="#00186880" transform="translate(174,461)"/>
<path d="M0 0 C0.33 0.99 0.66 1.98 1 3 C0.20335937 3.02578125 -0.59328125 3.0515625 -1.4140625 3.078125 C-7.81759882 3.42089337 -12.07896378 3.76244103 -17 8 C-15.78486238 4.21957184 -13.45119105 2.59948402 -10.01953125 0.75 C-6.60919229 -0.51650886 -3.6026069 -0.25281452 0 0 Z " fill="#00186880" transform="translate(742,256)"/>
<path d="M0 0 C0 0.99 0 1.98 0 3 C-0.60328125 3.03738281 -1.2065625 3.07476562 -1.828125 3.11328125 C-7.99367772 3.56253341 -7.99367772 3.56253341 -13 7 C-13.66 6.67 -14.32 6.34 -15 6 C-9.81255162 1.50421141 -7.09392194 -0.15764271 0 0 Z " fill="#00186880" transform="translate(173,256)"/>
<path d="M0 0 C0.80824219 0.10183594 1.61648438 0.20367188 2.44921875 0.30859375 C3.06410156 0.39238281 3.67898438 0.47617187 4.3125 0.5625 C4.3125 1.5525 4.3125 2.5425 4.3125 3.5625 C0.3525 3.5625 -3.6075 3.5625 -7.6875 3.5625 C-7.6875 2.5725 -7.6875 1.5825 -7.6875 0.5625 C-4.59271121 -0.46909626 -3.16118607 -0.41232862 0 0 Z " fill="#00186880" transform="translate(739.6875,562.4375)"/>
<path d="M0 0 C0 0.66 0 1.32 0 2 C-3.47325181 3.1577506 -6.36067448 3.06866652 -10 3 C-10 2.01 -10 1.02 -10 0 C-3.375 -1.125 -3.375 -1.125 0 0 Z " fill="#00186880" transform="translate(858,899)"/>
<path d="M0 0 C0.79664063 0.07863281 1.59328125 0.15726562 2.4140625 0.23828125 C3.06117187 0.38652344 3.70828125 0.53476562 4.375 0.6875 C4.705 1.3475 5.035 2.0075 5.375 2.6875 C0.755 2.6875 -3.865 2.6875 -8.625 2.6875 C-6.77844321 -1.00561358 -3.61298572 -0.39425088 0 0 Z " fill="#00186880" transform="translate(60.625,460.3125)"/>
<path d="M0 0 C0.90105469 0.00902344 1.80210937 0.01804687 2.73046875 0.02734375 C3.41753906 0.03894531 4.10460937 0.05054688 4.8125 0.0625 C4.4825 0.7225 4.1525 1.3825 3.8125 2.0625 C1.1725 1.7325 -1.4675 1.4025 -4.1875 1.0625 C-4.1875 1.7225 -4.1875 2.3825 -4.1875 3.0625 C-6.6875 4.6875 -6.6875 4.6875 -9.1875 6.0625 C-9.8475 5.4025 -10.5075 4.7425 -11.1875 4.0625 C-7.77628592 0.32640839 -4.93646556 -0.06410994 0 0 Z " fill="#00186880" transform="translate(283.1875,869.9375)"/>
<path d="M0 0 C0 0.99 0 1.98 0 3 C-1.093125 3.391875 -2.18625 3.78375 -3.3125 4.1875 C-6.91074922 5.7025523 -8.34524223 7.39846838 -10 11 C-10.33 10.01 -10.66 9.02 -11 8 C-5.28571429 0 -5.28571429 0 0 0 Z " fill="#00186880" transform="translate(279,563)"/>
<path d="M0 0 C0.66 0.33 1.32 0.66 2 1 C1.38511719 1.61875 1.38511719 1.61875 0.7578125 2.25 C-3.38381708 6.68887572 -4.95172154 10.02481279 -6 16 C-6.33 16 -6.66 16 -7 16 C-7.6556849 9.70542497 -5.96051545 5.9206404 -2 1 C-1.34 0.67 -0.68 0.34 0 0 Z " fill="#00186880" transform="translate(274,463)"/>
<path d="M0 0 C5.26053037 -0.31563182 8.44573816 0.33409063 13 3 C10.16443413 4.41778293 8.0091294 3.86257622 4.875 3.5625 C3.77929688 3.46066406 2.68359375 3.35882813 1.5546875 3.25390625 C0.29011719 3.12822266 0.29011719 3.12822266 -1 3 C-0.67 2.01 -0.34 1.02 0 0 Z " fill="#00186880" transform="translate(167,358)"/>
<path d="M0 0 C0.66 0.33 1.32 0.66 2 1 C2 4.63 2 8.26 2 12 C-0.37555161 9.62444839 -0.36834858 8.69703006 -0.6875 5.4375 C-0.77386719 4.63183594 -0.86023438 3.82617188 -0.94921875 2.99609375 C-0.96597656 2.33738281 -0.98273437 1.67867187 -1 1 C-0.67 0.67 -0.34 0.34 0 0 Z " fill="#00186880" transform="translate(949,779)"/>
<path d="M0 0 C2.97 0.33 5.94 0.66 9 1 C9 1.99 9 2.98 9 4 C6.03 3.67 3.06 3.34 0 3 C0 2.01 0 1.02 0 0 Z " fill="#00186880" transform="translate(735,460)"/>
<path d="M0 0 C0.66 0.33 1.32 0.66 2 1 C1.0409375 1.9590625 1.0409375 1.9590625 0.0625 2.9375 C-2.61912635 6.91930882 -2.79498004 10.294792 -3 15 C-3.33 15 -3.66 15 -4 15 C-4.22151549 13.20991533 -4.42682213 11.41781838 -4.625 9.625 C-4.74101563 8.62726562 -4.85703125 7.62953125 -4.9765625 6.6015625 C-4.98429688 5.74304688 -4.99203125 4.88453125 -5 4 C-3 2 -3 2 0 0 Z " fill="#00186880" transform="translate(615,977)"/>
<path d="M0 0 C1.98 0.99 1.98 0.99 4 2 C4 4.97 4 7.94 4 11 C3.01 11.33 2.02 11.66 1 12 C0.67 8.04 0.34 4.08 0 0 Z " fill="#00186880" transform="translate(750,470)"/>
<path d="M0 0 C0.66 0 1.32 0 2 0 C2 2.64 2 5.28 2 8 C1.01 7.67 0.02 7.34 -1 7 C-1.04254356 5.00045254 -1.04080783 2.99958364 -1 1 C-0.67 0.67 -0.34 0.34 0 0 Z " fill="#00186880" transform="translate(836,881)"/>
<path d="M0 0 C2.875 -0.125 2.875 -0.125 6 0 C6.66 0.66 7.32 1.32 8 2 C7 3 7 3 5.15234375 3.09765625 C3.1015625 3.06510417 1.05078125 3.03255208 -1 3 C-0.67 2.01 -0.34 1.02 0 0 Z " fill="#00186880" transform="translate(280,562)"/>
<path d="M0 0 C0.66 0.33 1.32 0.66 2 1 C1.67 1.99 1.34 2.98 1 4 C0.96125079 5.66621616 0.9549714 7.33394172 1 9 C0.01 9.33 -0.98 9.66 -2 10 C-2.17942163 6.05272412 -2.09350689 3.4019487 0 0 Z " fill="#00186880" transform="translate(611,468)"/>
<path d="M0 0 C0 3.96 0 7.92 0 12 C-2 11 -2 11 -3 8 C-3.03954234 5.66700175 -3.04401732 3.33291811 -3 1 C-1 0 -1 0 0 0 Z " fill="#00186880" transform="translate(838,370)"/>
<path d="M0 0 C2 2 2 2 2.125 5.625 C2.08375 6.73875 2.0425 7.8525 2 9 C1.01 9.495 1.01 9.495 0 10 C-1.36952673 7.26094655 -1.12621361 5.02912668 -1 2 C-0.67 1.34 -0.34 0.68 0 0 Z " fill="#00186880" transform="translate(949,267)"/>
<path d="M0 0 C1.258125 -0.04125 2.51625 -0.0825 3.8125 -0.125 C4.52019531 -0.14820313 5.22789062 -0.17140625 5.95703125 -0.1953125 C8 0 8 0 11 2 C8.47524538 3.26237731 6.68799534 3.09856404 3.875 3.0625 C2.96492188 3.05347656 2.05484375 3.04445313 1.1171875 3.03515625 C0.41851562 3.02355469 -0.28015625 3.01195312 -1 3 C-0.67 2.01 -0.34 1.02 0 0 Z " fill="#00186880" transform="translate(393,256)"/>
<path d="M0 0 C0 3.63 0 7.26 0 11 C-0.66 10.67 -1.32 10.34 -2 10 C-2.4140625 7.93359375 -2.4140625 7.93359375 -2.625 5.4375 C-2.69976563 4.61121094 -2.77453125 3.78492188 -2.8515625 2.93359375 C-2.90054688 2.29550781 -2.94953125 1.65742188 -3 1 C-1 0 -1 0 0 0 Z " fill="#00186880" transform="translate(951,166)"/>
<path d="M0 0 C0.66 0.33 1.32 0.66 2 1 C2 3.31 2 5.62 2 8 C1.01 8.495 1.01 8.495 0 9 C-1.36623674 6.26752652 -1.128426 4.01801098 -1 1 C-0.67 0.67 -0.34 0.34 0 0 Z " fill="#00186880" transform="translate(949,677)"/>
<path d="M0 0 C0.66 0.33 1.32 0.66 2 1 C2 3.31 2 5.62 2 8 C1.01 8.495 1.01 8.495 0 9 C-1.36623674 6.26752652 -1.128426 4.01801098 -1 1 C-0.67 0.67 -0.34 0.34 0 0 Z " fill="#00186880" transform="translate(949,370)"/>
<path d="M0 0 C3.3 0.33 6.6 0.66 10 1 C8 3 8 3 5.8359375 3.1953125 C4.61777344 3.16050781 4.61777344 3.16050781 3.375 3.125 C2.55773437 3.10695313 1.74046875 3.08890625 0.8984375 3.0703125 C0.27195312 3.04710937 -0.35453125 3.02390625 -1 3 C-0.67 2.01 -0.34 1.02 0 0 Z " fill="#00186880" transform="translate(848,358)"/>
<path d="M0 0 C0 3.63 0 7.26 0 11 C-0.66 10.67 -1.32 10.34 -2 10 C-2.4140625 7.93359375 -2.4140625 7.93359375 -2.625 5.4375 C-2.69976563 4.61121094 -2.77453125 3.78492188 -2.8515625 2.93359375 C-2.90054688 2.29550781 -2.94953125 1.65742187 -3 1 C-1 0 -1 0 0 0 Z " fill="#00186880" transform="translate(951,882)"/>
<path d="M0 0 C0.99 0 1.98 0 3 0 C3 2.97 3 5.94 3 9 C2.01 9 1.02 9 0 9 C0 6.03 0 3.06 0 0 Z " fill="#00186880" transform="translate(609,881)"/>
<path d="M0 0 C1.134375 0.020625 2.26875 0.04125 3.4375 0.0625 C3.7675 0.7225 4.0975 1.3825 4.4375 2.0625 C1.0625 2.6875 1.0625 2.6875 -2.5625 3.0625 C-3.2225 2.4025 -3.8825 1.7425 -4.5625 1.0625 C-3.5625 0.0625 -3.5625 0.0625 0 0 Z " fill="#00186880" transform="translate(737.5625,591.9375)"/>
<path d="M0 0 C-0.33 0.66 -0.66 1.32 -1 2 C-3.31 2 -5.62 2 -8 2 C-8.33 1.34 -8.66 0.68 -9 0 C-5.93109813 -1.53445094 -3.29905734 -0.54984289 0 0 Z " fill="#00186880" transform="translate(969,563)"/>
<path d="M0 0 C0.99 0 1.98 0 3 0 C3 2.97 3 5.94 3 9 C2.01 9 1.02 9 0 9 C0 6.03 0 3.06 0 0 Z " fill="#00186880" transform="translate(184,370)"/>
<path d="M0 0 C3.93673644 1.31224548 6.22719294 2.91910327 9 6 C6.03 5.01 3.06 4.02 0 3 C0 2.01 0 1.02 0 0 Z " fill="#00186880" transform="translate(515,870)"/>
<path d="M0 0 C2.31 0 4.62 0 7 0 C6.67 0.99 6.34 1.98 6 3 C4.02 3 2.04 3 0 3 C0 2.01 0 1.02 0 0 Z " fill="#00186880" transform="translate(848,592)"/>
<path d="M0 0 C0.33 0.99 0.66 1.98 1 3 C-1.64 3 -4.28 3 -7 3 C-7 2.34 -7 1.68 -7 1 C-4.53721199 -0.231394 -2.7204945 -0.07159196 0 0 Z " fill="#00186880" transform="translate(628,562)"/>
<path d="M0 0 C-0.33 0.66 -0.66 1.32 -1 2 C-3.875 2.125 -3.875 2.125 -7 2 C-7.66 1.34 -8.32 0.68 -9 0 C-5.93109813 -1.53445094 -3.29905734 -0.54984289 0 0 Z " fill="#00186880" transform="translate(175,563)"/>
<path d="M0 0 C-0.33 0.66 -0.66 1.32 -1 2 C-3.875 2.125 -3.875 2.125 -7 2 C-7.66 1.34 -8.32 0.68 -9 0 C-5.93109813 -1.53445094 -3.29905734 -0.54984289 0 0 Z " fill="#00186880" transform="translate(969,461)"/>
<path d="M0 0 C0.99 0 1.98 0 3 0 C3 2.64 3 5.28 3 8 C2.01 8 1.02 8 0 8 C0 5.36 0 2.72 0 0 Z " fill="#00186880" transform="translate(184,882)"/>
<path d="M0 0 C1.98 0 3.96 0 6 0 C6.33 0.66 6.66 1.32 7 2 C4.69 2.33 2.38 2.66 0 3 C0 2.01 0 1.02 0 0 Z " fill="#00186880" transform="translate(168,592)"/>
<path d="M0 0 C2.31 0.33 4.62 0.66 7 1 C6.67 1.66 6.34 2.32 6 3 C3.69 3 1.38 3 -1 3 C-0.67 2.01 -0.34 1.02 0 0 Z " fill="#00186880" transform="translate(849,562)"/>
<path d="M0 0 C1.65 0 3.3 0 5 0 C3.22555028 2.24606427 2.41647515 2.95081002 -0.48046875 3.29296875 C-1.37378906 3.25816406 -2.26710938 3.22335937 -3.1875 3.1875 C-4.08855469 3.16042969 -4.98960938 3.13335938 -5.91796875 3.10546875 C-6.94857422 3.05326172 -6.94857422 3.05326172 -8 3 C-8 2.67 -8 2.34 -8 2 C-5.36 2 -2.72 2 0 2 C0 1.34 0 0.68 0 0 Z " fill="#00186880" transform="translate(63,796)"/>
<path d="M0 0 C0.22036864 3.85645121 -0.39644899 6.49223216 -2 10 C-2.33 10 -2.66 10 -3 10 C-3 7.03 -3 4.06 -3 1 C-1 0 -1 0 0 0 Z " fill="#00186880" transform="translate(299,165)"/>
<path d="M0 0 C0.66 0.33 1.32 0.66 2 1 C-1.465 3.97 -1.465 3.97 -5 7 C-5 5.35 -5 3.7 -5 2 C-2.625 0.9375 -2.625 0.9375 0 0 Z " fill="#00186880" transform="translate(730,55)"/>
<path d="M0 0 C2.97 1.98 2.97 1.98 6 4 C5.01 5.485 5.01 5.485 4 7 C3.34 5.68 2.68 4.36 2 3 C1.34 3 0.68 3 0 3 C0 2.01 0 1.02 0 0 Z " fill="#00186880" transform="translate(632,871)"/>
<path d="M0 0 C1.65 0 3.3 0 5 0 C5.33 0.99 5.66 1.98 6 3 C4.02 3 2.04 3 0 3 C0 2.01 0 1.02 0 0 Z " fill="#00186880" transform="translate(508,562)"/>
<path d="M0 0 C1.65 0 3.3 0 5 0 C5.33 0.99 5.66 1.98 6 3 C4.02 3 2.04 3 0 3 C0 2.01 0 1.02 0 0 Z " fill="#00186880" transform="translate(56,562)"/>
<path d="M0 0 C2.97 1.98 2.97 1.98 6 4 C5.01 5.485 5.01 5.485 4 7 C3.34 5.68 2.68 4.36 2 3 C1.34 3 0.68 3 0 3 C0 2.01 0 1.02 0 0 Z " fill="#00186880" transform="translate(404,155)"/>
</svg>