<svg xmlns="http://www.w3.org/2000/svg" viewBox="0 10.25 183.75999450683594 40.119998931884766" data-asc="0.91552734375" width="183.75999450683594" height="40.119998931884766"><defs/><g><g fill="#000000"><g transform="translate(0, 0)"><path d="M55.49 16.14Q54.27 20.19 52.81 23.83Q51.34 27.47 50.02 30.27Q48.51 33.54 46.97 36.33Q45.73 38.53 44.89 40.16Q44.04 41.80 43.53 42.96Q43.02 44.12 42.80 44.89Q42.58 45.65 42.58 46.14Q42.58 46.66 42.80 46.94Q43.02 47.22 43.32 47.36Q43.63 47.51 43.93 47.55Q44.24 47.58 44.43 47.58Q45.29 47.58 46.47 47.11Q47.66 46.63 49.04 45.76Q50.42 44.90 51.93 43.66Q53.44 42.43 54.93 40.89Q56.42 39.36 57.82 37.56Q59.23 35.77 60.40 33.76Q62.28 30.49 63.40 27.71Q62.70 26.32 62.35 24.84Q62.01 23.36 62.01 22.05Q62.01 20.14 62.61 18.99Q63.21 17.85 64.28 17.85Q64.87 17.85 65.27 18.14Q65.67 18.43 65.92 18.90Q66.16 19.36 66.27 19.91Q66.38 20.46 66.38 21.00Q66.38 22.14 66.05 23.63Q65.72 25.12 65.10 26.84Q64.48 28.56 63.57 30.48Q62.67 32.40 61.50 34.40Q60.33 36.40 58.90 38.24Q57.47 40.09 55.92 41.70Q54.37 43.31 52.77 44.64Q51.17 45.97 49.67 46.91Q48.17 47.85 46.81 48.38Q45.46 48.90 44.43 48.90Q42.50 48.90 41.41 48.02Q40.31 47.14 40.31 45.21Q40.31 44.17 40.59 43.12Q40.87 42.07 41.42 40.84Q41.97 39.62 42.77 38.17Q43.58 36.72 44.63 34.89Q42.19 38.13 39.37 41.17Q36.55 44.21 33.35 46.61Q31.91 47.68 30.71 48.40Q29.52 49.12 28.53 49.56Q27.54 50 26.73 50.18Q25.93 50.37 25.27 50.37Q24.32 50.37 23.62 50.10Q22.92 49.83 22.47 49.38Q22.02 48.93 21.81 48.30Q21.61 47.68 21.61 46.95Q21.61 45.73 21.97 44.63Q22.34 43.53 23.05 42.38Q23.85 41.11 24.96 39.58Q26.07 38.04 27.28 36.35Q28.49 34.67 29.68 32.91Q30.86 31.15 31.80 29.42Q32.74 27.69 33.31 26.05Q33.89 24.41 33.89 22.97Q33.89 20.70 33.00 18.82Q32.10 16.94 30.44 15.60Q28.78 14.26 26.43 13.53Q24.07 12.79 21.14 12.79Q17.11 12.79 13.75 13.96Q10.38 15.14 7.95 17.20Q5.52 19.26 4.16 22.06Q2.81 24.85 2.81 28.08Q2.81 30.05 3.43 31.68Q4.05 33.30 5.19 34.47Q6.32 35.64 7.95 36.29Q9.57 36.94 11.57 36.94Q13.89 36.94 15.87 36.12Q17.85 35.30 19.47 33.89Q21.09 32.47 22.36 30.55Q23.63 28.64 24.51 26.44L25.61 26.83Q23.24 32.71 19.34 35.73Q15.43 38.75 10.06 38.75Q7.79 38.75 5.93 37.98Q4.08 37.21 2.76 35.83Q1.44 34.45 0.72 32.53Q0 30.62 0 28.32Q0 25.22 1.03 22.75Q2.05 20.29 3.75 18.42Q5.44 16.55 7.60 15.23Q9.77 13.92 12.04 13.09Q14.31 12.26 16.48 11.88Q18.65 11.50 20.39 11.50Q23.66 11.50 26.44 12.29Q29.22 13.09 31.26 14.66Q33.30 16.24 34.45 18.55Q35.60 20.87 35.60 23.93Q35.60 26.15 34.75 28.85Q33.91 31.54 31.84 34.64Q29.93 37.50 28.37 39.60Q26.81 41.70 25.70 43.23Q24.58 44.75 23.97 45.78Q23.36 46.80 23.36 47.49Q23.36 48.19 23.88 48.63Q24.39 49.07 25.29 49.07Q26.59 49.07 28.43 48.19Q30.27 47.31 32.57 45.61Q34.84 43.92 36.90 41.89Q38.96 39.87 40.81 37.68Q42.65 35.50 44.29 33.23Q45.92 30.96 47.31 28.77Q48.71 26.59 49.85 24.55Q51.00 22.51 51.88 20.79Q52.76 19.07 53.37 17.74Q53.98 16.41 54.30 15.65L55.49 16.14M64.06 26.03Q64.62 24.46 64.87 23.19Q65.11 21.92 65.11 21.02Q65.11 20.85 65.10 20.52Q65.09 20.19 65.00 19.89Q64.92 19.58 64.75 19.35Q64.58 19.12 64.28 19.12Q63.87 19.12 63.59 19.95Q63.31 20.78 63.31 21.97Q63.31 22.88 63.48 23.91Q63.65 24.95 64.06 26.03ZM67.50 40.21Q67.46 40.50 67.43 40.80Q67.41 41.09 67.41 41.38Q67.41 42.26 67.66 43.05Q67.92 43.85 68.42 44.45Q68.92 45.04 69.67 45.39Q70.41 45.73 71.36 45.73Q74.56 45.73 77.54 43.55Q80.52 41.38 83.47 36.67L84.30 37.40Q82.69 40.09 81.03 41.93Q79.37 43.77 77.72 44.92Q76.07 46.07 74.49 46.58Q72.90 47.09 71.46 47.09Q70.41 47.09 69.24 46.80Q68.07 46.51 67.08 45.83Q66.09 45.14 65.44 43.99Q64.79 42.85 64.79 41.14Q64.79 39.31 65.42 37.61Q66.04 35.91 67.04 34.45Q68.04 32.98 69.34 31.77Q70.63 30.57 71.96 29.71Q73.29 28.86 74.56 28.38Q75.83 27.91 76.81 27.91Q77.44 27.91 78.10 28.10Q78.76 28.30 79.28 28.71Q79.81 29.13 80.14 29.81Q80.47 30.49 80.47 31.45Q80.47 32.74 79.87 33.87Q79.27 35.01 78.27 35.97Q77.27 36.94 75.95 37.71Q74.63 38.48 73.19 39.01Q71.75 39.55 70.29 39.87Q68.82 40.19 67.50 40.21M67.70 39.16Q69.34 38.99 70.78 38.48Q72.22 37.96 73.41 37.22Q74.61 36.47 75.55 35.60Q76.49 34.72 77.12 33.81Q77.76 32.91 78.10 32.08Q78.44 31.25 78.44 30.59Q78.44 29.93 78.09 29.54Q77.73 29.15 77.25 29.15Q76.17 29.15 74.83 29.92Q73.49 30.69 72.14 32.04Q70.80 33.40 69.62 35.23Q68.43 37.06 67.70 39.16ZM101.15 10.25Q102.00 10.25 102.58 10.67Q103.15 11.08 103.15 12.18Q103.15 12.94 102.84 13.99Q102.54 15.04 102.01 16.27Q101.49 17.50 100.78 18.86Q100.07 20.21 99.26 21.56Q98.44 22.90 97.55 24.17Q96.66 25.44 95.78 26.51Q94.02 28.69 92.74 30.18Q91.46 31.67 90.53 32.70Q89.60 33.74 88.96 34.39Q88.33 35.03 87.84 35.50Q87.35 35.96 86.94 36.34Q86.52 36.72 86.08 37.18Q85.89 38.11 85.90 38.95Q85.91 39.79 85.91 40.50Q85.91 42.63 86.60 43.65Q87.28 44.68 88.53 44.68Q89.36 44.68 90.20 44.25Q91.04 43.82 91.87 43.14Q92.70 42.46 93.48 41.59Q94.26 40.72 94.96 39.83Q95.65 38.94 96.22 38.11Q96.78 37.28 97.19 36.67L98.10 37.35Q98.02 37.45 97.62 38.12Q97.22 38.79 96.56 39.75Q95.90 40.70 95.00 41.78Q94.09 42.87 93.04 43.80Q91.99 44.73 90.83 45.34Q89.67 45.95 88.48 45.95Q87.48 45.95 86.56 45.57Q85.64 45.19 84.95 44.37Q84.25 43.55 83.83 42.29Q83.40 41.02 83.40 39.23Q83.40 37.01 83.92 34.58Q84.45 32.15 85.35 29.70Q86.25 27.25 87.48 24.85Q88.70 22.46 90.08 20.30Q91.46 18.14 92.96 16.30Q94.46 14.45 95.91 13.11Q97.36 11.77 98.71 11.01Q100.05 10.25 101.15 10.25M86.52 35.01Q88.60 32.86 90.54 30.65Q92.48 28.44 94.18 26.28Q95.87 24.12 97.29 22.08Q98.71 20.04 99.71 18.24Q100.71 16.43 101.27 14.94Q101.83 13.45 101.83 12.38Q101.83 12.18 101.64 11.85Q101.44 11.52 101.17 11.52Q100.42 11.52 99.17 12.52Q97.92 13.53 96.47 15.25Q95.02 16.97 93.47 19.26Q91.92 21.56 90.55 24.17Q89.18 26.78 88.11 29.57Q87.04 32.35 86.52 35.01ZM110.96 30.96Q111.11 30.57 111.11 30.13Q111.11 29.35 110.49 28.89Q109.86 28.44 108.52 28.44Q107.42 28.44 106.31 28.92Q105.20 29.39 104.17 30.22Q103.15 31.05 102.26 32.20Q101.37 33.35 100.72 34.69Q100.07 36.04 99.69 37.54Q99.32 39.04 99.32 40.55Q99.32 41.77 99.58 42.63Q99.85 43.48 100.34 44.02Q100.83 44.56 101.51 44.79Q102.20 45.02 103.05 45.02Q104.74 45.02 106.32 44.26Q107.91 43.51 109.34 42.30Q110.77 41.09 111.98 39.60Q113.18 38.11 114.11 36.67L115.01 37.35Q113.70 39.58 112.21 41.25Q110.72 42.92 109.16 44.04Q107.59 45.17 105.98 45.73Q104.37 46.29 102.83 46.29Q101.61 46.29 100.50 45.92Q99.39 45.56 98.55 44.81Q97.71 44.07 97.20 42.90Q96.70 41.72 96.70 40.11Q96.70 38.21 97.25 36.51Q97.80 34.81 98.72 33.37Q99.63 31.93 100.83 30.77Q102.03 29.61 103.33 28.81Q104.64 28.00 105.97 27.58Q107.30 27.15 108.47 27.15Q109.67 27.15 110.42 27.48Q111.18 27.81 111.62 28.27Q112.06 28.74 112.22 29.25Q112.38 29.76 112.38 30.13Q112.38 30.71 112.21 31.37Q112.04 32.03 111.73 32.58Q111.43 33.13 110.97 33.50Q110.52 33.86 109.99 33.86Q109.45 33.86 109.06 33.51Q108.67 33.15 108.67 32.62Q108.67 32.59 108.70 32.32Q108.74 32.06 108.94 31.75Q109.13 31.45 109.53 31.20Q109.94 30.96 110.67 30.96L110.96 30.96L110.96 30.96ZM127.88 39.14Q127.98 39.16 128.08 39.16Q128.17 39.16 128.30 39.16Q128.98 39.16 129.54 39.03Q130.10 38.89 130.58 38.60Q131.05 38.31 131.49 37.83Q131.93 37.35 132.35 36.67L133.23 37.35Q132.06 39.01 130.81 39.67Q129.57 40.33 128.17 40.33Q127.66 40.33 127.27 40.23Q126.22 41.99 125.02 43.23Q123.83 44.46 122.58 45.24Q121.34 46.02 120.12 46.37Q118.90 46.73 117.85 46.73Q116.77 46.73 115.86 46.35Q114.94 45.97 114.28 45.26Q113.62 44.56 113.26 43.58Q112.89 42.60 112.89 41.38Q112.89 40.16 113.28 38.89Q113.67 37.62 114.34 36.38Q115.01 35.13 115.92 33.97Q116.82 32.81 117.87 31.81Q118.92 30.81 120.04 30.00Q121.17 29.20 122.29 28.69L123.07 29.71Q121.78 30.64 120.45 32.06Q119.12 33.47 118.03 35.16Q116.94 36.84 116.25 38.66Q115.55 40.48 115.55 42.19Q115.55 43.73 116.24 44.57Q116.92 45.41 118.31 45.41Q119.38 45.41 120.43 44.97Q121.48 44.53 122.49 43.77Q123.49 43.02 124.41 41.98Q125.34 40.94 126.17 39.77Q125.46 39.36 124.93 38.66Q124.39 37.96 124.02 37.07Q123.66 36.18 123.47 35.16Q123.29 34.13 123.29 33.06Q123.29 31.98 123.56 31.03Q123.83 30.08 124.30 29.36Q124.78 28.64 125.42 28.22Q126.05 27.81 126.81 27.81Q127.49 27.81 128.03 28.16Q128.56 28.52 128.93 29.14Q129.30 29.76 129.49 30.62Q129.69 31.47 129.69 32.45Q129.69 33.18 129.57 34.06Q129.44 34.94 129.21 35.83Q128.98 36.72 128.65 37.59Q128.32 38.45 127.88 39.14M124.56 33.06Q124.56 33.76 124.68 34.59Q124.80 35.42 125.07 36.21Q125.34 36.99 125.76 37.66Q126.17 38.33 126.78 38.72Q127.22 37.87 127.53 36.98Q127.83 36.08 128.04 35.25Q128.25 34.42 128.33 33.70Q128.42 32.98 128.42 32.45Q128.42 31.71 128.30 31.10Q128.17 30.49 127.97 30.04Q127.76 29.59 127.45 29.33Q127.15 29.08 126.78 29.08Q126.29 29.08 125.88 29.41Q125.46 29.74 125.17 30.29Q124.88 30.83 124.72 31.56Q124.56 32.28 124.56 33.06ZM152.66 32.50Q153.37 31.67 154.13 30.96Q154.88 30.25 155.64 29.74Q156.40 29.22 157.14 28.94Q157.89 28.66 158.57 28.66Q159.11 28.66 159.63 28.85Q160.16 29.03 160.57 29.41Q160.99 29.79 161.23 30.37Q161.47 30.96 161.47 31.76Q161.47 32.93 161.16 34.07Q160.84 35.21 160.35 36.28Q159.86 37.35 159.31 38.35Q158.76 39.36 158.28 40.27Q157.79 41.19 157.47 42.00Q157.15 42.82 157.15 43.51Q157.15 44.04 157.43 44.27Q157.71 44.51 158.03 44.51Q158.67 44.51 159.53 43.77Q160.40 43.04 161.35 41.89Q162.30 40.75 163.27 39.37Q164.23 37.99 165.11 36.67L165.99 37.35Q165.67 37.87 165.17 38.71Q164.67 39.55 164.01 40.52Q163.35 41.48 162.57 42.47Q161.79 43.46 160.93 44.25Q160.06 45.04 159.13 45.54Q158.20 46.04 157.28 46.04Q156.76 46.04 156.29 45.90Q155.81 45.75 155.44 45.42Q155.08 45.09 154.86 44.56Q154.64 44.02 154.64 43.24Q154.64 42.16 155.00 41.14Q155.37 40.11 155.93 39.11Q156.49 38.11 157.14 37.12Q157.79 36.13 158.35 35.16Q158.91 34.18 159.28 33.19Q159.64 32.20 159.64 31.18Q159.64 30.66 159.45 30.36Q159.25 30.05 158.72 30.05Q157.86 30.05 156.91 30.75Q155.96 31.45 154.93 32.62Q153.91 33.79 152.83 35.34Q151.76 36.89 150.70 38.61Q149.63 40.33 148.60 42.10Q147.56 43.87 146.61 45.51L144.56 44.43Q145.85 41.77 146.98 39.67Q148.12 37.57 148.97 35.88Q149.83 34.18 150.32 32.78Q150.81 31.37 150.81 30.13Q150.81 29.88 150.76 29.63Q150.71 29.37 150.56 29.17Q150.42 28.98 150.18 28.85Q149.95 28.71 149.58 28.71Q148.75 28.71 147.90 29.48Q147.05 30.25 146.09 31.58Q145.14 32.91 144.06 34.68Q142.97 36.45 141.71 38.43Q140.45 40.41 138.99 42.49Q137.52 44.58 135.79 46.53L134.11 45.41Q134.89 44.24 135.75 42.93Q136.62 41.63 137.46 40.28Q138.31 38.94 139.07 37.61Q139.84 36.28 140.43 35.08Q141.02 33.89 141.36 32.89Q141.70 31.88 141.70 31.18Q141.70 30.35 141.28 29.98Q140.87 29.61 140.21 29.61Q139.43 29.61 138.68 30.18Q137.94 30.74 137.12 31.76Q136.30 32.79 135.36 34.22Q134.42 35.64 133.23 37.35L132.35 36.67Q133.64 34.62 134.68 33.06Q135.72 31.49 136.65 30.44Q137.57 29.39 138.49 28.86Q139.40 28.32 140.48 28.32Q140.80 28.32 141.30 28.44Q141.80 28.56 142.29 28.88Q142.77 29.20 143.15 29.76Q143.53 30.32 143.60 31.20Q144.97 29.44 146.46 28.39Q147.95 27.34 149.27 27.34Q150.22 27.34 150.88 27.72Q151.54 28.10 151.94 28.71Q152.34 29.32 152.53 30.09Q152.71 30.86 152.71 31.64Q152.71 31.84 152.70 32.06Q152.69 32.28 152.66 32.50ZM166.97 40.21Q166.92 40.50 166.89 40.80Q166.87 41.09 166.87 41.38Q166.87 42.26 167.13 43.05Q167.38 43.85 167.88 44.45Q168.38 45.04 169.13 45.39Q169.87 45.73 170.83 45.73Q174.02 45.73 177.00 43.55Q179.98 41.38 182.93 36.67L183.76 37.40Q182.15 40.09 180.49 41.93Q178.83 43.77 177.19 44.92Q175.54 46.07 173.95 46.58Q172.36 47.09 170.92 47.09Q169.87 47.09 168.70 46.80Q167.53 46.51 166.54 45.83Q165.55 45.14 164.90 43.99Q164.26 42.85 164.26 41.14Q164.26 39.31 164.88 37.61Q165.50 35.91 166.50 34.45Q167.50 32.98 168.80 31.77Q170.09 30.57 171.42 29.71Q172.75 28.86 174.02 28.38Q175.29 27.91 176.27 27.91Q176.90 27.91 177.56 28.10Q178.22 28.30 178.75 28.71Q179.27 29.13 179.60 29.81Q179.93 30.49 179.93 31.45Q179.93 32.74 179.33 33.87Q178.74 35.01 177.73 35.97Q176.73 36.94 175.42 37.71Q174.10 38.48 172.66 39.01Q171.22 39.55 169.75 39.87Q168.29 40.19 166.97 40.21M167.16 39.16Q168.80 38.99 170.24 38.48Q171.68 37.96 172.88 37.22Q174.07 36.47 175.01 35.60Q175.95 34.72 176.59 33.81Q177.22 32.91 177.56 32.08Q177.91 31.25 177.91 30.59Q177.91 29.93 177.55 29.54Q177.20 29.15 176.71 29.15Q175.63 29.15 174.29 29.92Q172.95 30.69 171.61 32.04Q170.26 33.40 169.08 35.23Q167.90 37.06 167.16 39.16Z"/></g></g></g></svg>