<?xml version="1.0" encoding="UTF-8" standalone="no"?>
<!-- Created with Inkscape (http://www.inkscape.org/) -->

<svg
   width="206.40488mm"
   height="205.26718mm"
   viewBox="0 0 206.40488 205.26718"
   version="1.1"
   id="svg1"
   xml:space="preserve"
   xmlns="http://www.w3.org/2000/svg"
   xmlns:svg="http://www.w3.org/2000/svg"><defs
     id="defs1" /><g
     id="layer1"
     transform="translate(-46.129077,-11.484006)"><path
       style="fill:none;stroke:#000000;stroke-width:0.712409;stroke-linejoin:bevel;stroke-miterlimit:0;stroke-dasharray:none;stroke-opacity:1"
       id="path1424-5-9"
       transform="matrix(-0.04320334,0.9990663,-0.99907186,-0.04307447,0,0)"
       d="m 122.59863,-107.0206 a 10.559102,6.6924191 0 0 1 -4.80193,6.19738 10.559102,6.6924191 0 0 1 -10.8885,0.20942 10.559102,6.6924191 0 0 1 -5.38596,-6.00144" /><path
       style="fill:none;stroke:#000000;stroke-width:0.712409;stroke-linejoin:bevel;stroke-miterlimit:0;stroke-dasharray:none;stroke-opacity:1"
       id="path1424-6"
       transform="matrix(-0.99990914,-0.01348023,0.01335125,-0.99991087,0,0)"
       d="m -140.83584,-64.98838 a 10.559102,6.6924191 0 0 1 -4.80193,6.19738 10.559102,6.6924191 0 0 1 -10.8885,0.209415 10.559102,6.6924191 0 0 1 -5.38597,-6.001439" /><path
       style="fill:none;stroke:#000000;stroke-width:0.712409;stroke-linejoin:bevel;stroke-miterlimit:0;stroke-dasharray:none;stroke-opacity:1"
       id="path1424-5-8"
       transform="matrix(0.06511698,-0.99787764,0.99788603,0.06498827,0,0)"
       d="m -94.621317,207.16005 a 10.559102,6.6924191 0 0 1 -4.801926,6.19738 10.559102,6.6924191 0 0 1 -10.888497,0.20941 10.559102,6.6924191 0 0 1 -5.38597,-6.00143" /><path
       style="fill:none;stroke:#000000;stroke-width:0.712409;stroke-linejoin:bevel;stroke-miterlimit:0;stroke-dasharray:none;stroke-opacity:1"
       id="path1424-5-5"
       transform="matrix(0.99997,0.00774618,-0.00761719,0.99997099,0,0)"
       d="m 163.15807,163.91393 a 10.559102,6.6924191 0 0 1 -4.80192,6.19738 10.559102,6.6924191 0 0 1 -10.8885,0.20941 10.559102,6.6924191 0 0 1 -5.38597,-6.00144" /></g></svg>
