<?xml version="1.0" encoding="UTF-8" standalone="no"?>
<!-- Created with Inkscape (http://www.inkscape.org/) -->

<svg
   width="206.40488mm"
   height="205.26718mm"
   viewBox="0 0 206.40488 205.26718"
   version="1.1"
   id="svg1"
   xml:space="preserve"
   xmlns="http://www.w3.org/2000/svg"
   xmlns:svg="http://www.w3.org/2000/svg"><defs
     id="defs1" /><g
     id="layer1"
     transform="translate(-46.129077,-11.484006)"><path
       d="m 236.40544,117.3195 q -0.4898,-0.01 -0.81881,-0.31363 -0.38993,-0.36112 -0.37811,-0.96872 0.005,-0.2666 0.13449,-0.53699 0.11678,-0.26443 0.11787,-0.32023 0.004,-0.2108 -0.22482,-0.24006 l 0.003,-0.1364 1.41102,-0.15863 -0.003,0.1426 q -1.2284,0.33585 -1.24516,1.19765 -0.007,0.3658 0.24822,0.63126 0.2433,0.24663 0.5533,0.25265 0.3224,0.006 0.56782,-0.17502 0.27082,-0.21182 0.73632,-0.86641 0.37641,-0.53849 0.5529,-0.68391 0.31567,-0.28537 0.76827,-0.27657 0.5456,0.0106 0.85541,0.34536 0.28561,0.30327 0.27705,0.74347 -0.004,0.2046 -0.12769,0.50611 -0.12358,0.2953 -0.12443,0.3387 -0.002,0.1178 0.084,0.14429 0.0742,0.0139 0.1482,0.0339 l -0.003,0.1364 -1.41625,0.1089 0.003,-0.1488 q 0.51033,-0.0893 0.84388,-0.33712 0.40295,-0.30848 0.41163,-0.75488 0.005,-0.2728 -0.158,-0.48686 -0.20585,-0.2583 -0.54685,-0.26493 -0.4402,-0.009 -0.87229,0.52264 -0.36937,0.49521 -0.74506,0.99649 -0.48825,0.54872 -1.05305,0.56874 z m -1.40573,4.54234 0.0942,-1.46666 0.12377,0.008 q -0.003,0.24214 0.0277,0.34354 0.0581,0.15908 0.24998,0.1714 0.15471,0.01 0.45232,-0.0766 l 0.62696,-0.18344 0.11125,-1.73276 -0.76606,-0.35989 q -0.12059,-0.0575 -0.26911,-0.067 -0.19803,-0.0127 -0.26945,0.13184 -0.0415,0.0657 -0.0662,0.25673 l -0.12377,-0.008 0.0727,-1.13249 0.12377,0.008 q 0.007,0.0812 0.0206,0.16289 0.0138,0.0754 0.0961,0.14908 0.21166,0.18759 0.94877,0.51454 l 3.31718,1.46821 -0.002,0.0247 -3.99907,1.21593 q -0.38004,0.11231 -0.52033,0.26486 -0.0802,0.0881 -0.12587,0.31505 z m 1.80899,-1.26956 2.32122,-0.63392 -2.2187,-0.96269 z m -1.07433,5.01568 -1.11004,-0.39794 0.3563,-3.20487 0.12326,0.0137 q -0.005,0.32392 0.0979,0.46636 0.13626,0.17738 0.51838,0.21986 l 2.9645,0.32957 q 0.39445,0.0439 0.54854,-0.10748 0.0986,-0.10134 0.16027,-0.43142 l 0.12326,0.0137 -0.18226,1.63941 -0.12326,-0.0137 q 0.0384,-0.34513 -0.0404,-0.47868 -0.1164,-0.18764 -0.52934,-0.23355 l -3.23568,-0.35972 q -0.22187,-0.0247 -0.28967,0.0801 -0.0623,0.11162 -0.10892,0.53072 -0.0891,0.80122 0.005,1.07994 0.12324,0.40678 0.7368,0.72457 z m 2.60686,4.74502 q 0.009,-0.21212 -0.0697,-0.31244 -0.0834,-0.10741 -0.43564,-0.30142 l -3.62989,-2.01363 3.9859,-0.82438 q 0.46205,-0.10251 0.62108,-0.23425 0.10226,-0.0905 0.16562,-0.33161 l 0.12249,0.0194 -0.24094,1.5189 -0.12249,-0.0194 q 0.0221,-0.29787 -0.001,-0.38944 -0.0338,-0.14349 -0.19299,-0.16875 -0.10412,-0.0165 -0.78509,0.12033 l -2.67295,0.54291 2.59576,1.44776 q 0.28874,0.15882 0.46636,0.18699 0.20211,0.0321 0.2786,-0.0939 0.0323,-0.0451 0.0995,-0.3107 l 0.12249,0.0194 -0.18459,1.16367 z m -0.28855,1.44583 z m -3.76294,1.69148 -1.04034,-0.48109 0.65426,-3.16387 0.12146,0.0251 q -0.0374,0.3342 0.0298,0.46842 0.10095,0.18552 0.47138,0.26212 l 2.96955,0.61408 q 0.38865,0.0804 0.54883,-0.0512 0.10636,-0.0857 0.20705,-0.41945 l 0.12145,0.0251 -0.64421,3.11529 -0.91468,-0.17015 0.0264,-0.12753 q 0.48266,0.0238 0.63069,-0.11021 0.15411,-0.13277 0.26085,-0.64895 l 0.18083,-0.87447 q 0.0339,-0.16396 0.0255,-0.18469 -0.0178,-0.067 -0.20606,-0.10593 l -1.56068,-0.32274 -0.20595,0.99592 q -0.0804,0.38865 0.0269,0.54381 0.088,0.12584 0.45924,0.25961 l -0.0264,0.12752 -1.5121,-0.31269 0.0264,-0.12753 q 0.42424,0.0307 0.55741,-0.062 0.1405,-0.0976 0.21961,-0.48018 l 0.20595,-0.99592 -1.68821,-0.34911 q -0.21861,-0.0452 -0.31199,0.10013 -0.08,0.14177 -0.22439,0.84013 -0.11679,0.56476 0.0114,0.86356 0.12818,0.2988 0.60648,0.61934 z m 0.41412,1.29727 0.74054,0.1827 -0.1827,0.74054 -0.74054,-0.1827 z m -3.36618,5.32679 0.41138,-1.41092 0.11907,0.0347 q -0.0558,0.23565 -0.0478,0.34132 0.0221,0.16792 0.20664,0.22173 0.14883,0.0434 0.45814,0.0238 l 0.65187,-0.0425 0.48602,-1.66692 -0.66928,-0.51811 q -0.10518,-0.0823 -0.24806,-0.124 -0.1905,-0.0555 -0.29169,0.07 -0.0548,0.0551 -0.12053,0.23615 l -0.11907,-0.0347 0.31765,-1.08945 0.11907,0.0347 q -0.0107,0.0809 -0.0154,0.16346 -0.003,0.0767 0.0613,0.16644 0.16571,0.22918 0.8139,0.70884 l 2.91772,2.15551 -0.007,0.0238 -4.1679,0.31564 q -0.39539,0.0268 -0.56554,0.14516 -0.0975,0.0685 -0.19146,0.28006 z m 2.04209,-0.84503 2.40357,-0.11308 -1.95573,-1.42286 z m -1.25622,5.51642 q -0.82014,-0.28474 -1.24374,-0.91756 -0.55053,-0.83442 -0.14987,-1.98848 l 0.55726,-1.60514 0.11717,0.0407 q -0.0907,0.3558 -0.0201,0.51161 0.0765,0.15784 0.42212,0.27784 l 2.86464,0.99453 q 0.36321,0.1261 0.52308,0.0437 0.12831,-0.067 0.28752,-0.41219 l 0.11716,0.0407 -0.52879,1.52313 q -0.36405,1.04861 -1.11021,1.43942 -0.77593,0.41987 -1.83626,0.0517 z m 0.15481,-0.46483 q 0.97246,0.33761 1.71024,-0.0102 0.59955,-0.27105 0.9758,-1.35481 0.0732,-0.21089 0.006,-0.29998 -0.0405,-0.0534 -0.20455,-0.1104 l -3.29814,-1.14504 q -0.19918,-0.0692 -0.29616,0.002 -0.0713,0.054 -0.14653,0.27078 -0.68539,1.9742 1.25366,2.6474 z m -1.06001,1.5567 0.70946,0.28006 -0.28006,0.70947 -0.70947,-0.28007 z m -4.44175,5.67624 0.66535,-1.47542 0.11306,0.051 q -0.12724,0.35758 -0.0595,0.52417 0.0734,0.16914 0.46343,0.34504 l 3.07521,1.38678 -0.008,-0.0718 -3.15295,-3.1905 0.0204,-0.0452 4.46015,0.27668 0.0292,-0.0345 -2.92258,-1.31795 q -0.4805,-0.21669 -0.69176,-0.1555 -0.17025,0.0457 -0.34637,0.3608 l -0.11306,-0.051 0.55573,-1.23234 0.11306,0.051 q -0.11649,0.34882 -0.0335,0.4815 0.0887,0.13522 0.59745,0.36465 l 2.59471,1.1701 q 0.37874,0.17079 0.51053,0.13499 0.0984,-0.0372 0.26579,-0.36312 l 0.10741,0.0484 -0.43847,0.97231 -4.06034,-0.27324 2.8775,2.89622 -0.46141,1.02318 -0.10741,-0.0484 q 0.1145,-0.32931 0.0931,-0.4478 -0.0442,-0.20362 -0.40037,-0.36422 l -2.79821,-1.26187 q -0.34483,-0.1555 -0.53803,-0.059 -0.13068,0.0635 -0.2966,0.35602 z m 1.96104,5.86437 q 0.0754,-0.19847 0.0329,-0.31843 -0.0451,-0.12832 -0.3176,-0.42399 l -2.80414,-3.06065 4.04162,0.48195 q 0.47071,0.0493 0.6633,-0.0252 0.12569,-0.0534 0.26222,-0.262 l 0.11001,0.0573 -0.7101,1.36414 -0.11001,-0.0573 q 0.11544,-0.27548 0.12252,-0.36967 0.0135,-0.14678 -0.12953,-0.22123 -0.0935,-0.0487 -0.78273,-0.1348 l -2.70717,-0.3326 2.00279,2.19608 q 0.22349,0.24218 0.38301,0.32521 0.18152,0.0945 0.29401,-7.5e-4 0.0449,-0.0325 0.1929,-0.26312 l 0.11001,0.0573 -0.54403,1.04511 z m -2.2985,3.94503 q 0.12882,-0.30547 0.0894,-0.42206 -0.0741,-0.18006 -0.56625,-0.46867 l -3.15065,-1.84773 0.006,-0.0107 4.80175,-0.44054 0.0314,-0.0535 -2.40177,-1.40854 q -0.46537,-0.27293 -0.69486,-0.24936 -0.23171,0.0151 -0.43413,0.29895 l -0.10698,-0.0627 0.68388,-1.16611 0.10698,0.0627 q -0.16333,0.3643 0.0303,0.58571 0.0775,0.0886 0.52144,0.34894 l 2.62643,1.54029 q 0.28705,-0.0114 0.38852,-0.0741 0.0581,-0.0378 0.16699,-0.21119 l 0.10698,0.0627 -0.43291,0.73818 -4.43335,0.37623 2.28409,1.33953 q 0.48142,0.28233 0.70427,0.2333 0.14427,-0.0376 0.3561,-0.33752 l 0.10698,0.0628 -0.68388,1.16611 z m -4.21626,2.46411 q -0.72578,-0.4764 -0.98201,-1.1935 -0.3301,-0.94361 0.34026,-1.96488 l 0.93238,-1.42046 0.10368,0.0681 q -0.17485,0.32288 -0.1444,0.49121 0.0356,0.17174 0.34149,0.37251 l 2.53504,1.66399 q 0.32141,0.21097 0.49656,0.17016 0.14079,-0.0337 0.37947,-0.3295 l 0.10368,0.0681 -0.88474,1.34787 q -0.6091,0.92796 -1.42811,1.12473 -0.85497,0.21766 -1.7933,-0.39825 z m 0.26364,-0.41295 q 0.86057,0.56487 1.66093,0.4078 0.64759,-0.11643 1.27711,-1.07549 0.12251,-0.18663 0.0788,-0.28951 -0.0262,-0.0617 -0.17139,-0.15701 l -2.91867,-1.9158 q -0.17626,-0.1157 -0.28773,-0.0702 -0.0823,0.035 -0.20821,0.2268 -1.14676,1.74705 0.56919,2.87339 z m -1.13432,5.32652 q 0.10442,-0.18484 0.0806,-0.30982 -0.0252,-0.13365 -0.25004,-0.46704 l -2.3106,-3.44846 3.92274,1.08583 q 0.4579,0.11969 0.65953,0.0751 0.1323,-0.0339 0.29873,-0.21946 l 0.10012,0.0732 -0.90767,1.24147 -0.10012,-0.0732 q 0.15565,-0.25492 0.17686,-0.34696 0.0355,-0.14307 -0.0947,-0.23823 -0.0851,-0.0622 -0.75346,-0.25128 l -2.62608,-0.73699 1.64878,2.47295 q 0.18442,0.27311 0.32959,0.37925 0.16519,0.12078 0.29077,0.0436 0.0493,-0.0254 0.23036,-0.23102 l 0.10012,0.0732 -0.69539,0.95113 z m -6.92138,1.45802 1.02726,-1.25072 0.0958,0.0787 q -0.21612,0.31199 -0.19421,0.49049 0.0267,0.18243 0.35736,0.454 l 2.60687,2.1411 0.0106,-0.0715 -2.2113,-3.90263 0.0315,-0.0383 4.23347,1.4308 0.0371,-0.0257 -2.47748,-2.03484 q -0.40733,-0.33455 -0.62724,-0.3306 -0.17627,-3.3e-4 -0.42851,0.25793 l -0.0958,-0.0787 0.85802,-1.04466 0.0958,0.0787 q -0.20346,0.30634 -0.15793,0.45608 0.0503,0.15368 0.4816,0.50791 l 2.19955,1.80655 q 0.32106,0.2637 0.45763,0.26353 0.10473,-0.0103 0.35133,-0.2812 l 0.091,0.0748 -0.67696,0.82423 -3.84841,-1.32317 2.02217,3.54667 -0.71239,0.86736 -0.091,-0.0748 q 0.19645,-0.28803 0.20671,-0.408 0.0104,-0.2081 -0.29147,-0.45606 l -2.37206,-1.94825 q -0.29231,-0.24008 -0.504,-0.19729 -0.14273,0.0272 -0.37922,0.26631 z m 0.549,2.09216 0.56569,0.51165 -0.51165,0.56568 -0.56568,-0.51165 z m -6.15401,3.75191 1.14166,-1.14725 0.0879,0.0875 q -0.24484,0.29 -0.24002,0.46977 0.009,0.18414 0.31251,0.48596 l 2.3912,2.37955 0.0174,-0.0702 -1.82973,-4.09542 0.035,-0.0352 4.07804,1.82733 0.0394,-0.022 -2.27252,-2.26145 q -0.37362,-0.37181 -0.59291,-0.38881 -0.17544,-0.0171 -0.45112,0.21596 l -0.0879,-0.0875 0.95357,-0.95824 0.0879,0.0875 q -0.2317,0.28559 -0.20063,0.43898 0.0355,0.15777 0.43107,0.55145 l 2.01757,2.00774 q 0.2945,0.29307 0.43046,0.3059 0.10524,-2.6e-4 0.3765,-0.24648 l 0.0835,0.0831 -0.75236,0.75604 -3.70497,-1.68353 1.67535,3.72308 -0.79172,0.7956 -0.0835,-0.0831 q 0.22298,-0.26802 0.24461,-0.38647 0.0302,-0.20616 -0.24673,-0.48173 l -2.17581,-2.16522 q -0.26813,-0.26682 -0.48293,-0.24438 -0.14467,0.0135 -0.40286,0.229 z m 2.03465,4.15366 z m -4.03581,-0.85617 -0.55569,-1.00248 2.39587,-2.16747 0.0832,0.092 q -0.22753,0.24765 -0.2525,0.39567 -0.028,0.20934 0.22573,0.48985 l 2.03435,2.24872 q 0.26625,0.29431 0.47318,0.28272 0.13642,-0.006 0.41474,-0.21632 l 0.0832,0.092 -2.35908,2.13418 -0.63783,-0.67731 0.0966,-0.0874 q 0.37552,0.30417 0.57413,0.28338 0.20277,-0.0162 0.59365,-0.36981 l 0.6622,-0.59907 q 0.12416,-0.11233 0.12964,-0.13401 0.0252,-0.0646 -0.10379,-0.20715 l -1.06917,-1.18184 -0.75417,0.68227 q -0.29431,0.26626 -0.29936,0.45479 -0.003,0.1535 0.21741,0.48065 l -0.0966,0.0874 -1.03589,-1.14506 0.0966,-0.0874 q 0.32428,0.27526 0.48654,0.27899 0.17102,0.004 0.46073,-0.25792 l 0.75417,-0.68227 -1.15654,-1.27842 q -0.14976,-0.16555 -0.31093,-0.10337 -0.14825,0.0672 -0.67709,0.54564 -0.42767,0.3869 -0.5006,0.70375 -0.0729,0.31685 0.12389,0.85793 z m -1.17752,5.30788 q 0.14701,-0.15316 0.15491,-0.28015 0.009,-0.13573 -0.12636,-0.51447 l -1.38287,-3.91388 3.53075,2.02505 q 0.41389,0.22954 0.62029,0.23633 0.13656,2e-5 0.34382,-0.13849 l 0.0788,0.0958 -1.18727,0.97748 -0.0788,-0.0958 q 0.21403,-0.20834 0.2574,-0.29224 0.0699,-0.1298 -0.0326,-0.25427 -0.067,-0.0814 -0.66757,-0.43035 l -2.36115,-1.36542 0.98375,2.80467 q 0.1109,0.31032 0.2252,0.44916 0.13007,0.15798 0.27086,0.11435 0.0541,-0.0124 0.28048,-0.16665 l 0.0788,0.0957 -0.90961,0.74889 z m -7.06672,-0.30462 1.30542,-0.95678 0.0733,0.10003 q -0.28677,0.24863 -0.30982,0.42698 -0.0194,0.18335 0.23356,0.52846 l 1.9942,2.72089 0.028,-0.0667 -1.17401,-4.32921 0.04,-0.0293 3.74618,2.43632 0.0423,-0.0157 -1.89522,-2.58584 q -0.3116,-0.42514 -0.52561,-0.47587 -0.17068,-0.044 -0.4791,0.14356 l -0.0733,-0.10004 1.09035,-0.79915 0.0733,0.10004 q -0.2731,0.24629 -0.26614,0.40265 0.0106,0.16135 0.34055,0.6115 l 1.68261,2.29575 q 0.24561,0.33511 0.37795,0.36881 0.10401,0.016 0.4101,-0.18525 l 0.0696,0.095 -0.86028,0.63053 -3.39985,-2.23653 1.0791,3.93747 -0.9053,0.66351 -0.0696,-0.095 q 0.26176,-0.2303 0.30147,-0.34397 0.0617,-0.19901 -0.16922,-0.51411 l -1.81458,-2.4758 q -0.22362,-0.3051 -0.43931,-0.31616 -0.14502,-0.009 -0.43343,0.1639 z m 0.0128,2.16295 0.42106,0.63599 -0.63598,0.42107 -0.42107,-0.63599 z m -5.32905,2.08501 q -0.005,-0.27223 0.14285,-0.63768 0.24941,-0.59348 0.80624,-0.93097 0.70002,-0.42427 1.44954,-0.24044 0.87729,0.21517 1.49441,1.23338 0.56891,0.93866 0.37512,1.83924 -0.17821,0.81863 -0.88883,1.24933 -0.28107,0.17035 -0.65181,0.26453 -0.37074,0.0942 -0.38135,0.10061 -0.13788,0.0836 -0.0763,0.29281 l -0.13145,0.0942 -0.81705,-1.25235 0.10494,-0.0781 q 0.93275,0.96468 1.80777,0.43435 0.24925,-0.15107 0.45446,-0.39872 0.21888,-0.28493 0.27721,-0.55958 0.14124,-0.75997 -0.46093,-1.76548 -0.53468,-0.89415 -1.32471,-1.09694 -0.67078,-0.17355 -1.25413,0.18001 -0.65229,0.39534 -0.80446,1.32872 z m -3.99642,1.30966 0.75173,-0.40893 2.3252,1.19883 0.44572,-0.2707 -0.63413,-1.16573 q -0.17484,-0.3214 -0.3658,-0.38694 -0.18254,-0.0631 -0.51331,0.0816 l -0.0593,-0.10895 1.41631,-0.77044 0.0593,0.10894 q -0.29816,0.20456 -0.32462,0.40249 -0.0294,0.19249 0.17209,0.56291 l 1.35717,2.49488 q 0.18668,0.34319 0.37764,0.40873 0.15732,0.0556 0.48015,-0.0776 l 0.0593,0.10895 -1.44899,0.78823 q -0.50661,0.27558 -0.92827,0.27906 -0.62705,0.002 -0.9619,-0.6133 -0.28151,-0.51749 -0.034,-0.98391 0.13789,-0.26561 0.50495,-0.56412 l -1.98934,-1.03563 q -0.20081,-0.1096 -0.63058,0.0607 z m 2.59549,2.43542 q 0.30818,0.56653 0.91305,0.48456 0.34846,-0.0342 0.71247,-0.2605 0.21197,-0.12942 0.25162,-0.18629 0.0575,-0.10189 -0.0343,-0.27076 l -0.81193,-1.49257 q -0.64527,0.35807 -0.88561,0.63 -0.46234,0.51269 -0.14527,1.09556 z m -1.69849,2.08592 z m -3.63836,-1.94501 -0.25491,-1.11749 2.90424,-1.41547 0.0543,0.11149 q -0.28743,0.17458 -0.35259,0.30981 -0.0852,0.19328 0.0806,0.53331 l 1.32852,2.72586 q 0.17388,0.35676 0.37587,0.40318 0.1328,0.0319 0.45855,-0.0924 l 0.0543,0.11148 -2.85964,1.39374 -0.42425,-0.82801 0.11706,-0.0571 q 0.27609,0.39662 0.47265,0.4319 0.19926,0.0409 0.67308,-0.19008 l 0.80271,-0.39123 q 0.15051,-0.0733 0.1618,-0.0926 0.0422,-0.055 -0.0421,-0.22784 l -0.69823,-1.43261 -0.91419,0.44556 q -0.35676,0.17387 -0.41405,0.35356 -0.0459,0.14653 0.0751,0.52216 l -0.11706,0.0571 -0.67649,-1.38802 0.11706,-0.0571 q 0.23491,0.35461 0.38973,0.40332 0.1631,0.0516 0.51429,-0.11958 l 0.91419,-0.44556 -0.75528,-1.54967 q -0.0978,-0.20068 -0.2699,-0.18578 -0.1611,0.0233 -0.80215,0.33576 -0.51841,0.25266 -0.6766,0.53672 -0.1582,0.28405 -0.11965,0.85854 z m -4.4152,0.70155 1.34968,-0.58165 0.0491,0.1139 q -0.21719,0.10711 -0.29358,0.18054 -0.11537,0.124 -0.0393,0.30054 0.0614,0.14237 0.27351,0.36831 l 0.44798,0.47544 1.59456,-0.68718 -0.0269,-0.84596 q -0.004,-0.13353 -0.0624,-0.2702 -0.0785,-0.18224 -0.23975,-0.18029 -0.0774,-0.007 -0.25882,0.0575 l -0.0491,-0.1139 1.04216,-0.44912 0.0491,0.1139 q -0.0691,0.0433 -0.13579,0.0923 -0.061,0.0465 -0.0893,0.15326 -0.0711,0.27374 -0.028,1.07895 l 0.197,3.62222 -0.0228,0.01 -2.89829,-3.01181 q -0.27254,-0.28769 -0.47214,-0.34348 -0.11488,-0.0315 -0.33786,0.0308 z m 1.95222,1.03588 1.61825,1.78078 -0.14897,-2.41396 z m -4.41877,4.63883 q 0.29286,-0.15537 0.33595,-0.27067 0.0563,-0.1864 -0.14276,-0.72104 l -1.27453,-3.4229 0.0116,-0.004 4.00013,2.69255 0.0581,-0.0216 -0.97159,-2.60931 q -0.18826,-0.50559 -0.38102,-0.63233 -0.18912,-0.13471 -0.52538,-0.0426 l -0.0433,-0.11622 1.26688,-0.47173 0.0433,0.11623 q -0.35678,0.17916 -0.34658,0.47313 0.004,0.11759 0.18369,0.59994 l 1.06247,2.85338 q 0.22967,0.17255 0.34794,0.18807 0.0689,0.007 0.26288,-0.0582 l 0.0433,0.11622 -0.80197,0.29862 -3.67395,-2.50962 0.92398,2.48146 q 0.19475,0.52303 0.39846,0.62584 0.13558,0.062 0.48927,-0.0366 l 0.0433,0.11623 -1.26688,0.47173 z m -4.82492,-0.75415 q -0.26153,-0.82784 -0.007,-1.54556 0.34038,-0.93995 1.50526,-1.30796 l 1.62019,-0.51185 0.0374,0.11826 q -0.33953,0.13979 -0.4223,0.2895 -0.0809,0.15562 0.0293,0.50449 l 0.91349,2.89151 q 0.11582,0.36662 0.27735,0.44565 0.13042,0.0628 0.50232,-0.0156 l 0.0374,0.11826 -1.5374,0.4857 q -1.05845,0.33438 -1.81758,-0.0306 -0.80021,-0.37151 -1.13833,-1.44178 z m 0.46527,-0.15349 q 0.3101,0.98157 1.0297,1.36554 0.5755,0.31894 1.66943,-0.0266 0.21287,-0.0673 0.24398,-0.17463 0.0187,-0.0644 -0.0336,-0.22999 l -1.05172,-3.32908 q -0.0635,-0.20105 -0.17867,-0.2362 -0.0859,-0.0249 -0.30469,0.0442 -1.99272,0.62954 -1.37439,2.58678 z m -3.16619,-1.46774 1.70971,-0.47153 0.033,0.11956 q -0.3896,0.12675 -0.49082,0.29619 -0.1072,0.17108 -0.008,0.52976 l 0.79137,2.86943 q 0.10221,0.37064 0.28958,0.46692 0.16284,0.0773 0.56399,-0.008 l 0.033,0.11956 -1.7097,0.47152 -0.033,-0.11956 q 0.35971,-0.1185 0.46918,-0.25805 0.13977,-0.19293 0.0343,-0.57552 l -0.79136,-2.86944 q -0.10387,-0.37661 -0.32113,-0.46465 -0.16882,-0.0757 -0.53677,0.013 z m -0.67358,2.06191 0.18193,0.74073 -0.74073,0.18193 -0.18193,-0.74073 z m -2.37541,3.24847 z m -3.04231,-2.78659 0.0302,-1.1458 3.16455,-0.65096 0.025,0.12148 q -0.32175,0.0978 -0.41841,0.21269 -0.13044,0.16611 -0.0542,0.53662 l 0.61098,2.97019 q 0.08,0.38873 0.26413,0.4838 0.12075,0.0638 0.46714,0.0242 l 0.025,0.12148 -3.11596,0.64096 -0.20564,-0.90735 0.12755,-0.0262 q 0.1691,0.45271 0.35076,0.53563 0.18291,0.089 0.6992,-0.0172 l 0.87466,-0.17992 q 0.164,-0.0337 0.17972,-0.0496 0.0545,-0.0429 0.0158,-0.23116 l -0.32111,-1.56102 -0.99613,0.20491 q -0.38874,0.08 -0.48881,0.23983 -0.0808,0.13058 -0.0567,0.52448 l -0.12756,0.0262 -0.31111,-1.51242 0.12755,-0.0262 q 0.13963,0.40178 0.27753,0.48738 0.14522,0.0904 0.52788,0.0117 l 0.99613,-0.20491 -0.34734,-1.68857 q -0.045,-0.21866 -0.2154,-0.24692 -0.16185,-0.0173 -0.86036,0.12633 -0.56488,0.1162 -0.78858,0.35215 -0.22369,0.23594 -0.32883,0.80204 z m -3.23333,2.89535 0.13468,-0.0218 q 0.1899,0.55352 0.41862,0.68618 0.20837,0.12338 0.72873,0.0393 l 0.35506,-0.0573 -0.56457,-3.49557 q -0.0583,-0.36119 -0.21773,-0.49248 -0.16355,-0.11806 -0.54706,-0.0812 l -0.0198,-0.12244 1.68351,-0.2719 0.0198,0.12244 q -0.38685,0.0939 -0.49385,0.28705 -0.0865,0.16472 -0.0192,0.58101 l 0.55073,3.40986 0.36731,-0.0593 q 0.51424,-0.0831 0.67732,-0.279 0.16506,-0.1837 0.17717,-0.76984 l 0.14081,-0.0227 0.14025,1.10174 -3.31804,0.5359 z m -1.46205,-1.4551 0.0929,0.75706 -0.75706,0.093 -0.0929,-0.75706 z m -2.74333,2.9444 z m -2.69097,-3.12721 0.16566,-1.13416 3.21936,-0.2717 0.0104,0.12359 q -0.33107,0.059 -0.44065,0.16165 -0.14919,0.1495 -0.11738,0.52643 l 0.25501,3.02163 q 0.0334,0.39547 0.20499,0.51168 0.11235,0.0776 0.46099,0.0793 l 0.0104,0.12359 -3.16993,0.26752 -0.0968,-0.92531 0.12976,-0.011 q 0.1143,0.46954 0.28487,0.57338 0.17109,0.11003 0.69632,0.0657 l 0.88981,-0.0751 q 0.16684,-0.0141 0.18433,-0.028 0.0592,-0.0361 0.043,-0.22766 l -0.13402,-1.58806 -1.01339,0.0855 q -0.39547,0.0334 -0.51376,0.18027 -0.0957,0.12009 -0.11842,0.51407 l -0.12976,0.011 -0.12986,-1.53862 0.12977,-0.011 q 0.0911,0.41549 0.21786,0.51681 0.1335,0.10697 0.52279,0.0741 l 1.01339,-0.0855 -0.14498,-1.71781 q -0.0188,-0.22246 -0.18465,-0.27069 -0.15865,-0.0364 -0.86926,0.0236 -0.57466,0.0485 -0.82472,0.25629 -0.25007,0.2078 -0.42149,0.75747 z m -4.15385,3.50794 q 0.20976,-0.0327 0.29302,-0.12893 0.0892,-0.10265 0.21134,-0.48578 l 1.27245,-3.95115 1.58077,3.75075 q 0.19006,0.43344 0.35011,0.56395 0.1086,0.0828 0.35741,0.0983 l 0.005,0.12394 -1.5368,0.0578 -0.005,-0.12393 q 0.29652,-0.036 0.38187,-0.0764 0.13424,-0.0609 0.12818,-0.22202 -0.004,-0.10534 -0.27012,-0.74691 l -1.05033,-2.51719 -0.91758,2.82702 q -0.0999,0.31403 -0.0931,0.49374 0.008,0.20449 0.14612,0.25514 0.0505,0.0229 0.32409,0.0375 l 0.005,0.12394 -1.17739,0.0443 z m -4.41992,-2.20819 q 0.0138,-1.07271 0.58658,-1.72893 0.55379,-0.62545 1.39088,-0.61469 0.83089,0.0107 1.36842,0.65017 0.56193,0.6708 0.54813,1.74352 -0.0144,1.12232 -0.63062,1.77797 -0.55331,0.58825 -1.347,0.57805 -0.79988,-0.0103 -1.33789,-0.61257 -0.59301,-0.665 -0.5785,-1.79352 z m 0.43397,0.0118 q -0.0142,1.10372 0.49257,1.7242 0.42146,0.50156 0.99193,0.50889 0.56426,0.007 0.99228,-0.48338 0.52255,-0.60724 0.53674,-1.71096 0.0139,-1.08512 -0.47437,-1.69296 -0.40891,-0.51379 -0.99797,-0.52137 -0.58906,-0.008 -1.02345,0.49538 -0.50378,0.59509 -0.51773,1.6802 z m -4.21971,-1.37562 0.34054,-1.12897 3.21891,0.19161 -0.007,0.1238 q -0.32374,0.0118 -0.46073,0.12167 -0.17016,0.14517 -0.193,0.52897 l -0.17724,2.97749 q -0.0236,0.39617 0.13544,0.54231 0.10627,0.0933 0.43906,0.13795 l -0.007,0.12381 -1.6466,-0.098 0.007,-0.1238 q 0.34665,0.0206 0.47598,-0.0648 0.18143,-0.12587 0.20612,-0.54061 l 0.19345,-3.24987 q 0.0133,-0.22284 -0.0948,-0.28519 -0.11466,-0.0565 -0.5356,-0.0816 -0.80473,-0.0479 -1.07827,0.0601 -0.39994,0.14392 -0.68587,0.77296 z m -4.6052,2.84657 q 0.21228,-0.002 0.30846,-0.0856 0.103,-0.0888 0.2787,-0.45052 l 1.82499,-3.72829 1.02753,3.93842 q 0.12605,0.45618 0.26577,0.60826 0.0956,0.0975 0.33966,0.14841 l -0.0131,0.12332 -1.52924,-0.16279 0.0131,-0.12333 q 0.29861,0.007 0.38888,-0.021 0.14157,-0.0411 0.15864,-0.20138 0.0111,-0.10483 -0.16041,-0.7779 l -0.67916,-2.64162 -1.31284,2.66654 q -0.14382,0.2965 -0.16285,0.47532 -0.0217,0.20349 0.10809,0.27343 0.0467,0.0299 0.31539,0.0835 l -0.0131,0.12332 -1.17161,-0.12472 z m -1.45873,-0.21409 z m -1.88208,-3.67132 0.42716,-1.06363 3.19324,0.49129 -0.0189,0.12258 q -0.33569,-0.0203 -0.46628,0.0537 -0.1801,0.11032 -0.23762,0.48419 l -0.46112,2.99711 q -0.0603,0.39226 0.0792,0.54549 0.091,0.10183 0.4295,0.18528 l -0.0189,0.12259 -3.1442,-0.48375 0.12305,-0.92218 0.12871,0.0198 q 9.4e-4,0.48325 0.14238,0.62422 0.1405,0.1471 0.66147,0.22725 l 0.88258,0.13579 q 0.16549,0.0255 0.18576,0.016 0.066,-0.0212 0.0952,-0.21122 l 0.24234,-1.57516 -1.00516,-0.15465 q -0.39226,-0.0603 -0.54172,0.0547 -0.12117,0.0943 -0.23573,0.47193 l -0.12871,-0.0198 0.23479,-1.52614 0.12871,0.0198 q -0.009,0.42526 0.0905,0.5535 0.10467,0.13531 0.4908,0.19472 l 1.00516,0.15464 0.26215,-1.70387 q 0.034,-0.22065 -0.11598,-0.30646 -0.14568,-0.0726 -0.85052,-0.18105 -0.57001,-0.0877 -0.86185,0.0556 -0.29183,0.14333 -0.58745,0.63742 z m -4.91568,2.42428 q 0.33075,0.0225 0.42818,-0.0527 0.14618,-0.12864 0.2591,-0.68786 l 0.72297,-3.58022 0.0122,0.002 1.9778,4.39764 0.0608,0.0123 0.55113,-2.72923 q 0.10679,-0.52883 0.01,-0.73819 -0.0896,-0.21421 -0.42385,-0.31334 l 0.0246,-0.12157 1.32511,0.26759 -0.0246,0.12157 q -0.39762,-0.036 -0.54403,0.21911 -0.0586,0.10205 -0.16044,0.60656 l -0.60268,2.98453 q 0.10409,0.26775 0.19638,0.34332 0.0546,0.0427 0.25401,0.0893 l -0.0246,0.12157 -0.83883,-0.16939 -1.79721,-4.07015 -0.52412,2.59551 q -0.11047,0.54706 0.008,0.74187 0.0825,0.1242 0.43496,0.22701 l -0.0246,0.12157 -1.3251,-0.26758 z m -3.70107,-3.18601 q 0.21454,-0.84124 0.80938,-1.3167 0.78501,-0.61896 1.96876,-0.31707 l 1.64642,0.41989 -0.0306,0.12017 q -0.36218,-0.0604 -0.51148,0.0232 -0.15082,0.0895 -0.24124,0.44405 l -0.74936,2.93833 q -0.095,0.37255 5.3e-4,0.5249 0.0776,0.1222 0.43498,0.25173 l -0.0307,0.12018 -1.5623,-0.39844 q -1.07558,-0.2743 -1.52794,-0.98484 -0.48382,-0.73775 -0.20645,-1.82535 z m 0.47623,0.11505 q -0.25438,0.99747 0.15438,1.70329 0.32065,0.57454 1.43229,0.85804 0.21632,0.0552 0.29939,-0.0196 0.0498,-0.0449 0.0928,-0.21313 l 0.86276,-3.38298 q 0.0521,-0.2043 -0.0272,-0.29491 -0.0598,-0.0665 -0.28217,-0.12316 -2.02498,-0.51643 -2.53222,1.47249 z m -1.91545,-2.91717 1.70119,0.50136 -0.0351,0.11897 q -0.39784,-0.0979 -0.57321,-0.007 -0.18133,0.0888 -0.28651,0.44569 l -0.84145,2.85515 q -0.10869,0.36879 -3.1e-4,0.54942 0.0976,0.15158 0.48313,0.29108 l -0.0351,0.11896 -1.7012,-0.50137 0.0351,-0.11896 q 0.36811,0.0891 0.53472,0.0283 0.22052,-0.0902 0.33271,-0.47085 l 0.84145,-2.85515 q 0.11045,-0.37474 -0.0277,-0.56414 -0.1035,-0.15334 -0.46284,-0.27217 z m -1.65999,1.39629 -0.23621,0.72525 -0.72525,-0.23621 0.23621,-0.72525 z m -6.57532,0.44393 q 0.20624,0.0504 0.32007,-0.006 0.1218,-0.0605 0.38172,-0.36732 l 2.69263,-3.1592 0.0187,4.07021 q 0.009,0.4732 0.10661,0.65517 0.0685,0.11816 0.29225,0.22802 l -0.0433,0.11622 -1.44109,-0.53699 0.0433,-0.11621 q 0.28758,0.0807 0.38193,0.0761 0.14732,-0.005 0.20362,-0.15574 0.0368,-0.0988 0.0375,-0.79337 l -0.003,-2.72753 -1.93315,2.25763 q -0.21286,0.25157 -0.27565,0.42008 -0.0714,0.19176 0.0369,0.29169 0.0378,0.0406 0.28484,0.15908 l -0.0433,0.11622 -1.10407,-0.41139 z m -2.38117,-4.54812 q 0.15646,-0.36473 0.48142,-0.55596 0.53426,-0.31737 1.30931,0.0151 l 1.84075,0.78966 -0.0489,0.11397 q -0.36311,-0.12878 -0.55042,-0.0539 -0.18161,0.0773 -0.33318,0.43062 l -1.19305,2.78107 q -0.14668,0.34194 -0.0596,0.50075 0.0741,0.12623 0.43471,0.30794 l -0.0489,0.11398 -1.53301,-0.65764 q -1.44182,-0.61853 -0.99198,-1.66713 0.30315,-0.70667 1.22728,-0.58013 l -0.0871,-0.0644 q -0.81893,-0.60772 -0.44732,-1.47396 z m -0.30288,2.23177 q -0.38871,0.90612 0.84225,1.43419 0.23936,0.10269 0.2646,0.10677 0.10747,0.0326 0.14249,0.0139 0.035,-0.0187 0.0741,-0.1099 l 0.6332,-1.47602 -0.64643,-0.27056 q -0.38997,-0.16054 -0.59108,-0.17934 -0.50157,-0.0262 -0.71916,0.48097 z m 0.73192,-2.02072 q -0.28604,0.66677 0.3269,1.21986 0.22873,0.20609 0.99808,0.53614 l 0.7041,-1.64129 q 0.0856,-0.19946 -0.0675,-0.34608 -0.0936,-0.0807 -0.34436,-0.18822 -1.21387,-0.52073 -1.61725,0.41959 z m -1.94933,-2.26207 1.60442,0.75581 -0.0529,0.1122 q -0.37817,-0.15759 -0.56534,-0.095 -0.19278,0.06 -0.35134,0.39658 l -1.2685,2.69274 q -0.16385,0.34781 -0.0844,0.5429 0.0732,0.16473 0.43289,0.36159 l -0.0529,0.11219 -1.60442,-0.75581 0.0529,-0.1122 q 0.35013,0.14438 0.52408,0.10979 0.23172,-0.0554 0.40085,-0.41439 l 1.26851,-2.69273 q 0.16649,-0.35342 0.059,-0.56173 -0.0788,-0.16737 -0.41573,-0.3398 z m -1.85411,1.12582 -0.34442,0.68056 -0.68055,-0.34443 0.34442,-0.68055 z m -4.44823,-3.59988 q 0.23389,-0.13943 0.62486,-0.1913 0.63915,-0.0768 1.20791,0.24013 0.71501,0.39849 0.92603,1.14082 0.24699,0.86886 -0.33262,1.90888 -0.53433,0.95876 -1.41287,1.23585 -0.79961,0.2501 -1.52545,-0.15443 -0.28709,-0.15999 -0.55234,-0.4356 -0.26525,-0.27562 -0.27608,-0.28165 -0.14084,-0.0785 -0.29223,0.0785 l -0.14687,-0.0677 0.6842,-1.32959 0.11979,0.0526 q -0.37697,1.28784 0.5168,1.78595 0.25458,0.14188 0.57132,0.19772 0.3559,0.0493 0.62344,-0.0359 0.73035,-0.25319 1.30632,-1.27394 0.51258,-0.907 0.298,-1.6939 -0.181,-0.66881 -0.77684,-1.00088 -0.66626,-0.37132 -1.5527,-0.0418 z m -4.46452,-0.97407 q 0.56713,-0.91064 1.3969,-1.17555 0.7976,-0.24843 1.50821,0.19412 0.70536,0.43928 0.8342,1.26468 0.1335,0.86482 -0.43363,1.77546 -0.59335,0.95276 -1.45998,1.19472 -0.77792,0.21685 -1.45169,-0.20276 -0.67904,-0.42289 -0.82755,-1.2167 -0.1631,-0.87595 0.43354,-1.83397 z m 0.36519,0.23474 q -0.58352,0.93696 -0.47117,1.73017 0.10095,0.6473 0.58522,0.9489 0.47901,0.29831 1.09921,0.10013 0.76144,-0.24903 1.34496,-1.18599 0.57368,-0.92117 0.47056,-1.69402 -0.0839,-0.65127 -0.58392,-0.9627 -0.50007,-0.31143 -1.13209,-0.106 -0.73909,0.24834 -1.31277,1.16951 z m -5.318329,-1.02579 q 0.294643,0.15195 0.413929,0.12159 0.185231,-0.06 0.510865,-0.52849 l 2.084765,-2.99908 0.0102,0.007 0.0696,4.82142 0.0509,0.0354 1.58923,-2.28622 q 0.30794,-0.44299 0.3021,-0.67361 0.003,-0.23217 -0.26465,-0.45585 l 0.0708,-0.10183 1.11002,0.77161 -0.0708,0.10183 q -0.35065,-0.19088 -0.58631,-0.0148 -0.0943,0.0704 -0.38804,0.49303 l -1.73789,2.50008 q -0.0108,0.28707 0.044,0.39307 0.0332,0.0608 0.19771,0.18275 l -0.0708,0.10183 -0.70267,-0.48845 -0.0339,-4.44915 -1.511367,2.1742 q -0.318555,0.45827 -0.286826,0.68423 0.02639,0.14673 0.309108,0.38102 l -0.07079,0.10184 -1.110014,-0.77161 z m -0.539388,-4.58137 q 0.297305,-0.38937 0.737102,-0.47487 0.521788,-0.10093 1.004797,0.26788 0.211932,0.16183 0.353526,0.42599 0.144192,0.25054 0.18855,0.28441 0.167574,0.12795 0.326533,-0.0394 l 0.108431,0.0828 -0.706422,1.2317 -0.113359,-0.0865 q 0.455518,-1.18922 -0.229565,-1.71233 -0.290791,-0.22204 -0.655856,-0.1731 -0.342752,0.0504 -0.53092,0.29681 -0.195694,0.25629 -0.194605,0.56141 0.01068,0.34365 0.26332,1.10612 0.211684,0.62197 0.224598,0.85029 0.04348,0.42331 -0.231245,0.78311 -0.331176,0.43372 -0.784326,0.48562 -0.413453,0.051 -0.763388,-0.21619 -0.162646,-0.12419 -0.332646,-0.40224 -0.165072,-0.27429 -0.199573,-0.30063 -0.09364,-0.0715 -0.166046,-0.0176 -0.05502,0.0516 -0.114964,0.0995 l -0.10843,-0.0828 0.749614,-1.20653 0.118288,0.0903 q -0.229737,0.46437 -0.227119,0.87988 0.01051,0.50737 0.36537,0.77833 0.216861,0.16559 0.486046,0.16047 0.330029,-0.0133 0.537014,-0.28435 0.267198,-0.34994 0.09431,-1.0125 -0.180947,-0.59069 -0.363059,-1.19008 -0.153801,-0.71821 0.164021,-1.18553 z m -1.050234,-2.32336 1.375431,1.11965 -0.0783,0.0962 q -0.329152,-0.24396 -0.52589,-0.2282 -0.201548,0.0118 -0.43644,0.3004 l -1.879134,2.30842 q -0.242721,0.29817 -0.212533,0.50665 0.03142,0.1775 0.333168,0.45512 l -0.0783,0.0962 -1.37543,-1.11965 0.0783,-0.0962 q 0.305106,0.22438 0.48227,0.23266 0.238232,0.002 0.488784,-0.30576 l 1.879133,-2.30842 q 0.246637,-0.30297 0.192403,-0.53103 -0.03623,-0.18142 -0.321761,-0.42984 z m -3.529011,-1.52776 0.959045,-0.68614 2.432167,2.11724 -0.08143,0.0935 q -0.263575,-0.18834 -0.439157,-0.18497 -0.223398,0.0111 -0.475838,0.30106 l -1.958438,2.24975 q -0.260583,0.29935 -0.223872,0.51218 0.02719,0.13877 0.263473,0.37734 l -0.08143,0.0935 -1.244147,-1.08305 0.08143,-0.0935 q 0.261925,0.22801 0.416544,0.23928 0.220538,0.0111 0.493335,-0.30227 l 2.137589,-2.45555 q 0.146578,-0.16838 0.09903,-0.28377 -0.0563,-0.11478 -0.374348,-0.39164 -0.608041,-0.52931 -0.890595,-0.61085 -0.4046,-0.13022 -1.015136,0.19335 z m -0.665332,-2.19979 1.298493,1.20804 -0.08448,0.0908 q -0.312323,-0.26516 -0.509673,-0.26242 -0.20189,-0.001 -0.455324,0.27092 l -2.027467,2.17929 q -0.261881,0.28149 -0.245526,0.49151 0.01963,0.17919 0.302387,0.47613 l -0.08448,0.0908 -1.298493,-1.20803 0.08448,-0.0908 q 0.289623,0.24403 0.465853,0.264 0.237579,0.0177 0.507908,-0.27282 l 2.027467,-2.17929 q 0.266105,-0.28603 0.227049,-0.51717 -0.02417,-0.18341 -0.292674,-0.45015 z m -6.177953,0.15009 q 0.166517,0.13169 0.293683,0.12741 0.135935,-0.004 0.500021,-0.17499 l 3.763673,-1.75087 -1.678069,3.70824 q -0.188906,0.43395 -0.175921,0.64005 0.01304,0.13595 0.170741,0.32901 l -0.08777,0.0876 -1.086561,-1.08835 0.08777,-0.0876 q 0.227857,0.19312 0.315526,0.22827 0.135884,0.0571 0.249985,-0.0568 0.0746,-0.0745 0.364525,-0.70567 l 1.133336,-2.48092 -2.697732,1.24748 q -0.298287,0.14008 -0.425553,0.26713 -0.14482,0.14459 -0.08793,0.28057 0.0175,0.0526 0.192719,0.26325 l -0.08777,0.0876 -0.832446,-0.83381 z m -0.372665,-7.06344 1.077249,1.20793 -0.09256,0.0825 q -0.274911,-0.26168 -0.454649,-0.26756 -0.184366,-0.002 -0.503704,0.28303 l -2.517679,2.2453 0.06904,0.0215 4.197079,-1.58269 0.03302,0.037 -2.066846,3.96203 0.01964,0.0406 2.39272,-2.13386 q 0.393387,-0.35083 0.423416,-0.56872 0.02752,-0.1741 -0.188723,-0.46317 l 0.09256,-0.0825 0.899771,1.00892 -0.09256,0.0825 q -0.271285,-0.24829 -0.426258,-0.22641 -0.159602,0.026 -0.576129,0.39748 l -2.124292,1.89447 q -0.310082,0.27653 -0.330976,0.41149 -0.006,0.10507 0.223624,0.39051 l -0.08793,0.0784 -0.709911,-0.79603 1.901101,-3.59818 -3.81621,1.45074 -0.747058,-0.83768 0.08793,-0.0784 q 0.254274,0.23854 0.371221,0.26718 0.204002,0.0424 0.495571,-0.21761 l 2.290903,-2.04306 q 0.282313,-0.25177 0.272691,-0.46753 -0.0049,-0.14522 -0.20461,-0.41577 z m -2.151807,0.21963 -0.5928,0.47996 -0.479965,-0.5928 0.5928,-0.47996 z M 79.24815,168.5081 Z m -0.611274,-2.18588 0.08197,0.10905 q -0.33325,0.35134 -0.334284,0.54606 -0.006,0.19844 0.303264,0.60987 l 0.543991,0.72372 q 0.0857,0.11402 0.165075,0.11641 0.07565,-0.003 0.194619,-0.092 l 1.264032,-0.95012 -0.603606,-0.80303 q -0.219832,-0.29247 -0.394722,-0.3084 -0.141389,-0.002 -0.504546,0.21633 l -0.09315,-0.12392 1.23429,-0.92777 0.09315,0.12393 q -0.322139,0.3042 -0.351749,0.45057 -0.01597,0.14389 0.200135,0.43139 l 0.59865,0.80676 1.209505,-0.90913 q 0.297419,-0.22356 0.313323,-0.42946 0.0085,-0.15379 -0.179076,-0.45497 l 0.09914,-0.0745 0.979928,1.30369 -0.09914,0.0745 q -0.249573,-0.2701 -0.428189,-0.291 -0.178616,-0.0209 -0.520649,0.2362 l -2.354569,1.76983 q -0.317247,0.23847 -0.329426,0.44932 -0.0048,0.12775 0.18277,0.42893 l -0.09914,0.0745 -1.903967,-2.53302 z m 1.800614,-3.76593 1.021005,1.45017 -0.10141,0.0714 q -0.250828,-0.32395 -0.444488,-0.36203 -0.19723,-0.0431 -0.50146,0.17105 l -2.43384,1.71357 q -0.314371,0.22134 -0.341744,0.43021 -0.0178,0.17938 0.197534,0.52831 l -0.10141,0.0714 -1.021006,-1.45016 0.10141,-0.0714 q 0.232978,0.29859 0.401286,0.35452 0.22879,0.0664 0.553303,-0.16204 l 2.43384,-1.71357 q 0.319442,-0.22491 0.328965,-0.45914 0.01423,-0.18445 -0.193395,-0.50089 z m -4.895783,-1.13506 0.07481,0.11408 q -0.427859,0.39922 -0.455655,0.66216 -0.02763,0.24058 0.261415,0.68137 l 0.197229,0.30077 2.961016,-1.94169 q 0.305955,-0.20063 0.360785,-0.39972 0.04106,-0.19749 -0.149029,-0.5326 l 0.103714,-0.068 0.935136,1.42606 -0.103713,0.068 q -0.24356,-0.31488 -0.46357,-0.33375 -0.185665,-0.0117 -0.53829,0.2195 l -2.888417,1.89408 0.204029,0.31114 q 0.285642,0.43559 0.531071,0.50454 0.235057,0.0757 0.775132,-0.15235 l 0.07821,0.11927 -0.948638,0.57758 -1.843069,-2.81064 z m 0.731924,-1.92853 -0.653254,0.39375 -0.393749,-0.65325 0.653254,-0.39375 z m -5.261999,-3.96777 q 0.122957,0.17306 0.246229,0.20458 0.131689,0.034 0.529021,-0.0279 l 4.103473,-0.62633 -2.649761,3.08962 q -0.302916,0.36365 -0.348191,0.56513 -0.02556,0.13416 0.07173,0.36367 l -0.108804,0.0595 -0.738141,-1.34917 0.108804,-0.0595 q 0.164627,0.24922 0.238937,0.30753 0.114442,0.0929 0.255888,0.0155 0.09248,-0.0506 0.547625,-0.57529 l 1.782999,-2.06405 -2.93919,0.44173 q -0.325584,0.0509 -0.48335,0.13721 -0.179527,0.0982 -0.163008,0.2447 0.002,0.0554 0.11125,0.3067 l -0.108804,0.0595 -0.565511,-1.03363 z m -0.655777,-1.32047 z m 1.943121,-3.63937 1.117357,-0.25549 1.416977,2.9035 -0.111459,0.0544 q -0.17473,-0.28734 -0.309999,-0.35243 -0.193317,-0.0851 -0.533266,0.0808 l -2.725167,1.32995 q -0.356668,0.17406 -0.402986,0.37607 -0.03179,0.13282 0.09265,0.4585 l -0.111459,0.0544 -1.395219,-2.85892 0.827782,-0.42468 0.05711,0.11703 q -0.39648,0.2763 -0.431653,0.47287 -0.04075,0.19929 0.190431,0.67299 l 0.39164,0.8025 q 0.07343,0.15047 0.09274,0.16175 0.05506,0.0421 0.227823,-0.0422 l 1.432245,-0.69897 -0.446035,-0.91396 q -0.174062,-0.35667 -0.353781,-0.41387 -0.146548,-0.0458 -0.522121,0.0754 l -0.05711,-0.11703 1.387661,-0.67721 0.05711,0.11703 q -0.354482,0.2351 -0.40312,0.38994 -0.05149,0.16314 0.119851,0.51423 l 0.446035,0.91396 1.549277,-0.75608 q 0.200626,-0.0979 0.185642,-0.27001 -0.02341,-0.16108 -0.336178,-0.80196 -0.252934,-0.51829 -0.537071,-0.67633 -0.284136,-0.15805 -0.858599,-0.1192 z m -0.596772,-4.15791 0.340574,0.78507 -1.400536,2.20959 0.230062,0.46799 1.21743,-0.52813 q 0.335646,-0.14561 0.417886,-0.33 0.07902,-0.17623 -0.03568,-0.51852 l 0.113778,-0.0494 0.641661,1.47912 -0.113778,0.0494 q -0.177274,-0.31515 -0.372076,-0.35908 -0.189114,-0.0464 -0.575961,0.12143 l -2.605527,1.13031 q -0.358403,0.15548 -0.440642,0.33987 -0.06936,0.15176 0.03471,0.48514 l -0.113778,0.0494 -0.656469,-1.51325 q -0.229517,-0.52907 -0.195547,-0.94938 0.05342,-0.62477 0.696271,-0.90365 0.540448,-0.23445 0.98305,0.0535 0.252318,0.16092 0.517058,0.55304 L 71.592884,147.09 q 0.126998,-0.19029 -0.0044,-0.63348 z m -2.656237,2.36903 q -0.591648,0.25666 -0.563711,0.86642 0.0032,0.35012 0.196218,0.73279 0.110095,0.22262 0.163219,0.26717 0.09638,0.0663 0.272733,-0.0102 l 1.558765,-0.67621 q -0.299372,-0.67451 -0.548886,-0.93804 -0.469623,-0.50603 -1.078338,-0.24196 z m 1.970094,-4.15804 0.648453,1.65074 -0.115436,0.0454 q -0.166959,-0.37414 -0.346087,-0.45701 -0.181395,-0.0886 -0.527704,0.0474 l -2.770469,1.08831 q -0.357852,0.14057 -0.43392,0.33702 -0.05978,0.17006 0.06677,0.56007 l -0.115436,0.0453 -0.648454,-1.65074 0.115437,-0.0453 q 0.155622,0.34528 0.305891,0.43948 0.206543,0.11874 0.575939,-0.0264 l 2.770468,-1.08831 q 0.363624,-0.14284 0.428356,-0.36814 0.05752,-0.17584 -0.06925,-0.53245 z m -4.48761,-2.26241 0.04566,0.12856 q -0.510244,0.28651 -0.599532,0.53538 -0.08383,0.22719 0.09258,0.72389 l 0.120374,0.33893 3.336673,-1.18506 q 0.34477,-0.12245 0.4452,-0.30289 0.08667,-0.18214 -0.01863,-0.55274 l 0.116871,-0.0415 0.570738,1.60698 -0.116871,0.0415 q -0.162045,-0.36361 -0.371323,-0.43406 -0.177603,-0.0554 -0.574965,0.0858 l -3.254864,1.156 0.124525,0.35061 q 0.174334,0.49086 0.396448,0.61598 0.210427,0.12926 0.78916,0.0356 l 0.04774,0.1344 -1.05845,0.33644 -1.124873,-3.16721 z m 1.992082,-5.27182 0.426825,1.40634 -0.118678,0.036 q -0.0821,-0.22782 -0.146523,-0.31196 -0.110297,-0.12854 -0.294248,-0.0727 -0.148347,0.045 -0.396624,0.23055 l -0.522621,0.39191 0.504265,1.66149 0.843653,0.068 q 0.133085,0.0114 0.275499,-0.0318 0.189884,-0.0576 0.206,-0.21806 0.01579,-0.0761 -0.02817,-0.26363 l 0.118678,-0.036 0.329573,1.0859 -0.118678,0.036 q -0.03528,-0.0735 -0.07649,-0.14527 -0.03941,-0.0658 -0.142298,-0.10587 -0.264047,-0.10131 -1.069025,-0.14862 l -3.6215,-0.20993 -0.0072,-0.0237 3.317463,-2.54273 q 0.316413,-0.23861 0.3942,-0.43071 0.04419,-0.11062 0.0072,-0.33918 z m -1.248011,1.82393 -1.95082,1.40862 2.415465,0.12232 z m -0.597333,-4.46593 q 0.474664,-0.1212 0.872757,0.0844 0.471985,0.2443 0.622332,0.83312 0.06597,0.25836 0.0133,0.55341 -0.04218,0.28598 -0.02838,0.34006 0.05216,0.20428 0.280609,0.17155 l 0.03375,0.13219 -1.317883,0.5285 -0.03529,-0.13819 q 1.094674,-0.65072 0.881426,-1.48589 -0.09051,-0.35449 -0.407303,-0.54241 -0.300168,-0.17296 -0.600588,-0.0962 -0.312437,0.0798 -0.50074,0.31986 -0.204666,0.27626 -0.479124,1.03115 -0.21949,0.61926 -0.350906,0.80642 -0.228315,0.3591 -0.666928,0.47109 -0.528739,0.13501 -0.916478,-0.1052 -0.356034,-0.21629 -0.46496,-0.64289 -0.05063,-0.19828 -0.01164,-0.52184 0.04052,-0.31755 0.02978,-0.35961 -0.02915,-0.11416 -0.119403,-0.11671 -0.07517,0.006 -0.151872,0.007 l -0.03375,-0.13218 1.336164,-0.48197 0.03682,0.1442 q -0.468142,0.22193 -0.723687,0.54959 -0.306296,0.40461 -0.195837,0.83722 0.0675,0.26437 0.281891,0.42723 0.267186,0.19418 0.597649,0.1098 0.426596,-0.10892 0.701696,-0.73597 0.22422,-0.57567 0.452915,-1.15887 0.324573,-0.65889 0.863667,-0.82854 z m -0.9937,-1.26887 -0.745353,0.16195 -0.161949,-0.74535 0.745353,-0.16195 z m -3.18345,-2.46188 z m 2.867381,-2.9663 1.14457,0.061 0.56565,3.18091 -0.122108,0.0217 q -0.08915,-0.32426 -0.201364,-0.42398 -0.162546,-0.13485 -0.534975,-0.0686 l -2.985536,0.53091 q -0.390745,0.0695 -0.49073,0.25102 -0.06702,0.11899 -0.03675,0.46632 l -0.122108,0.0217 -0.556964,-3.13207 0.912551,-0.18117 0.0228,0.12821 q -0.457087,0.15687 -0.544861,0.33623 -0.09388,0.18046 -0.0016,0.69942 l 0.156341,0.87917 q 0.02931,0.16485 0.04478,0.18099 0.04138,0.0556 0.230651,0.022 l 1.569085,-0.27902 -0.178055,-1.00129 q -0.06949,-0.39074 -0.226603,-0.49507 -0.128354,-0.0842 -0.522765,-0.0708 l -0.0228,-0.12821 1.520242,-0.27034 0.0228,0.12821 q -0.405395,0.12878 -0.494664,0.26432 -0.09429,0.14274 -0.02589,0.52738 l 0.178055,1.00128 1.697298,-0.30182 q 0.219794,-0.0391 0.25262,-0.20868 0.0217,-0.16132 -0.103155,-0.86344 -0.10097,-0.56781 -0.330817,-0.79777 -0.229847,-0.22996 -0.79291,-0.35028 z m -2.807374,-3.31001 0.01812,0.13521 q -0.558416,0.17496 -0.697178,0.40002 -0.128941,0.20499 -0.05892,0.72741 l 0.04778,0.35648 3.509485,-0.47039 q 0.362626,-0.0486 0.498158,-0.20442 0.122415,-0.16031 0.09592,-0.54467 l 0.122924,-0.0165 0.226546,1.69021 -0.122924,0.0165 q -0.08345,-0.38924 -0.273672,-0.50139 -0.162337,-0.0909 -0.58028,-0.0348 l -3.423438,0.45886 0.04943,0.36877 q 0.0692,0.51628 0.260685,0.68457 0.179193,0.16994 0.764795,0.19781 l 0.01895,0.14137 -1.105114,0.11058 -0.446503,-3.33124 z m 1.493871,-1.42241 -0.759285,0.0726 -0.07256,-0.75929 0.759285,-0.0726 z m -3.028904,-5.85299 q 0.03603,0.20922 0.133558,0.29094 0.104047,0.0876 0.489067,0.2036 l 3.970839,1.20964 -3.725214,1.64005 q -0.430377,0.19691 -0.558325,0.35901 -0.08106,0.1099 -0.09258,0.35892 l -0.123847,0.007 -0.08217,-1.5357 0.123846,-0.007 q 0.04067,0.2959 0.08247,0.38061 0.06302,0.13325 0.22402,0.12463 0.105269,-0.006 0.74254,-0.28192 l 2.50021,-1.09012 -2.84121,-0.87264 q -0.315579,-0.0949 -0.495157,-0.0853 -0.204346,0.0109 -0.252788,0.15014 -0.02212,0.0509 -0.03231,0.32465 l -0.123847,0.007 -0.06295,-1.17654 z m 4.428683,-2.24627 0.02937,1.77329 -0.124006,0.002 q -0.02538,-0.40892 -0.164148,-0.54927 -0.138871,-0.14654 -0.510891,-0.14038 l -2.976154,0.0493 q -0.38442,0.006 -0.52446,0.16374 -0.115547,0.13835 -0.133571,0.54799 l -0.124006,0.002 -0.02937,-1.77329 0.124006,-0.002 q 0.02486,0.37792 0.132632,0.51878 0.151889,0.18354 0.548709,0.17697 l 2.976155,-0.0493 q 0.39062,-0.006 0.530147,-0.19484 0.115444,-0.14456 0.12158,-0.52299 z m -1.110665,-3.05579 q 0.489841,0.007 0.820337,0.30963 0.391689,0.3592 0.382844,0.96685 -0.0039,0.26663 -0.131862,0.53764 -0.11549,0.265 -0.116302,0.32081 -0.0031,0.21081 0.225989,0.23895 l -0.002,0.13642 -1.410225,0.16552 0.0021,-0.14261 q 1.226736,-0.34185 1.239281,-1.20372 0.0053,-0.36583 -0.251307,-0.63004 -0.2445,-0.24543 -0.554526,-0.24995 -0.322427,-0.005 -0.566954,0.17781 -0.269781,0.21313 -0.732076,0.87 -0.373772,0.54032 -0.549553,0.68661 -0.314267,0.28691 -0.766905,0.28032 -0.545645,-0.008 -0.857088,-0.34117 -0.287092,-0.30187 -0.280684,-0.7421 0.003,-0.20462 0.12521,-0.50673 0.122142,-0.29591 0.122773,-0.33932 0.0017,-0.1178 -0.08473,-0.14387 -0.07423,-0.0135 -0.148361,-0.0332 l 0.002,-0.13641 1.415703,-0.11583 -0.0022,0.14881 q -0.509886,0.0918 -0.842214,0.34124 -0.401435,0.31045 -0.407933,0.75689 -0.004,0.27282 0.160374,0.48608 0.207117,0.25729 0.548146,0.26225 0.440236,0.006 0.869723,-0.5269 0.36694,-0.49701 0.740171,-1.00012 0.485562,-0.5511 1.05026,-0.57389 z m 1.241766,-2.22687 -0.08097,1.77169 -0.123894,-0.006 q 1.01e-4,-0.4097 -0.129671,-0.5584 -0.129489,-0.1549 -0.501172,-0.17189 l -2.973459,-0.13589 q -0.384071,-0.0175 -0.533627,0.1308 -0.123928,0.13091 -0.167392,0.53863 l -0.123894,-0.006 0.08097,-1.77169 0.123894,0.006 q 0.0013,0.37873 0.100113,0.52602 0.14018,0.19263 0.536641,0.21075 l 2.973459,0.13589 q 0.390267,0.0178 0.541238,-0.16149 0.124211,-0.1371 0.15387,-0.51441 z m -1.95991,-4.37317 q 1.069148,0.0885 1.683875,0.70558 0.585361,0.59601 0.516321,1.43031 -0.06853,0.82813 -0.743897,1.31981 -0.708315,0.51384 -1.777463,0.42537 -1.118589,-0.0926 -1.729736,-0.75293 -0.548281,-0.59294 -0.482821,-1.38398 0.06597,-0.79723 0.70426,-1.29198 0.704692,-0.54526 1.829461,-0.45218 z m -0.04198,0.43209 q -1.100049,-0.091 -1.75432,0.37129 -0.529691,0.38551 -0.576741,0.95407 -0.04654,0.56239 0.413091,1.02354 0.569377,0.56358 1.669426,0.65461 1.081508,0.0895 1.721886,-0.3553 0.541028,-0.37213 0.589612,-0.95924 0.04858,-0.5871 -0.422894,-1.05546 -0.558552,-0.54401 -1.64006,-0.63351 z m 0.66387,-1.69487 -0.756852,-0.0946 0.09463,-0.75685 0.756851,0.0946 z m 0.443339,-5.953163 q 1.05802,0.177482 1.619044,0.843785 0.533523,0.642827 0.395025,1.468448 -0.137472,0.81951 -0.851555,1.25305 -0.748766,0.45287 -1.806786,0.27539 -1.106945,-0.18569 -1.660788,-0.8948 -0.496829,-0.63667 -0.365512,-1.419487 0.132342,-0.788928 0.809731,-1.228624 0.74778,-0.484478 1.860841,-0.297762 z m -0.07793,0.427074 q -1.088598,-0.182612 -1.779205,0.223428 -0.560046,0.339911 -0.65443,0.902558 -0.09336,0.556533 0.326138,1.054473 0.520306,0.60917 1.608904,0.79178 1.070251,0.17954 1.745549,-0.21021 0.570225,-0.32563 0.667687,-0.90662 0.09746,-0.580994 -0.33324,-1.087103 -0.511152,-0.588771 -1.581403,-0.768306 z m 3.485994,-5.253791 -0.357164,1.578605 -0.120966,-0.02737 q 0.05323,-0.375788 -0.04641,-0.525492 -0.105693,-0.151071 -0.523026,-0.245494 l -3.290273,-0.744435 0.02261,0.06869 3.726804,2.496258 -0.01095,0.04839 -4.425506,0.619983 -0.02167,0.0396 3.126969,0.707487 q 0.514105,0.116318 0.708883,0.01416 0.157695,-0.07876 0.267306,-0.422722 l 0.120966,0.02737 -0.298321,1.318528 -0.120966,-0.02737 q 0.04445,-0.36506 -0.06341,-0.478473 -0.113904,-0.114782 -0.658251,-0.237943 l -2.776168,-0.628117 q -0.405235,-0.09168 -0.527215,-0.03027 -0.089,0.05616 -0.187884,0.408902 l -0.114917,-0.026 0.235372,-1.040307 4.033077,-0.543465 -3.398117,-2.262944 0.247688,-1.094742 0.114918,0.026 q -0.04639,0.345546 -0.0018,0.457372 0.08402,0.190673 0.46506,0.276885 l 2.993907,0.677381 q 0.368946,0.08348 0.538956,-0.04972 0.115357,-0.08834 0.219494,-0.408108 z m -3.07773,-5.408019 q -0.04872,0.327917 0.01852,0.431019 0.116616,0.155938 0.665092,0.31295 l 3.511443,1.005213 -0.0034,0.01192 -4.540906,1.622052 -0.01707,0.05962 2.676805,0.766283 q 0.518668,0.148478 0.735065,0.06852 0.220653,-0.07229 0.346033,-0.397612 l 0.119234,0.03413 -0.372048,1.299651 -0.119234,-0.03413 q 0.06749,-0.393495 -0.175184,-0.55972 -0.09707,-0.06649 -0.591892,-0.208141 l -2.927196,-0.837963 q -0.275172,0.08248 -0.357841,0.168473 -0.04687,0.05108 -0.109156,0.246113 l -0.119234,-0.03413 0.235517,-0.822715 4.200109,-1.46805 -2.545647,-0.728738 q -0.536553,-0.153598 -0.740185,-0.05063 -0.130362,0.07234 -0.260863,0.415544 l -0.119234,-0.03413 0.372049,-1.299651 z m 4.903799,-0.625184 -0.55066,1.685882 -0.117894,-0.03851 q 0.109391,-0.394826 0.02399,-0.572763 -0.08347,-0.183831 -0.437156,-0.299354 L 66.011078,87.03259 q -0.365471,-0.119374 -0.549184,-0.01629 -0.154358,0.0931 -0.305012,0.47445 l -0.117894,-0.03851 0.550661,-1.685883 0.117893,0.03851 q -0.09976,0.365353 -0.04384,0.533662 0.08371,0.22305 0.460971,0.346275 l 2.829454,0.924185 q 0.371365,0.121299 0.564705,-0.01126 0.156283,-0.099 0.285521,-0.454721 z m 1.463735,-4.052069 -0.507537,1.37926 -0.116393,-0.04283 q 0.07188,-0.23125 0.07122,-0.337213 -0.01048,-0.169048 -0.190888,-0.235435 -0.145492,-0.05354 -0.455421,-0.05525 l -0.653241,-0.0025 -0.599622,1.629506 0.632022,0.562955 q 0.09926,0.08939 0.238933,0.140783 0.186229,0.06853 0.295822,-0.04973 0.05847,-0.05117 0.1365,-0.227294 l 0.116394,0.04283 -0.391896,1.064998 -0.116393,-0.04283 q 0.0162,-0.07994 0.02658,-0.162019 0.0082,-0.07626 -0.04968,-0.170257 -0.149546,-0.240045 -0.763177,-0.763194 l -2.762411,-2.351259 0.0086,-0.02328 4.179745,-0.02797 q 0.396293,4.58e-4 0.574185,-0.105882 0.101959,-0.0616 0.210293,-0.266217 z m -2.095422,0.702446 -2.405647,-0.05266 1.853138,1.554128 z m 0.845645,-2.439036 -0.704181,-0.293102 0.293102,-0.70418 0.70418,0.293101 z m 2.557946,-4.081836 q 0.445202,0.204427 0.625308,0.614663 0.213173,0.486833 -0.04042,1.039109 -0.11127,0.242325 -0.337837,0.438532 -0.212708,0.195746 -0.235998,0.246466 -0.08798,0.191605 0.110181,0.309891 l -0.05693,0.123981 -1.356881,-0.418339 0.05952,-0.129616 q 1.260272,0.182916 1.619959,-0.600414 0.152673,-0.332492 0.02467,-0.677864 -0.1245,-0.323291 -0.406273,-0.452674 -0.293044,-0.13456 -0.590457,-0.06641 -0.332894,0.08597 -1.021164,0.500065 -0.560208,0.343248 -0.780106,0.406044 -0.403394,0.135483 -0.814783,-0.05342 -0.49592,-0.227716 -0.646182,-0.658367 -0.140659,-0.392123 0.04307,-0.792241 0.08539,-0.18597 0.319264,-0.412942 0.231282,-0.221336 0.249396,-0.260785 0.04917,-0.107074 -0.01938,-0.165843 -0.06245,-0.04232 -0.122313,-0.09028 l 0.05693,-0.123981 1.341815,0.46601 -0.0621,0.135252 q -0.503511,-0.122022 -0.908286,-0.02811 -0.492641,0.121797 -0.678954,0.527551 -0.113857,0.24796 -0.04968,0.509433 0.08551,0.319035 0.395462,0.461357 0.400118,0.183725 1.008457,-0.130598 0.536459,-0.306387 1.081141,-0.615822 0.666821,-0.307941 1.192587,-0.10064 z m -0.878462,-5.595077 q -0.07439,0.198832 -0.03139,0.318584 0.04568,0.128102 0.319639,0.422459 l 2.818864,3.047095 -4.043898,-0.46246 q -0.470943,-0.04701 -0.663176,0.02844 -0.125425,0.05403 -0.260953,0.263253 l -0.110286,-0.05674 0.703518,-1.367542 0.110285,0.05674 q -0.114107,0.276032 -0.120736,0.370253 -0.01278,0.146845 0.130591,0.220601 0.09374,0.04823 0.783376,0.131028 l 2.708746,0.319547 -2.013361,-2.1864 q -0.224652,-0.241095 -0.384566,-0.323361 -0.181972,-0.09361 -0.294009,0.0022 -0.04475,0.03277 -0.191626,0.264048 l -0.110286,-0.05674 0.538985,-1.047714 z m 2.735215,-2.532093 q 0.479007,0.274137 0.618677,0.754186 0.153483,0.530822 -0.290065,1.305844 -0.175571,0.306779 -0.27566,0.4567 l 1.065654,0.609877 q 0.328308,0.187892 0.539865,0.130344 0.177709,-0.04834 0.380968,-0.353562 l 0.107642,0.0616 -0.81009,1.415492 -0.107642,-0.0616 q 0.149439,-0.336025 0.05726,-0.52453 -0.07681,-0.16542 -0.437408,-0.371793 l -2.513435,-1.43845 q -0.322925,-0.184812 -0.483709,-0.141076 -0.152321,0.04144 -0.368647,0.332035 l -0.107642,-0.0616 0.782369,-1.367052 q 0.335741,-0.586649 0.78969,-0.80556 0.519346,-0.24579 1.052173,0.05915 z m -0.204849,0.382907 q -0.893428,-0.511311 -1.604952,0.731953 -0.08933,0.156081 -0.08168,0.217618 0.02302,0.08462 0.184482,0.177029 l 1.56619,0.896336 q 0.123175,-0.165289 0.264864,-0.412865 0.612958,-1.071037 -0.328909,-1.610071 z m -0.03683,-2.12747 z m 4.116714,-0.271023 0.806859,0.814088 -1.717872,2.736247 -0.105039,-0.06595 q 0.151793,-0.30009 0.135662,-0.449335 -0.02981,-0.20909 -0.35018,-0.410222 l -2.568186,-1.612361 q -0.336123,-0.211025 -0.532142,-0.143717 -0.12958,0.04312 -0.340486,0.320741 l -0.105038,-0.06594 1.691494,-2.694232 0.797679,0.478834 -0.06924,0.11029 q -0.443965,-0.190866 -0.62948,-0.116965 -0.190767,0.07061 -0.471034,0.517018 l -0.474806,0.756275 q -0.08903,0.141802 -0.08841,0.164152 -0.0067,0.06901 0.156097,0.171221 l 1.349742,0.847396 0.540751,-0.861314 q 0.211024,-0.336123 0.164725,-0.518953 -0.03848,-0.148633 -0.339677,-0.403627 l 0.06924,-0.110291 1.307726,0.821018 -0.06924,0.110291 q -0.386806,-0.176947 -0.543988,-0.136511 -0.165732,0.04239 -0.373459,0.373261 l -0.540751,0.861314 1.460032,0.916638 q 0.189069,0.118701 0.327317,0.01512 0.124447,-0.10492 0.503632,-0.70889 0.306645,-0.488428 0.29087,-0.813178 -0.01578,-0.32475 -0.352036,-0.792131 z m 3.216249,-2.701894 -0.48696,0.703703 -2.615956,-0.02298 -0.276013,0.442456 1.09125,0.755141 q 0.300858,0.208193 0.500873,0.180697 0.191386,-0.02593 0.421547,-0.304041 l 0.101986,0.07057 -0.917461,1.325817 -0.101986,-0.07057 q 0.174068,-0.316931 0.108532,-0.505564 -0.06044,-0.185104 -0.407189,-0.425055 l -2.335478,-1.616143 q -0.321256,-0.222308 -0.521271,-0.194812 -0.165502,0.02121 -0.393705,0.285601 l -0.101986,-0.07057 0.938634,-1.356413 q 0.328168,-0.474234 0.703068,-0.667274 0.55882,-0.28446 1.135041,0.114283 0.484433,0.335226 0.473562,0.863125 -0.0035,0.299247 -0.196729,0.731096 l 2.242586,0.02855 q 0.228652,0.0074 0.535669,-0.338186 z m -3.414282,-1.005267 q -0.530327,-0.366984 -1.033442,-0.02135 -0.295677,0.187532 -0.51876,0.553498 -0.130949,0.21103 -0.14074,0.279666 -0.0055,0.116876 0.152612,0.226265 l 1.397208,0.966863 q 0.414815,-0.610345 0.506908,-0.96138 0.181839,-0.665988 -0.363786,-1.043559 z m 5.989841,-2.366137 -0.893981,1.166512 -0.09844,-0.07544 q 0.137267,-0.199502 0.168088,-0.300887 0.04016,-0.164542 -0.112422,-0.281476 -0.123049,-0.0943 -0.418508,-0.187916 l -0.623072,-0.196243 -1.05618,1.378157 0.436489,0.725153 q 0.06826,0.114817 0.186391,0.205347 0.157504,0.120706 0.297253,0.0403 0.07102,-0.03151 0.197803,-0.176547 l 0.09844,0.07544 -0.690289,0.900724 -0.09844,-0.07544 q 0.03919,-0.07153 0.07346,-0.146832 0.0305,-0.07038 0.0031,-0.177331 -0.07157,-0.273611 -0.502314,-0.955293 l -1.940214,-3.065111 0.01509,-0.01969 3.999758,1.213667 q 0.378305,0.11804 0.579741,0.06928 0.115645,-0.02857 0.279821,-0.191818 z m -2.209486,0.04897 -2.281652,-0.76418 1.308458,2.034054 z m 1.898818,-5.034106 -0.08794,0.1043 q -0.504863,-0.29589 -0.764778,-0.247365 -0.238441,0.0423 -0.578207,0.445276 l -0.231841,0.274974 2.707074,2.282434 q 0.279715,0.235838 0.486178,0.231469 0.200978,-0.0171 0.467772,-0.295053 l 0.09482,0.07995 -1.099246,1.303757 -0.09482,-0.07994 q 0.23212,-0.323406 0.187314,-0.53963 -0.04183,-0.181271 -0.364216,-0.453084 l -2.640701,-2.226473 -0.239835,0.284456 q -0.33577,0.398239 -0.33168,0.653134 -0.0054,0.2469 0.367562,0.699241 l -0.09194,0.109042 -0.824644,-0.743955 2.166513,-2.569587 z m 2.05728,0.150101 -0.564053,-0.513443 0.513443,-0.564052 0.564052,0.513443 z m 5.497382,-3.079667 -1.033889,1.044522 -0.08815,-0.08725 q 0.161319,-0.180608 0.204674,-0.277299 0.06058,-0.158168 -0.07604,-0.293402 -0.110182,-0.10906 -0.391484,-0.23917 l -0.593366,-0.273216 -1.221472,1.234035 0.341603,0.774388 q 0.05325,0.122506 0.159021,0.227204 0.141032,0.139597 0.289802,0.07745 0.07443,-0.02231 0.218479,-0.150206 l 0.08815,0.08725 -0.79832,0.80653 -0.08815,-0.08725 q 0.0479,-0.06602 0.09139,-0.136401 0.03913,-0.06597 0.02541,-0.175528 -0.03651,-0.28045 -0.377893,-1.01099 l -1.538384,-3.285225 0.01745,-0.01763 3.814874,1.708152 q 0.360409,0.164784 0.566384,0.141806 0.118323,-0.01376 0.301768,-0.155017 z m -2.198036,-0.229927 -2.167129,-1.045685 1.04163,2.18276 z m 5.151376,-2.478386 -0.630825,0.578262 -2.545791,-0.602246 -0.36722,0.37027 0.896726,0.978237 q 0.247228,0.269701 0.448361,0.287223 0.192373,0.01714 0.478454,-0.20304 l 0.08381,0.09142 -1.188512,1.089479 -0.08381,-0.09142 q 0.239987,-0.270465 0.217892,-0.468932 -0.0179,-0.193896 -0.302845,-0.504737 l -1.91916,-2.09361 q -0.26399,-0.287986 -0.465123,-0.305508 -0.166088,-0.016 -0.447217,0.191232 l -0.08381,-0.09142 1.215939,-1.114622 q 0.425122,-0.389698 0.833483,-0.494838 0.607972,-0.15352 1.081476,0.363026 0.398079,0.434264 0.270469,0.946622 -0.06971,0.291035 -0.353886,0.669305 l 2.180474,0.524918 q 0.221324,0.0579 0.597305,-0.211041 z m -3.106532,-1.737049 q -0.435792,-0.475405 -1.003003,-0.249889 -0.329889,0.11733 -0.628541,0.424746 -0.174467,0.176754 -0.199228,0.241513 -0.03124,0.112757 0.09866,0.254465 l 1.148143,1.252508 q 0.539783,-0.503217 0.707393,-0.825108 0.324935,-0.609116 -0.123428,-1.098235 z m 4.651201,-1.046364 q 0.315286,0.374953 0.302979,0.822815 -0.01511,0.531244 -0.480245,0.922359 -0.204088,0.171611 -0.492741,0.252289 -0.275926,0.08618 -0.318642,0.122098 -0.161372,0.135692 -0.03269,0.327267 l -0.104418,0.0878 -1.048335,-0.957666 0.109163,-0.09179 q 1.061502,0.703533 1.721228,0.148789 0.280028,-0.235467 0.31175,-0.602429 0.02546,-0.345497 -0.174084,-0.582809 -0.20753,-0.246804 -0.505565,-0.312178 -0.337729,-0.06441 -1.136917,0.01615 -0.653135,0.07118 -0.878792,0.03406 -0.422621,-0.04974 -0.713961,-0.396211 -0.351205,-0.417669 -0.303193,-0.871248 0.04024,-0.414639 0.377226,-0.697998 0.156626,-0.131701 0.46502,-0.23708 0.303647,-0.101388 0.336871,-0.129324 0.09018,-0.07583 0.05329,-0.15824 -0.0384,-0.06494 -0.07205,-0.133864 l 0.104417,-0.0878 1.014357,0.994341 -0.11391,0.09578 q -0.403198,-0.325336 -0.809315,-0.413257 -0.49748,-0.10022 -0.839209,0.187129 -0.208834,0.175603 -0.26245,0.439444 -0.0589,0.325001 0.1606,0.586044 0.283358,0.336983 0.967666,0.312513 0.615921,-0.04799 1.240579,-0.09522 0.734466,0.0063 1.121374,0.418226 z m 0.711511,-1.446098 -0.469535,-0.601095 0.601096,-0.469535 0.469534,0.601096 z m 0.835333,-3.936662 z m 3.917144,1.294919 0.44204,1.057522 -2.619758,1.890765 -0.07258,-0.100567 q 0.253385,-0.221113 0.294486,-0.365491 0.0509,-0.20498 -0.170479,-0.511708 l -1.774633,-2.458855 q -0.232263,-0.321813 -0.43921,-0.333051 -0.13629,-0.0087 -0.436022,0.169386 l -0.07258,-0.100566 2.579534,-1.861732 0.559451,0.743363 -0.105595,0.07621 Q 99.26861,41.462342 99.06892,41.46116 q -0.203318,-0.0062 -0.630726,0.302264 l -0.72408,0.522592 q -0.135765,0.09799 -0.143592,0.118929 -0.03214,0.06143 0.08037,0.217311 l 0.93268,1.292282 0.824646,-0.595174 q 0.321814,-0.232263 0.347568,-0.419097 0.02016,-0.152205 -0.163221,-0.501652 l 0.105595,-0.07621 0.90365,1.252055 -0.10559,0.07621 q -0.29204,-0.309265 -0.4529,-0.330822 -0.169523,-0.02296 -0.486308,0.205678 l -0.824647,0.595173 1.008892,1.397876 q 0.130648,0.18102 0.297683,0.136947 0.15474,-0.0505 0.733,-0.467848 0.46763,-0.337507 0.57498,-0.644409 0.10734,-0.306901 -0.0288,-0.866356 z m 1.76265,-3.966182 -0.11394,0.07504 q -0.40007,-0.427056 -0.66307,-0.454324 -0.24064,-0.02714 -0.68084,0.262785 l -0.30037,0.197833 1.94763,2.957107 q 0.20125,0.305551 0.40046,0.359981 0.19756,0.04066 0.53229,-0.150099 l 0.0682,0.103576 -1.42418,0.938001 -0.0682,-0.103576 q 0.31439,-0.244193 0.33282,-0.46424 0.0114,-0.185688 -0.22058,-0.537848 l -1.89988,-2.884604 -0.31073,0.204655 q -0.43502,0.286517 -0.50347,0.532083 -0.0753,0.235209 0.1539,0.774825 l -0.11911,0.07845 -0.579481,-0.947475 2.806921,-1.848715 z m 1.92999,0.728038 -0.39506,-0.652461 0.65246,-0.395061 0.39506,0.652461 z m 5.40881,-1.868258 q -0.006,0.272231 -0.16847,0.631392 -0.27314,0.582937 -0.84314,0.897682 -0.71657,0.395679 -1.45807,0.181753 -0.86789,-0.250391 -1.44342,-1.292672 -0.53057,-0.960852 -0.30059,-1.852887 0.21109,-0.810772 0.93851,-1.212446 0.28772,-0.158871 0.66196,-0.238014 0.37424,-0.07914 0.38509,-0.08514 0.14115,-0.07794 0.0881,-0.289485 l 0.13514,-0.08879 0.76585,1.284299 -0.10801,0.07381 q -0.89306,-1.00154 -1.78877,-0.506941 -0.25514,0.140886 -0.47018,0.380052 -0.23019,0.275868 -0.29956,0.547935 -0.17179,0.753653 0.38932,1.782645 0.49816,0.914994 1.27936,1.149501 0.66323,0.200473 1.26037,-0.12926 0.66772,-0.368701 0.85742,-1.295171 z m 4.04606,-1.147365 -0.76762,0.378262 -2.27493,-1.291682 -0.45629,0.252497 0.58659,1.190372 q 0.16172,0.328187 0.34988,0.401384 0.17985,0.07037 0.51618,-0.06079 l 0.0548,0.11125 -1.44624,0.712669 -0.0548,-0.111249 q 0.30618,-0.192355 0.3406,-0.38906 0.0372,-0.191142 -0.14923,-0.569391 l -1.25539,-2.547619 q -0.17269,-0.350436 -0.36084,-0.423633 -0.15495,-0.06191 -0.4829,0.05821 l -0.0548,-0.11125 1.47963,-0.729115 q 0.51731,-0.254917 0.93877,-0.241379 0.62663,0.02305 0.93637,0.651608 0.26039,0.528436 -0.006,0.984487 -0.14849,0.259828 -0.52731,0.543281 l 1.94594,1.115057 q 0.19622,0.117616 0.63251,-0.03516 z m -2.49511,-2.538169 q -0.28507,-0.578499 -0.89275,-0.521011 -0.34955,0.02016 -0.7224,0.231541 -0.21702,0.120766 -0.25894,0.175989 -0.0616,0.09948 0.0234,0.271918 l 0.75105,1.524122 q 0.65919,-0.331746 0.91031,-0.593753 0.48264,-0.49362 0.18935,-1.088806 z m 1.78123,-2.015669 z m 3.55692,2.09024 0.20961,1.126865 -2.95899,1.297125 -0.0498,-0.113588 q 0.29424,-0.16284 0.36481,-0.295336 0.0929,-0.189679 -0.059,-0.536125 l -1.21746,-2.777245 q -0.15934,-0.363484 -0.35929,-0.41802 -0.1314,-0.03719 -0.4619,0.07384 l -0.0498,-0.113589 2.91355,-1.277208 0.39049,0.844446 -0.11927,0.05228 q -0.25986,-0.407441 -0.45483,-0.450618 -0.19746,-0.04886 -0.68021,0.162766 l -0.81784,0.358515 q -0.15334,0.06722 -0.1654,0.08605 -0.0443,0.05329 0.0328,0.229357 l 0.63985,1.459615 0.93143,-0.408308 q 0.36348,-0.15934 0.42798,-0.336571 0.0517,-0.144555 -0.054,-0.524766 l 0.11927,-0.05228 0.61993,1.41418 -0.11927,0.05228 q -0.22041,-0.363794 -0.37314,-0.41872 -0.16089,-0.05812 -0.51869,0.09873 l -0.93143,0.408308 0.69213,1.578883 q 0.0896,0.20446 0.26219,0.196523 0.16191,-0.01681 0.81504,-0.303121 0.52819,-0.23154 0.69771,-0.50898 0.16953,-0.277439 0.1542,-0.85301 z m 4.43996,-0.522841 -1.37205,0.526714 -0.0445,-0.115785 q 0.22134,-0.09825 0.30063,-0.168547 0.12028,-0.119243 0.0514,-0.298709 -0.0556,-0.144731 -0.25843,-0.379045 l -0.42843,-0.493128 -1.62099,0.622277 -0.007,0.846355 q -0.002,0.133565 0.0515,0.272506 0.0711,0.185256 0.23229,0.189811 0.077,0.01029 0.26092,-0.04703 l 0.0444,0.115785 -1.05943,0.406703 -0.0444,-0.115785 q 0.0708,-0.04047 0.13941,-0.08673 0.0628,-0.04404 0.0954,-0.149533 0.0821,-0.270641 0.0715,-1.076938 l -0.0507,-3.627225 0.0232,-0.0089 2.7744,3.126302 q 0.26071,0.298462 0.4579,0.362253 0.11351,0.03614 0.33882,-0.01715 z m -1.90883,-1.113811 -1.54508,-1.844629 0.0515,2.418013 z m 4.25124,-3.297679 -0.1295,0.04291 q -0.27557,-0.516238 -0.52248,-0.610812 -0.22535,-0.08865 -0.72571,0.07713 l -0.34141,0.113119 1.11363,3.361186 q 0.11507,0.347302 0.29334,0.451557 0.18024,0.09053 0.55301,-0.0068 l 0.039,0.117729 -1.61878,0.536341 -0.039,-0.11773 q 0.36698,-0.154253 0.44188,-0.361982 0.0591,-0.176382 -0.0735,-0.576663 l -1.08634,-3.278775 -0.35319,0.11702 q -0.49446,0.163828 -0.62428,0.383223 -0.13373,0.207623 -0.0524,0.788222 l -0.13539,0.04486 -0.31379,-1.065383 3.19048,-1.057078 z m 2.9868,2.728257 -1.70105,0.501874 -0.0351,-0.118954 q 0.38728,-0.13366 0.48547,-0.30487 0.10414,-0.172965 -10e-4,-0.529828 l -0.84231,-2.854898 q -0.1088,-0.368758 -0.29785,-0.461685 -0.16419,-0.0744 -0.56376,0.01762 l -0.0351,-0.118954 1.70105,-0.501873 0.0351,0.118954 q -0.35754,0.124886 -0.46451,0.266357 -0.13631,0.195389 -0.024,0.576043 l 0.84231,2.854898 q 0.11055,0.374706 0.32934,0.458859 0.17014,0.07265 0.53646,-0.0225 z m 3.01834,-5.392502 q -0.19815,0.0762 -0.25926,0.187802 -0.0656,0.119147 -0.10417,0.519412 l -0.4109,4.130611 -2.33595,-3.333209 q -0.27717,-0.383637 -0.46113,-0.477466 -0.12362,-0.05804 -0.37009,-0.0207 l -0.0307,-0.120167 1.49008,-0.380487 0.0307,0.120167 q -0.28226,0.09768 -0.35717,0.155206 -0.11838,0.08783 -0.0785,0.244046 0.0261,0.102143 0.4215,0.673189 l 1.55739,2.239184 0.30099,-2.95692 q 0.0314,-0.328035 -0.0131,-0.502278 -0.0506,-0.198277 -0.19662,-0.2186 -0.0542,-0.01176 -0.32471,0.03171 l -0.0307,-0.120168 1.14159,-0.291502 z m 3.06789,3.904742 -1.73342,0.375104 -0.0262,-0.121217 q 0.39609,-0.104746 0.50663,-0.268251 0.11661,-0.164817 0.0379,-0.52847 l -0.62955,-2.909226 q -0.0813,-0.375775 -0.263,-0.482387 -0.15826,-0.0863 -0.56353,-0.02398 l -0.0262,-0.121218 1.73342,-0.375104 0.0262,0.121217 q -0.36578,0.09819 -0.48289,0.231389 -0.15035,0.184808 -0.0664,0.572704 l 0.62955,2.909226 q 0.0826,0.381836 0.29462,0.48189 0.16432,0.08499 0.53666,0.01711 z m 2.95334,-4.066308 -0.13422,0.02443 q -0.2009,-0.549615 -0.43222,-0.677689 -0.21079,-0.119204 -0.72937,-0.0248 l -0.35385,0.06442 0.63416,3.483618 q 0.0655,0.359953 0.22751,0.488042 0.16587,0.114777 0.54856,0.07032 l 0.0222,0.122018 -1.67775,0.305419 -0.0222,-0.122018 q 0.3849,-0.101584 0.48802,-0.296843 0.0832,-0.166413 0.008,-0.581275 l -0.61861,-3.398205 -0.36605,0.06664 q -0.51248,0.09329 -0.67162,0.292445 -0.16136,0.186952 -0.16179,0.773217 l -0.14032,0.02554 -0.1622,-1.098726 3.30669,-0.601953 z m 4.88375,2.812377 -1.45661,0.195576 -0.0165,-0.122921 q 0.23804,-0.04447 0.33143,-0.09455 0.14457,-0.08824 0.11899,-0.278764 -0.0206,-0.15365 -0.1639,-0.428484 l -0.30295,-0.578749 -1.72089,0.23106 -0.2025,0.821805 q -0.0327,0.129522 -0.0129,0.277027 0.0264,0.196672 0.18217,0.238327 0.0726,0.0278 0.26473,0.01451 l 0.0165,0.12292 -1.12473,0.151014 -0.0165,-0.12292 q 0.0782,-0.02302 0.15567,-0.05219 0.0713,-0.02834 0.12733,-0.123462 0.14238,-0.244363 0.31828,-1.031312 l 0.78845,-3.540858 0.0246,-0.0033 1.97732,3.682562 q 0.18473,0.350607 0.36185,0.458218 0.10209,0.06137 0.33362,0.06157 z m -1.59997,-1.524571 -1.07726,-2.151612 -0.50842,2.364517 z m 4.50392,0.127188 q 0.0434,0.487962 -0.22334,0.847903 -0.31688,0.426656 -0.9222,0.480549 -0.2656,0.02365 -0.54838,-0.07569 -0.2755,-0.08753 -0.33109,-0.08258 -0.21001,0.0187 -0.21437,0.249436 l -0.13589,0.0121 -0.31013,-1.385622 0.14207,-0.01265 q 0.46658,1.184922 1.32515,1.108483 0.36443,-0.03244 0.60075,-0.314965 0.2189,-0.268517 0.1914,-0.577354 -0.0286,-0.32119 -0.23534,-0.545585 -0.23984,-0.246353 -0.94089,-0.638413 -0.576,-0.316035 -0.73964,-0.475786 -0.3178,-0.28299 -0.35795,-0.733892 -0.0484,-0.543554 0.25093,-0.887713 0.27064,-0.316703 0.70919,-0.355747 0.20383,-0.01815 0.51694,0.07226 0.30693,0.09096 0.35017,0.08711 0.11736,-0.01045 0.13436,-0.09912 0.006,-0.07522 0.0177,-0.150991 l 0.13589,-0.0121 0.26127,1.396199 -0.14824,0.0132 q -0.14392,-0.497694 -0.42632,-0.802515 -0.35021,-0.367265 -0.79493,-0.327671 -0.27178,0.0242 -0.46694,0.209666 -0.23455,0.232556 -0.2043,0.572277 0.039,0.438548 0.61381,0.810724 0.53221,0.313707 1.07115,0.633041 0.59825,0.426116 0.67918,0.98545 z m 1.41189,-0.777159 -0.0402,-0.761683 0.76169,-0.04022 0.0402,0.761683 z m 2.93307,-2.745745 z m 2.12809,0.789294 -0.13641,0.0023 q -0.0886,-0.476076 -0.24556,-0.591291 -0.15708,-0.121414 -0.6717,-0.112811 l -0.90525,0.01513 q -0.14261,0.0024 -0.19117,0.06522 -0.0424,0.06273 -0.0399,0.211536 l 0.0264,1.581078 1.00445,-0.01679 q 0.36582,-0.0061 0.48145,-0.138292 0.0849,-0.113057 0.12129,-0.535403 l 0.15501,-0.0026 0.0258,1.543876 -0.15501,0.0026 q -0.057,-0.439392 -0.15803,-0.549339 -0.10707,-0.09744 -0.46668,-0.09143 l -1.00456,0.01059 0.0253,1.512875 q 0.006,0.372018 0.1635,0.505833 0.11947,0.09724 0.4734,0.122329 l 0.002,0.124006 -1.63068,0.02726 -0.002,-0.124006 q 0.3652,-0.04332 0.48703,-0.175598 0.12183,-0.132279 0.11468,-0.5601 l -0.0492,-2.945145 q -0.007,-0.39682 -0.17012,-0.530531 -0.10056,-0.07895 -0.45449,-0.104039 l -0.002,-0.124006 3.16835,-0.05297 z m 1.99006,3.669346 -1.77335,-0.02554 0.002,-0.124011 q 0.4095,-0.01271 0.55408,-0.147067 0.15077,-0.134269 0.15613,-0.5063 l 0.0429,-2.976254 q 0.006,-0.384433 -0.14743,-0.529277 -0.13471,-0.119775 -0.54359,-0.150469 l 0.002,-0.124011 1.77335,0.02553 -0.002,0.124011 q -0.3785,0.01316 -0.52263,0.11651 -0.18816,0.146135 -0.19387,0.542968 l -0.0429,2.976254 q -0.006,0.390634 0.17834,0.535924 0.14092,0.119864 0.51897,0.137711 z m 4.526,-4.251642 q -0.37444,0.03666 -0.48704,0.173696 -0.13244,0.160853 -0.15978,0.693452 l -0.0922,1.795975 q -0.0385,0.749355 -0.23714,1.111715 -0.36479,0.695347 -1.35567,0.644477 -0.94134,-0.04833 -1.21411,-0.782612 -0.12464,-0.354122 -0.09,-1.029161 l 0.11,-2.142783 q 0.0197,-0.383967 -0.10986,-0.521015 -0.10638,-0.104811 -0.48257,-0.15517 l 0.006,-0.123861 1.65354,0.08489 -0.006,0.12386 q -0.38588,0.01745 -0.50276,0.117005 -0.14911,0.122741 -0.16819,0.494322 l -0.11286,2.19852 q -0.0763,1.486324 1.09417,1.546414 0.65646,0.0337 1.00966,-0.556682 0.15579,-0.252794 0.19203,-0.958798 l 0.0954,-1.857905 q 0.0286,-0.557371 -0.0625,-0.717284 -0.0849,-0.159594 -0.41159,-0.20741 l 0.006,-0.12386 1.3315,0.06836 z m 4.50013,0.448556 q -0.33138,0.0098 -0.42102,0.09415 -0.13296,0.142261 -0.19091,0.709818 l -0.37098,3.633601 -0.0123,-0.0013 -2.39653,-4.184195 -0.0617,-0.0063 -0.2828,2.769927 q -0.0548,0.536712 0.062,0.735642 0.11003,0.204469 0.45235,0.270586 l -0.0126,0.123382 -1.34487,-0.137307 0.0126,-0.123382 q 0.39923,-0.0029 0.52011,-0.271035 0.0483,-0.107265 0.10063,-0.619301 l 0.30926,-3.029029 q -0.12966,-0.256341 -0.22887,-0.32257 -0.0585,-0.03714 -0.26149,-0.0641 l 0.0126,-0.123382 0.85134,0.08692 2.18492,3.875851 0.26894,-2.634206 q 0.0567,-0.555219 -0.0805,-0.737531 -0.0942,-0.115582 -0.455,-0.183589 l 0.0126,-0.123382 1.34486,0.137307 z m 3.62295,1.549472 -0.13493,-0.02016 q -0.0129,-0.585039 -0.19053,-0.780878 -0.16108,-0.180823 -0.68239,-0.258728 l -0.35572,-0.05316 -0.52334,3.501981 q -0.0541,0.36185 0.0579,0.535341 0.11998,0.162141 0.49656,0.243498 l -0.0183,0.122662 -1.68659,-0.252048 0.0183,-0.122662 q 0.3971,0.02799 0.55769,-0.123569 0.13239,-0.130695 0.19471,-0.547744 l 0.51052,-3.416117 -0.36799,-0.05499 q -0.51518,-0.07699 -0.73005,0.06019 -0.21304,0.124914 -0.40254,0.679708 l -0.14106,-0.02108 0.20086,-1.09232 3.32412,0.496764 z m 0.95129,1.830295 0.14129,-0.749544 0.74954,0.141287 -0.14128,0.749544 z m 6.04678,0.816213 q -0.2728,-0.03151 -0.35046,0.0014 -0.16278,0.07043 -0.23991,0.40266 l -0.31835,1.371195 q -0.0224,0.09665 -0.49523,0.158766 -0.52067,0.07646 -0.94351,-0.02171 -1.08125,-0.251036 -1.47753,-1.094242 -0.34159,-0.722286 -0.0962,-1.779375 0.20615,-0.887954 0.88918,-1.416914 0.73189,-0.57491 1.61381,-0.370154 0.35639,0.08274 0.64568,0.289964 0.2921,0.195139 0.33438,0.204956 0.18122,0.04207 0.30657,-0.196201 l 0.15705,0.03646 -0.26723,1.370333 -0.13893,-0.03226 q -0.0518,-0.572235 -0.19219,-0.872217 -0.23827,-0.481848 -0.80003,-0.612274 -0.57989,-0.134634 -1.13671,0.207181 -0.75033,0.462404 -1.0196,1.622181 -0.21738,0.936278 0.17211,1.644219 0.3663,0.670727 1.0972,0.840421 0.33222,0.07713 0.65442,0.0055 0.31616,-0.07302 0.36104,-0.266314 l 0.25525,-1.099371 q 0.0926,-0.398674 -0.0211,-0.539659 -0.0599,-0.07119 -0.42736,-0.188347 l 0.0252,-0.108729 1.43764,0.333779 z m 3.31371,3.342801 -0.82321,-0.233773 -0.82257,-2.483372 -0.50786,-0.118435 -0.36252,1.276575 q -0.1,0.351953 -0.009,0.532388 0.0863,0.172777 0.42383,0.300856 l -0.0339,0.119306 -1.55098,-0.440442 0.0339,-0.119306 q 0.35615,0.06246 0.51354,-0.06045 0.15569,-0.116946 0.27088,-0.522587 l 0.77586,-2.73211 q 0.10672,-0.375814 0.0161,-0.556249 -0.0735,-0.149799 -0.39739,-0.280455 l 0.0339,-0.119306 1.58677,0.450606 q 0.55477,0.157543 0.85848,0.450073 0.4496,0.437102 0.25818,1.111181 -0.16093,0.566704 -0.66408,0.726799 -0.28436,0.0933 -0.75547,0.04977 l 0.69679,2.131782 q 0.0668,0.218804 0.49298,0.397849 z m -0.15052,-3.556013 q 0.17617,-0.620392 -0.31334,-0.985026 -0.27293,-0.219325 -0.69131,-0.312351 -0.242,-0.05583 -0.31013,-0.04294 -0.11238,0.03255 -0.1649,0.217473 l -0.46415,1.634494 q 0.71156,0.195622 1.07353,0.169486 0.68904,-0.04284 0.8703,-0.681133 z m 4.17278,4.905593 -1.39262,-0.469636 0.0396,-0.117521 q 0.23313,0.06553 0.33904,0.06198 0.1687,-0.0151 0.23013,-0.197254 0.0495,-0.146901 0.0428,-0.456762 l -0.0154,-0.653065 -1.64529,-0.554844 -0.54547,0.647178 q -0.0866,0.101668 -0.13419,0.242693 -0.0634,0.188033 0.0578,0.294351 0.0528,0.05705 0.23094,0.130235 l -0.0396,0.117521 -1.07531,-0.36263 0.0396,-0.117521 q 0.0803,0.01401 0.16268,0.02214 0.0765,0.0062 0.16884,-0.05432 0.23587,-0.156053 0.74204,-0.783759 l 2.27485,-2.825665 0.0235,0.0079 0.14224,4.177417 q 0.0104,0.396158 0.12154,0.571076 0.0644,0.100236 0.27187,0.202935 z m -0.75947,-2.075433 -0.0131,-2.406187 -1.50288,1.894938 z m 5.45948,1.484282 q -0.31855,0.807608 -0.96842,1.204554 -0.85658,0.515395 -1.993,0.06714 l -1.5806,-0.62346 0.0455,-0.115372 q 0.35172,0.105405 0.51033,0.04131 0.16088,-0.06986 0.29513,-0.410214 l 1.11267,-2.82086 q 0.14107,-0.357655 0.0654,-0.520811 -0.0617,-0.130979 -0.39989,-0.304391 l 0.0455,-0.115372 1.49985,0.591604 q 1.03258,0.407296 1.39206,1.169043 0.38727,0.792706 -0.0246,1.836828 z m -0.45799,-0.173988 q 0.37771,-0.957593 0.0609,-1.709181 -0.24591,-0.610288 -1.3131,-1.031237 -0.20767,-0.08191 -0.29949,-0.01814 -0.0551,0.03826 -0.1188,0.199787 l -1.28105,3.247738 q -0.0774,0.196134 -0.0101,0.295995 0.051,0.07345 0.26446,0.157644 1.94403,0.766809 2.69719,-1.142607 z m 5.44589,0.02546 q -0.20224,-0.06457 -0.31974,-0.01576 -0.12571,0.05189 -0.40631,0.339937 l -2.90544,2.964649 0.26394,-4.061688 q 0.0239,-0.472681 -0.0609,-0.66099 -0.0601,-0.12263 -0.27571,-0.247753 l 0.0513,-0.11293 1.40034,0.635728 -0.0513,0.112931 q -0.28129,-0.100458 -0.37572,-0.102467 -0.14729,-0.0056 -0.21394,0.141234 -0.0436,0.09599 -0.0925,0.788851 l -0.18657,2.721141 2.08522,-2.117978 q 0.22981,-0.236185 0.30415,-0.399935 0.0846,-0.186336 -0.0166,-0.29355 -0.0349,-0.04309 -0.27311,-0.17847 l 0.0513,-0.112931 1.07284,0.48705 z m 4.0133,2.05745 q -0.19872,-0.07469 -0.31854,-0.03187 -0.12817,0.04549 -0.42293,0.319014 l -3.05126,2.814352 0.46844,-4.043209 q 0.0477,-0.470874 -0.0275,-0.663218 -0.0538,-0.125505 -0.26286,-0.261342 l 0.0569,-0.110202 1.3665,0.705541 -0.0569,0.110201 q -0.27587,-0.114516 -0.37008,-0.121284 -0.14682,-0.013 -0.22079,0.130264 -0.0484,0.09367 -0.13219,0.783182 l -0.32355,2.70827 2.18937,-2.010124 q 0.24143,-0.224295 0.32393,-0.384087 0.0939,-0.181833 -0.002,-0.294012 -0.0327,-0.0448 -0.26377,-0.192016 l 0.0569,-0.110202 1.04692,0.540535 z m 2.50709,6.614083 -1.39406,-0.822278 0.063,-0.106825 q 0.34157,0.165474 0.51455,0.116318 0.17614,-0.0545 0.39352,-0.423044 l 1.71387,-2.90564 -0.0723,5.43e-4 -3.5153,2.786215 -0.0427,-0.0252 0.76141,-4.403377 -0.0311,-0.03274 -1.6288,2.761426 q -0.26779,0.454006 -0.23001,0.670681 0.0268,0.174216 0.32087,0.383651 l -0.063,0.106825 -1.16439,-0.686807 0.063,-0.106825 q 0.33404,0.153832 0.47498,0.08577 0.14408,-0.0734 0.42763,-0.554113 l 1.44607,-2.451633 q 0.21109,-0.357863 0.18987,-0.492772 -0.0263,-0.1019 -0.33197,-0.303803 l 0.0599,-0.101484 0.91869,0.541885 -0.71441,4.00633 3.19275,-2.544503 0.96677,0.570239 -0.0599,0.101484 q -0.31487,-0.149721 -0.43498,-0.141375 -0.20722,0.02176 -0.40571,0.35826 l -1.55949,2.643918 q -0.19218,0.325816 -0.11728,0.528387 0.0489,0.136828 0.32156,0.33366 z m 1.98257,-0.864822 0.41837,-0.637761 0.63776,0.418377 -0.41837,0.637761 z m 3.53786,3.269292 q -0.28329,0.399671 -0.71978,0.500732 -0.51788,0.119378 -1.01367,-0.232056 -0.21754,-0.1542 -0.36842,-0.41317 -0.153,-0.245264 -0.19853,-0.277539 -0.17201,-0.121926 -0.32493,0.05092 l -0.1113,-0.07889 0.66226,-1.256002 0.11636,0.08248 q -0.41302,1.204638 0.2902,1.703101 0.29848,0.211578 0.66158,0.149709 0.34075,-0.06251 0.52005,-0.315464 0.18648,-0.263074 0.17456,-0.567962 -0.0229,-0.343054 -0.30241,-1.096079 -0.23363,-0.614061 -0.25464,-0.841782 -0.0585,-0.421501 0.20331,-0.790817 0.31557,-0.445202 0.7666,-0.513156 0.41138,-0.06565 0.77058,0.188963 0.16695,0.11834 0.34671,0.39018 0.1747,0.268254 0.21012,0.293357 0.0961,0.06814 0.16656,0.01165 0.0531,-0.05354 0.11136,-0.103488 l 0.1113,0.07889 -0.70632,1.232373 -0.12142,-0.08607 q 0.21311,-0.472224 0.19575,-0.887386 -0.0285,-0.506673 -0.39276,-0.764869 -0.2226,-0.157787 -0.49144,-0.143117 -0.32935,0.02498 -0.52658,0.303233 -0.25461,0.359198 -0.0583,1.015205 0.2018,0.5839 0.40507,1.176445 0.17919,0.712298 -0.12185,1.190608 z m 5.661,0.172342 q -0.18163,-0.10991 -0.30727,-0.08982 -0.13434,0.02118 -0.47432,0.235921 l -3.5162,2.206152 1.20297,-3.888422 q 0.13337,-0.454105 0.0948,-0.656981 -0.0299,-0.133258 -0.2104,-0.305171 l 0.0762,-0.09788 1.2137,0.944487 -0.0762,0.09788 q -0.25014,-0.163228 -0.34151,-0.187182 -0.14194,-0.03974 -0.24096,0.0875 -0.0647,0.0832 -0.27376,0.745587 l -0.8154,2.602793 2.52128,-1.573878 q 0.27851,-0.176145 0.38895,-0.318069 0.12568,-0.161499 0.0523,-0.28933 -0.0239,-0.05004 -0.22402,-0.237189 l 0.0762,-0.09788 0.92985,0.723599 z m 0.74211,5.483166 q -0.25705,0.08981 -0.6505,0.06242 -0.6416,-0.05258 -1.13545,-0.476942 -0.62083,-0.533477 -0.67907,-1.303017 -0.0682,-0.900712 0.7078,-1.803742 0.71535,-0.832482 1.63156,-0.928204 0.83347,-0.08506 1.46371,0.456497 0.24928,0.214199 0.45402,0.537306 0.20475,0.323107 0.21416,0.33119 0.12228,0.105079 0.30202,-0.01846 l 0.13037,0.09567 -0.93637,1.165823 -0.10685,-0.07547 q 0.62699,-1.186384 -0.14905,-1.85323 -0.22105,-0.18995 -0.52022,-0.308028 -0.33885,-0.119471 -0.61802,-0.08955 -0.76623,0.101961 -1.53477,0.986841 -0.68368,0.78611 -0.63088,1.600036 0.0435,0.691499 0.5609,1.136063 0.57851,0.497103 1.51294,0.35163 z m 2.91556,2.738593 q -0.26096,0.07772 -0.6527,0.032 -0.63845,-0.08246 -1.11196,-0.529397 -0.59527,-0.561861 -0.61754,-1.33328 -0.0261,-0.902911 0.79118,-1.768756 0.75341,-0.7982 1.67309,-0.851072 0.83653,-0.04609 1.44082,0.524289 0.23901,0.225596 0.42846,0.557904 0.18945,0.332308 0.19847,0.340821 0.11725,0.110669 0.30256,-0.0043 l 0.12576,0.101651 -0.98975,1.120867 -0.10321,-0.08037 q 0.68166,-1.15584 -0.0624,-1.858166 -0.21195,-0.200057 -0.50528,-0.331963 -0.33291,-0.13515 -0.61317,-0.118286 -0.77016,0.0661 -1.57915,0.914161 -0.7196,0.753358 -0.70483,1.568861 0.0112,0.692777 0.50728,1.160994 0.55468,0.523553 1.49489,0.421834 z m 3.58999,-1.605052 z m -0.71781,4.062698 -0.98292,0.589614 -2.24804,-2.320442 0.0891,-0.0863 q 0.25527,0.218932 0.40406,0.238832 0.21017,0.02087 0.48185,-0.242334 l 2.17792,-2.109965 q 0.28505,-0.276151 0.26639,-0.482562 -0.011,-0.136123 -0.23036,-0.407111 l 0.0891,-0.0863 2.21352,2.284811 -0.65513,0.66059 -0.0906,-0.09353 q 0.29116,-0.38569 0.2636,-0.583472 -0.0231,-0.202096 -0.38987,-0.580671 l -0.62134,-0.641351 q -0.1165,-0.120253 -0.13835,-0.124985 -0.0654,-0.02296 -0.20349,0.110797 l -1.14463,1.108918 0.70763,0.730427 q 0.27615,0.285045 0.46475,0.283648 0.15352,-0.002 0.47295,-0.233704 l 0.0906,0.09353 -1.109,1.0744 -0.0906,-0.09353 q 0.26403,-0.333494 0.26222,-0.495784 -0.002,-0.171059 -0.27351,-0.45165 l -0.70764,-0.730427 -1.23816,1.19953 q -0.16034,0.155335 -0.0927,0.314283 0.0722,0.145864 0.56845,0.658054 0.40128,0.414206 0.72043,0.476274 0.31916,0.06207 0.8532,-0.153125 z m 2.05514,2.263099 q -0.36547,0.326231 -0.8135,0.327167 -0.53146,5.95e-4 -0.93615,-0.452772 -0.17757,-0.198927 -0.26675,-0.485069 -0.0943,-0.273258 -0.13146,-0.314894 -0.1404,-0.15729 -0.32809,-0.023 l -0.0908,-0.101777 0.92626,-1.076184 0.095,0.106403 q -0.67185,1.081832 -0.0978,1.724873 0.24365,0.272946 0.61138,0.293807 0.3461,0.01524 0.57741,-0.191234 0.24057,-0.214735 0.2971,-0.514571 0.0544,-0.339486 -0.0497,-1.135943 -0.0905,-0.650747 -0.06,-0.877401 0.0372,-0.423907 0.37494,-0.725361 0.40711,-0.363397 0.86191,-0.328813 0.41564,0.02797 0.70884,0.35643 0.13627,0.152664 0.25072,0.457809 0.11032,0.300518 0.13922,0.332901 0.0785,0.0879 0.15975,0.04859 0.0638,-0.0403 0.13168,-0.07598 l 0.0909,0.101777 -0.96393,1.043304 -0.0991,-0.111029 q 0.31328,-0.412639 0.38916,-0.821177 0.0855,-0.500224 -0.21185,-0.83331 -0.1817,-0.203553 -0.44701,-0.249347 -0.3266,-0.04927 -0.58104,0.177852 -0.32846,0.293195 -0.28378,0.976481 0.0662,0.614233 0.13185,1.237223 0.0154,0.734329 -0.3849,1.133246 z m 2.14258,2.572077 q -0.37788,0.311773 -0.82561,0.295288 -0.53108,-0.02007 -0.91783,-0.488831 -0.1697,-0.20568 -0.24768,-0.495074 -0.0836,-0.276718 -0.11912,-0.319767 -0.13418,-0.162631 -0.32695,-0.03574 l -0.0868,-0.105232 0.9674,-1.039354 0.0908,0.110016 q -0.7134,1.05489 -0.16484,1.719764 0.23284,0.282213 0.59949,0.317357 0.34525,0.02869 0.58441,-0.168637 0.24873,-0.205219 0.31688,-0.50263 0.0676,-0.337114 -0.006,-1.137018 -0.0651,-0.653772 -0.0259,-0.879072 0.0537,-0.422139 0.40286,-0.710233 0.42093,-0.347293 0.87404,-0.295051 0.41425,0.04411 0.69445,0.383723 0.13023,0.157848 0.23273,0.467212 0.0985,0.30458 0.12617,0.338063 0.075,0.09088 0.15774,0.05476 0.0653,-0.03779 0.13453,-0.0708 l 0.0868,0.105231 -1.00376,1.005035 -0.0947,-0.114799 q 0.32908,-0.400145 0.42079,-0.805424 0.10485,-0.496523 -0.17929,-0.840918 -0.17365,-0.210464 -0.43698,-0.266539 -0.32444,-0.06193 -0.58752,0.155124 -0.33961,0.280202 -0.32153,0.964709 0.0422,0.616341 0.0836,1.241413 -0.0131,0.734375 -0.42867,1.117423 z m 5.41936,1.645356 q -0.14661,-0.153545 -0.27313,-0.166977 -0.13521,-0.01466 -0.51949,0.103804 l -3.97046,1.210876 2.17709,-3.439076 q 0.24738,-0.403489 0.26316,-0.609394 0.006,-0.136436 -0.12337,-0.349541 l 0.0991,-0.07458 0.92478,1.228776 -0.0991,0.07458 q -0.19881,-0.222912 -0.28074,-0.269904 -0.12663,-0.07544 -0.25545,0.02151 -0.0842,0.06339 -0.45905,0.648167 l -1.46709,2.299358 2.84491,-0.860497 q 0.31485,-0.09726 0.45854,-0.205402 0.16351,-0.123055 0.12606,-0.26562 -0.01,-0.05455 -0.15426,-0.287478 l 0.0991,-0.07458 0.7085,0.9414 z m -0.88735,4.564764 q -0.40419,0.276813 -0.84866,0.220443 -0.52717,-0.06738 -0.87056,-0.568776 -0.15067,-0.220002 -0.20252,-0.5152 -0.0586,-0.283073 -0.0901,-0.32912 -0.11914,-0.173955 -0.32246,-0.06477 l -0.0771,-0.112559 1.05628,-0.94889 0.0806,0.117675 q -0.80468,0.987028 -0.31763,1.698197 0.20673,0.301863 0.56878,0.369582 0.34131,0.05938 0.59713,-0.11582 0.26605,-0.182206 0.36046,-0.47235 0.0974,-0.329742 0.0959,-1.132978 -0.006,-0.65697 0.0527,-0.877873 0.0911,-0.415666 0.46462,-0.671455 0.45024,-0.308349 0.89688,-0.215886 0.40866,0.0809 0.65744,0.444156 0.11563,0.168839 0.19012,0.486114 0.071,0.312159 0.0955,0.347973 0.0666,0.09721 0.15222,0.06862 0.0684,-0.03181 0.14031,-0.05851 l 0.0771,0.112559 -1.08943,0.911463 -0.0841,-0.122792 q 0.36348,-0.369186 0.49098,-0.764665 0.14874,-0.485187 -0.10354,-0.853562 -0.15418,-0.225118 -0.41145,-0.304466 -0.31762,-0.09063 -0.59902,0.102083 -0.36326,0.248782 -0.40632,0.932172 -0.0129,0.617652 -0.0275,1.243924 -0.0786,0.730274 -0.52666,1.074717 z m 2.25899,2.272662 0.65219,-0.395495 0.3955,0.652198 -0.6522,0.395495 z"
       id="text1873"
       style="font-size:6.35px;line-height:0;font-family:PMingLiU-ExtB;-inkscape-font-specification:PMingLiU-ExtB;stroke:#000000;stroke-width:0.638;stroke-linecap:round;stroke-linejoin:bevel;stroke-miterlimit:0"
       transform="matrix(0.97054517,0,0,0.98383257,3.9010109,1.5057481)"
       aria-label="SALVEADMVNDVMMEVMCREANDIETEVOLVENDIVBICONSILIVMFITVERITASETVISIOOMNIASVPERATARSETCREATIVITASFIUNTGRADVVMSVCCESSVS  " /></g></svg>
